<svg width="368" height="641" viewBox="0 0 368 641" fill="none" xmlns="http://www.w3.org/2000/svg">
<path d="M13.1592 14.519C14.5399 14.519 15.6592 13.3998 15.6592 12.019C15.6592 10.6383 14.5399 9.51904 13.1592 9.51904C11.7785 9.51904 10.6592 10.6383 10.6592 12.019C10.6592 13.3998 11.7785 14.519 13.1592 14.519Z" fill="#B59D66"/>
<path d="M13.1592 630.692C14.5399 630.692 15.6592 629.572 15.6592 628.192C15.6592 626.811 14.5399 625.692 13.1592 625.692C11.7785 625.692 10.6592 626.811 10.6592 628.192C10.6592 629.572 11.7785 630.692 13.1592 630.692Z" fill="#B59D66"/>
<path d="M355.099 14.519C356.48 14.519 357.599 13.3998 357.599 12.019C357.599 10.6383 356.48 9.51904 355.099 9.51904C353.718 9.51904 352.599 10.6383 352.599 12.019C352.599 13.3998 353.718 14.519 355.099 14.519Z" fill="#B59D66"/>
<path d="M355.099 630.692C356.48 630.692 357.599 629.572 357.599 628.192C357.599 626.811 356.48 625.692 355.099 625.692C353.718 625.692 352.599 626.811 352.599 628.192C352.599 629.572 353.718 630.692 355.099 630.692Z" fill="#B59D66"/>
<path d="M262.142 12.3662H93.8456H25.3184M12.3069 22.2921V618.647M25.1479 628.573H341.884C341.884 623.098 346.566 618.647 353.555 618.647M354.668 618.647V22.2921C347.68 22.2921 341.998 17.841 341.998 12.3662H262.029M12.591 22.2921C19.5797 22.2921 25.2616 17.841 25.2616 12.3662M12.4205 618.647C19.4092 618.647 25.0911 623.098 25.0911 628.573M366.299 1.00002L1 1V639.345L366.299 639.345V1.00002Z" stroke="#B59F5C" stroke-width="1.70456" stroke-miterlimit="10" stroke-linecap="round" stroke-linejoin="round"/>
</svg>
