<svg width="103" height="81" viewBox="0 0 103 81" fill="none" xmlns="http://www.w3.org/2000/svg">
<path d="M101.937 79.9211C102.186 79.5298 101.474 78.1422 101.332 77.7508C100.549 75.5449 99.5176 73.6237 98.1656 71.7024C92.7932 64.1242 84.1832 60.0326 74.8615 60.7797C70.4498 61.1355 65.4687 62.2741 62.0532 65.2627C60.8791 66.2945 59.7406 67.4686 58.6732 68.6071C58.3174 68.9984 57.9616 69.4254 57.6058 69.8168C57.4991 69.9591 57.3924 70.1014 57.2856 70.2437C57.25 70.2793 57.1077 70.4572 57.1077 70.4216M56.2538 53.5928C56.3606 52.7034 55.8981 51.5648 55.649 50.7465C55.0086 48.6118 54.1903 46.4415 53.2652 44.3779C51.6998 40.8201 49.565 36.8708 46.7187 34.1668C42.0935 29.7906 35.5826 27.7982 29.3207 27.8694C27.0081 27.905 24.8378 28.0117 22.6675 28.8656M80.1272 61.3134C80.0916 61.4557 80.056 61.0288 79.9849 60.8865C79.8781 60.5307 79.7358 60.2105 79.5935 59.8903C79.2733 58.9297 79.0243 57.969 78.704 57.0084C77.7434 54.1621 76.3914 51.5648 74.6125 49.1455C70.094 42.9192 62.8003 38.5786 55.1509 37.5468C53.7277 37.3689 50.9882 36.515 49.4939 37.1199M31.918 42.2432C31.2775 39.3613 30.139 36.266 28.3601 33.8822C24.2685 28.5098 16.9037 24.9519 10.3572 23.7422C8.00902 23.3153 5.73198 22.9239 3.3482 23.0662C2.8501 23.1018 2.06736 22.9239 1.60484 23.1018M19.1096 26.3751C18.8605 26.2683 18.7182 24.8096 18.6471 24.5606C18.1845 22.7105 17.8288 20.8604 17.3307 19.0103C15.4806 12.4993 11.5669 7.73179 6.23008 3.74697C5.05598 2.8575 3.66841 2.11035 2.31641 1.50551C2.10294 1.39877 1.21347 0.936247 1 1.0074M46.185 61.3846C45.9716 61.2067 45.9004 59.7835 45.8293 59.4989C45.4023 57.8623 44.9754 56.2612 44.3705 54.6958C42.7695 50.5686 39.2828 46.6906 35.2624 44.7693C30.1746 42.3144 25.407 42.6346 20.5683 45.303C19.1808 46.0857 18.2557 47.0463 17.2951 48.2916C17.1883 48.4339 16.5123 49.1811 16.5479 49.3945" stroke="#BD9F57" stroke-width="1.06736" stroke-miterlimit="10" stroke-linecap="round" stroke-linejoin="round"/>
<path d="M100.265 76.2209C98.8772 76.3988 97.3118 76.1498 95.853 76.3632C95.3549 76.4344 94.8924 76.5056 94.4299 76.6479C94.2876 76.6835 94.1097 76.719 93.9674 76.7546C93.8962 76.7902 93.6472 76.8258 93.7183 76.7902L100.265 76.2209ZM98.2012 73.2323C97.2762 72.6986 95.2482 73.1967 94.252 73.4814C94.0385 73.5525 93.2558 74.015 93.0423 73.9439L98.2012 73.2323ZM90.6941 74.9045C90.8009 75.0824 90.3027 75.0824 90.0893 75.1891C89.8046 75.367 89.4133 75.7228 89.0931 75.794L90.6941 74.9045ZM95.1415 69.3898C95.177 69.4254 95.0347 69.3898 94.9636 69.3898C94.8213 69.3898 94.6789 69.3898 94.5366 69.4254C94.1453 69.461 93.7539 69.5321 93.3625 69.6389C92.2952 69.8523 90.9432 70.2437 89.9825 70.813L95.1415 69.3898ZM87.2074 71.9871C86.8872 71.9871 86.3535 72.4496 86.1045 72.6275C85.0015 73.3746 84.0765 74.4776 82.9735 75.1891L87.2074 71.9871ZM92.8288 66.8993C92.8288 66.8637 91.548 67.2195 91.4768 67.2195C90.2672 67.6109 88.6305 68.0734 87.6343 68.9273L92.8288 66.8993ZM85.5708 69.9591C85.5708 70.0302 84.8948 70.3504 84.8236 70.4216C84.0409 70.9909 83.3649 71.6313 82.5822 72.165L85.5708 69.9591ZM88.9508 64.6578C88.2392 64.978 87.4564 65.1559 86.7805 65.4761C85.7131 65.9742 84.8236 66.6502 83.8986 67.3262C83.5072 67.6109 83.0803 67.8955 82.7245 68.2513C82.6889 68.2869 82.3687 68.6071 82.3331 68.6071L88.9508 64.6578ZM85.9977 62.3452C85.6419 62.274 84.8236 62.8077 84.539 62.9856C83.5072 63.5905 82.5822 64.4088 81.7283 65.2627C81.4081 65.5829 80.8744 65.9742 80.6965 66.4012L85.9977 62.3452ZM79.131 68.4292C79.131 68.2869 78.9887 68.6426 78.882 68.7494C78.7396 68.9629 78.5973 69.1763 78.455 69.3542C78.1348 69.8523 77.3876 70.4927 77.2809 71.062L79.131 68.4292ZM80.4474 61.4202C79.5224 62.3452 78.7396 63.3414 78.0637 64.4799C77.8858 64.7646 77.7434 65.0848 77.6367 65.405C77.6011 65.4406 77.53 65.7252 77.4588 65.7608L80.4474 61.4202ZM77.3877 61.6336C75.9289 62.4164 75.3241 64.3376 74.5413 65.6185L77.3877 61.6336ZM74.4702 61.3846C74.5058 61.4557 74.3635 61.4913 74.2923 61.5269C74.1856 61.6336 74.1144 61.7404 74.0077 61.8471C73.723 62.2029 73.4384 62.5943 73.1538 62.9856C72.7268 63.5549 72.4066 64.1953 72.0508 64.8357C71.9797 64.978 71.8374 65.4406 71.695 65.5473L74.4702 61.3846ZM69.8094 68.5003C69.8094 68.4292 69.7382 68.6071 69.7382 68.6427C69.7026 68.7494 69.6315 68.8561 69.5959 68.9629C69.4536 69.2831 69.3824 69.6389 69.2757 69.9591C69.0622 70.7418 68.9199 71.5601 68.8132 72.3428C68.8132 72.4496 68.8132 73.0544 68.742 73.1256L69.8094 68.5003ZM78.5618 56.9728C77.53 56.2968 76.1068 56.1545 74.8616 56.1901C74.4702 56.1901 73.6875 56.4747 73.2961 56.2968L78.5618 56.9728ZM76.5693 53.4505C76.6405 53.4861 76.4626 53.3794 76.3914 53.3794C76.2847 53.3438 76.178 53.3082 76.0712 53.2726C75.751 53.2015 75.4308 53.2015 75.075 53.2015C74.1856 53.1659 72.8691 53.0947 72.0864 53.5572L76.5693 53.4505ZM70.2007 54.3044C70.3431 54.2332 69.9161 54.3756 69.7738 54.4467C69.4892 54.5535 69.2045 54.7313 68.9199 54.8737C68.1727 55.3006 67.4256 55.8343 66.6429 56.1901L70.2007 54.3044ZM75.6087 50.9244C75.6087 50.8177 74.6125 50.8888 74.5413 50.9244C73.4384 50.9956 72.2999 51.0667 71.2681 51.4937L75.6087 50.9244ZM67.9949 51.8495C68.0304 51.8139 67.8881 51.885 67.8525 51.885C67.7458 51.9206 67.6391 51.9562 67.5323 52.0274C67.2121 52.1697 66.8919 52.3476 66.5717 52.5255C65.8601 52.9168 65.1486 53.3082 64.4726 53.7707C64.3302 53.8419 63.9033 54.0554 63.8321 54.1977L67.9949 51.8495ZM72.9403 48.2916C71.446 48.1493 69.4892 48.3628 68.066 48.9676L72.9403 48.2916ZM66.5005 49.3945C66.0024 49.2878 65.0418 50.0349 64.6149 50.2484C64.5081 50.284 64.0812 50.6042 63.9745 50.5686L66.5005 49.3945ZM70.5209 45.4453C69.418 45.5165 68.2439 45.6232 67.2121 46.0857L70.5209 45.4453ZM65.0418 47.1531C65.1841 47.1886 64.7572 47.2954 64.6149 47.331C64.2947 47.4733 63.9745 47.6868 63.6898 47.9002C62.8359 48.5406 61.9465 49.1455 61.057 49.7503L65.0418 47.1531ZM66.038 43.0971C65.5755 43.0971 65.0774 43.3817 64.6504 43.524C63.7254 43.9154 62.8004 44.3424 61.9465 44.876C61.8041 44.9472 60.9147 45.303 60.9147 45.5164L66.038 43.0971ZM63.2629 41.496C63.2985 41.3537 62.9427 41.6028 62.8004 41.6384C62.4801 41.7451 62.1599 41.8518 61.8753 41.9586C61.0214 42.3144 60.2743 42.848 59.4915 43.3817C59.2781 43.524 59.0646 43.6664 58.8867 43.8087C58.78 43.8798 58.5309 44.1645 58.5309 44.0221L63.2629 41.496ZM61.3772 39.5392L60.8791 39.646C60.3454 39.8238 59.8117 40.0373 59.3136 40.2508C58.2818 40.7133 57.2856 41.4605 56.3962 42.2076C56.0404 42.4923 55.5067 42.848 55.2577 43.2394L61.3772 39.5392ZM56.5385 38.294C56.5385 38.3295 56.1827 38.4007 56.1471 38.4363C55.7913 38.5786 55.4355 38.7565 55.0798 39.0055C54.048 39.6815 52.9095 40.571 52.1979 41.5672L56.5385 38.294ZM54.973 51.0667C54.973 51.0667 54.5817 51.1023 54.5461 51.1023C54.2259 51.1379 53.9057 51.2091 53.5855 51.2802C52.8383 51.4225 51.3796 51.5648 50.8103 52.1697L54.973 51.0667ZM54.2259 47.6156C53.1229 48.2916 51.6286 48.5406 50.4545 49.1455L54.2259 47.6156ZM52.9806 45.7299C52.9806 45.7299 52.8027 45.7299 52.7671 45.7299C52.6248 45.7299 52.5181 45.7655 52.3758 45.7655C51.9488 45.8367 51.5575 45.979 51.1661 46.1569C50.0632 46.6194 49.0314 47.2242 48.0352 47.9002L52.9806 45.7299ZM51.2728 42.4567C51.2017 42.5278 50.7036 42.599 50.5968 42.6701L51.2728 42.4567ZM49.0314 43.3461C49.1025 43.4529 48.7467 43.4529 48.64 43.4885C48.3909 43.5952 48.1419 43.7375 47.8928 43.8442C47.1101 44.2712 46.1139 44.6626 45.4735 45.303L49.0314 43.3461ZM50.6324 40.2864C50.2766 40.3575 49.8853 40.571 49.565 40.7489L50.6324 40.2864ZM47.7505 41.4605C47.8928 41.5316 47.4659 41.5672 47.3236 41.6028C47.0034 41.7095 46.6832 41.8874 46.363 42.0653C45.5091 42.5278 44.7619 43.1327 43.9436 43.6308L47.7505 41.4605ZM48.8891 38.1872C48.6756 38.0449 48.1419 38.3651 47.964 38.4363L48.8891 38.1872ZM45.7937 39.7171C45.8649 39.7883 45.5802 39.7527 45.4735 39.7883C45.26 39.8594 45.0465 39.9662 44.8686 40.0729C44.2282 40.3931 43.659 40.8201 43.0541 41.1758L45.7937 39.7171ZM48.0352 36.4794C47.6794 36.266 46.8611 36.6929 46.5409 36.8352L48.0352 36.4794ZM44.0503 37.9382C43.9792 37.867 43.4811 38.1872 43.4099 38.2228C42.7695 38.5786 42.1291 38.8988 41.5242 39.3613L44.0503 37.9382ZM45.0821 34.3803C44.5129 34.5582 44.0148 34.8072 43.5167 35.1274L45.0821 34.3803ZM41.4887 36.5506C41.5954 36.5506 41.2752 36.6218 41.204 36.6929C40.9906 36.7997 40.7415 36.942 40.528 37.0843C39.8876 37.4756 39.2472 37.9382 38.6779 38.4007L41.4887 36.5506ZM43.2676 32.9927C42.8051 33.2062 42.3426 33.4197 41.9156 33.7043L43.2676 32.9927ZM39.3539 35.3409C39.3184 35.4121 38.6779 35.6256 38.6068 35.6967C37.9664 36.0525 37.2904 36.4794 36.7211 36.9775L39.3539 35.3409ZM40.4213 30.9292C39.9944 31.0003 39.4251 31.4273 39.1049 31.6763L40.4213 30.9292ZM36.9346 33.0995C37.0057 33.2062 36.6855 33.2418 36.5788 33.3129C36.3297 33.4908 36.0451 33.6687 35.7961 33.8466C35.0845 34.3091 33.946 34.9496 33.4834 35.6967L36.9346 33.0995ZM37.2904 30.3599C37.3971 30.3955 37.1125 30.4311 37.0057 30.4666C36.7923 30.5734 36.5788 30.6801 36.3653 30.7868C35.8316 31.107 35.2624 31.4273 34.7999 31.8542L37.2904 30.3599ZM32.5584 32.7081C32.6295 32.6369 32.3805 32.8504 32.3093 32.9216C32.1314 33.0283 31.9891 33.1706 31.8112 33.3129C31.3843 33.6687 30.9573 34.0245 30.4948 34.3803C30.4592 34.4159 30.1035 34.6293 30.1035 34.6649L32.5584 32.7081ZM33.6258 29.4704C33.5902 29.6127 32.5228 30.0397 32.3805 30.1464C31.7045 30.6445 31.0641 31.2494 30.4237 31.783C29.9967 32.1388 29.3919 32.5302 29.0717 33.0283L33.6258 29.4704ZM30.7083 28.5454C30.4237 28.4742 30.0323 28.8656 29.8544 29.0079C29.214 29.5416 28.5736 30.0397 28.0043 30.6089C27.8976 30.7157 26.8658 31.7475 26.9014 31.7475L30.7083 28.5454ZM27.9687 27.905C28.0755 27.9405 27.7908 28.0473 27.7197 28.1184C27.5418 28.2607 27.3639 28.4386 27.186 28.6165C26.7591 29.0791 26.0119 29.7551 25.7628 30.3599L27.9687 27.905ZM30.3881 39.9306C30.3525 39.8238 29.9611 39.895 29.89 39.895C29.3919 39.9662 28.8582 39.9662 28.3601 40.0729L30.3881 39.9306ZM25.585 40.9624C25.5494 40.9979 25.158 41.0335 25.0868 41.0691C24.5887 41.247 24.0906 41.4249 23.6281 41.6739L25.585 40.9624ZM20.9953 43.0259C20.0347 43.5596 19.0385 44.4491 18.2913 45.2674L20.9953 43.0259ZM29.6409 36.8708C29.6765 36.7641 29.3919 36.9064 29.2851 36.9064C29.0361 36.942 28.787 36.9775 28.5736 37.0131C27.9332 37.1199 27.1148 37.191 26.5812 37.5824L29.6409 36.8708ZM23.5925 38.543C22.8098 38.8632 21.8848 39.0411 21.1376 39.5392L23.5925 38.543ZM18.5759 41.1047C18.5759 41.1047 18.398 41.2114 18.3625 41.247C18.2201 41.3537 18.1134 41.4249 17.9711 41.5316C17.6153 41.8163 17.2595 42.1009 16.9037 42.3499L18.5759 41.1047ZM28.0755 34.2736C28.1822 34.2736 27.8264 34.3091 27.7197 34.3447C27.5062 34.3803 27.2927 34.4515 27.0437 34.5226C26.4033 34.7361 25.6917 34.8428 25.0868 35.0919L28.0755 34.2736ZM22.1694 36.3015C21.1376 36.4794 20.1414 37.4045 19.2164 37.9026L22.1694 36.3015ZM25.5494 32.459H25.1936C24.9445 32.4946 24.7311 32.5302 24.5176 32.5658C23.8416 32.7081 23.13 32.886 22.4896 33.135L25.5494 32.459ZM19.4654 34.4159C19.4654 34.3447 18.9317 34.5938 18.8961 34.6293C18.2913 34.914 17.6865 35.3053 17.1528 35.7323L19.4654 34.4159ZM14.9469 37.1554C14.3421 37.2978 13.6661 38.1161 13.168 38.5074L14.9469 37.1554ZM23.7349 30.2887C23.7349 30.2887 23.557 30.2532 23.4858 30.2887C23.3079 30.3243 23.13 30.3955 22.9165 30.4666C22.3473 30.6801 21.6357 30.8224 21.1376 31.1782L23.7349 30.2887ZM17.8288 33.135C17.1528 33.3485 16.5835 33.6687 15.9431 34.0245L17.8288 33.135ZM13.6661 35.4832C13.5593 35.4121 13.168 35.7323 13.1324 35.7679C12.6343 36.1237 12.1006 36.5506 11.6737 37.0131L13.6661 35.4832ZM21.0664 28.83C20.8174 28.7588 20.426 28.9723 20.2126 29.0791C19.6433 29.3281 19.0385 29.5416 18.4336 29.8262L21.0664 28.83ZM15.4094 31.2138L15.1604 31.2494C15.0181 31.2849 14.8757 31.3561 14.7334 31.4628C14.2709 31.7119 13.8795 32.0321 13.417 32.2811L15.4094 31.2138ZM11.6025 33.5264C11.2823 34.238 10.1793 34.6649 9.68124 35.2342L11.6025 33.5264ZM18.7538 27.1222C18.6471 27.0511 18.1134 27.4069 18.0423 27.4424C17.4018 27.7982 16.6547 28.0829 16.0498 28.5098L18.7538 27.1222ZM13.3103 29.9685C13.1324 30.0753 12.8122 30.0753 12.5987 30.182C12.1362 30.431 11.7092 30.7868 11.2823 31.107L13.3103 29.9685ZM9.64566 32.1388C9.61008 32.2456 9.25429 32.4235 9.18314 32.4946C8.72061 32.886 8.32925 33.3129 7.86672 33.6687L9.64566 32.1388ZM16.0498 26.3751C15.4806 26.4106 14.8046 26.9443 14.3421 27.1934C13.1324 27.905 11.9227 28.6877 10.8553 29.6127C10.6063 29.8262 10.2149 30.0041 10.037 30.2532L16.0498 26.3751ZM13.0612 25.4856C12.9901 25.3789 11.8515 25.9837 11.7804 26.0193C10.7486 26.553 9.78798 27.1934 8.86293 27.905C8.61388 28.0828 8.00904 28.4031 7.9023 28.6877L13.0612 25.4856ZM6.12336 29.9685C5.58968 30.0753 4.98484 30.858 4.5579 31.2138L6.12336 29.9685ZM10.2861 24.525C9.93029 24.5606 9.50335 24.9163 9.21872 25.0942C8.22251 25.6635 7.4042 26.4106 6.47915 27.0866L10.2861 24.525ZM4.52232 28.6165C4.45116 28.6165 4.34442 28.7588 4.30885 28.7944C4.13095 28.9723 3.98864 29.1502 3.81074 29.2925C3.2059 29.8974 2.42317 30.5734 2.0318 31.3205L4.52232 28.6165ZM6.94167 23.849C6.62147 23.9557 6.26568 24.1692 5.94547 24.3471C4.5579 25.0942 3.34822 26.2683 2.31643 27.4424C1.96065 27.8694 1.49812 28.2607 1.17791 28.7588L6.94167 23.849ZM3.56169 23.3865C3.59727 23.3865 3.49053 23.422 3.49053 23.4576C3.41938 23.4932 3.3838 23.5288 3.34822 23.5643C3.13475 23.7067 2.95685 23.8846 2.77896 24.0624C2.42317 24.4182 2.06738 24.8096 1.74717 25.201C1.60486 25.3789 1.35581 25.5568 1.28465 25.7702L3.56169 23.3865ZM44.335 56.8661C44.3705 56.7593 44.0503 57.0795 44.0148 57.1151C43.8013 57.293 43.5878 57.4353 43.3388 57.5777C42.5916 58.0402 41.9868 58.645 41.2752 59.1431L44.335 56.8661ZM43.4455 54.6602C43.5878 54.6246 43.232 54.8381 43.0897 54.9448C42.8762 55.1227 42.6628 55.3006 42.4849 55.4785C41.8445 56.0122 41.204 56.5103 40.6704 57.1507L43.4455 54.6602ZM42.0223 52.8813C41.6666 53.0947 41.3463 53.5928 41.0261 53.8775C40.3501 54.4823 39.2472 55.1583 38.7847 55.9766L42.0223 52.8813ZM40.3146 50.7109C39.176 52.0985 38.1443 53.664 36.65 54.7669L40.3146 50.7109ZM37.7529 47.2598C38.1087 48.3627 37.4327 49.7859 36.9346 50.7109L37.7529 47.2598ZM34.9066 45.8011C34.871 45.8367 34.9422 46.1213 34.9422 46.1569C34.9777 46.6194 35.0489 47.0819 35.0489 47.5444C35.1201 48.7185 34.9066 49.9282 34.7287 51.0667C34.6575 51.4581 34.6575 52.1697 34.3729 52.4899L34.9066 45.8011ZM32.167 44.7337C32.6295 45.8722 32.9498 47.4733 32.843 48.7541L32.167 44.7337ZM29.2496 44.1289C29.2851 44.1645 29.1428 44.2356 29.1428 44.2712C29.1428 44.4491 29.2496 44.6626 29.3207 44.8049C29.6765 45.552 29.9256 46.3703 30.139 47.1531C30.2458 47.5444 30.2458 48.0781 30.4592 48.3983L29.2496 44.1289ZM26.2609 44.0577C26.3321 43.951 26.4033 44.3068 26.4744 44.4135C26.6523 44.6981 26.7946 44.9828 26.9369 45.2674C27.2572 45.9434 27.435 46.6194 27.5774 47.2954C27.6129 47.5089 27.8264 47.8291 27.7908 48.0425L26.2609 44.0577ZM23.1656 44.6626C23.0589 44.9828 23.5925 45.6943 23.6993 45.9434C24.2685 47.0463 24.7311 48.1849 25.3003 49.2522L23.1656 44.6626ZM19.6789 46.7617C19.75 46.655 20.6039 47.331 20.6751 47.4021C21.6001 48.1849 22.454 49.1099 23.2723 49.9638L19.6789 46.7617ZM17.5441 48.9676C17.6153 48.8964 18.149 49.2166 18.1846 49.2522C18.7182 49.5013 19.4654 49.7859 19.8212 50.3196L17.5441 48.9676ZM14.9469 21.2517C14.4844 21.6075 13.7728 21.8566 13.2747 22.2124L14.9469 21.2517ZM13.8084 19.8642C13.7728 19.7574 13.2747 20.0776 13.2391 20.1132C12.741 20.3978 12.1718 20.8959 11.5669 20.9315L13.8084 19.8642ZM12.2073 18.1564C12.1362 18.2631 11.6381 18.441 11.5313 18.5122C10.9621 18.9391 10.464 19.4728 9.82356 19.8286C9.71682 19.8997 9.28987 20.1488 9.14756 20.0776L12.2073 18.1564ZM10.7842 16.413C10.1438 16.8755 9.50335 17.3736 8.82735 17.765C8.75619 17.8006 8.22251 18.2275 8.11577 18.1208L10.7842 16.413ZM9.53893 13.6379C9.53893 13.6379 8.72061 14.2783 8.68503 14.3139C7.83114 15.061 6.97725 16.3419 5.83873 16.6976L9.53893 13.6379ZM7.72441 12.2503C7.75999 12.1436 7.58209 12.4638 7.51093 12.5349C7.36862 12.7128 7.2263 12.8907 7.08399 13.0686C6.58589 13.6379 6.01663 14.2783 5.30505 14.5629L7.72441 12.2503ZM5.58968 12.0012C5.5541 11.9657 4.77137 12.784 4.73579 12.8196C4.38 13.1398 3.31264 13.5667 3.13475 13.9937L5.58968 12.0012ZM15.0892 15.6303C15.1604 15.5947 14.7334 15.6659 14.6623 15.7014C14.4132 15.8082 14.1642 15.9505 13.9151 16.0928L15.0892 15.6303ZM16.2277 17.516C16.3345 17.4804 16.0498 17.5515 15.9431 17.5871C15.8008 17.6227 15.4806 17.7294 15.4094 17.8717L16.2277 17.516ZM16.8326 19.5439C16.797 19.4016 16.37 19.5795 16.2633 19.6151L16.8326 19.5439ZM13.9863 12.6061C14.0574 12.3926 13.5593 12.8551 13.4526 13.0686C13.2035 13.4956 13.0612 14.1715 12.5631 14.385L13.9863 12.6061ZM11.5669 9.93768C11.7448 10.6848 11.5313 11.3964 11.2467 12.0724L11.5669 9.93768ZM10.1082 8.69242C9.93029 8.76358 10.0726 9.04821 10.037 9.2261C9.89471 9.7242 9.71682 10.2579 9.50335 10.7204L10.1082 8.69242ZM8.25809 6.66443C8.25809 6.48653 8.25809 7.05579 8.22251 7.23369C8.11577 7.58948 8.00904 7.94526 7.97346 8.30105C7.97346 8.44337 8.00904 8.83473 7.93788 8.728L8.25809 6.66443ZM5.80315 4.45854C5.98105 4.56528 5.83873 5.24128 5.83873 5.38359C5.732 6.23748 5.58968 7.41158 5.26947 8.19432L5.80315 4.45854ZM3.24148 3.8537C3.34822 3.96044 2.99243 4.92107 2.95685 5.06338C2.60106 6.2019 2.42317 7.48274 1.96065 8.5501L3.24148 3.8537ZM2.28085 1.46993C2.35201 1.39877 2.17412 1.64782 2.13854 1.71898C2.06738 1.93245 1.99622 2.1815 1.88949 2.43055C1.74717 3.03539 1.5337 3.60465 1.14233 4.13833L2.28085 1.46993ZM71.1258 62.2029C71.2325 62.3452 70.8767 62.4164 70.77 62.5587C70.5565 62.8077 70.3786 63.1279 70.1652 63.4126C69.6315 64.1953 69.2757 65.2271 68.742 65.9387L71.1258 62.2029ZM67.2477 62.9145C67.3189 63.0212 67.1054 63.0924 67.0698 63.1991C66.9275 63.4837 66.8208 63.8039 66.6784 64.0886C66.2515 65.1559 65.789 66.2589 65.6111 67.433L67.2477 62.9145ZM64.686 69.8879C64.6149 70.3504 64.3658 71.0264 64.4014 71.5245L64.686 69.8879ZM67.2121 68.9629C67.4256 69.1763 66.7852 70.2793 66.6784 70.5995L67.2121 68.9629ZM62.9782 65.8675C63.0138 66.2589 62.4446 67.0772 62.3378 67.433C61.8753 68.7138 61.1637 70.4572 61.4484 71.8447L62.9782 65.8675ZM59.2069 68.5715C59.2425 68.6782 59.1002 69.1052 59.0646 69.2119C58.9934 69.6389 58.9578 70.1014 59.029 70.5283" fill="url(#paint0_linear_6_6375)"/>
<path d="M59.2069 68.5715C59.2425 68.6782 59.1002 69.1052 59.0646 69.2119C58.9934 69.6389 58.9578 70.1014 59.029 70.5283M100.265 76.2209C98.8772 76.3988 97.3118 76.1498 95.853 76.3632C95.3549 76.4344 94.8924 76.5056 94.4299 76.6479C94.2876 76.6835 94.1097 76.719 93.9674 76.7546C93.8962 76.7902 93.6472 76.8258 93.7183 76.7902L100.265 76.2209ZM98.2012 73.2323C97.2762 72.6986 95.2482 73.1967 94.252 73.4814C94.0385 73.5525 93.2558 74.015 93.0423 73.9439L98.2012 73.2323ZM90.6941 74.9045C90.8009 75.0824 90.3027 75.0824 90.0893 75.1891C89.8046 75.367 89.4133 75.7228 89.0931 75.794L90.6941 74.9045ZM95.1415 69.3898C95.177 69.4254 95.0347 69.3898 94.9636 69.3898C94.8213 69.3898 94.6789 69.3898 94.5366 69.4254C94.1453 69.461 93.7539 69.5321 93.3625 69.6389C92.2952 69.8523 90.9432 70.2437 89.9825 70.813L95.1415 69.3898ZM87.2074 71.9871C86.8872 71.9871 86.3535 72.4496 86.1045 72.6275C85.0015 73.3746 84.0765 74.4776 82.9735 75.1891L87.2074 71.9871ZM92.8288 66.8993C92.8288 66.8637 91.548 67.2195 91.4768 67.2195C90.2672 67.6109 88.6305 68.0734 87.6343 68.9273L92.8288 66.8993ZM85.5708 69.9591C85.5708 70.0302 84.8948 70.3504 84.8236 70.4216C84.0409 70.9909 83.3649 71.6313 82.5822 72.165L85.5708 69.9591ZM88.9508 64.6578C88.2392 64.978 87.4564 65.1559 86.7805 65.4761C85.7131 65.9742 84.8236 66.6502 83.8986 67.3262C83.5072 67.6109 83.0803 67.8955 82.7245 68.2513C82.6889 68.2869 82.3687 68.6071 82.3331 68.6071L88.9508 64.6578ZM85.9977 62.3452C85.6419 62.274 84.8236 62.8077 84.539 62.9856C83.5072 63.5905 82.5822 64.4088 81.7283 65.2627C81.4081 65.5829 80.8744 65.9742 80.6965 66.4012L85.9977 62.3452ZM79.131 68.4292C79.131 68.2869 78.9887 68.6426 78.882 68.7494C78.7396 68.9629 78.5973 69.1763 78.455 69.3542C78.1348 69.8523 77.3876 70.4927 77.2809 71.062L79.131 68.4292ZM80.4474 61.4202C79.5224 62.3452 78.7396 63.3414 78.0637 64.4799C77.8858 64.7646 77.7434 65.0848 77.6367 65.405C77.6011 65.4406 77.53 65.7252 77.4588 65.7608L80.4474 61.4202ZM77.3877 61.6336C75.9289 62.4164 75.3241 64.3376 74.5413 65.6185L77.3877 61.6336ZM74.4702 61.3846C74.5058 61.4557 74.3635 61.4913 74.2923 61.5269C74.1856 61.6336 74.1144 61.7404 74.0077 61.8471C73.723 62.2029 73.4384 62.5943 73.1538 62.9856C72.7268 63.5549 72.4066 64.1953 72.0508 64.8357C71.9797 64.978 71.8374 65.4406 71.695 65.5473L74.4702 61.3846ZM69.8094 68.5003C69.8094 68.4292 69.7382 68.6071 69.7382 68.6427C69.7026 68.7494 69.6315 68.8561 69.5959 68.9629C69.4536 69.2831 69.3824 69.6389 69.2757 69.9591C69.0622 70.7418 68.9199 71.5601 68.8132 72.3428C68.8132 72.4496 68.8132 73.0544 68.742 73.1256L69.8094 68.5003ZM78.5618 56.9728C77.53 56.2968 76.1068 56.1545 74.8616 56.1901C74.4702 56.1901 73.6875 56.4747 73.2961 56.2968L78.5618 56.9728ZM76.5693 53.4505C76.6405 53.4861 76.4626 53.3794 76.3914 53.3794C76.2847 53.3438 76.178 53.3082 76.0712 53.2726C75.751 53.2015 75.4308 53.2015 75.075 53.2015C74.1856 53.1659 72.8691 53.0947 72.0864 53.5572L76.5693 53.4505ZM70.2007 54.3044C70.3431 54.2332 69.9161 54.3756 69.7738 54.4467C69.4892 54.5535 69.2045 54.7313 68.9199 54.8737C68.1727 55.3006 67.4256 55.8343 66.6429 56.1901L70.2007 54.3044ZM75.6087 50.9244C75.6087 50.8177 74.6125 50.8888 74.5413 50.9244C73.4384 50.9956 72.2999 51.0667 71.2681 51.4937L75.6087 50.9244ZM67.9949 51.8495C68.0304 51.8139 67.8881 51.885 67.8525 51.885C67.7458 51.9206 67.6391 51.9562 67.5323 52.0274C67.2121 52.1697 66.8919 52.3476 66.5717 52.5255C65.8601 52.9168 65.1486 53.3082 64.4726 53.7707C64.3302 53.8419 63.9033 54.0554 63.8321 54.1977L67.9949 51.8495ZM72.9403 48.2916C71.446 48.1493 69.4892 48.3628 68.066 48.9676L72.9403 48.2916ZM66.5005 49.3945C66.0024 49.2878 65.0418 50.0349 64.6149 50.2484C64.5081 50.284 64.0812 50.6042 63.9745 50.5686L66.5005 49.3945ZM70.5209 45.4453C69.418 45.5165 68.2439 45.6232 67.2121 46.0857L70.5209 45.4453ZM65.0418 47.1531C65.1841 47.1886 64.7572 47.2954 64.6149 47.331C64.2947 47.4733 63.9745 47.6868 63.6898 47.9002C62.8359 48.5406 61.9465 49.1455 61.057 49.7503L65.0418 47.1531ZM66.038 43.0971C65.5755 43.0971 65.0774 43.3817 64.6504 43.524C63.7254 43.9154 62.8004 44.3424 61.9465 44.876C61.8041 44.9472 60.9147 45.303 60.9147 45.5164L66.038 43.0971ZM63.2629 41.496C63.2985 41.3537 62.9427 41.6028 62.8004 41.6384C62.4801 41.7451 62.1599 41.8518 61.8753 41.9586C61.0214 42.3144 60.2743 42.848 59.4915 43.3817C59.2781 43.524 59.0646 43.6664 58.8867 43.8087C58.78 43.8798 58.5309 44.1645 58.5309 44.0221L63.2629 41.496ZM61.3772 39.5392L60.8791 39.646C60.3454 39.8238 59.8117 40.0373 59.3136 40.2508C58.2818 40.7133 57.2856 41.4605 56.3962 42.2076C56.0404 42.4923 55.5067 42.848 55.2577 43.2394L61.3772 39.5392ZM56.5385 38.294C56.5385 38.3295 56.1827 38.4007 56.1471 38.4363C55.7913 38.5786 55.4355 38.7565 55.0798 39.0055C54.048 39.6815 52.9095 40.571 52.1979 41.5672L56.5385 38.294ZM54.973 51.0667C54.973 51.0667 54.5817 51.1023 54.5461 51.1023C54.2259 51.1379 53.9057 51.2091 53.5855 51.2802C52.8383 51.4225 51.3796 51.5648 50.8103 52.1697L54.973 51.0667ZM54.2259 47.6156C53.1229 48.2916 51.6286 48.5406 50.4545 49.1455L54.2259 47.6156ZM52.9806 45.7299C52.9806 45.7299 52.8027 45.7299 52.7671 45.7299C52.6248 45.7299 52.5181 45.7655 52.3758 45.7655C51.9488 45.8367 51.5575 45.979 51.1661 46.1569C50.0632 46.6194 49.0314 47.2242 48.0352 47.9002L52.9806 45.7299ZM51.2728 42.4567C51.2017 42.5278 50.7036 42.599 50.5968 42.6701L51.2728 42.4567ZM49.0314 43.3461C49.1025 43.4529 48.7467 43.4529 48.64 43.4885C48.3909 43.5952 48.1419 43.7375 47.8928 43.8442C47.1101 44.2712 46.1139 44.6626 45.4735 45.303L49.0314 43.3461ZM50.6324 40.2864C50.2766 40.3575 49.8853 40.571 49.565 40.7489L50.6324 40.2864ZM47.7505 41.4605C47.8928 41.5316 47.4659 41.5672 47.3236 41.6028C47.0034 41.7095 46.6832 41.8874 46.363 42.0653C45.5091 42.5278 44.7619 43.1327 43.9436 43.6308L47.7505 41.4605ZM48.8891 38.1872C48.6756 38.0449 48.1419 38.3651 47.964 38.4363L48.8891 38.1872ZM45.7937 39.7171C45.8649 39.7883 45.5802 39.7527 45.4735 39.7883C45.26 39.8594 45.0465 39.9662 44.8686 40.0729C44.2282 40.3931 43.659 40.8201 43.0541 41.1758L45.7937 39.7171ZM48.0352 36.4794C47.6794 36.266 46.8611 36.6929 46.5409 36.8352L48.0352 36.4794ZM44.0503 37.9382C43.9792 37.867 43.4811 38.1872 43.4099 38.2228C42.7695 38.5786 42.1291 38.8988 41.5242 39.3613L44.0503 37.9382ZM45.0821 34.3803C44.5129 34.5582 44.0148 34.8072 43.5167 35.1274L45.0821 34.3803ZM41.4887 36.5506C41.5954 36.5506 41.2752 36.6218 41.204 36.6929C40.9906 36.7997 40.7415 36.942 40.528 37.0843C39.8876 37.4756 39.2472 37.9382 38.6779 38.4007L41.4887 36.5506ZM43.2676 32.9927C42.8051 33.2062 42.3426 33.4197 41.9156 33.7043L43.2676 32.9927ZM39.3539 35.3409C39.3184 35.4121 38.6779 35.6256 38.6068 35.6967C37.9664 36.0525 37.2904 36.4794 36.7211 36.9775L39.3539 35.3409ZM40.4213 30.9292C39.9944 31.0003 39.4251 31.4273 39.1049 31.6763L40.4213 30.9292ZM36.9346 33.0995C37.0057 33.2062 36.6855 33.2418 36.5788 33.3129C36.3297 33.4908 36.0451 33.6687 35.7961 33.8466C35.0845 34.3091 33.946 34.9496 33.4834 35.6967L36.9346 33.0995ZM37.2904 30.3599C37.3971 30.3955 37.1125 30.4311 37.0057 30.4666C36.7923 30.5734 36.5788 30.6801 36.3653 30.7868C35.8316 31.107 35.2624 31.4273 34.7999 31.8542L37.2904 30.3599ZM32.5584 32.7081C32.6295 32.6369 32.3805 32.8504 32.3093 32.9216C32.1314 33.0283 31.9891 33.1706 31.8112 33.3129C31.3843 33.6687 30.9573 34.0245 30.4948 34.3803C30.4592 34.4159 30.1035 34.6293 30.1035 34.6649L32.5584 32.7081ZM33.6258 29.4704C33.5902 29.6127 32.5228 30.0397 32.3805 30.1464C31.7045 30.6445 31.0641 31.2494 30.4237 31.783C29.9967 32.1388 29.3919 32.5302 29.0717 33.0283L33.6258 29.4704ZM30.7083 28.5454C30.4237 28.4742 30.0323 28.8656 29.8544 29.0079C29.214 29.5416 28.5736 30.0397 28.0043 30.6089C27.8976 30.7157 26.8658 31.7475 26.9014 31.7475L30.7083 28.5454ZM27.9687 27.905C28.0755 27.9405 27.7908 28.0473 27.7197 28.1184C27.5418 28.2607 27.3639 28.4386 27.186 28.6165C26.7591 29.0791 26.0119 29.7551 25.7628 30.3599L27.9687 27.905ZM30.3881 39.9306C30.3525 39.8238 29.9611 39.895 29.89 39.895C29.3919 39.9662 28.8582 39.9662 28.3601 40.0729L30.3881 39.9306ZM25.585 40.9624C25.5494 40.9979 25.158 41.0335 25.0868 41.0691C24.5887 41.247 24.0906 41.4249 23.6281 41.6739L25.585 40.9624ZM20.9953 43.0259C20.0347 43.5596 19.0385 44.4491 18.2913 45.2674L20.9953 43.0259ZM29.6409 36.8708C29.6765 36.7641 29.3919 36.9064 29.2851 36.9064C29.0361 36.942 28.787 36.9775 28.5736 37.0131C27.9332 37.1199 27.1148 37.191 26.5812 37.5824L29.6409 36.8708ZM23.5925 38.543C22.8098 38.8632 21.8848 39.0411 21.1376 39.5392L23.5925 38.543ZM18.5759 41.1047C18.5759 41.1047 18.398 41.2114 18.3625 41.247C18.2201 41.3537 18.1134 41.4249 17.9711 41.5316C17.6153 41.8163 17.2595 42.1009 16.9037 42.3499L18.5759 41.1047ZM28.0755 34.2736C28.1822 34.2736 27.8264 34.3091 27.7197 34.3447C27.5062 34.3803 27.2927 34.4515 27.0437 34.5226C26.4033 34.7361 25.6917 34.8428 25.0868 35.0919L28.0755 34.2736ZM22.1694 36.3015C21.1376 36.4794 20.1414 37.4045 19.2164 37.9026L22.1694 36.3015ZM25.5494 32.459H25.1936C24.9445 32.4946 24.7311 32.5302 24.5176 32.5658C23.8416 32.7081 23.13 32.886 22.4896 33.135L25.5494 32.459ZM19.4654 34.4159C19.4654 34.3447 18.9317 34.5938 18.8961 34.6293C18.2913 34.914 17.6865 35.3053 17.1528 35.7323L19.4654 34.4159ZM14.9469 37.1554C14.3421 37.2978 13.6661 38.1161 13.168 38.5074L14.9469 37.1554ZM23.7349 30.2887C23.7349 30.2887 23.557 30.2532 23.4858 30.2887C23.3079 30.3243 23.13 30.3955 22.9165 30.4666C22.3473 30.6801 21.6357 30.8224 21.1376 31.1782L23.7349 30.2887ZM17.8288 33.135C17.1528 33.3485 16.5835 33.6687 15.9431 34.0245L17.8288 33.135ZM13.6661 35.4832C13.5593 35.4121 13.168 35.7323 13.1324 35.7679C12.6343 36.1237 12.1006 36.5506 11.6737 37.0131L13.6661 35.4832ZM21.0664 28.83C20.8174 28.7588 20.426 28.9723 20.2126 29.0791C19.6433 29.3281 19.0385 29.5416 18.4336 29.8262L21.0664 28.83ZM15.4094 31.2138L15.1604 31.2494C15.0181 31.2849 14.8757 31.3561 14.7334 31.4628C14.2709 31.7119 13.8795 32.0321 13.417 32.2811L15.4094 31.2138ZM11.6025 33.5264C11.2823 34.238 10.1793 34.6649 9.68124 35.2342L11.6025 33.5264ZM18.7538 27.1222C18.6471 27.0511 18.1134 27.4069 18.0423 27.4424C17.4018 27.7982 16.6547 28.0829 16.0498 28.5098L18.7538 27.1222ZM13.3103 29.9685C13.1324 30.0753 12.8122 30.0753 12.5987 30.182C12.1362 30.431 11.7092 30.7868 11.2823 31.107L13.3103 29.9685ZM9.64566 32.1388C9.61008 32.2456 9.25429 32.4235 9.18314 32.4946C8.72061 32.886 8.32925 33.3129 7.86672 33.6687L9.64566 32.1388ZM16.0498 26.3751C15.4806 26.4106 14.8046 26.9443 14.3421 27.1934C13.1324 27.905 11.9227 28.6877 10.8553 29.6127C10.6063 29.8262 10.2149 30.0041 10.037 30.2532L16.0498 26.3751ZM13.0612 25.4856C12.9901 25.3789 11.8515 25.9837 11.7804 26.0193C10.7486 26.553 9.78798 27.1934 8.86293 27.905C8.61388 28.0828 8.00904 28.4031 7.9023 28.6877L13.0612 25.4856ZM6.12336 29.9685C5.58968 30.0753 4.98484 30.858 4.5579 31.2138L6.12336 29.9685ZM10.2861 24.525C9.93029 24.5606 9.50335 24.9163 9.21872 25.0942C8.22251 25.6635 7.4042 26.4106 6.47915 27.0866L10.2861 24.525ZM4.52232 28.6165C4.45116 28.6165 4.34442 28.7588 4.30885 28.7944C4.13095 28.9723 3.98864 29.1502 3.81074 29.2925C3.2059 29.8974 2.42317 30.5734 2.0318 31.3205L4.52232 28.6165ZM6.94167 23.849C6.62147 23.9557 6.26568 24.1692 5.94547 24.3471C4.5579 25.0942 3.34822 26.2683 2.31643 27.4424C1.96065 27.8694 1.49812 28.2607 1.17791 28.7588L6.94167 23.849ZM3.56169 23.3865C3.59727 23.3865 3.49053 23.422 3.49053 23.4576C3.41938 23.4932 3.3838 23.5288 3.34822 23.5643C3.13475 23.7067 2.95685 23.8846 2.77896 24.0624C2.42317 24.4182 2.06738 24.8096 1.74717 25.201C1.60486 25.3789 1.35581 25.5568 1.28465 25.7702L3.56169 23.3865ZM44.335 56.8661C44.3705 56.7593 44.0503 57.0795 44.0148 57.1151C43.8013 57.293 43.5878 57.4353 43.3388 57.5777C42.5916 58.0402 41.9868 58.645 41.2752 59.1431L44.335 56.8661ZM43.4455 54.6602C43.5878 54.6246 43.232 54.8381 43.0897 54.9448C42.8762 55.1227 42.6628 55.3006 42.4849 55.4785C41.8445 56.0122 41.204 56.5103 40.6704 57.1507L43.4455 54.6602ZM42.0223 52.8813C41.6666 53.0947 41.3463 53.5928 41.0261 53.8775C40.3501 54.4823 39.2472 55.1583 38.7847 55.9766L42.0223 52.8813ZM40.3146 50.7109C39.176 52.0985 38.1443 53.664 36.65 54.7669L40.3146 50.7109ZM37.7529 47.2598C38.1087 48.3627 37.4327 49.7859 36.9346 50.7109L37.7529 47.2598ZM34.9066 45.8011C34.871 45.8367 34.9422 46.1213 34.9422 46.1569C34.9777 46.6194 35.0489 47.0819 35.0489 47.5444C35.1201 48.7185 34.9066 49.9282 34.7287 51.0667C34.6575 51.4581 34.6575 52.1697 34.3729 52.4899L34.9066 45.8011ZM32.167 44.7337C32.6295 45.8722 32.9498 47.4733 32.843 48.7541L32.167 44.7337ZM29.2496 44.1289C29.2851 44.1645 29.1428 44.2356 29.1428 44.2712C29.1428 44.4491 29.2496 44.6626 29.3207 44.8049C29.6765 45.552 29.9256 46.3703 30.139 47.1531C30.2458 47.5444 30.2458 48.0781 30.4592 48.3983L29.2496 44.1289ZM26.2609 44.0577C26.3321 43.951 26.4033 44.3068 26.4744 44.4135C26.6523 44.6981 26.7946 44.9828 26.9369 45.2674C27.2572 45.9434 27.435 46.6194 27.5774 47.2954C27.6129 47.5089 27.8264 47.8291 27.7908 48.0425L26.2609 44.0577ZM23.1656 44.6626C23.0589 44.9828 23.5925 45.6943 23.6993 45.9434C24.2685 47.0463 24.7311 48.1849 25.3003 49.2522L23.1656 44.6626ZM19.6789 46.7617C19.75 46.655 20.6039 47.331 20.6751 47.4021C21.6001 48.1849 22.454 49.1099 23.2723 49.9638L19.6789 46.7617ZM17.5441 48.9676C17.6153 48.8964 18.149 49.2166 18.1846 49.2522C18.7182 49.5013 19.4654 49.7859 19.8212 50.3196L17.5441 48.9676ZM14.9469 21.2517C14.4844 21.6075 13.7728 21.8566 13.2747 22.2124L14.9469 21.2517ZM13.8084 19.8642C13.7728 19.7574 13.2747 20.0776 13.2391 20.1132C12.741 20.3978 12.1718 20.8959 11.5669 20.9315L13.8084 19.8642ZM12.2073 18.1564C12.1362 18.2631 11.6381 18.441 11.5313 18.5122C10.9621 18.9391 10.464 19.4728 9.82356 19.8286C9.71682 19.8997 9.28987 20.1488 9.14756 20.0776L12.2073 18.1564ZM10.7842 16.413C10.1438 16.8755 9.50335 17.3736 8.82735 17.765C8.75619 17.8006 8.22251 18.2275 8.11577 18.1208L10.7842 16.413ZM9.53893 13.6379C9.53893 13.6379 8.72061 14.2783 8.68503 14.3139C7.83114 15.061 6.97725 16.3419 5.83873 16.6976L9.53893 13.6379ZM7.72441 12.2503C7.75999 12.1436 7.58209 12.4638 7.51093 12.5349C7.36862 12.7128 7.2263 12.8907 7.08399 13.0686C6.58589 13.6379 6.01663 14.2783 5.30505 14.5629L7.72441 12.2503ZM5.58968 12.0012C5.5541 11.9657 4.77137 12.784 4.73579 12.8196C4.38 13.1398 3.31264 13.5667 3.13475 13.9937L5.58968 12.0012ZM15.0892 15.6303C15.1604 15.5947 14.7334 15.6659 14.6623 15.7014C14.4132 15.8082 14.1642 15.9505 13.9151 16.0928L15.0892 15.6303ZM16.2277 17.516C16.3345 17.4804 16.0498 17.5515 15.9431 17.5871C15.8008 17.6227 15.4806 17.7294 15.4094 17.8717L16.2277 17.516ZM16.8326 19.5439C16.797 19.4016 16.37 19.5795 16.2633 19.6151L16.8326 19.5439ZM13.9863 12.6061C14.0574 12.3926 13.5593 12.8551 13.4526 13.0686C13.2035 13.4956 13.0612 14.1715 12.5631 14.385L13.9863 12.6061ZM11.5669 9.93768C11.7448 10.6848 11.5313 11.3964 11.2467 12.0724L11.5669 9.93768ZM10.1082 8.69242C9.93029 8.76358 10.0726 9.04821 10.037 9.2261C9.89471 9.7242 9.71682 10.2579 9.50335 10.7204L10.1082 8.69242ZM8.25809 6.66443C8.25809 6.48653 8.25809 7.05579 8.22251 7.23369C8.11577 7.58948 8.00904 7.94526 7.97346 8.30105C7.97346 8.44337 8.00904 8.83473 7.93788 8.728L8.25809 6.66443ZM5.80315 4.45854C5.98105 4.56528 5.83873 5.24128 5.83873 5.38359C5.732 6.23748 5.58968 7.41158 5.26947 8.19432L5.80315 4.45854ZM3.24148 3.8537C3.34822 3.96044 2.99243 4.92107 2.95685 5.06338C2.60106 6.2019 2.42317 7.48274 1.96065 8.5501L3.24148 3.8537ZM2.28085 1.46993C2.35201 1.39877 2.17412 1.64782 2.13854 1.71898C2.06738 1.93245 1.99622 2.1815 1.88949 2.43055C1.74717 3.03539 1.5337 3.60465 1.14233 4.13833L2.28085 1.46993ZM71.1258 62.2029C71.2325 62.3452 70.8767 62.4164 70.77 62.5587C70.5565 62.8077 70.3786 63.1279 70.1652 63.4126C69.6315 64.1953 69.2757 65.2271 68.742 65.9387L71.1258 62.2029ZM67.2477 62.9145C67.3189 63.0212 67.1054 63.0924 67.0698 63.1991C66.9275 63.4837 66.8208 63.8039 66.6784 64.0886C66.2515 65.1559 65.789 66.2589 65.6111 67.433L67.2477 62.9145ZM64.686 69.8879C64.6149 70.3504 64.3658 71.0264 64.4014 71.5245L64.686 69.8879ZM67.2121 68.9629C67.4256 69.1763 66.7852 70.2793 66.6784 70.5995L67.2121 68.9629ZM62.9782 65.8675C63.0138 66.2589 62.4446 67.0772 62.3378 67.433C61.8753 68.7138 61.1637 70.4572 61.4484 71.8447L62.9782 65.8675Z" stroke="#BD9F57" stroke-width="0.711576" stroke-miterlimit="10" stroke-linecap="round" stroke-linejoin="round"/>
<defs>
<linearGradient id="paint0_linear_6_6375" x1="50.6938" y1="-485.32" x2="50.6938" y2="213.705" gradientUnits="userSpaceOnUse">
<stop stop-color="#7F613B"/>
<stop offset="0.0430535" stop-color="#876A42"/>
<stop offset="0.1144" stop-color="#9D8455"/>
<stop offset="0.1224" stop-color="#A08757"/>
<stop offset="0.1603" stop-color="#AB9461"/>
<stop offset="0.2221" stop-color="#C5B278"/>
<stop offset="0.2857" stop-color="#D7C687"/>
<stop offset="0.3395" stop-color="#EADB97"/>
<stop offset="0.4454" stop-color="#E5D593"/>
<stop offset="0.6314" stop-color="#CFBC7F"/>
<stop offset="0.7336" stop-color="#B59D66"/>
<stop offset="0.8686" stop-color="#927546"/>
<stop offset="1" stop-color="#826337"/>
</linearGradient>
</defs>
</svg>
