<svg width="103" height="81" viewBox="0 0 103 81" fill="none" xmlns="http://www.w3.org/2000/svg">
<path d="M1.21462 79.9211C0.96557 79.5298 1.67715 78.1422 1.81946 77.7508C2.6022 75.5449 3.63398 73.6237 4.98597 71.7024C10.3584 64.1242 18.9684 60.0326 28.2901 60.7797C32.7018 61.1355 37.6829 62.2741 41.0984 65.2627C42.2725 66.2945 43.4111 67.4686 44.4784 68.6071C44.8342 68.9984 45.19 69.4254 45.5458 69.8168C45.6525 69.9591 45.7593 70.1014 45.866 70.2437C45.9016 70.2793 46.0439 70.4572 46.0439 70.4216M46.8978 53.5928C46.791 52.7034 47.2536 51.5648 47.5026 50.7465C48.143 48.6118 48.9613 46.4415 49.8864 44.3779C51.4519 40.8201 53.5866 36.8708 56.4329 34.1668C61.0581 29.7906 67.569 27.7982 73.8309 27.8694C76.1435 27.905 78.3138 28.0117 80.4841 28.8656M23.0244 61.3134C23.06 61.4557 23.0956 61.0288 23.1667 60.8865C23.2735 60.5307 23.4158 60.2105 23.5581 59.8903C23.8783 58.9297 24.1274 57.969 24.4476 57.0084C25.4082 54.1621 26.7602 51.5648 28.5391 49.1455C33.0576 42.9192 40.3513 38.5786 48.0007 37.5468C49.4239 37.3689 52.1634 36.515 53.6577 37.1199M71.2337 42.2432C71.8741 39.3613 73.0126 36.266 74.7915 33.8822C78.8831 28.5098 86.2479 24.9519 92.7944 23.7422C95.1426 23.3153 97.4196 22.9239 99.8034 23.0662C100.302 23.1018 101.084 22.9239 101.547 23.1018M84.042 26.3751C84.2911 26.2683 84.4334 24.8096 84.5045 24.5606C84.9671 22.7105 85.3229 20.8604 85.821 19.0103C87.671 12.4993 91.5847 7.73179 96.9215 3.74697C98.0956 2.8575 99.4832 2.11035 100.835 1.50551C101.049 1.39877 101.938 0.936247 102.152 1.0074M56.9666 61.3846C57.18 61.2067 57.2512 59.7835 57.3224 59.4989C57.7493 57.8623 58.1762 56.2612 58.7811 54.6958C60.3821 50.5686 63.8688 46.6906 67.8892 44.7693C72.977 42.3144 77.7446 42.6346 82.5833 45.303C83.9709 46.0857 84.8959 47.0463 85.8565 48.2916C85.9633 48.4339 86.6393 49.1811 86.6037 49.3945" stroke="#BD9F57" stroke-width="1.06736" stroke-miterlimit="10" stroke-linecap="round" stroke-linejoin="round"/>
<path d="M2.88681 76.2209C4.27438 76.3988 5.83984 76.1498 7.29857 76.3632C7.79668 76.4344 8.2592 76.5056 8.72172 76.6479C8.86404 76.6835 9.04194 76.719 9.18425 76.7546C9.25541 76.7902 9.50446 76.8258 9.4333 76.7902L2.88681 76.2209ZM4.95037 73.2323C5.87542 72.6986 7.90341 73.1967 8.89962 73.4814C9.11309 73.5525 9.89582 74.015 10.1093 73.9439L4.95037 73.2323ZM12.4575 74.9045C12.3508 75.0824 12.8489 75.0824 13.0623 75.1891C13.347 75.367 13.7383 75.7228 14.0585 75.794L12.4575 74.9045ZM8.01015 69.3898C7.97457 69.4254 8.11688 69.3898 8.18804 69.3898C8.33036 69.3898 8.47268 69.3898 8.61499 69.4254C9.00636 69.461 9.39772 69.5321 9.78909 69.6389C10.8565 69.8523 12.2084 70.2437 13.1691 70.813L8.01015 69.3898ZM15.9442 71.9871C16.2644 71.9871 16.7981 72.4496 17.0472 72.6275C18.1501 73.3746 19.0752 74.4776 20.1781 75.1891L15.9442 71.9871ZM10.3228 66.8993C10.3228 66.8637 11.6036 67.2195 11.6748 67.2195C12.8844 67.6109 14.5211 68.0734 15.5173 68.9273L10.3228 66.8993ZM17.5808 69.9591C17.5808 70.0302 18.2568 70.3504 18.328 70.4216C19.1107 70.9909 19.7867 71.6313 20.5695 72.165L17.5808 69.9591ZM14.2009 64.6578C14.9124 64.978 15.6952 65.1559 16.3712 65.4761C17.4385 65.9742 18.328 66.6502 19.253 67.3262C19.6444 67.6109 20.0714 67.8955 20.4271 68.2513C20.4627 68.2869 20.7829 68.6071 20.8185 68.6071L14.2009 64.6578ZM17.1539 62.3452C17.5097 62.274 18.328 62.8077 18.6126 62.9856C19.6444 63.5905 20.5695 64.4088 21.4234 65.2627C21.7436 65.5829 22.2772 65.9742 22.4551 66.4012L17.1539 62.3452ZM24.0206 68.4292C24.0206 68.2869 24.1629 68.6426 24.2697 68.7494C24.412 68.9629 24.5543 69.1763 24.6966 69.3542C25.0168 69.8523 25.764 70.4927 25.8707 71.062L24.0206 68.4292ZM22.7042 61.4202C23.6292 62.3452 24.412 63.3414 25.088 64.4799C25.2659 64.7646 25.4082 65.0848 25.5149 65.405C25.5505 65.4406 25.6216 65.7252 25.6928 65.7608L22.7042 61.4202ZM25.764 61.6336C27.2227 62.4164 27.8275 64.3376 28.6103 65.6185L25.764 61.6336ZM28.6814 61.3846C28.6458 61.4557 28.7882 61.4913 28.8593 61.5269C28.966 61.6336 29.0372 61.7404 29.1439 61.8471C29.4286 62.2029 29.7132 62.5943 29.9978 62.9856C30.4248 63.5549 30.745 64.1953 31.1008 64.8357C31.1719 64.978 31.3142 65.4406 31.4566 65.5473L28.6814 61.3846ZM33.3422 68.5003C33.3422 68.4292 33.4134 68.6071 33.4134 68.6427C33.449 68.7494 33.5201 68.8561 33.5557 68.9629C33.698 69.2831 33.7692 69.6389 33.8759 69.9591C34.0894 70.7418 34.2317 71.5601 34.3384 72.3428C34.3384 72.4496 34.3384 73.0544 34.4096 73.1256L33.3422 68.5003ZM24.5899 56.9728C25.6216 56.2968 27.0448 56.1545 28.2901 56.1901C28.6814 56.1901 29.4642 56.4747 29.8555 56.2968L24.5899 56.9728ZM26.5823 53.4505C26.5111 53.4861 26.689 53.3794 26.7602 53.3794C26.8669 53.3438 26.9736 53.3082 27.0804 53.2726C27.4006 53.2015 27.7208 53.2015 28.0766 53.2015C28.9661 53.1659 30.2825 53.0947 31.0652 53.5572L26.5823 53.4505ZM32.9509 54.3044C32.8086 54.2332 33.2355 54.3756 33.3778 54.4467C33.6624 54.5535 33.9471 54.7313 34.2317 54.8737C34.9789 55.3006 35.726 55.8343 36.5087 56.1901L32.9509 54.3044ZM27.5429 50.9244C27.5429 50.8177 28.5391 50.8888 28.6103 50.9244C29.7132 50.9956 30.8517 51.0667 31.8835 51.4937L27.5429 50.9244ZM35.1568 51.8495C35.1212 51.8139 35.2635 51.885 35.2991 51.885C35.4058 51.9206 35.5125 51.9562 35.6193 52.0274C35.9395 52.1697 36.2597 52.3476 36.5799 52.5255C37.2915 52.9168 38.0031 53.3082 38.6791 53.7707C38.8214 53.8419 39.2483 54.0554 39.3195 54.1977L35.1568 51.8495ZM30.2113 48.2916C31.7056 48.1493 33.6624 48.3628 35.0856 48.9676L30.2113 48.2916ZM36.6511 49.3945C37.1492 49.2878 38.1098 50.0349 38.5367 50.2484C38.6435 50.284 39.0704 50.6042 39.1772 50.5686L36.6511 49.3945ZM32.6307 45.4453C33.7336 45.5165 34.9077 45.6232 35.9395 46.0857L32.6307 45.4453ZM38.1098 47.1531C37.9675 47.1886 38.3944 47.2954 38.5367 47.331C38.8569 47.4733 39.1772 47.6868 39.4618 47.9002C40.3157 48.5406 41.2051 49.1455 42.0946 49.7503L38.1098 47.1531ZM37.1136 43.0971C37.5761 43.0971 38.0742 43.3817 38.5012 43.524C39.4262 43.9154 40.3513 44.3424 41.2051 44.876C41.3475 44.9472 42.2369 45.303 42.2369 45.5164L37.1136 43.0971ZM39.8887 41.496C39.8532 41.3537 40.2089 41.6028 40.3513 41.6384C40.6715 41.7451 40.9917 41.8518 41.2763 41.9586C42.1302 42.3144 42.8774 42.848 43.6601 43.3817C43.8736 43.524 44.087 43.6664 44.2649 43.8087C44.3717 43.8798 44.6207 44.1645 44.6207 44.0221L39.8887 41.496ZM41.7744 39.5392L42.2725 39.646C42.8062 39.8238 43.3399 40.0373 43.838 40.2508C44.8698 40.7133 45.866 41.4605 46.7554 42.2076C47.1112 42.4923 47.6449 42.848 47.894 43.2394L41.7744 39.5392ZM46.6131 38.294C46.6131 38.3295 46.9689 38.4007 47.0045 38.4363C47.3603 38.5786 47.7161 38.7565 48.0719 39.0055C49.1036 39.6815 50.2422 40.571 50.9537 41.5672L46.6131 38.294ZM48.1786 51.0667C48.1786 51.0667 48.57 51.1023 48.6055 51.1023C48.9257 51.1379 49.246 51.2091 49.5662 51.2802C50.3133 51.4225 51.772 51.5648 52.3413 52.1697L48.1786 51.0667ZM48.9257 47.6156C50.0287 48.2916 51.523 48.5406 52.6971 49.1455L48.9257 47.6156ZM50.171 45.7299C50.171 45.7299 50.3489 45.7299 50.3845 45.7299C50.5268 45.7299 50.6335 45.7655 50.7758 45.7655C51.2028 45.8367 51.5942 45.979 51.9855 46.1569C53.0885 46.6194 54.1202 47.2242 55.1165 47.9002L50.171 45.7299ZM51.8788 42.4567C51.9499 42.5278 52.448 42.599 52.5548 42.6701L51.8788 42.4567ZM54.1202 43.3461C54.0491 43.4529 54.4049 43.4529 54.5116 43.4885C54.7607 43.5952 55.0097 43.7375 55.2588 43.8442C56.0415 44.2712 57.0377 44.6626 57.6781 45.303L54.1202 43.3461ZM52.5192 40.2864C52.875 40.3575 53.2664 40.571 53.5866 40.7489L52.5192 40.2864ZM55.4011 41.4605C55.2588 41.5316 55.6857 41.5672 55.828 41.6028C56.1482 41.7095 56.4684 41.8874 56.7887 42.0653C57.6425 42.5278 58.3897 43.1327 59.208 43.6308L55.4011 41.4605ZM54.2626 38.1872C54.476 38.0449 55.0097 38.3651 55.1876 38.4363L54.2626 38.1872ZM57.3579 39.7171C57.2868 39.7883 57.5714 39.7527 57.6781 39.7883C57.8916 39.8594 58.1051 39.9662 58.283 40.0729C58.9234 40.3931 59.4926 40.8201 60.0975 41.1758L57.3579 39.7171ZM55.1165 36.4794C55.4722 36.266 56.2906 36.6929 56.6108 36.8352L55.1165 36.4794ZM59.1013 37.9382C59.1724 37.867 59.6705 38.1872 59.7417 38.2228C60.3821 38.5786 61.0225 38.8988 61.6274 39.3613L59.1013 37.9382ZM58.0695 34.3803C58.6388 34.5582 59.1369 34.8072 59.635 35.1274L58.0695 34.3803ZM61.6629 36.5506C61.5562 36.5506 61.8764 36.6218 61.9476 36.6929C62.161 36.7997 62.4101 36.942 62.6236 37.0843C63.264 37.4756 63.9044 37.9382 64.4737 38.4007L61.6629 36.5506ZM59.884 32.9927C60.3465 33.2062 60.8091 33.4197 61.236 33.7043L59.884 32.9927ZM63.7977 35.3409C63.8333 35.4121 64.4737 35.6256 64.5448 35.6967C65.1852 36.0525 65.8612 36.4794 66.4305 36.9775L63.7977 35.3409ZM62.7303 30.9292C63.1573 31.0003 63.7265 31.4273 64.0467 31.6763L62.7303 30.9292ZM66.217 33.0995C66.1459 33.2062 66.4661 33.2418 66.5728 33.3129C66.8219 33.4908 67.1065 33.6687 67.3555 33.8466C68.0671 34.3091 69.2056 34.9496 69.6682 35.6967L66.217 33.0995ZM65.8612 30.3599C65.7545 30.3955 66.0391 30.4311 66.1459 30.4666C66.3593 30.5734 66.5728 30.6801 66.7863 30.7868C67.32 31.107 67.8892 31.4273 68.3518 31.8542L65.8612 30.3599ZM70.5932 32.7081C70.5221 32.6369 70.7711 32.8504 70.8423 32.9216C71.0202 33.0283 71.1625 33.1706 71.3404 33.3129C71.7673 33.6687 72.1943 34.0245 72.6568 34.3803C72.6924 34.4159 73.0482 34.6293 73.0482 34.6649L70.5932 32.7081ZM69.5259 29.4704C69.5614 29.6127 70.6288 30.0397 70.7711 30.1464C71.4471 30.6445 72.0875 31.2494 72.7279 31.783C73.1549 32.1388 73.7597 32.5302 74.0799 33.0283L69.5259 29.4704ZM72.4433 28.5454C72.7279 28.4742 73.1193 28.8656 73.2972 29.0079C73.9376 29.5416 74.578 30.0397 75.1473 30.6089C75.254 30.7157 76.2858 31.7475 76.2502 31.7475L72.4433 28.5454ZM75.1829 27.905C75.0761 27.9405 75.3608 28.0473 75.4319 28.1184C75.6098 28.2607 75.7877 28.4386 75.9656 28.6165C76.3926 29.0791 77.1397 29.7551 77.3888 30.3599L75.1829 27.905ZM72.7635 39.9306C72.7991 39.8238 73.1905 39.895 73.2616 39.895C73.7597 39.9662 74.2934 39.9662 74.7915 40.0729L72.7635 39.9306ZM77.5667 40.9624C77.6022 40.9979 77.9936 41.0335 78.0648 41.0691C78.5629 41.247 79.061 41.4249 79.5235 41.6739L77.5667 40.9624ZM82.1563 43.0259C83.1169 43.5596 84.1132 44.4491 84.8603 45.2674L82.1563 43.0259ZM73.5107 36.8708C73.4751 36.7641 73.7597 36.9064 73.8665 36.9064C74.1155 36.942 74.3646 36.9775 74.578 37.0131C75.2185 37.1199 76.0368 37.191 76.5705 37.5824L73.5107 36.8708ZM79.5591 38.543C80.3418 38.8632 81.2669 39.0411 82.014 39.5392L79.5591 38.543ZM84.5757 41.1047C84.5757 41.1047 84.7536 41.2114 84.7892 41.247C84.9315 41.3537 85.0382 41.4249 85.1805 41.5316C85.5363 41.8163 85.8921 42.1009 86.2479 42.3499L84.5757 41.1047ZM75.0761 34.2736C74.9694 34.2736 75.3252 34.3091 75.4319 34.3447C75.6454 34.3803 75.8589 34.4515 76.1079 34.5226C76.7483 34.7361 77.4599 34.8428 78.0648 35.0919L75.0761 34.2736ZM80.9822 36.3015C82.014 36.4794 83.0102 37.4045 83.9353 37.9026L80.9822 36.3015ZM77.6022 32.459H77.958C78.2071 32.4946 78.4206 32.5302 78.634 32.5658C79.31 32.7081 80.0216 32.886 80.662 33.135L77.6022 32.459ZM83.6862 34.4159C83.6862 34.3447 84.2199 34.5938 84.2555 34.6293C84.8603 34.914 85.4651 35.3053 85.9988 35.7323L83.6862 34.4159ZM88.2047 37.1554C88.8096 37.2978 89.4855 38.1161 89.9837 38.5074L88.2047 37.1554ZM79.4168 30.2887C79.4168 30.2887 79.5947 30.2532 79.6658 30.2887C79.8437 30.3243 80.0216 30.3955 80.2351 30.4666C80.8043 30.6801 81.5159 30.8224 82.014 31.1782L79.4168 30.2887ZM85.3228 33.135C85.9988 33.3485 86.5681 33.6687 87.2085 34.0245L85.3228 33.135ZM89.4855 35.4832C89.5923 35.4121 89.9837 35.7323 90.0192 35.7679C90.5173 36.1237 91.051 36.5506 91.478 37.0131L89.4855 35.4832ZM82.0852 28.83C82.3342 28.7588 82.7256 28.9723 82.9391 29.0791C83.5083 29.3281 84.1132 29.5416 84.718 29.8262L82.0852 28.83ZM87.7422 31.2138L87.9912 31.2494C88.1336 31.2849 88.2759 31.3561 88.4182 31.4628C88.8807 31.7119 89.2721 32.0321 89.7346 32.2811L87.7422 31.2138ZM91.5491 33.5264C91.8693 34.238 92.9723 34.6649 93.4704 35.2342L91.5491 33.5264ZM84.3978 27.1222C84.5045 27.0511 85.0382 27.4069 85.1094 27.4424C85.7498 27.7982 86.4969 28.0829 87.1018 28.5098L84.3978 27.1222ZM89.8413 29.9685C90.0192 30.0753 90.3394 30.0753 90.5529 30.182C91.0154 30.431 91.4424 30.7868 91.8693 31.107L89.8413 29.9685ZM93.506 32.1388C93.5415 32.2456 93.8973 32.4235 93.9685 32.4946C94.431 32.886 94.8224 33.3129 95.2849 33.6687L93.506 32.1388ZM87.1018 26.3751C87.671 26.4106 88.347 26.9443 88.8096 27.1934C90.0192 27.905 91.2289 28.6877 92.2963 29.6127C92.5453 29.8262 92.9367 30.0041 93.1146 30.2532L87.1018 26.3751ZM90.0904 25.4856C90.1615 25.3789 91.3001 25.9837 91.3712 26.0193C92.403 26.553 93.3636 27.1934 94.2887 27.905C94.5377 28.0828 95.1426 28.4031 95.2493 28.6877L90.0904 25.4856ZM97.0282 29.9685C97.5619 30.0753 98.1668 30.858 98.5937 31.2138L97.0282 29.9685ZM92.8655 24.525C93.2213 24.5606 93.6483 24.9163 93.9329 25.0942C94.9291 25.6635 95.7474 26.4106 96.6725 27.0866L92.8655 24.525ZM98.6293 28.6165C98.7005 28.6165 98.8072 28.7588 98.8428 28.7944C99.0207 28.9723 99.163 29.1502 99.3409 29.2925C99.9457 29.8974 100.728 30.5734 101.12 31.3205L98.6293 28.6165ZM96.2099 23.849C96.5301 23.9557 96.8859 24.1692 97.2061 24.3471C98.5937 25.0942 99.8034 26.2683 100.835 27.4424C101.191 27.8694 101.653 28.2607 101.974 28.7588L96.2099 23.849ZM99.5899 23.3865C99.5543 23.3865 99.6611 23.422 99.6611 23.4576C99.7322 23.4932 99.7678 23.5288 99.8034 23.5643C100.017 23.7067 100.195 23.8846 100.373 24.0624C100.728 24.4182 101.084 24.8096 101.404 25.201C101.547 25.3789 101.796 25.5568 101.867 25.7702L99.5899 23.3865ZM58.8166 56.8661C58.7811 56.7593 59.1013 57.0795 59.1369 57.1151C59.3503 57.293 59.5638 57.4353 59.8129 57.5777C60.56 58.0402 61.1648 58.645 61.8764 59.1431L58.8166 56.8661ZM59.7061 54.6602C59.5638 54.6246 59.9196 54.8381 60.0619 54.9448C60.2754 55.1227 60.4888 55.3006 60.6667 55.4785C61.3072 56.0122 61.9476 56.5103 62.4813 57.1507L59.7061 54.6602ZM61.1293 52.8813C61.4851 53.0947 61.8053 53.5928 62.1255 53.8775C62.8015 54.4823 63.9044 55.1583 64.3669 55.9766L61.1293 52.8813ZM62.837 50.7109C63.9756 52.0985 65.0074 53.664 66.5017 54.7669L62.837 50.7109ZM65.3987 47.2598C65.0429 48.3627 65.7189 49.7859 66.217 50.7109L65.3987 47.2598ZM68.245 45.8011C68.2806 45.8367 68.2094 46.1213 68.2094 46.1569C68.1739 46.6194 68.1027 47.0819 68.1027 47.5444C68.0315 48.7185 68.245 49.9282 68.4229 51.0667C68.4941 51.4581 68.4941 52.1697 68.7787 52.4899L68.245 45.8011ZM70.9846 44.7337C70.5221 45.8722 70.2019 47.4733 70.3086 48.7541L70.9846 44.7337ZM73.902 44.1289C73.8665 44.1645 74.0088 44.2356 74.0088 44.2712C74.0088 44.4491 73.902 44.6626 73.8309 44.8049C73.4751 45.552 73.226 46.3703 73.0126 47.1531C72.9058 47.5444 72.9058 48.0781 72.6924 48.3983L73.902 44.1289ZM76.8907 44.0577C76.8195 43.951 76.7483 44.3068 76.6772 44.4135C76.4993 44.6981 76.357 44.9828 76.2147 45.2674C75.8945 45.9434 75.7166 46.6194 75.5742 47.2954C75.5387 47.5089 75.3252 47.8291 75.3608 48.0425L76.8907 44.0577ZM79.986 44.6626C80.0928 44.9828 79.5591 45.6943 79.4523 45.9434C78.8831 47.0463 78.4205 48.1849 77.8513 49.2522L79.986 44.6626ZM83.4727 46.7617C83.4016 46.655 82.5477 47.331 82.4765 47.4021C81.5515 48.1849 80.6976 49.1099 79.8793 49.9638L83.4727 46.7617ZM85.6075 48.9676C85.5363 48.8964 85.0026 49.2166 84.967 49.2522C84.4334 49.5013 83.6862 49.7859 83.3304 50.3196L85.6075 48.9676ZM88.2047 21.2517C88.6672 21.6075 89.3788 21.8566 89.8769 22.2124L88.2047 21.2517ZM89.3432 19.8642C89.3788 19.7574 89.8769 20.0776 89.9125 20.1132C90.4106 20.3978 90.9799 20.8959 91.5847 20.9315L89.3432 19.8642ZM90.9443 18.1564C91.0154 18.2631 91.5135 18.441 91.6203 18.5122C92.1895 18.9391 92.6876 19.4728 93.3281 19.8286C93.4348 19.8997 93.8617 20.1488 94.0041 20.0776L90.9443 18.1564ZM92.3674 16.413C93.0078 16.8755 93.6483 17.3736 94.3243 17.765C94.3954 17.8006 94.9291 18.2275 95.0358 18.1208L92.3674 16.413ZM93.6127 13.6379C93.6127 13.6379 94.431 14.2783 94.4666 14.3139C95.3205 15.061 96.1744 16.3419 97.3129 16.6976L93.6127 13.6379ZM95.4272 12.2503C95.3916 12.1436 95.5695 12.4638 95.6407 12.5349C95.783 12.7128 95.9253 12.8907 96.0676 13.0686C96.5657 13.6379 97.135 14.2783 97.8466 14.5629L95.4272 12.2503ZM97.5619 12.0012C97.5975 11.9657 98.3802 12.784 98.4158 12.8196C98.7716 13.1398 99.839 13.5667 100.017 13.9937L97.5619 12.0012ZM88.0624 15.6303C87.9912 15.5947 88.4182 15.6659 88.4893 15.7014C88.7384 15.8082 88.9874 15.9505 89.2365 16.0928L88.0624 15.6303ZM86.9239 17.516C86.8171 17.4804 87.1018 17.5515 87.2085 17.5871C87.3508 17.6227 87.671 17.7294 87.7422 17.8717L86.9239 17.516ZM86.319 19.5439C86.3546 19.4016 86.7816 19.5795 86.8883 19.6151L86.319 19.5439ZM89.1653 12.6061C89.0942 12.3926 89.5923 12.8551 89.699 13.0686C89.9481 13.4956 90.0904 14.1715 90.5885 14.385L89.1653 12.6061ZM91.5847 9.93768C91.4068 10.6848 91.6203 11.3964 91.9049 12.0724L91.5847 9.93768ZM93.0434 8.69242C93.2213 8.76358 93.079 9.04821 93.1146 9.2261C93.2569 9.7242 93.4348 10.2579 93.6483 10.7204L93.0434 8.69242ZM94.8935 6.66443C94.8935 6.48653 94.8935 7.05579 94.9291 7.23369C95.0358 7.58948 95.1426 7.94526 95.1782 8.30105C95.1782 8.44337 95.1426 8.83473 95.2137 8.728L94.8935 6.66443ZM97.3485 4.45854C97.1706 4.56528 97.3129 5.24128 97.3129 5.38359C97.4196 6.23748 97.5619 7.41158 97.8821 8.19432L97.3485 4.45854ZM99.9101 3.8537C99.8034 3.96044 100.159 4.92107 100.195 5.06338C100.551 6.2019 100.728 7.48274 101.191 8.5501L99.9101 3.8537ZM100.871 1.46993C100.8 1.39877 100.977 1.64782 101.013 1.71898C101.084 1.93245 101.155 2.1815 101.262 2.43055C101.404 3.03539 101.618 3.60465 102.009 4.13833L100.871 1.46993ZM32.0258 62.2029C31.9191 62.3452 32.2749 62.4164 32.3816 62.5587C32.5951 62.8077 32.773 63.1279 32.9865 63.4126C33.5201 64.1953 33.8759 65.2271 34.4096 65.9387L32.0258 62.2029ZM35.9039 62.9145C35.8328 63.0212 36.0462 63.0924 36.0818 63.1991C36.2241 63.4837 36.3309 63.8039 36.4732 64.0886C36.9001 65.1559 37.3626 66.2589 37.5405 67.433L35.9039 62.9145ZM38.4656 69.8879C38.5367 70.3504 38.7858 71.0264 38.7502 71.5245L38.4656 69.8879ZM35.9395 68.9629C35.726 69.1763 36.3664 70.2793 36.4732 70.5995L35.9395 68.9629ZM40.1734 65.8675C40.1378 66.2589 40.707 67.0772 40.8138 67.433C41.2763 68.7138 41.9879 70.4572 41.7033 71.8447L40.1734 65.8675ZM43.9447 68.5715C43.9091 68.6782 44.0515 69.1052 44.087 69.2119C44.1582 69.6389 44.1938 70.1014 44.1226 70.5283" fill="url(#paint0_linear_6_6378)"/>
<path d="M43.9447 68.5715C43.9091 68.6782 44.0515 69.1052 44.087 69.2119C44.1582 69.6389 44.1938 70.1014 44.1226 70.5283M2.88681 76.2209C4.27438 76.3988 5.83984 76.1498 7.29857 76.3632C7.79668 76.4344 8.2592 76.5056 8.72172 76.6479C8.86404 76.6835 9.04194 76.719 9.18425 76.7546C9.25541 76.7902 9.50446 76.8258 9.4333 76.7902L2.88681 76.2209ZM4.95037 73.2323C5.87542 72.6986 7.90341 73.1967 8.89962 73.4814C9.11309 73.5525 9.89582 74.015 10.1093 73.9439L4.95037 73.2323ZM12.4575 74.9045C12.3508 75.0824 12.8489 75.0824 13.0623 75.1891C13.347 75.367 13.7383 75.7228 14.0585 75.794L12.4575 74.9045ZM8.01015 69.3898C7.97457 69.4254 8.11688 69.3898 8.18804 69.3898C8.33036 69.3898 8.47268 69.3898 8.61499 69.4254C9.00636 69.461 9.39772 69.5321 9.78909 69.6389C10.8565 69.8523 12.2084 70.2437 13.1691 70.813L8.01015 69.3898ZM15.9442 71.9871C16.2644 71.9871 16.7981 72.4496 17.0472 72.6275C18.1501 73.3746 19.0752 74.4776 20.1781 75.1891L15.9442 71.9871ZM10.3228 66.8993C10.3228 66.8637 11.6036 67.2195 11.6748 67.2195C12.8844 67.6109 14.5211 68.0734 15.5173 68.9273L10.3228 66.8993ZM17.5808 69.9591C17.5808 70.0302 18.2568 70.3504 18.328 70.4216C19.1107 70.9909 19.7867 71.6313 20.5695 72.165L17.5808 69.9591ZM14.2009 64.6578C14.9124 64.978 15.6952 65.1559 16.3712 65.4761C17.4385 65.9742 18.328 66.6502 19.253 67.3262C19.6444 67.6109 20.0714 67.8955 20.4271 68.2513C20.4627 68.2869 20.7829 68.6071 20.8185 68.6071L14.2009 64.6578ZM17.1539 62.3452C17.5097 62.274 18.328 62.8077 18.6126 62.9856C19.6444 63.5905 20.5695 64.4088 21.4234 65.2627C21.7436 65.5829 22.2772 65.9742 22.4551 66.4012L17.1539 62.3452ZM24.0206 68.4292C24.0206 68.2869 24.1629 68.6426 24.2697 68.7494C24.412 68.9629 24.5543 69.1763 24.6966 69.3542C25.0168 69.8523 25.764 70.4927 25.8707 71.062L24.0206 68.4292ZM22.7042 61.4202C23.6292 62.3452 24.412 63.3414 25.088 64.4799C25.2659 64.7646 25.4082 65.0848 25.5149 65.405C25.5505 65.4406 25.6216 65.7252 25.6928 65.7608L22.7042 61.4202ZM25.764 61.6336C27.2227 62.4164 27.8275 64.3376 28.6103 65.6185L25.764 61.6336ZM28.6814 61.3846C28.6458 61.4557 28.7882 61.4913 28.8593 61.5269C28.966 61.6336 29.0372 61.7404 29.1439 61.8471C29.4286 62.2029 29.7132 62.5943 29.9978 62.9856C30.4248 63.5549 30.745 64.1953 31.1008 64.8357C31.1719 64.978 31.3142 65.4406 31.4566 65.5473L28.6814 61.3846ZM33.3422 68.5003C33.3422 68.4292 33.4134 68.6071 33.4134 68.6427C33.449 68.7494 33.5201 68.8561 33.5557 68.9629C33.698 69.2831 33.7692 69.6389 33.8759 69.9591C34.0894 70.7418 34.2317 71.5601 34.3384 72.3428C34.3384 72.4496 34.3384 73.0544 34.4096 73.1256L33.3422 68.5003ZM24.5899 56.9728C25.6216 56.2968 27.0448 56.1545 28.2901 56.1901C28.6814 56.1901 29.4642 56.4747 29.8555 56.2968L24.5899 56.9728ZM26.5823 53.4505C26.5111 53.4861 26.689 53.3794 26.7602 53.3794C26.8669 53.3438 26.9736 53.3082 27.0804 53.2726C27.4006 53.2015 27.7208 53.2015 28.0766 53.2015C28.9661 53.1659 30.2825 53.0947 31.0652 53.5572L26.5823 53.4505ZM32.9509 54.3044C32.8086 54.2332 33.2355 54.3756 33.3778 54.4467C33.6624 54.5535 33.9471 54.7313 34.2317 54.8737C34.9789 55.3006 35.726 55.8343 36.5087 56.1901L32.9509 54.3044ZM27.5429 50.9244C27.5429 50.8177 28.5391 50.8888 28.6103 50.9244C29.7132 50.9956 30.8517 51.0667 31.8835 51.4937L27.5429 50.9244ZM35.1568 51.8495C35.1212 51.8139 35.2635 51.885 35.2991 51.885C35.4058 51.9206 35.5125 51.9562 35.6193 52.0274C35.9395 52.1697 36.2597 52.3476 36.5799 52.5255C37.2915 52.9168 38.0031 53.3082 38.6791 53.7707C38.8214 53.8419 39.2483 54.0554 39.3195 54.1977L35.1568 51.8495ZM30.2113 48.2916C31.7056 48.1493 33.6624 48.3628 35.0856 48.9676L30.2113 48.2916ZM36.6511 49.3945C37.1492 49.2878 38.1098 50.0349 38.5367 50.2484C38.6435 50.284 39.0704 50.6042 39.1772 50.5686L36.6511 49.3945ZM32.6307 45.4453C33.7336 45.5165 34.9077 45.6232 35.9395 46.0857L32.6307 45.4453ZM38.1098 47.1531C37.9675 47.1886 38.3944 47.2954 38.5367 47.331C38.8569 47.4733 39.1772 47.6868 39.4618 47.9002C40.3157 48.5406 41.2051 49.1455 42.0946 49.7503L38.1098 47.1531ZM37.1136 43.0971C37.5761 43.0971 38.0742 43.3817 38.5012 43.524C39.4262 43.9154 40.3513 44.3424 41.2051 44.876C41.3475 44.9472 42.2369 45.303 42.2369 45.5164L37.1136 43.0971ZM39.8887 41.496C39.8532 41.3537 40.2089 41.6028 40.3513 41.6384C40.6715 41.7451 40.9917 41.8518 41.2763 41.9586C42.1302 42.3144 42.8774 42.848 43.6601 43.3817C43.8736 43.524 44.087 43.6664 44.2649 43.8087C44.3717 43.8798 44.6207 44.1645 44.6207 44.0221L39.8887 41.496ZM41.7744 39.5392L42.2725 39.646C42.8062 39.8238 43.3399 40.0373 43.838 40.2508C44.8698 40.7133 45.866 41.4605 46.7554 42.2076C47.1112 42.4923 47.6449 42.848 47.894 43.2394L41.7744 39.5392ZM46.6131 38.294C46.6131 38.3295 46.9689 38.4007 47.0045 38.4363C47.3603 38.5786 47.7161 38.7565 48.0719 39.0055C49.1036 39.6815 50.2422 40.571 50.9537 41.5672L46.6131 38.294ZM48.1786 51.0667C48.1786 51.0667 48.57 51.1023 48.6055 51.1023C48.9257 51.1379 49.246 51.2091 49.5662 51.2802C50.3133 51.4225 51.772 51.5648 52.3413 52.1697L48.1786 51.0667ZM48.9257 47.6156C50.0287 48.2916 51.523 48.5406 52.6971 49.1455L48.9257 47.6156ZM50.171 45.7299C50.171 45.7299 50.3489 45.7299 50.3845 45.7299C50.5268 45.7299 50.6335 45.7655 50.7758 45.7655C51.2028 45.8367 51.5942 45.979 51.9855 46.1569C53.0885 46.6194 54.1202 47.2242 55.1165 47.9002L50.171 45.7299ZM51.8788 42.4567C51.9499 42.5278 52.448 42.599 52.5548 42.6701L51.8788 42.4567ZM54.1202 43.3461C54.0491 43.4529 54.4049 43.4529 54.5116 43.4885C54.7607 43.5952 55.0097 43.7375 55.2588 43.8442C56.0415 44.2712 57.0377 44.6626 57.6781 45.303L54.1202 43.3461ZM52.5192 40.2864C52.875 40.3575 53.2664 40.571 53.5866 40.7489L52.5192 40.2864ZM55.4011 41.4605C55.2588 41.5316 55.6857 41.5672 55.828 41.6028C56.1482 41.7095 56.4684 41.8874 56.7887 42.0653C57.6425 42.5278 58.3897 43.1327 59.208 43.6308L55.4011 41.4605ZM54.2626 38.1872C54.476 38.0449 55.0097 38.3651 55.1876 38.4363L54.2626 38.1872ZM57.3579 39.7171C57.2868 39.7883 57.5714 39.7527 57.6781 39.7883C57.8916 39.8594 58.1051 39.9662 58.283 40.0729C58.9234 40.3931 59.4926 40.8201 60.0975 41.1758L57.3579 39.7171ZM55.1165 36.4794C55.4722 36.266 56.2906 36.6929 56.6108 36.8352L55.1165 36.4794ZM59.1013 37.9382C59.1724 37.867 59.6705 38.1872 59.7417 38.2228C60.3821 38.5786 61.0225 38.8988 61.6274 39.3613L59.1013 37.9382ZM58.0695 34.3803C58.6388 34.5582 59.1369 34.8072 59.635 35.1274L58.0695 34.3803ZM61.6629 36.5506C61.5562 36.5506 61.8764 36.6218 61.9476 36.6929C62.161 36.7997 62.4101 36.942 62.6236 37.0843C63.264 37.4756 63.9044 37.9382 64.4737 38.4007L61.6629 36.5506ZM59.884 32.9927C60.3465 33.2062 60.8091 33.4197 61.236 33.7043L59.884 32.9927ZM63.7977 35.3409C63.8333 35.4121 64.4737 35.6256 64.5448 35.6967C65.1852 36.0525 65.8612 36.4794 66.4305 36.9775L63.7977 35.3409ZM62.7303 30.9292C63.1573 31.0003 63.7265 31.4273 64.0467 31.6763L62.7303 30.9292ZM66.217 33.0995C66.1459 33.2062 66.4661 33.2418 66.5728 33.3129C66.8219 33.4908 67.1065 33.6687 67.3555 33.8466C68.0671 34.3091 69.2056 34.9496 69.6682 35.6967L66.217 33.0995ZM65.8612 30.3599C65.7545 30.3955 66.0391 30.4311 66.1459 30.4666C66.3593 30.5734 66.5728 30.6801 66.7863 30.7868C67.32 31.107 67.8892 31.4273 68.3518 31.8542L65.8612 30.3599ZM70.5932 32.7081C70.5221 32.6369 70.7711 32.8504 70.8423 32.9216C71.0202 33.0283 71.1625 33.1706 71.3404 33.3129C71.7673 33.6687 72.1943 34.0245 72.6568 34.3803C72.6924 34.4159 73.0482 34.6293 73.0482 34.6649L70.5932 32.7081ZM69.5259 29.4704C69.5614 29.6127 70.6288 30.0397 70.7711 30.1464C71.4471 30.6445 72.0875 31.2494 72.7279 31.783C73.1549 32.1388 73.7597 32.5302 74.0799 33.0283L69.5259 29.4704ZM72.4433 28.5454C72.7279 28.4742 73.1193 28.8656 73.2972 29.0079C73.9376 29.5416 74.578 30.0397 75.1473 30.6089C75.254 30.7157 76.2858 31.7475 76.2502 31.7475L72.4433 28.5454ZM75.1829 27.905C75.0761 27.9405 75.3608 28.0473 75.4319 28.1184C75.6098 28.2607 75.7877 28.4386 75.9656 28.6165C76.3926 29.0791 77.1397 29.7551 77.3888 30.3599L75.1829 27.905ZM72.7635 39.9306C72.7991 39.8238 73.1905 39.895 73.2616 39.895C73.7597 39.9662 74.2934 39.9662 74.7915 40.0729L72.7635 39.9306ZM77.5667 40.9624C77.6022 40.9979 77.9936 41.0335 78.0648 41.0691C78.5629 41.247 79.061 41.4249 79.5235 41.6739L77.5667 40.9624ZM82.1563 43.0259C83.1169 43.5596 84.1132 44.4491 84.8603 45.2674L82.1563 43.0259ZM73.5107 36.8708C73.4751 36.7641 73.7597 36.9064 73.8665 36.9064C74.1155 36.942 74.3646 36.9775 74.578 37.0131C75.2185 37.1199 76.0368 37.191 76.5705 37.5824L73.5107 36.8708ZM79.5591 38.543C80.3418 38.8632 81.2669 39.0411 82.014 39.5392L79.5591 38.543ZM84.5757 41.1047C84.5757 41.1047 84.7536 41.2114 84.7892 41.247C84.9315 41.3537 85.0382 41.4249 85.1805 41.5316C85.5363 41.8163 85.8921 42.1009 86.2479 42.3499L84.5757 41.1047ZM75.0761 34.2736C74.9694 34.2736 75.3252 34.3091 75.4319 34.3447C75.6454 34.3803 75.8589 34.4515 76.1079 34.5226C76.7483 34.7361 77.4599 34.8428 78.0648 35.0919L75.0761 34.2736ZM80.9822 36.3015C82.014 36.4794 83.0102 37.4045 83.9353 37.9026L80.9822 36.3015ZM77.6022 32.459H77.958C78.2071 32.4946 78.4206 32.5302 78.634 32.5658C79.31 32.7081 80.0216 32.886 80.662 33.135L77.6022 32.459ZM83.6862 34.4159C83.6862 34.3447 84.2199 34.5938 84.2555 34.6293C84.8603 34.914 85.4651 35.3053 85.9988 35.7323L83.6862 34.4159ZM88.2047 37.1554C88.8096 37.2978 89.4855 38.1161 89.9837 38.5074L88.2047 37.1554ZM79.4168 30.2887C79.4168 30.2887 79.5947 30.2532 79.6658 30.2887C79.8437 30.3243 80.0216 30.3955 80.2351 30.4666C80.8043 30.6801 81.5159 30.8224 82.014 31.1782L79.4168 30.2887ZM85.3228 33.135C85.9988 33.3485 86.5681 33.6687 87.2085 34.0245L85.3228 33.135ZM89.4855 35.4832C89.5923 35.4121 89.9837 35.7323 90.0192 35.7679C90.5173 36.1237 91.051 36.5506 91.478 37.0131L89.4855 35.4832ZM82.0852 28.83C82.3342 28.7588 82.7256 28.9723 82.9391 29.0791C83.5083 29.3281 84.1132 29.5416 84.718 29.8262L82.0852 28.83ZM87.7422 31.2138L87.9912 31.2494C88.1336 31.2849 88.2759 31.3561 88.4182 31.4628C88.8807 31.7119 89.2721 32.0321 89.7346 32.2811L87.7422 31.2138ZM91.5491 33.5264C91.8693 34.238 92.9723 34.6649 93.4704 35.2342L91.5491 33.5264ZM84.3978 27.1222C84.5045 27.0511 85.0382 27.4069 85.1094 27.4424C85.7498 27.7982 86.4969 28.0829 87.1018 28.5098L84.3978 27.1222ZM89.8413 29.9685C90.0192 30.0753 90.3394 30.0753 90.5529 30.182C91.0154 30.431 91.4424 30.7868 91.8693 31.107L89.8413 29.9685ZM93.506 32.1388C93.5415 32.2456 93.8973 32.4235 93.9685 32.4946C94.431 32.886 94.8224 33.3129 95.2849 33.6687L93.506 32.1388ZM87.1018 26.3751C87.671 26.4106 88.347 26.9443 88.8096 27.1934C90.0192 27.905 91.2289 28.6877 92.2963 29.6127C92.5453 29.8262 92.9367 30.0041 93.1146 30.2532L87.1018 26.3751ZM90.0904 25.4856C90.1615 25.3789 91.3001 25.9837 91.3712 26.0193C92.403 26.553 93.3636 27.1934 94.2887 27.905C94.5377 28.0828 95.1426 28.4031 95.2493 28.6877L90.0904 25.4856ZM97.0282 29.9685C97.5619 30.0753 98.1668 30.858 98.5937 31.2138L97.0282 29.9685ZM92.8655 24.525C93.2213 24.5606 93.6483 24.9163 93.9329 25.0942C94.9291 25.6635 95.7474 26.4106 96.6725 27.0866L92.8655 24.525ZM98.6293 28.6165C98.7005 28.6165 98.8072 28.7588 98.8428 28.7944C99.0207 28.9723 99.163 29.1502 99.3409 29.2925C99.9457 29.8974 100.728 30.5734 101.12 31.3205L98.6293 28.6165ZM96.2099 23.849C96.5301 23.9557 96.8859 24.1692 97.2061 24.3471C98.5937 25.0942 99.8034 26.2683 100.835 27.4424C101.191 27.8694 101.653 28.2607 101.974 28.7588L96.2099 23.849ZM99.5899 23.3865C99.5543 23.3865 99.6611 23.422 99.6611 23.4576C99.7322 23.4932 99.7678 23.5288 99.8034 23.5643C100.017 23.7067 100.195 23.8846 100.373 24.0624C100.728 24.4182 101.084 24.8096 101.404 25.201C101.547 25.3789 101.796 25.5568 101.867 25.7702L99.5899 23.3865ZM58.8166 56.8661C58.7811 56.7593 59.1013 57.0795 59.1369 57.1151C59.3503 57.293 59.5638 57.4353 59.8129 57.5777C60.56 58.0402 61.1648 58.645 61.8764 59.1431L58.8166 56.8661ZM59.7061 54.6602C59.5638 54.6246 59.9196 54.8381 60.0619 54.9448C60.2754 55.1227 60.4888 55.3006 60.6667 55.4785C61.3072 56.0122 61.9476 56.5103 62.4813 57.1507L59.7061 54.6602ZM61.1293 52.8813C61.4851 53.0947 61.8053 53.5928 62.1255 53.8775C62.8015 54.4823 63.9044 55.1583 64.3669 55.9766L61.1293 52.8813ZM62.837 50.7109C63.9756 52.0985 65.0074 53.664 66.5017 54.7669L62.837 50.7109ZM65.3987 47.2598C65.0429 48.3627 65.7189 49.7859 66.217 50.7109L65.3987 47.2598ZM68.245 45.8011C68.2806 45.8367 68.2094 46.1213 68.2094 46.1569C68.1739 46.6194 68.1027 47.0819 68.1027 47.5444C68.0315 48.7185 68.245 49.9282 68.4229 51.0667C68.4941 51.4581 68.4941 52.1697 68.7787 52.4899L68.245 45.8011ZM70.9846 44.7337C70.5221 45.8722 70.2019 47.4733 70.3086 48.7541L70.9846 44.7337ZM73.902 44.1289C73.8665 44.1645 74.0088 44.2356 74.0088 44.2712C74.0088 44.4491 73.902 44.6626 73.8309 44.8049C73.4751 45.552 73.226 46.3703 73.0126 47.1531C72.9058 47.5444 72.9058 48.0781 72.6924 48.3983L73.902 44.1289ZM76.8907 44.0577C76.8195 43.951 76.7483 44.3068 76.6772 44.4135C76.4993 44.6981 76.357 44.9828 76.2147 45.2674C75.8945 45.9434 75.7166 46.6194 75.5742 47.2954C75.5387 47.5089 75.3252 47.8291 75.3608 48.0425L76.8907 44.0577ZM79.986 44.6626C80.0928 44.9828 79.5591 45.6943 79.4523 45.9434C78.8831 47.0463 78.4205 48.1849 77.8513 49.2522L79.986 44.6626ZM83.4727 46.7617C83.4016 46.655 82.5477 47.331 82.4765 47.4021C81.5515 48.1849 80.6976 49.1099 79.8793 49.9638L83.4727 46.7617ZM85.6075 48.9676C85.5363 48.8964 85.0026 49.2166 84.967 49.2522C84.4334 49.5013 83.6862 49.7859 83.3304 50.3196L85.6075 48.9676ZM88.2047 21.2517C88.6672 21.6075 89.3788 21.8566 89.8769 22.2124L88.2047 21.2517ZM89.3432 19.8642C89.3788 19.7574 89.8769 20.0776 89.9125 20.1132C90.4106 20.3978 90.9799 20.8959 91.5847 20.9315L89.3432 19.8642ZM90.9443 18.1564C91.0154 18.2631 91.5135 18.441 91.6203 18.5122C92.1895 18.9391 92.6876 19.4728 93.3281 19.8286C93.4348 19.8997 93.8617 20.1488 94.0041 20.0776L90.9443 18.1564ZM92.3674 16.413C93.0078 16.8755 93.6483 17.3736 94.3243 17.765C94.3954 17.8006 94.9291 18.2275 95.0358 18.1208L92.3674 16.413ZM93.6127 13.6379C93.6127 13.6379 94.431 14.2783 94.4666 14.3139C95.3205 15.061 96.1744 16.3419 97.3129 16.6976L93.6127 13.6379ZM95.4272 12.2503C95.3916 12.1436 95.5695 12.4638 95.6407 12.5349C95.783 12.7128 95.9253 12.8907 96.0676 13.0686C96.5657 13.6379 97.135 14.2783 97.8466 14.5629L95.4272 12.2503ZM97.5619 12.0012C97.5975 11.9657 98.3802 12.784 98.4158 12.8196C98.7716 13.1398 99.839 13.5667 100.017 13.9937L97.5619 12.0012ZM88.0624 15.6303C87.9912 15.5947 88.4182 15.6659 88.4893 15.7014C88.7384 15.8082 88.9874 15.9505 89.2365 16.0928L88.0624 15.6303ZM86.9239 17.516C86.8171 17.4804 87.1018 17.5515 87.2085 17.5871C87.3508 17.6227 87.671 17.7294 87.7422 17.8717L86.9239 17.516ZM86.319 19.5439C86.3546 19.4016 86.7816 19.5795 86.8883 19.6151L86.319 19.5439ZM89.1653 12.6061C89.0942 12.3926 89.5923 12.8551 89.699 13.0686C89.9481 13.4956 90.0904 14.1715 90.5885 14.385L89.1653 12.6061ZM91.5847 9.93768C91.4068 10.6848 91.6203 11.3964 91.9049 12.0724L91.5847 9.93768ZM93.0434 8.69242C93.2213 8.76358 93.079 9.04821 93.1146 9.2261C93.2569 9.7242 93.4348 10.2579 93.6483 10.7204L93.0434 8.69242ZM94.8935 6.66443C94.8935 6.48653 94.8935 7.05579 94.9291 7.23369C95.0358 7.58948 95.1426 7.94526 95.1782 8.30105C95.1782 8.44337 95.1426 8.83473 95.2137 8.728L94.8935 6.66443ZM97.3485 4.45854C97.1706 4.56528 97.3129 5.24128 97.3129 5.38359C97.4196 6.23748 97.5619 7.41158 97.8821 8.19432L97.3485 4.45854ZM99.9101 3.8537C99.8034 3.96044 100.159 4.92107 100.195 5.06338C100.551 6.2019 100.728 7.48274 101.191 8.5501L99.9101 3.8537ZM100.871 1.46993C100.8 1.39877 100.977 1.64782 101.013 1.71898C101.084 1.93245 101.155 2.1815 101.262 2.43055C101.404 3.03539 101.618 3.60465 102.009 4.13833L100.871 1.46993ZM32.0258 62.2029C31.9191 62.3452 32.2749 62.4164 32.3816 62.5587C32.5951 62.8077 32.773 63.1279 32.9865 63.4126C33.5201 64.1953 33.8759 65.2271 34.4096 65.9387L32.0258 62.2029ZM35.9039 62.9145C35.8328 63.0212 36.0462 63.0924 36.0818 63.1991C36.2241 63.4837 36.3309 63.8039 36.4732 64.0886C36.9001 65.1559 37.3626 66.2589 37.5405 67.433L35.9039 62.9145ZM38.4656 69.8879C38.5367 70.3504 38.7858 71.0264 38.7502 71.5245L38.4656 69.8879ZM35.9395 68.9629C35.726 69.1763 36.3664 70.2793 36.4732 70.5995L35.9395 68.9629ZM40.1734 65.8675C40.1378 66.2589 40.707 67.0772 40.8138 67.433C41.2763 68.7138 41.9879 70.4572 41.7033 71.8447L40.1734 65.8675Z" stroke="#BD9F57" stroke-width="0.711576" stroke-miterlimit="10" stroke-linecap="round" stroke-linejoin="round"/>
<defs>
<linearGradient id="paint0_linear_6_6378" x1="52.4578" y1="-485.32" x2="52.4578" y2="213.705" gradientUnits="userSpaceOnUse">
<stop stop-color="#7F613B"/>
<stop offset="0.0430535" stop-color="#876A42"/>
<stop offset="0.1144" stop-color="#9D8455"/>
<stop offset="0.1224" stop-color="#A08757"/>
<stop offset="0.1603" stop-color="#AB9461"/>
<stop offset="0.2221" stop-color="#C5B278"/>
<stop offset="0.2857" stop-color="#D7C687"/>
<stop offset="0.3395" stop-color="#EADB97"/>
<stop offset="0.4454" stop-color="#E5D593"/>
<stop offset="0.6314" stop-color="#CFBC7F"/>
<stop offset="0.7336" stop-color="#B59D66"/>
<stop offset="0.8686" stop-color="#927546"/>
<stop offset="1" stop-color="#826337"/>
</linearGradient>
</defs>
</svg>
