<svg width="214" height="323" viewBox="0 0 214 323" fill="none" xmlns="http://www.w3.org/2000/svg">
<g opacity="0.2">
<path d="M102.58 322.625C86.0134 322.625 74.3037 318.722 69.7065 316.9C68.232 316.293 67.2779 314.818 67.3646 313.257C67.7116 306.925 68.4055 285.414 65.3696 272.49C64.1553 267.459 62.0736 263.296 59.9051 258.959C55.4814 250.112 50.4506 240.137 50.7108 218.973C51.0578 188.961 45.2463 160.945 40.3022 142.643C35.8786 126.249 32.409 111.07 34.404 91.9007C35.0979 85.0484 34.9244 79.8441 34.751 75.5939C34.4907 68.2211 34.3173 63.7975 40.389 61.8025C42.5574 61.1086 44.6391 61.629 46.5474 63.277C52.0986 68.1344 54.7875 82.6197 52.4456 94.9366C52.3589 95.5437 52.3589 96.0642 52.6191 96.5846C53.9202 99.7939 57.2162 108.468 58.8642 119.57C61.2929 135.617 63.8951 142.556 65.7166 145.592C66.0635 146.199 65.89 146.98 65.2829 147.24C64.6757 147.587 63.8951 147.413 63.6348 146.806C60.946 142.122 58.5173 133.015 56.5223 119.917C54.8743 109.075 51.6649 100.575 50.4506 97.452C50.1037 96.4979 49.9302 95.457 50.1904 94.4161C52.6191 81.8391 49.4098 68.8283 45.0728 65.0118C43.8585 63.971 42.6442 63.624 41.3431 64.0577C37.2664 65.3588 37.1796 67.7007 37.4399 75.3337C37.6133 79.5839 37.7868 84.9617 37.0929 91.9875C35.0979 110.81 38.5675 125.729 42.9044 141.862C47.8485 160.251 53.7467 188.614 53.3997 218.886C53.1395 239.443 58.0836 249.157 62.3338 257.745C64.589 262.255 66.6707 266.418 67.9718 271.796C71.0943 285.067 70.3137 306.925 70.0535 313.257C70.0535 313.778 70.3137 314.298 70.8341 314.472C78.2936 317.507 105.356 326.181 141.96 312.823C142.48 312.65 142.827 312.13 142.74 311.609C142.393 306.231 141.699 287.149 147.771 265.378C147.945 264.684 148.638 264.337 149.332 264.51C150.026 264.684 150.373 265.378 150.2 266.071C144.302 287.409 144.909 306.231 145.256 311.436C145.342 313.084 144.388 314.645 142.827 315.165C127.388 320.803 113.856 322.625 102.58 322.625Z" fill="#AB9F6E"/>
<path d="M142.133 269.801C141.526 269.801 141.005 269.368 140.919 268.76C140.832 268.066 141.266 267.459 141.96 267.373C142.22 267.373 164.512 263.73 178.823 218.192C184.461 200.411 187.497 188.267 189.926 178.552C193.829 163.113 195.911 154.613 204.151 142.296C211.957 130.586 210.83 126.856 209.962 125.729C208.401 123.82 203.631 124.254 197.212 126.856C184.895 131.8 178.737 143.857 173.272 160.337C168.241 175.69 157.919 182.195 157.486 182.456C156.879 182.803 156.098 182.629 155.751 182.022C155.404 181.415 155.577 180.721 156.185 180.287C156.271 180.2 166.16 173.955 170.93 159.47C175.788 144.638 182.293 130.066 196.258 124.428C201.722 122.259 208.835 120.351 211.871 124.081C214.56 127.377 212.651 133.969 206.233 143.597C198.166 155.567 196.258 163.46 192.355 179.073C189.926 188.874 186.89 201.018 181.165 218.886C166.246 266.071 143.174 269.628 142.22 269.715C142.22 269.801 142.22 269.801 142.133 269.801Z" fill="#AB9F6E"/>
<path d="M58.0837 153.659C57.9102 153.659 57.65 153.572 57.5632 153.485C57.2163 153.138 57.2163 152.618 57.4765 152.357C57.65 152.184 61.9869 147.413 67.6249 144.204C70.0536 142.816 72.0485 142.036 73.7833 141.342C76.0385 140.474 77.9468 139.694 80.4622 137.785C80.8091 137.525 81.3296 137.612 81.5898 137.959C81.85 138.306 81.7633 138.826 81.4163 139.086C78.7274 141.081 76.559 141.949 74.3038 142.816C72.569 143.51 70.7475 144.204 68.3188 145.592C62.941 148.628 58.6041 153.398 58.6041 153.398C58.5174 153.572 58.2571 153.659 58.0837 153.659Z" fill="#AB9F6E"/>
<path d="M159.221 180.808C158.874 180.808 158.613 180.721 158.353 180.461C156.185 178.379 151.501 167.45 151.674 148.541C151.761 138.479 150.113 129.372 148.465 119.831C146.99 111.504 145.429 102.917 145.082 93.462C144.475 77.7624 142.307 66.4864 141.352 62.4097C141.092 61.1953 141.005 59.8943 141.005 58.5932C141.439 37.0821 136.322 23.3774 131.291 19.8211C130.163 19.0405 129.122 18.7803 128.168 19.1272C124.438 20.515 124.438 24.3315 124.959 36.4749C125.132 40.4649 125.393 45.409 125.393 51.2204C125.479 59.1136 125.74 65.7057 126 72.0377C126.433 83.4871 126.867 93.3753 125.826 105.432C124.265 123.994 119.668 132.234 119.494 132.581C119.234 133.015 118.714 133.275 118.28 133.188C117.76 133.101 117.413 132.755 117.239 132.321C114.464 122.172 113.509 94.7631 112.989 81.5789V80.6247C112.815 76.4613 112.555 72.2111 112.208 67.7875C111.514 59.2004 110.82 49.3989 110.82 35.0871C110.82 17.8262 106.484 6.6369 102.407 3.60105C101.366 2.82041 100.412 2.64693 99.5445 2.90714C94.5137 4.3817 93.1259 6.81037 93.2126 20.862C93.2993 34.133 92.6922 47.4907 91.3911 61.8893C90.09 75.8541 90.437 87.3903 91.4778 103.784C92.6054 120.958 91.4778 133.015 91.4778 133.101C91.3911 133.795 90.8707 134.316 90.1768 134.229C89.4829 134.229 88.9624 133.709 88.9624 133.015C88.442 115.494 85.4929 103.177 82.804 92.3344C82.5438 91.1201 82.1968 89.9058 81.9366 88.6914C79.4212 78.2828 79.2477 65.0118 79.0743 54.343C79.0743 52.6083 78.9875 51.047 78.9875 49.4857C78.814 40.1179 76.2119 25.7193 71.7882 23.0305C70.9208 22.51 70.1402 22.51 69.1861 22.9437C62.5072 25.9796 62.5072 33.3523 63.3746 44.1079L63.5481 45.8427C64.3287 55.2104 64.7624 61.3688 63.8083 76.2011C63.2011 85.3954 63.3746 91.9007 63.6348 99.3602C63.8083 104.565 63.9818 110.029 63.8083 116.881C63.5481 133.448 65.3696 145.245 65.3696 145.332C65.4563 146.026 65.0226 146.633 64.3287 146.719C63.6348 146.806 63.0276 146.372 62.9409 145.679C62.9409 145.592 61.1194 133.535 61.2929 116.795C61.3796 109.942 61.2061 104.565 61.1194 99.3602C60.9459 92.0742 60.6857 85.2219 61.2929 75.9409C62.247 61.2821 61.7266 55.2104 61.0327 45.9294L60.8592 44.1946C60.0785 34.5667 59.2979 24.5917 68.0585 20.6018C69.7932 19.8211 71.4413 19.9079 73.0026 20.862C78.814 24.505 81.2427 40.3781 81.4162 49.4857C81.4162 51.047 81.5029 52.6083 81.5029 54.343C81.6764 64.8384 81.8499 77.9359 84.2786 88.0843C84.5388 89.2986 84.8857 90.5129 85.1459 91.7273C86.5338 97.452 88.095 103.61 89.2226 110.723C89.1359 108.555 89.0492 106.213 88.8757 103.784C87.8348 87.6506 87.4879 75.5072 88.789 61.4556C90.09 47.1437 90.6972 33.8728 90.6105 20.6885C90.6105 7.15733 91.6513 2.56019 98.7639 0.391731C100.412 -0.128699 102.147 0.304993 103.795 1.51933C109.433 5.76951 113.249 19.1272 113.162 34.9136C113.162 49.1387 113.856 58.8534 114.55 67.4405C114.897 71.8642 115.244 76.1144 115.331 80.3645V81.3187C115.765 92.0742 116.632 115.841 118.714 127.81C120.188 123.907 122.357 116.448 123.311 105.085C124.352 93.2018 123.918 83.3136 123.484 71.9509C123.224 65.8792 122.964 58.9402 122.877 51.047C122.79 45.3222 122.617 40.3781 122.443 36.3882C121.923 24.2448 121.663 18.6935 127.301 16.6118C128.515 16.1781 130.423 16.0046 132.679 17.6527C138.403 21.7294 143.955 35.9545 143.434 58.5065C143.434 59.6341 143.521 60.7617 143.694 61.8025C144.562 65.966 146.817 77.3287 147.424 93.2886C147.771 102.57 149.332 111.157 150.807 119.397C152.542 129.112 154.19 138.306 154.103 148.628C153.929 168.317 159.134 177.772 160.088 178.726C160.608 179.16 160.608 179.94 160.088 180.461C159.828 180.721 159.567 180.808 159.221 180.808Z" fill="#AB9F6E"/>
<path d="M86.9677 135.27C86.6208 135.27 86.3606 135.096 86.1871 134.75C86.0136 134.316 86.1871 133.882 86.6208 133.709C86.7075 133.709 89.1362 132.755 93.4731 132.668C93.9068 132.668 94.3405 133.015 94.3405 133.448C94.3405 133.882 93.9935 134.316 93.5598 134.316C89.4831 134.403 87.3147 135.27 87.2279 135.27C87.2279 135.27 87.0545 135.27 86.9677 135.27Z" fill="#AB9F6E"/>
<path d="M123.484 134.229C123.397 134.229 123.397 134.229 123.311 134.229C119.147 133.362 115.417 133.448 114.03 133.535C113.943 133.535 113.856 133.535 113.856 133.535C113.422 133.535 112.989 133.188 112.989 132.668C112.989 132.234 113.336 131.887 113.769 131.8C115.678 131.714 119.407 131.627 123.571 132.494C124.005 132.581 124.265 133.015 124.178 133.448C124.265 133.969 123.918 134.229 123.484 134.229Z" fill="#AB9F6E"/>
<path d="M72.1353 269.281C71.9618 269.281 71.8751 269.281 71.7883 269.194C71.5281 269.021 65.1962 265.638 61.3797 260.867C61.1195 260.52 61.1195 260 61.5532 259.74C61.9002 259.479 62.4206 259.479 62.6808 259.913C66.3238 264.423 72.4823 267.806 72.569 267.806C73.0027 267.98 73.0894 268.5 72.9159 268.934C72.7425 269.107 72.3955 269.281 72.1353 269.281Z" fill="#AB9F6E"/>
<path d="M69.1859 182.716C71.9616 180.894 74.3035 178.639 76.2117 175.864C76.7322 175.17 75.5178 174.476 74.9974 175.17C73.2626 177.772 71.0942 179.854 68.492 181.502C67.7981 181.935 68.492 183.15 69.1859 182.716Z" fill="#AB9F6E"/>
<path d="M67.9718 187.486C73.9568 187.14 78.4672 183.843 82.8041 180.114C88.1819 175.517 93.5597 171.7 100.672 170.572C107.698 169.445 114.984 170.919 121.056 174.649C126.347 177.945 130.77 182.369 136.842 184.364C137.709 184.624 138.056 183.323 137.189 183.063C130.423 180.894 125.74 175.43 119.494 172.221C114.464 169.618 108.739 168.491 103.101 168.924C97.3761 169.358 91.9116 171.266 87.3145 174.649C81.1561 179.16 76.1252 185.578 67.9718 186.099C67.1044 186.185 67.1044 187.573 67.9718 187.486Z" fill="#AB9F6E"/>
<path d="M73.2627 186.012C82.4569 193.471 94.1666 198.762 106.223 197.375C116.632 196.16 126.173 190.349 131.898 181.501C132.418 180.808 131.204 180.114 130.683 180.808C124.959 189.568 115.331 195.206 105.009 196.074C93.7329 197.028 82.8039 191.997 74.2168 184.971C73.6096 184.451 72.5687 185.405 73.2627 186.012Z" fill="#AB9F6E"/>
<path d="M78.2936 185.492C84.8857 179.333 91.738 173.261 100.846 171.613C110.647 169.879 120.362 173.435 127.214 180.461C127.821 181.068 128.775 180.114 128.168 179.507C121.316 172.481 111.861 168.838 102.06 170.052C91.9983 171.266 84.452 177.772 77.3395 184.451C76.6456 185.058 77.5997 186.012 78.2936 185.492Z" fill="#AB9F6E"/>
<path d="M75.3445 186.185C76.9925 185.578 78.3803 184.711 79.6814 183.496C80.2886 182.889 79.3345 181.935 78.7273 182.542C77.6864 183.583 76.3854 184.364 74.9975 184.884C74.1302 185.145 74.4771 186.532 75.3445 186.185Z" fill="#AB9F6E"/>
<path d="M127.561 179.94C128.515 180.634 129.469 181.328 130.423 182.022C131.117 182.542 131.811 181.328 131.117 180.808C130.163 180.114 129.209 179.42 128.255 178.726C127.561 178.292 126.867 179.507 127.561 179.94Z" fill="#AB9F6E"/>
<path d="M93.0393 172.654C88.3554 175.863 86.7941 181.762 88.1819 187.226C89.6565 193.038 94.6873 196.681 100.412 197.548C101.279 197.722 101.626 196.334 100.759 196.247C96.0751 195.466 91.5647 192.864 89.9167 188.18C88.0952 183.15 89.136 176.991 93.7332 173.869C94.4271 173.348 93.7332 172.134 93.0393 172.654Z" fill="#AB9F6E"/>
<path d="M109.606 196.767C119.928 191.91 123.051 176.124 111.775 170.225C110.994 169.792 110.3 171.006 111.081 171.44C121.576 176.991 118.28 191.216 108.913 195.64C108.132 195.987 108.826 197.201 109.606 196.767Z" fill="#AB9F6E"/>
<path d="M103.795 178.639C101.626 178.466 99.5444 180.027 99.3709 182.282C99.1974 184.537 100.845 186.532 103.187 186.619C105.443 186.706 107.351 184.798 107.351 182.542C107.351 180.287 105.269 178.639 103.101 178.726C102.233 178.726 102.233 180.114 103.101 180.114C106.744 180.027 106.83 185.405 103.187 185.231C101.713 185.145 100.585 183.757 100.759 182.282C100.932 180.721 102.32 179.853 103.795 179.94C104.662 180.027 104.662 178.726 103.795 178.639Z" fill="#AB9F6E"/>
<path d="M103.274 179.42C101.193 179.16 99.8048 181.848 101.453 183.323C102.927 184.537 105.269 183.236 104.836 181.328C104.315 179.246 101.279 179.333 100.846 181.415C100.412 183.323 102.667 184.798 104.315 183.757C105.963 182.629 105.443 179.854 103.361 179.854C101.453 179.854 100.065 182.716 101.279 184.104C102.58 185.752 105.443 184.624 105.53 182.629C105.616 180.634 103.188 179.593 101.887 181.155C100.585 182.803 101.019 185.752 103.535 185.578C105.356 185.405 106.57 182.889 105.443 181.415C103.881 179.507 101.54 182.369 101.453 183.93C101.366 186.272 104.142 186.446 105.356 184.884C105.963 184.104 106.31 182.976 105.963 182.022C105.703 181.155 104.836 180.634 103.968 180.981C102.407 181.588 101.279 184.364 103.014 185.405C104.922 186.619 107.004 184.104 106.31 182.282C106.05 181.502 105.269 180.981 104.489 181.155C103.535 181.328 102.754 182.456 102.58 183.323C102.407 184.277 103.101 185.145 104.142 184.884C105.356 184.624 105.703 182.976 105.703 181.935C105.703 181.068 105.269 180.027 104.228 180.2C103.188 180.374 102.841 181.848 102.841 182.716C102.841 183.67 103.535 184.711 104.575 184.537C105.79 184.364 106.05 183.063 105.963 182.022C105.876 181.068 105.443 179.94 104.315 180.027C103.014 180.114 102.667 181.762 102.667 182.803C102.667 183.67 104.055 183.67 104.055 182.803C104.055 182.542 104.055 181.848 104.315 181.588C104.749 181.241 104.749 182.022 104.662 182.195C104.749 182.542 104.575 182.629 104.228 182.542C104.228 182.369 104.315 182.195 104.315 182.109C104.402 181.848 104.489 181.675 104.402 181.415C104.575 181.675 104.402 182.282 104.315 182.456C104.228 182.629 103.795 183.236 104.142 182.976C104.228 182.803 104.402 182.629 104.489 182.369C104.662 182.542 104.922 182.629 105.096 182.803C105.183 183.15 104.749 183.843 104.489 184.017C103.274 184.711 103.621 182.976 104.055 182.456C104.922 181.502 104.749 182.976 104.402 183.497C104.228 183.757 103.795 184.19 103.448 184.277C102.58 184.364 102.667 183.583 102.927 183.15C103.101 182.716 104.315 181.155 104.489 182.456C104.575 183.236 103.881 184.19 103.101 183.93C102.147 183.67 102.494 182.109 103.188 181.675C104.228 181.068 104.489 182.716 103.448 183.15C102.233 183.67 101.973 182.456 102.494 181.588C102.754 181.155 103.101 180.808 103.621 181.068C104.055 181.328 104.055 181.762 103.881 182.109C103.361 182.976 101.887 182.369 102.407 181.415C103.101 179.94 104.489 182.282 102.927 182.195C102.32 182.195 102.06 181.588 102.32 181.068C102.494 180.547 102.927 180.461 103.361 180.547C104.142 180.894 104.055 179.507 103.274 179.42Z" fill="#AB9F6E"/>
<path d="M104.835 179.42C104.228 177.772 103.881 174.909 106.223 174.476C108.739 173.955 108.739 177.338 108.305 178.899C108.045 179.767 109.346 180.114 109.606 179.246C110.04 177.772 110.126 176.124 109.346 174.736C108.739 173.695 107.611 173.001 106.397 173.088C103.014 173.261 102.58 177.338 103.621 179.767C103.795 180.547 105.096 180.2 104.835 179.42Z" fill="#AB9F6E"/>
<path d="M108.565 179.68C112.816 181.588 115.244 185.491 115.071 190.175C115.071 191.043 116.372 191.043 116.459 190.175C116.632 185.058 113.943 180.634 109.259 178.466C108.479 178.119 107.785 179.333 108.565 179.68Z" fill="#AB9F6E"/>
<path d="M100.412 180.808C93.9066 179.593 88.6156 185.405 90.4371 191.823C90.6973 192.691 91.9984 192.344 91.7382 191.476C90.1769 186.185 94.5138 181.155 99.9783 182.195C100.932 182.282 101.279 180.981 100.412 180.808Z" fill="#AB9F6E"/>
<path d="M90.6105 188.788C91.3044 183.67 95.9015 180.374 101.019 181.675C101.886 181.848 102.233 180.547 101.366 180.374C95.6413 178.986 90.0901 182.542 89.3094 188.441C89.1359 189.308 90.5238 189.655 90.6105 188.788Z" fill="#AB9F6E"/>
<path d="M90.2633 187.14C90.5235 185.058 92.9522 182.803 94.687 181.762C96.8554 180.461 99.2841 180.2 101.626 181.155C102.407 181.502 102.84 180.114 101.973 179.853C97.0289 178.032 89.4827 181.502 88.8755 187.14C88.7887 188.007 90.1766 188.007 90.2633 187.14Z" fill="#AB9F6E"/>
<path d="M89.8299 185.665C92.0851 181.935 97.6364 177.945 101.973 180.547C102.754 180.981 103.448 179.853 102.667 179.333C97.6364 176.384 91.2177 180.547 88.6156 184.971C88.1819 185.752 89.3962 186.446 89.8299 185.665Z" fill="#AB9F6E"/>
<path d="M89.396 184.624C92.5186 180.287 97.7229 177.685 102.84 180.374C103.621 180.808 104.315 179.593 103.534 179.16C97.7229 176.037 91.8247 178.899 88.1817 183.843C87.748 184.624 88.8756 185.318 89.396 184.624Z" fill="#AB9F6E"/>
<path d="M103.882 178.899C99.2844 174.909 91.5647 178.986 88.4421 182.976C87.9217 183.67 88.8758 184.624 89.3962 183.93C91.9984 180.634 98.8507 176.384 102.927 179.853C103.621 180.374 104.575 179.42 103.882 178.899Z" fill="#AB9F6E"/>
<path d="M89.0491 183.41C92.3451 179.246 97.8964 176.384 103.014 179.073C103.795 179.507 104.489 178.292 103.708 177.859C98.0699 174.823 91.8247 177.598 88.0949 182.369C87.5745 183.063 88.5286 184.104 89.0491 183.41Z" fill="#AB9F6E"/>
<path d="M89.4831 181.415C92.9526 177.772 97.7232 176.557 102.581 178.032C103.448 178.292 103.795 176.991 102.928 176.731C97.6365 175.083 92.3454 176.471 88.5289 180.461C87.9218 181.068 88.8759 182.109 89.4831 181.415Z" fill="#AB9F6E"/>
<path d="M90.1768 180.114C93.0392 176.384 99.3711 176.471 103.448 177.772C104.315 178.032 104.662 176.731 103.795 176.471C99.2844 174.996 92.432 175.083 89.2227 179.16C88.6156 179.854 89.6564 180.808 90.1768 180.114Z" fill="#AB9F6E"/>
<path d="M90.6105 178.986C93.9933 175.95 98.4169 175.17 102.754 176.731C103.621 176.991 103.968 175.69 103.101 175.43C98.3302 173.782 93.4728 174.736 89.6564 178.032C88.9624 178.639 89.9166 179.593 90.6105 178.986Z" fill="#AB9F6E"/>
<path d="M91.0444 177.512C94.9477 175.256 99.3713 174.996 103.535 176.557C104.315 176.904 104.662 175.517 103.882 175.256C99.3713 173.522 94.514 173.869 90.3505 176.297C89.5699 176.818 90.2638 177.945 91.0444 177.512Z" fill="#AB9F6E"/>
<path d="M91.6513 176.297C93.9065 174.909 96.3351 173.869 98.9373 173.261C99.8047 173.088 99.4577 171.787 98.5903 171.96C95.9014 172.568 93.2993 173.695 90.9573 175.17C90.2634 175.517 90.9573 176.731 91.6513 176.297Z" fill="#AB9F6E"/>
<path d="M92.2587 174.649C92.172 174.736 92.0852 174.823 91.9985 174.823C91.3913 175.343 92.172 176.21 92.8659 175.864C97.6365 173.435 102.667 172.221 107.958 172.134C108.826 172.134 108.826 170.746 107.958 170.746C102.407 170.833 97.1161 172.134 92.172 174.649C92.4322 174.996 92.6924 175.343 93.0394 175.69C93.1261 175.603 93.2128 175.517 93.2996 175.517C93.82 174.996 92.8659 174.042 92.2587 174.649Z" fill="#AB9F6E"/>
<path d="M93.9935 175.69C97.81 174.302 101.627 173.608 105.703 173.522C106.571 173.522 106.571 172.134 105.703 172.134C101.54 172.134 97.5498 172.828 93.6466 174.302C92.8659 174.736 93.2129 176.037 93.9935 175.69Z" fill="#AB9F6E"/>
<path d="M97.7229 175.517C100.499 174.562 103.274 173.695 105.963 172.741C106.83 172.481 106.397 171.18 105.616 171.44C102.84 172.394 100.065 173.261 97.376 174.215C96.5086 174.476 96.8555 175.864 97.7229 175.517Z" fill="#AB9F6E"/>
<path d="M101.279 174.302C101.193 174.302 101.193 174.302 101.106 174.302C101.193 174.736 101.193 175.17 101.279 175.603C102.927 174.996 104.489 174.389 106.137 173.782C106.917 173.435 106.57 172.134 105.79 172.481C104.142 173.088 102.58 173.695 100.932 174.302C100.239 174.562 100.325 175.603 101.106 175.603C101.193 175.603 101.193 175.603 101.279 175.603C102.147 175.69 102.147 174.302 101.279 174.302Z" fill="#AB9F6E"/>
<path d="M102.234 176.124C103.101 175.69 103.968 175.343 104.749 174.909C105.53 174.562 104.836 173.348 104.055 173.695C103.188 174.129 102.32 174.476 101.54 174.909C100.759 175.256 101.366 176.471 102.234 176.124Z" fill="#AB9F6E"/>
<path d="M98.5906 173.608C100.065 173.175 101.54 172.914 103.101 172.828C103.968 172.741 103.968 171.353 103.101 171.44C101.453 171.613 99.8049 171.874 98.2436 172.307C97.3763 172.567 97.7232 173.868 98.5906 173.608Z" fill="#AB9F6E"/>
<path d="M98.5038 173.261C100.065 172.654 101.713 172.307 103.361 172.134C104.229 172.047 104.229 170.659 103.361 170.746C101.54 170.919 99.8049 171.266 98.1568 171.874C97.3762 172.307 97.7231 173.608 98.5038 173.261Z" fill="#AB9F6E"/>
<path d="M107.004 172.741C108.912 172.394 110.734 172.481 112.642 173.088C113.51 173.348 113.856 172.047 112.989 171.787C110.907 171.18 108.826 171.093 106.657 171.44C105.79 171.613 106.137 172.914 107.004 172.741Z" fill="#AB9F6E"/>
<path d="M105.53 173.695C108.218 173.175 110.907 173.348 113.509 174.129C114.377 174.389 114.724 173.088 113.856 172.828C110.994 171.96 108.132 171.787 105.183 172.394C104.315 172.567 104.662 173.868 105.53 173.695Z" fill="#AB9F6E"/>
<path d="M108.132 174.389C109.953 174.129 111.861 174.042 113.683 174.302C114.55 174.389 114.897 173.088 114.03 173.001C111.948 172.741 109.866 172.741 107.785 173.088C106.917 173.261 107.264 174.562 108.132 174.389Z" fill="#AB9F6E"/>
<path d="M108.999 174.996C110.734 174.909 112.382 174.909 114.03 175.256C114.897 175.43 115.244 174.129 114.377 173.955C112.555 173.608 110.821 173.522 108.999 173.695C108.132 173.695 108.132 175.083 108.999 174.996Z" fill="#AB9F6E"/>
<path d="M109.606 175.777C111.341 175.69 112.989 175.95 114.724 176.471C115.591 176.731 115.938 175.43 115.071 175.17C113.336 174.562 111.514 174.302 109.606 174.389C108.739 174.476 108.739 175.777 109.606 175.777Z" fill="#AB9F6E"/>
<path d="M109.953 176.991C111.688 176.818 113.336 177.078 114.984 177.512C115.851 177.772 116.198 176.471 115.331 176.21C113.596 175.69 111.775 175.43 109.953 175.603C109.086 175.69 109.086 177.078 109.953 176.991Z" fill="#AB9F6E"/>
<path d="M109.779 178.032C111.341 178.205 112.989 178.379 114.55 178.552C114.377 178.205 114.203 177.772 114.03 177.425L113.943 177.512C113.336 178.205 114.29 179.16 114.897 178.466L114.984 178.379C115.417 177.945 115.071 177.251 114.463 177.251C112.902 177.078 111.254 176.904 109.693 176.731C108.912 176.557 108.912 177.945 109.779 178.032Z" fill="#AB9F6E"/>
<path d="M109.779 179.16C111.167 179.16 112.468 179.333 113.769 179.68C114.637 179.94 114.984 178.552 114.116 178.379C112.729 178.032 111.254 177.859 109.779 177.859C108.912 177.772 108.912 179.16 109.779 179.16Z" fill="#AB9F6E"/>
<path d="M109.606 179.68C111.775 180.461 113.509 182.109 114.377 184.19C114.724 184.971 115.851 184.277 115.591 183.496C114.55 181.068 112.469 179.246 110.04 178.379C109.173 178.032 108.826 179.333 109.606 179.68Z" fill="#AB9F6E"/>
<path d="M110.907 179.42C112.469 180.634 113.943 182.109 115.158 183.67C115.678 184.364 116.892 183.67 116.372 182.976C115.071 181.241 113.596 179.767 111.861 178.379C111.254 177.858 110.3 178.813 110.907 179.42Z" fill="#AB9F6E"/>
<path d="M112.295 179.246C113.683 180.374 114.811 181.675 115.765 183.236C116.198 184.017 117.413 183.323 116.979 182.542C116.025 180.894 114.811 179.507 113.336 178.292C112.555 177.685 111.601 178.639 112.295 179.246Z" fill="#AB9F6E"/>
<path d="M114.03 178.639C114.55 180.114 115.157 181.588 115.938 182.889C116.198 183.41 117.066 183.323 117.152 182.716C117.152 182.629 117.152 182.629 117.152 182.542C117.413 181.675 116.025 181.328 115.851 182.195C115.851 182.282 115.851 182.282 115.851 182.369C116.285 182.282 116.719 182.282 117.066 182.195C116.372 180.981 115.765 179.593 115.244 178.205C115.071 177.425 113.77 177.772 114.03 178.639Z" fill="#AB9F6E"/>
<path d="M114.03 177.338C114.464 178.986 115.071 180.634 115.938 182.109C116.372 182.889 117.499 182.195 117.153 181.415C116.372 180.027 115.765 178.552 115.331 176.991C115.158 176.21 113.77 176.557 114.03 177.338Z" fill="#AB9F6E"/>
<path d="M114.464 174.649C114.724 176.818 115.331 178.899 116.285 180.894C116.632 181.588 117.673 181.068 117.5 180.374C117.413 180.2 117.413 180.027 117.326 179.767C117.153 178.899 115.765 179.246 116.025 180.114C116.112 180.287 116.112 180.461 116.198 180.721C116.632 180.547 117.066 180.374 117.413 180.2C116.545 178.466 116.025 176.557 115.765 174.649C115.678 173.869 114.29 173.782 114.464 174.649Z" fill="#AB9F6E"/>
<path d="M114.897 175.256C115.591 177.425 116.112 179.593 116.459 181.848C116.892 181.762 117.326 181.588 117.76 181.502C117.76 181.328 117.673 181.241 117.673 181.068C117.5 180.2 116.112 180.547 116.372 181.415C116.372 181.588 116.459 181.675 116.459 181.848C116.632 182.716 117.933 182.369 117.76 181.502C117.413 179.246 116.892 177.078 116.199 174.909C115.938 174.129 114.637 174.476 114.897 175.256Z" fill="#AB9F6E"/>
<path d="M116.025 179.073C116.112 181.155 115.851 183.236 115.244 185.231C114.984 186.099 116.285 186.446 116.545 185.578C117.152 183.41 117.413 181.241 117.326 179.073C117.413 178.205 116.025 178.205 116.025 179.073Z" fill="#AB9F6E"/>
<path d="M115.244 182.109C114.984 183.063 115.071 184.104 115.071 185.058C115.071 185.925 116.372 185.925 116.458 185.058C116.458 184.277 116.372 183.323 116.632 182.456C116.805 181.588 115.504 181.241 115.244 182.109Z" fill="#AB9F6E"/>
<path d="M116.892 181.501C116.632 183.41 116.112 185.318 115.504 187.139C115.244 188.007 116.545 188.354 116.806 187.486C117.413 185.665 117.933 183.757 118.193 181.848C118.28 180.981 116.979 180.634 116.892 181.501Z" fill="#AB9F6E"/>
<path d="M96.7688 180.547C95.2942 184.19 97.7229 188.18 101.279 189.481C105.096 190.869 108.478 188.18 110.04 184.798C110.387 184.017 109.259 183.323 108.825 184.104C107.524 187.053 104.662 189.481 101.279 188.007C98.5903 186.793 96.8555 183.757 98.0698 180.894C98.3301 180.114 97.029 179.767 96.7688 180.547Z" fill="#AB9F6E"/>
<path d="M93.9068 181.935C93.2996 186.532 96.5089 190.869 101.019 192.084C105.79 193.385 110.387 190.956 112.642 186.793C113.076 186.012 111.862 185.318 111.428 186.099C109.433 189.742 105.53 191.91 101.28 190.783C97.3763 189.742 94.6874 186.012 95.2078 181.935C95.2946 181.068 93.9935 181.068 93.9068 181.935Z" fill="#AB9F6E"/>
<path d="M90.9574 184.537C91.8248 189.221 94.9473 192.864 99.4577 194.426C104.662 196.247 109.346 194.252 113.249 190.696C113.856 190.089 112.902 189.135 112.295 189.742C108.825 193.038 104.575 194.859 99.8047 193.124C95.728 191.65 93.0391 188.354 92.2584 184.19C92.1717 183.323 90.7839 183.67 90.9574 184.537Z" fill="#AB9F6E"/>
<path d="M97.1156 183.236C97.2023 182.629 96.7687 181.935 96.1615 181.762C95.5543 181.588 94.8604 181.849 94.5135 182.369C94.2532 182.803 94.9472 183.236 95.2074 182.803C95.6411 182.195 96.335 182.629 96.2482 183.236C96.2482 183.757 97.0289 183.757 97.1156 183.236Z" fill="#AB9F6E"/>
<path d="M97.1161 183.323C96.9426 182.542 96.3355 181.935 95.4681 182.022C94.6874 182.109 94.167 182.803 94.167 183.496C94.167 184.017 95.0344 184.017 95.0344 183.496C95.0344 183.15 95.2079 182.803 95.5548 182.803C95.9885 182.803 96.162 183.15 96.2487 183.496C96.4222 184.104 97.2896 183.843 97.1161 183.323Z" fill="#AB9F6E"/>
<path d="M94.8607 184.711C94.6005 183.757 93.4729 183.496 92.6922 184.104C91.6514 184.884 91.9116 186.272 92.3453 187.313C92.5188 187.833 93.2994 187.573 93.1259 187.053C92.9525 186.532 92.6922 186.012 92.779 185.405C92.8657 185.058 92.9525 184.798 93.2994 184.624C93.6464 184.451 93.9933 184.537 94.0801 184.884C94.1668 185.405 94.9474 185.231 94.8607 184.711Z" fill="#AB9F6E"/>
<path d="M93.1259 188.18C92.6922 187.66 91.9983 187.226 91.3044 187.573C90.6105 187.92 90.437 188.614 90.437 189.308C90.437 189.828 91.2177 189.828 91.3044 189.308C91.3044 188.961 91.3044 188.441 91.7381 188.354C92.085 188.18 92.432 188.527 92.6055 188.788C92.8657 189.134 93.4729 188.527 93.1259 188.18Z" fill="#AB9F6E"/>
<path d="M92.2584 186.793C91.5645 186.793 91.044 187.053 90.6103 187.573C90.2634 188.007 91.044 188.441 91.3043 188.007C91.5645 187.747 91.8247 187.573 92.1716 187.573C92.7788 187.66 92.7788 186.793 92.2584 186.793Z" fill="#AB9F6E"/>
<path d="M90.7841 191.129C91.2178 191.91 91.6515 192.691 92.4322 193.211C92.8659 193.558 93.2996 192.777 92.8659 192.517C92.2587 192.084 91.9117 191.39 91.5648 190.696C91.2178 190.262 90.5239 190.696 90.7841 191.129Z" fill="#AB9F6E"/>
<path d="M92.2585 187.4C91.3911 187.486 90.6972 188.007 90.6105 188.874C90.5237 189.308 91.1309 189.655 91.3911 189.221V189.134C91.6513 188.701 90.9574 188.267 90.6972 188.701V188.788C90.9574 188.874 91.2176 188.961 91.4778 189.134C91.5646 188.701 91.8248 188.267 92.3452 188.267C92.7789 188.18 92.7789 187.4 92.2585 187.4Z" fill="#AB9F6E"/>
<path d="M91.8249 188.18C92.3453 188.18 92.3453 187.313 91.8249 187.313C91.3045 187.313 91.3045 188.18 91.8249 188.18Z" fill="#AB9F6E"/>
<path d="M91.5645 187.4L91.4777 187.486C91.2175 187.747 91.391 188.18 91.738 188.18C91.8247 188.18 91.9982 188.18 92.0849 188.18C92.0849 187.92 91.9982 187.66 91.9982 187.4C91.8247 187.4 91.7379 187.486 91.5645 187.486C91.1308 187.573 91.2175 188.267 91.6512 188.267C91.8247 188.267 91.9982 188.267 92.1716 188.267C92.6921 188.267 92.6921 187.486 92.1716 187.4C91.3043 187.313 90.6104 188.007 90.6104 188.874C90.6104 189.395 91.391 189.395 91.4777 188.874C91.4777 188.441 91.8247 188.18 92.2584 188.267C92.2584 188.007 92.2584 187.747 92.2584 187.4C92.0849 187.4 91.9114 187.4 91.738 187.4C91.738 187.66 91.8247 187.92 91.8247 188.18C91.9982 188.18 92.0849 188.094 92.2584 188.094C92.6921 188.007 92.6053 187.313 92.1716 187.313C92.0849 187.313 91.9114 187.313 91.8247 187.313C91.9114 187.573 91.9982 187.747 92.0849 188.007L92.1716 187.92C92.5186 187.66 91.9114 187.053 91.5645 187.4Z" fill="#AB9F6E"/>
<path d="M100.238 182.716C99.9782 181.762 99.1108 180.981 98.07 181.241C96.9424 181.502 96.7689 182.803 96.8557 183.757C96.9424 184.277 97.723 184.277 97.723 183.757C97.6363 183.236 97.5496 182.369 98.1567 182.022C98.7639 181.675 99.2843 182.282 99.4578 182.889C99.5445 183.497 100.325 183.236 100.238 182.716Z" fill="#AB9F6E"/>
<path d="M103.535 177.859C103.535 179.073 104.749 179.767 105.53 180.461C105.963 180.808 106.484 180.2 106.137 179.853C105.79 179.507 105.443 179.246 105.096 178.899C104.749 178.552 104.402 178.292 104.402 177.772C104.402 177.251 103.535 177.251 103.535 177.859Z" fill="#AB9F6E"/>
<path d="M115.417 191.303C115.851 190.436 116.025 189.481 116.025 188.527C116.025 188.007 115.157 188.007 115.157 188.527C115.157 189.395 115.07 190.175 114.724 190.956C114.463 191.39 115.244 191.823 115.417 191.303Z" fill="#AB9F6E"/>
<path d="M75.6914 180.461C80.115 176.21 85.0591 172.654 90.4369 169.705C91.2175 169.271 90.5236 168.144 89.743 168.491C84.2785 171.527 79.2476 175.17 74.6505 179.507C74.0433 180.114 74.9975 181.068 75.6914 180.461Z" fill="#AB9F6E"/>
<path d="M67.9716 154.613C84.1917 157.562 105.356 155.393 117.586 143.163C118.193 142.556 117.326 141.515 116.719 142.122C104.662 154.005 83.9314 156.087 68.0583 153.225C67.1909 153.051 67.1042 154.439 67.9716 154.613Z" fill="#AB9F6E"/>
<path d="M118.8 266.765C110.907 264.597 107.264 256.097 105.356 248.811C103.361 241.264 103.534 233.458 105.356 225.912C105.529 225.044 104.228 224.697 104.055 225.565C101.886 234.238 102.06 243.346 104.835 251.846C107.091 258.785 110.907 265.985 118.453 268.066C119.234 268.327 119.668 267.026 118.8 266.765Z" fill="#AB9F6E"/>
<path d="M71.268 182.282C66.0637 180.808 61.5533 178.205 57.65 174.389C57.0429 173.782 56.0888 174.736 56.6959 175.343C60.6859 179.246 65.5432 182.022 70.921 183.583C71.7884 183.757 72.1354 182.456 71.268 182.282Z" fill="#AB9F6E"/>
<path d="M128.428 175.69C131.551 178.379 135.194 180.287 139.271 181.241C139.704 181.328 139.878 180.721 139.444 180.547C135.541 179.593 131.985 177.772 128.949 175.17C128.602 174.909 128.081 175.43 128.428 175.69Z" fill="#AB9F6E"/>
<path d="M127.301 174.562C127.301 174.562 127.388 174.562 127.301 174.562C127.821 174.562 127.821 173.869 127.301 173.869C126.867 173.869 126.867 174.562 127.301 174.562Z" fill="#AB9F6E"/>
<path d="M58.6908 187.226C61.6399 186.706 64.4155 185.925 67.1912 184.884C67.6249 184.711 67.4514 184.104 67.0177 184.19C64.2421 185.318 61.4664 186.099 58.5173 186.532C58.0836 186.619 58.2571 187.226 58.6908 187.226Z" fill="#AB9F6E"/>
<path d="M65.2829 187.139C65.8033 187.139 65.8033 186.446 65.2829 186.446C64.7625 186.446 64.7625 187.139 65.2829 187.139Z" fill="#AB9F6E"/>
<path d="M78.7274 172.307C82.1102 168.664 86.187 166.149 90.9576 164.674C91.3913 164.588 91.2178 163.894 90.7841 163.98C85.9267 165.455 81.6766 168.144 78.2938 171.787C77.9468 172.134 78.4672 172.654 78.7274 172.307Z" fill="#AB9F6E"/>
<path d="M92.2584 168.231C92.6921 168.231 92.6921 167.537 92.2584 167.537C91.8247 167.537 91.8247 168.231 92.2584 168.231Z" fill="#AB9F6E"/>
<path d="M123.658 168.751C125.392 171.006 127.387 172.828 129.816 174.302C130.163 174.562 130.51 173.955 130.163 173.695C127.908 172.307 125.913 170.486 124.265 168.404C124.005 168.057 123.397 168.404 123.658 168.751Z" fill="#AB9F6E"/>
<path d="M133.633 132.841C138.577 133.795 142.914 136.224 146.297 140.041C146.557 140.387 147.077 139.867 146.817 139.52C143.434 135.617 138.924 133.101 133.893 132.147C133.373 132.147 133.199 132.754 133.633 132.841Z" fill="#AB9F6E"/>
<path d="M141.006 137.352C142.914 139.867 145.342 141.862 148.118 143.423C148.465 143.597 148.812 143.076 148.465 142.816C145.689 141.342 143.434 139.347 141.439 136.918C141.179 136.571 140.745 137.005 141.006 137.352Z" fill="#AB9F6E"/>
<path d="M129.036 86.4362C133.026 88.171 137.189 89.2986 141.439 89.819C141.873 89.9057 141.873 89.2118 141.439 89.1251C137.276 88.6046 133.199 87.477 129.383 85.829C128.949 85.7423 128.602 86.3494 129.036 86.4362Z" fill="#AB9F6E"/>
<path d="M135.281 90.7731C137.449 90.6864 139.444 91.0333 141.526 91.6405C141.96 91.814 142.133 91.1201 141.699 90.9466C139.618 90.2527 137.449 89.9925 135.281 90.0792C134.847 90.1659 134.847 90.8599 135.281 90.7731Z" fill="#AB9F6E"/>
<path d="M133.459 59.4606C135.021 59.8075 136.408 60.328 137.796 61.1086C138.143 61.3688 138.49 60.7616 138.143 60.5014C136.755 59.7208 135.281 59.1136 133.633 58.7667C133.199 58.7667 133.026 59.3738 133.459 59.4606Z" fill="#AB9F6E"/>
<path d="M59.0374 148.281C56.4353 150.536 54.0066 153.051 51.8382 155.827C51.5779 156.174 52.0116 156.694 52.3586 156.347C54.5271 153.572 56.9557 151.056 59.5579 148.801C59.8181 148.541 59.3844 148.02 59.0374 148.281Z" fill="#AB9F6E"/>
<path d="M60.8592 146.98C60.7724 146.98 60.7724 147.066 60.6857 147.066C60.3388 147.327 60.6857 147.934 61.0327 147.674C61.1194 147.674 61.1194 147.587 61.2061 147.587C61.5531 147.327 61.2061 146.719 60.8592 146.98Z" fill="#AB9F6E"/>
<path d="M53.7467 155.653C52.7926 156.781 51.9252 157.995 51.1445 159.296C50.8843 159.643 51.4915 159.99 51.7517 159.643C52.5323 158.429 53.313 157.215 54.2671 156.087C54.5273 155.74 54.0936 155.306 53.7467 155.653Z" fill="#AB9F6E"/>
<path d="M55.3082 155.046C55.7419 155.046 55.7419 154.352 55.3082 154.352C54.8745 154.439 54.8745 155.046 55.3082 155.046Z" fill="#AB9F6E"/>
<path d="M67.1914 142.643C68.9261 141.428 70.8344 140.474 72.9161 139.867C73.3498 139.78 73.1763 139.086 72.7426 139.173C70.6609 139.78 68.6659 140.734 66.8444 142.036C66.4974 142.296 66.8444 142.903 67.1914 142.643Z" fill="#AB9F6E"/>
<path d="M107.264 131.367C110.127 131.106 112.902 131.106 115.765 131.453C116.198 131.54 116.198 130.846 115.765 130.76C112.902 130.413 110.127 130.413 107.264 130.673C106.831 130.673 106.831 131.367 107.264 131.367Z" fill="#AB9F6E"/>
<path d="M109.346 133.362C109.953 133.362 110.56 133.362 111.167 133.362C111.601 133.362 111.601 132.668 111.167 132.668C110.56 132.668 109.953 132.668 109.346 132.668C108.912 132.668 108.912 133.362 109.346 133.362Z" fill="#AB9F6E"/>
<path d="M95.5548 133.535C95.9885 133.535 95.9885 132.841 95.5548 132.841C95.1211 132.841 95.1211 133.535 95.5548 133.535Z" fill="#AB9F6E"/>
<path d="M122.183 131.54C125.566 131.8 127.995 134.576 131.291 135.096C131.724 135.183 131.898 134.489 131.464 134.403C128.081 133.882 125.653 131.107 122.183 130.846C121.749 130.846 121.749 131.54 122.183 131.54Z" fill="#AB9F6E"/>
<path d="M123.224 128.938C124.699 125.815 125.74 122.606 126.434 119.223C126.52 118.79 125.827 118.616 125.74 119.05C125.046 122.346 124.092 125.555 122.617 128.591C122.444 129.025 122.964 129.372 123.224 128.938Z" fill="#AB9F6E"/>
<path d="M124.439 129.805C125.219 128.504 125.826 127.117 126.26 125.642C126.434 125.208 125.74 125.035 125.566 125.468C125.133 126.856 124.525 128.157 123.745 129.458C123.658 129.892 124.265 130.239 124.439 129.805Z" fill="#AB9F6E"/>
<path d="M126.173 130.239C126.173 130.152 126.173 130.152 126.173 130.239C126.173 129.719 125.479 129.719 125.479 130.152C125.479 130.152 125.479 130.152 125.479 130.239C125.479 130.673 126.173 130.673 126.173 130.239Z" fill="#AB9F6E"/>
<path d="M132.158 273.011C136.495 272.837 140.745 272.143 144.909 270.842C145.343 270.669 145.169 270.061 144.735 270.148C140.659 271.449 136.408 272.143 132.158 272.317C131.725 272.317 131.725 273.011 132.158 273.011Z" fill="#AB9F6E"/>
<path d="M137.102 274.572C139.531 274.312 141.959 273.791 144.301 273.011C144.735 272.837 144.562 272.23 144.128 272.317C141.873 273.184 139.531 273.704 137.102 273.878C136.668 273.965 136.668 274.659 137.102 274.572Z" fill="#AB9F6E"/>
<path d="M143.781 274.398C142.307 279.863 141.439 285.414 141.353 291.139C141.353 291.573 142.046 291.573 142.046 291.139C142.133 285.501 143.001 280.036 144.475 274.572C144.475 274.138 143.868 273.965 143.781 274.398Z" fill="#AB9F6E"/>
<path d="M141.786 275.526C140.659 278.475 140.051 281.598 139.878 284.72C139.878 285.154 140.572 285.154 140.572 284.72C140.745 281.598 141.439 278.562 142.48 275.7C142.567 275.353 141.873 275.179 141.786 275.526Z" fill="#AB9F6E"/>
<path d="M140.399 276.046C140.832 276.046 140.832 275.352 140.399 275.352C139.965 275.352 139.965 276.046 140.399 276.046Z" fill="#AB9F6E"/>
<path d="M133.633 274.832C135.281 275.613 137.016 276.046 138.837 276.133C139.271 276.133 139.271 275.526 138.837 275.439C137.189 275.352 135.541 274.919 133.98 274.225C133.633 274.138 133.286 274.659 133.633 274.832Z" fill="#AB9F6E"/>
<path d="M68.0582 268.5C69.8797 270.842 72.4819 272.317 75.431 272.75C75.8647 272.837 76.0382 272.143 75.6045 272.056C72.7421 271.623 70.3134 270.235 68.5787 267.98C68.3184 267.633 67.798 268.153 68.0582 268.5Z" fill="#AB9F6E"/>
<path d="M68.9259 271.276C70.3137 277.174 71.1811 283.159 71.5281 289.231C71.5281 289.664 72.222 289.664 72.222 289.231C71.7883 283.159 70.9209 277.087 69.6198 271.102C69.4463 270.669 68.8392 270.842 68.9259 271.276Z" fill="#AB9F6E"/>
<path d="M70.1404 272.056C70.8343 272.664 71.5283 273.097 72.3956 273.444C72.8293 273.618 73.0028 272.924 72.5691 272.75C71.8752 272.49 71.1813 272.056 70.5741 271.536C70.3139 271.276 69.7935 271.709 70.1404 272.056Z" fill="#AB9F6E"/>
<path d="M70.8341 273.791C71.2678 273.791 71.2678 273.097 70.8341 273.097C70.4004 273.097 70.4004 273.791 70.8341 273.791Z" fill="#AB9F6E"/>
<path d="M81.5028 279.95C84.8856 278.388 88.4419 277.261 92.0849 276.74C92.5186 276.654 92.3451 276.046 91.9114 276.046C88.1817 276.567 84.5386 277.694 81.1558 279.256C80.7222 279.516 81.0691 280.123 81.5028 279.95Z" fill="#AB9F6E"/>
<path d="M87.4877 280.036C94.6003 276.914 102.233 276.567 109.866 276.307C110.3 276.307 110.3 275.613 109.866 275.613C102.147 275.873 94.3401 276.307 87.1408 279.429C86.7938 279.603 87.1408 280.21 87.4877 280.036Z" fill="#AB9F6E"/>
<path d="M60.1653 250.025C61.6399 255.489 64.7624 260 69.3596 263.296C69.7065 263.556 70.0535 262.949 69.7065 262.689C65.2829 259.479 62.247 255.056 60.8592 249.765C60.6857 249.418 59.9918 249.591 60.1653 250.025Z" fill="#AB9F6E"/>
<path d="M66.8444 259.306C69.2731 261.648 72.0487 263.643 74.9978 265.291C75.3448 265.464 75.6917 264.944 75.3448 264.684C72.3957 263.122 69.7068 261.127 67.2781 258.872C67.0179 258.525 66.5842 259.046 66.8444 259.306Z" fill="#AB9F6E"/>
<path d="M97.6364 260.694C100.065 258.438 102.06 255.836 103.708 252.887C103.882 252.54 103.361 252.193 103.101 252.54C101.54 255.403 99.5447 258.005 97.116 260.173C96.8558 260.52 97.2895 261.041 97.6364 260.694Z" fill="#AB9F6E"/>
<path d="M101.713 258.525C102.841 257.311 103.708 255.923 104.402 254.449C104.575 254.015 103.968 253.668 103.795 254.102C103.101 255.489 102.32 256.791 101.193 258.005C100.932 258.352 101.366 258.872 101.713 258.525Z" fill="#AB9F6E"/>
<path d="M106.484 249.244C107.351 254.622 109.866 259.306 113.77 263.036C114.117 263.296 114.55 262.862 114.29 262.515C110.474 258.872 108.045 254.275 107.177 249.071C107.091 248.637 106.397 248.811 106.484 249.244Z" fill="#AB9F6E"/>
<path d="M110.561 256.27C112.122 259.132 114.204 261.648 116.719 263.73C117.066 263.99 117.5 263.556 117.239 263.209C114.724 261.214 112.729 258.699 111.168 255.836C110.907 255.489 110.3 255.836 110.561 256.27Z" fill="#AB9F6E"/>
<path d="M143.955 265.378C154.884 259.132 163.644 249.765 169.109 238.402C169.282 237.968 168.675 237.621 168.502 238.055C163.037 249.331 154.363 258.612 143.521 264.857C143.261 265.031 143.608 265.638 143.955 265.378Z" fill="#AB9F6E"/>
<path d="M157.659 251.499C162.95 245.428 167.461 238.662 170.93 231.376C171.104 230.942 170.497 230.596 170.323 231.029C166.853 238.315 162.43 244.994 157.139 250.979C156.879 251.326 157.399 251.846 157.659 251.499Z" fill="#AB9F6E"/>
<path d="M170.583 235.54C172.665 231.897 174.4 228.167 175.701 224.177C175.874 223.743 175.18 223.57 175.007 224.003C173.706 227.907 172.058 231.636 169.976 235.193C169.803 235.626 170.41 235.886 170.583 235.54Z" fill="#AB9F6E"/>
<path d="M166.593 235.713C168.502 232.764 170.15 229.728 171.451 226.432C171.624 225.998 170.93 225.825 170.757 226.259C169.456 229.468 167.895 232.504 165.986 235.366C165.726 235.713 166.333 236.06 166.593 235.713Z" fill="#AB9F6E"/>
<path d="M171.624 229.728C172.058 229.728 172.058 229.034 171.624 229.034C171.19 229.034 171.19 229.728 171.624 229.728Z" fill="#AB9F6E"/>
<path d="M172.925 200.324C172.839 199.977 172.752 199.717 172.665 199.37C172.492 199.456 172.231 199.543 172.058 199.63C173.793 203.446 174.747 207.35 174.747 211.6C174.747 212.033 175.441 212.033 175.441 211.6C175.441 207.35 174.487 203.186 172.665 199.283C172.492 198.936 171.971 199.196 172.058 199.543C172.145 199.89 172.231 200.15 172.318 200.497C172.405 200.931 173.099 200.757 172.925 200.324Z" fill="#AB9F6E"/>
<path d="M171.451 196.16C173.099 198.155 174.14 200.497 174.747 203.013C174.834 203.446 175.528 203.273 175.441 202.839C174.834 200.237 173.619 197.808 171.971 195.727C171.711 195.38 171.191 195.813 171.451 196.16Z" fill="#AB9F6E"/>
<path d="M175.614 200.844C176.221 202.752 176.568 204.661 176.741 206.656C176.741 207.089 177.435 207.089 177.435 206.656C177.262 204.574 176.915 202.579 176.308 200.671C176.134 200.237 175.527 200.41 175.614 200.844Z" fill="#AB9F6E"/>
<path d="M177.175 208.651C177.609 208.651 177.609 207.957 177.175 207.957C176.742 208.043 176.742 208.651 177.175 208.651Z" fill="#AB9F6E"/>
<path d="M174.573 160.771C176.742 160.858 178.824 161.378 180.818 162.159C181.252 162.332 181.426 161.638 180.992 161.465C178.91 160.598 176.829 160.164 174.573 160.077C174.14 160.077 174.14 160.771 174.573 160.771Z" fill="#AB9F6E"/>
<path d="M176.134 159.643C179.777 160.077 183.16 161.465 186.109 163.547C186.456 163.807 186.803 163.2 186.456 162.94C183.334 160.684 179.864 159.383 176.134 158.863C175.701 158.863 175.701 159.557 176.134 159.643Z" fill="#AB9F6E"/>
<path d="M187.411 164.154H187.497C187.931 164.154 187.931 163.46 187.497 163.46H187.411C186.977 163.46 186.977 164.154 187.411 164.154Z" fill="#AB9F6E"/>
<path d="M184.548 159.383C186.283 159.99 187.844 160.771 189.318 161.985C189.665 162.246 190.099 161.812 189.839 161.465C188.364 160.251 186.63 159.297 184.808 158.689C184.374 158.603 184.201 159.21 184.548 159.383Z" fill="#AB9F6E"/>
<path d="M160.261 183.063C162.603 183.93 164.685 185.318 166.42 187.14C166.68 187.486 167.201 186.966 166.94 186.619C165.119 184.711 162.95 183.323 160.522 182.369C160.001 182.282 159.828 182.889 160.261 183.063Z" fill="#AB9F6E"/>
<path d="M161.302 185.405C164.425 186.966 166.854 189.395 168.502 192.431C168.675 192.778 169.282 192.517 169.109 192.084C167.461 188.874 164.859 186.359 161.649 184.798C161.216 184.624 160.869 185.231 161.302 185.405Z" fill="#AB9F6E"/>
<path d="M148.638 175.083C150.113 176.297 151.761 177.165 153.582 177.685C154.016 177.772 154.19 177.165 153.756 176.991C152.021 176.471 150.46 175.69 149.072 174.562C148.725 174.302 148.291 174.736 148.638 175.083Z" fill="#AB9F6E"/>
<path d="M155.144 178.379C155.577 178.379 155.577 177.685 155.144 177.685C154.71 177.685 154.71 178.379 155.144 178.379Z" fill="#AB9F6E"/>
<path d="M149.419 177.772C151.067 178.813 152.889 179.42 154.884 179.68C155.317 179.767 155.317 179.073 154.884 178.986C153.062 178.726 151.327 178.119 149.766 177.165C149.332 176.991 148.985 177.512 149.419 177.772Z" fill="#AB9F6E"/>
<path d="M155.404 184.19C157.833 184.971 160.001 186.185 161.909 187.747C162.256 188.007 162.69 187.573 162.43 187.226C160.435 185.491 158.093 184.277 155.577 183.496C155.23 183.41 154.97 184.104 155.404 184.19Z" fill="#AB9F6E"/>
<path d="M127.214 167.537C131.378 165.195 135.801 163.72 140.572 163.113C141.006 163.026 141.006 162.419 140.572 162.419C135.715 163.026 131.118 164.501 126.867 166.929C126.52 167.19 126.867 167.797 127.214 167.537Z" fill="#AB9F6E"/>
<path d="M129.729 168.057C132.592 166.756 135.541 165.889 138.663 165.281C139.097 165.195 138.924 164.588 138.49 164.588C135.367 165.195 132.332 166.149 129.382 167.363C129.036 167.71 129.382 168.231 129.729 168.057Z" fill="#AB9F6E"/>
<path d="M127.908 169.098C128.342 169.098 128.342 168.404 127.908 168.404C127.387 168.404 127.387 169.098 127.908 169.098Z" fill="#AB9F6E"/>
<path d="M59.645 248.637C59.645 248.637 59.645 248.724 59.645 248.637C59.645 249.157 60.3389 249.157 60.3389 248.724V248.637C60.3389 248.203 59.645 248.203 59.645 248.637Z" fill="#AB9F6E"/>
<path d="M59.9919 244.56C61.1195 249.331 63.0277 253.755 65.7166 257.745C65.9768 258.092 66.584 257.745 66.3238 257.398C63.6349 253.408 61.8134 249.071 60.6858 244.3C60.599 243.953 59.9051 244.127 59.9919 244.56Z" fill="#AB9F6E"/>
<path d="M96.5088 260.954C96.4221 260.954 96.4221 260.954 96.5088 260.954C95.9884 260.954 95.9884 261.648 96.4221 261.648H96.5088C96.9425 261.648 96.9425 260.954 96.5088 260.954Z" fill="#AB9F6E"/>
<path d="M100.238 259.132C100.238 259.132 100.238 259.219 100.238 259.132C99.8914 259.479 100.325 260 100.672 259.653L100.759 259.566C101.019 259.306 100.585 258.785 100.238 259.132Z" fill="#AB9F6E"/>
<path d="M101.019 254.102C101.973 252.974 102.667 251.673 103.101 250.198C103.188 249.765 102.58 249.591 102.407 250.025C101.973 251.326 101.366 252.54 100.499 253.581C100.238 254.015 100.759 254.449 101.019 254.102Z" fill="#AB9F6E"/>
<path d="M40.9094 100.575C42.8176 99.447 44.8126 98.6663 46.9811 98.2326C47.4148 98.1459 47.2413 97.452 46.8076 97.5387C44.6391 97.9724 42.5574 98.8398 40.6492 99.9674C40.2155 100.141 40.5624 100.748 40.9094 100.575Z" fill="#AB9F6E"/>
<path d="M44.726 100.054C45.9403 99.7072 47.1546 99.3602 48.4557 98.9266C48.8894 98.8398 48.7159 98.1459 48.2822 98.2326C47.0679 98.5796 45.8536 98.9266 44.5525 99.3602C44.1188 99.5337 44.2923 100.228 44.726 100.054Z" fill="#AB9F6E"/>
<path d="M44.7259 129.198C46.9811 127.55 49.4098 126.509 52.0987 125.902C52.5324 125.815 52.3589 125.122 51.9252 125.208C49.1496 125.815 46.6342 126.943 44.379 128.591C43.9453 128.851 44.2923 129.458 44.7259 129.198Z" fill="#AB9F6E"/>
<path d="M43.5117 131.453C45.5066 129.979 47.7618 128.938 50.1905 128.244C50.6242 128.157 50.4507 127.463 50.017 127.55C47.5016 128.157 45.2464 129.285 43.1647 130.76C42.8178 131.106 43.1647 131.714 43.5117 131.453Z" fill="#AB9F6E"/>
<path d="M54.0069 125.642C54.4406 125.642 54.4406 124.948 54.0069 124.948C53.5732 124.948 53.5732 125.642 54.0069 125.642Z" fill="#AB9F6E"/>
<path d="M66.4973 97.3653C66.4973 97.2785 66.584 97.2785 66.4973 97.3653C66.8442 97.0183 66.4105 96.4979 66.0636 96.8448L65.9768 96.9316C65.7166 97.1918 66.1503 97.6255 66.4973 97.3653Z" fill="#AB9F6E"/>
<path d="M67.7113 93.6355C71.0074 92.7681 74.3902 92.2477 77.8597 92.2477C78.2934 92.2477 78.2934 91.5538 77.8597 91.5538C74.3902 91.5538 70.9206 92.0742 67.5378 92.9416C67.1041 93.1151 67.2776 93.7222 67.7113 93.6355Z" fill="#AB9F6E"/>
<path d="M72.6557 94.5028C74.564 93.8957 76.5589 93.8089 78.4672 94.1559C78.9009 94.2426 79.0744 93.5487 78.6407 93.462C76.559 93.0283 74.4772 93.115 72.3955 93.8089C72.0486 93.9824 72.222 94.5896 72.6557 94.5028Z" fill="#AB9F6E"/>
<path d="M95.2943 77.6757C99.6312 76.9818 103.881 77.6757 107.785 79.6706C108.132 79.8441 108.479 79.3237 108.132 79.0635C104.055 76.9818 99.6312 76.2878 95.1208 77.0685C94.6872 77.0685 94.8606 77.7624 95.2943 77.6757Z" fill="#AB9F6E"/>
<path d="M100.672 81.2319C103.535 80.6247 106.397 80.7982 109.259 81.6656C109.693 81.7523 109.867 81.1452 109.433 80.9717C106.484 80.1043 103.535 79.9308 100.499 80.538C100.065 80.6247 100.239 81.3186 100.672 81.2319Z" fill="#AB9F6E"/>
<path d="M98.2432 81.1452C98.33 81.1452 98.33 81.2319 98.4167 81.2319C98.8504 81.4054 99.1974 80.7982 98.7637 80.6247C98.6769 80.6247 98.6769 80.538 98.5902 80.538C98.1565 80.3645 97.8096 80.9717 98.2432 81.1452Z" fill="#AB9F6E"/>
<path d="M95.6412 51.5674C100.325 51.1337 104.662 52.0878 108.825 54.2563C109.172 54.4297 109.519 53.9093 109.172 53.6491C105.009 51.3939 100.412 50.4398 95.6412 50.8735C95.2075 50.9602 95.2075 51.6541 95.6412 51.5674Z" fill="#AB9F6E"/>
<path d="M104.489 54.5165C105.876 54.7767 107.091 55.4706 108.218 56.338C108.565 56.5982 108.999 56.1645 108.739 55.8176C107.611 54.7767 106.223 54.0828 104.749 53.8226C104.315 53.7359 104.055 54.4298 104.489 54.5165Z" fill="#AB9F6E"/>
<path d="M66.7577 58.0727C68.8394 56.9451 71.0079 56.338 73.4365 56.1645C73.8702 56.1645 73.8702 55.4706 73.4365 55.4706C71.0079 55.6441 68.6659 56.338 66.4107 57.4656C65.977 57.7258 66.324 58.2462 66.7577 58.0727Z" fill="#AB9F6E"/>
<path d="M74.9976 56.2513C75.4313 56.2513 75.4313 55.5574 74.9976 55.5574C74.5639 55.6441 74.5639 56.2513 74.9976 56.2513Z" fill="#AB9F6E"/>
<path d="M47.2411 73.7724C49.2361 78.9767 49.8433 84.3545 48.9759 89.9058C48.8892 90.3394 49.5831 90.5129 49.6698 90.0792C50.5372 84.4412 50.0168 78.89 47.935 73.5989C47.6748 73.1652 47.0677 73.3387 47.2411 73.7724Z" fill="#AB9F6E"/>
<path d="M74.5641 32.2248C76.2121 36.7352 76.906 41.419 76.8193 46.1896C76.8193 46.6233 77.5132 46.6233 77.5132 46.1896C77.6867 41.3323 76.906 36.6484 75.258 32.0513C75.0845 31.6176 74.4774 31.8778 74.5641 32.2248Z" fill="#AB9F6E"/>
<path d="M112.555 106.039C112.122 113.759 113.076 121.305 115.418 128.678C115.591 129.112 116.198 128.938 116.112 128.504C113.77 121.218 112.815 113.672 113.249 106.039C113.336 105.605 112.642 105.605 112.555 106.039Z" fill="#AB9F6E"/>
<path d="M112.122 117.142C112.122 117.055 112.122 116.968 112.122 116.795C111.861 116.795 111.688 116.795 111.428 116.795C111.601 120.698 112.382 124.428 113.683 128.071C113.856 128.504 114.464 128.331 114.377 127.897C113.076 124.341 112.382 120.611 112.122 116.795C112.122 116.361 111.514 116.361 111.428 116.795C111.428 116.881 111.428 116.968 111.428 117.142C111.428 117.575 112.122 117.575 112.122 117.142Z" fill="#AB9F6E"/>
<path d="M135.714 29.0154C138.056 37.5158 139.271 46.1896 139.357 54.9502C139.357 55.3839 140.051 55.3839 140.051 54.9502C140.051 46.1029 138.75 37.3423 136.408 28.8419C136.235 28.4082 135.628 28.5817 135.714 29.0154Z" fill="#AB9F6E"/>
<path d="M139.705 56.7717C140.138 56.7717 140.138 56.0778 139.705 56.0778C139.271 56.0778 139.271 56.7717 139.705 56.7717Z" fill="#AB9F6E"/>
<path d="M146.47 119.05C146.99 122.953 148.031 126.77 148.725 130.586C149.506 135.01 149.853 139.52 149.939 144.031C149.939 144.464 150.633 144.464 150.633 144.031C150.547 140.214 150.286 136.398 149.766 132.668C149.072 128.071 147.771 123.647 147.164 119.05C147.077 118.616 146.383 118.616 146.47 119.05Z" fill="#AB9F6E"/>
<path d="M148.205 140.301C147.684 140.301 147.684 140.995 148.118 140.995H148.205C148.638 140.995 148.638 140.301 148.205 140.301Z" fill="#AB9F6E"/>
<path d="M145.169 114.366C145.169 120.091 145.95 125.642 147.424 131.193C147.511 131.627 148.205 131.453 148.118 131.02C146.643 125.555 145.95 120.004 145.863 114.366C145.863 113.846 145.169 113.846 145.169 114.366Z" fill="#AB9F6E"/>
<path d="M180.298 147.413C183.247 140.041 188.538 134.056 195.477 130.152C195.824 129.979 195.477 129.372 195.13 129.545C188.018 133.535 182.64 139.607 179.604 147.153C179.431 147.587 180.125 147.847 180.298 147.413Z" fill="#AB9F6E"/>
<path d="M71.7016 294.261C71.6149 299.986 71.5281 305.711 71.4414 311.436C71.4414 311.869 72.0486 311.869 72.0486 311.436C72.1353 305.711 72.2221 299.986 72.3088 294.261C72.3088 293.828 71.7016 293.828 71.7016 294.261Z" fill="#AB9F6E"/>
<path d="M71.528 313.257C85.4929 318.635 100.585 320.283 115.418 318.115C115.851 318.028 115.678 317.421 115.244 317.507C100.585 319.589 85.5796 317.941 71.7015 312.65C71.3545 312.563 71.181 313.17 71.528 313.257Z" fill="#AB9F6E"/>
<path d="M73.7834 311.783C81.5032 314.472 89.4831 316.12 97.5498 316.727C97.9835 316.727 97.9835 316.12 97.5498 316.12C89.4831 315.512 81.5899 313.864 73.9569 311.175C73.5232 311.002 73.3497 311.609 73.7834 311.783Z" fill="#AB9F6E"/>
<path d="M99.0242 316.813C99.4579 317.247 100.065 316.64 99.7181 316.293L99.6314 316.206C99.1977 315.859 98.5905 316.38 99.0242 316.813Z" fill="#AB9F6E"/>
<path d="M127.734 315.165C131.985 314.732 135.975 313.691 139.878 311.956C140.225 311.783 139.965 311.262 139.531 311.436C135.714 313.084 131.811 314.125 127.734 314.558C127.301 314.645 127.301 315.252 127.734 315.165Z" fill="#AB9F6E"/>
<path d="M105.356 220.967C107.698 214.636 111.515 209.258 116.632 204.834C116.979 204.574 116.459 204.054 116.112 204.314C110.907 208.824 107.091 214.375 104.662 220.794C104.576 221.228 105.269 221.401 105.356 220.967Z" fill="#AB9F6E"/>
<path d="M110.994 208.217C113.856 205.094 117.066 202.406 120.795 200.237C121.142 199.977 120.795 199.456 120.448 199.63C116.719 201.798 113.423 204.487 110.56 207.697C110.213 208.044 110.647 208.564 110.994 208.217Z" fill="#AB9F6E"/>
<path d="M96.4219 208.217C99.024 212.554 101.106 217.151 102.58 221.922C102.667 222.355 103.361 222.182 103.274 221.748C101.8 216.891 99.7179 212.207 97.0291 207.87C96.7688 207.436 96.2484 207.783 96.4219 208.217Z" fill="#AB9F6E"/>
<path d="M99.7179 209.952C101.279 212.814 102.407 215.85 103.101 219.059C103.187 219.493 103.881 219.319 103.795 218.886C103.014 215.676 101.886 212.554 100.325 209.605C100.152 209.171 99.5444 209.518 99.7179 209.952Z" fill="#AB9F6E"/>
<path d="M105.009 217.758C106.05 215.243 107.438 212.901 109.086 210.819C109.346 210.472 108.912 210.038 108.565 210.299C106.744 212.467 105.356 214.896 104.315 217.498C104.228 217.932 104.922 218.105 105.009 217.758Z" fill="#AB9F6E"/>
<path d="M84.4523 193.558C96.6824 201.104 111.862 201.018 123.918 193.298C124.265 193.038 123.918 192.517 123.571 192.691C111.688 200.324 96.7692 200.41 84.7993 192.951C84.4523 192.777 84.1054 193.298 84.4523 193.558Z" fill="#AB9F6E"/>
<path d="M85.0591 194.252C92.4319 199.803 101.539 202.058 110.734 200.584C111.167 200.497 110.994 199.89 110.56 199.89C101.626 201.278 92.6921 199.023 85.4928 193.645C85.0591 193.385 84.7121 193.992 85.0591 194.252Z" fill="#AB9F6E"/>
<path d="M125.219 192.517C125.653 192.517 125.653 191.823 125.219 191.823C124.786 191.91 124.786 192.517 125.219 192.517Z" fill="#AB9F6E"/>
<path d="M112.295 200.237C112.729 200.237 112.729 199.543 112.295 199.543C111.861 199.543 111.861 200.237 112.295 200.237Z" fill="#AB9F6E"/>
<path d="M86.881 178.726C85.4064 182.889 85.8401 187.313 88.0086 191.216C88.2688 191.563 88.7892 191.216 88.6157 190.869C86.4473 187.14 86.1003 182.976 87.4881 178.899C87.6616 178.466 87.0544 178.292 86.881 178.726Z" fill="#AB9F6E"/>
<path d="M84.7989 183.67C84.7121 184.711 84.7989 185.752 85.1458 186.793C85.3193 187.226 85.9265 187.053 85.8397 186.619C85.4928 185.665 85.406 184.711 85.4928 183.757C85.5795 183.236 84.8856 183.236 84.7989 183.67Z" fill="#AB9F6E"/>
<path d="M118.714 176.731C120.102 180.894 119.928 185.145 118.28 189.221C118.107 189.655 118.8 189.828 118.974 189.395C120.709 185.231 120.795 180.808 119.408 176.557C119.234 176.124 118.54 176.297 118.714 176.731Z" fill="#AB9F6E"/>
<path d="M120.362 177.511C120.796 179.42 120.969 181.328 120.969 183.323C120.969 183.757 121.663 183.757 121.663 183.323C121.663 181.328 121.49 179.333 121.056 177.338C120.969 176.904 120.275 177.078 120.362 177.511Z" fill="#AB9F6E"/>
<path d="M121.489 185.145C121.489 185.058 121.489 185.058 121.489 185.145C121.489 184.624 120.795 184.624 120.795 185.058C120.795 185.058 120.795 185.058 120.795 185.145C120.795 185.578 121.489 185.578 121.489 185.145Z" fill="#AB9F6E"/>
</g>
<path d="M94.9473 167.363C107.438 161.899 123.311 157.215 129.296 143.684C129.643 142.903 128.515 142.209 128.081 142.99C122.27 156.261 106.483 160.858 94.2534 166.149C93.4727 166.496 94.1666 167.71 94.9473 167.363Z" fill="#AB9F6E"/>
<path d="M108.999 218.279C115.591 206.395 126.434 197.635 139.444 193.732C140.312 193.471 139.965 192.17 139.097 192.431C125.74 196.507 114.637 205.441 107.872 217.671C107.351 218.279 108.565 218.973 108.999 218.279Z" fill="#AB9F6E"/>
<path d="M161.216 200.757C150.373 194.512 138.577 190.869 126.087 189.915C125.219 189.828 125.219 191.216 126.087 191.303C138.317 192.257 149.94 195.9 160.522 201.972C161.302 202.405 161.996 201.191 161.216 200.757Z" fill="#AB9F6E"/>
<path d="M80.462 190.869C90.2635 200.584 97.2025 212.554 101.019 225.825C101.279 226.692 102.58 226.345 102.32 225.478C98.5036 211.947 91.3911 199.803 81.4162 189.915C80.809 189.308 79.8549 190.262 80.462 190.869Z" fill="#AB9F6E"/>
<path d="M67.5214 154.613C83.7415 157.562 104.906 155.393 117.136 143.163C117.743 142.556 116.876 141.515 116.268 142.122C104.212 154.005 83.4813 156.087 67.6081 153.225C66.7407 153.051 66.654 154.439 67.5214 154.613Z" fill="#AB9F6E"/>
<path d="M74.4282 149.371L71.6428 144.314L68.6559 149.255L74.4282 149.371ZM0.48352 105.255L1.32086 105.761L1.8382 104.905L1.00086 104.399L0.48352 105.255ZM2.99554 106.773L4.67023 107.786L5.18756 106.93L3.51288 105.918L2.99554 106.773ZM6.34491 108.798L8.01959 109.81L8.53693 108.955L6.86225 107.942L6.34491 108.798ZM9.69428 110.823L11.369 111.835L11.8863 110.979L10.2116 109.967L9.69428 110.823ZM13.0436 112.848L14.7183 113.86L15.2357 113.004L13.561 111.992L13.0436 112.848ZM16.393 114.872L18.0677 115.885L18.585 115.029L16.9103 114.017L16.393 114.872ZM19.7424 116.897L21.4171 117.909L21.9344 117.054L20.2597 116.041L19.7424 116.897ZM23.0917 118.922L24.7664 119.934L25.2838 119.078L23.6091 118.066L23.0917 118.922ZM26.4411 120.947L28.1158 121.959L28.6331 121.103L26.9584 120.091L26.4411 120.947ZM29.7905 122.971L31.4652 123.984L31.9825 123.128L30.3078 122.116L29.7905 122.971ZM33.1398 124.996L34.8145 126.009L35.3319 125.153L33.6572 124.14L33.1398 124.996ZM36.4892 127.021L38.1639 128.033L38.6812 127.177L37.0065 126.165L36.4892 127.021ZM39.8386 129.046L41.5132 130.058L42.0306 129.202L40.3559 128.19L39.8386 129.046ZM43.1879 131.07L44.8626 132.083L45.38 131.227L43.7053 130.215L43.1879 131.07ZM46.5373 133.095L48.212 134.108L48.7293 133.252L47.0546 132.239L46.5373 133.095ZM49.8867 135.12L51.5613 136.132L52.0787 135.276L50.404 134.264L49.8867 135.12ZM53.236 137.145L54.9107 138.157L55.428 137.301L53.7534 136.289L53.236 137.145ZM56.5854 139.169L58.2601 140.182L58.7774 139.326L57.1027 138.314L56.5854 139.169ZM59.9348 141.194L61.6094 142.207L62.1268 141.351L60.4521 140.338L59.9348 141.194ZM63.2841 143.219L64.9588 144.231L65.4761 143.375L63.8015 142.363L63.2841 143.219ZM66.6335 145.244L68.3082 146.256L68.8255 145.4L67.1508 144.388L66.6335 145.244ZM69.9828 147.268L71.6575 148.281L72.1749 147.425L70.5002 146.413L69.9828 147.268Z" fill="#B59D66"/>
<path d="M85.9766 208.978L80.227 209.503L83.5565 214.22L85.9766 208.978ZM34.678 245.801L35.484 245.232L34.9074 244.415L34.1013 244.984L34.678 245.801ZM37.0961 244.094L38.7082 242.956L38.1315 242.139L36.5194 243.277L37.0961 244.094ZM40.3203 241.818L41.9324 240.68L41.3557 239.863L39.7436 241.001L40.3203 241.818ZM43.5445 239.542L45.1566 238.404L44.5799 237.587L42.9678 238.725L43.5445 239.542ZM46.7687 237.266L48.3808 236.128L47.8041 235.311L46.192 236.449L46.7687 237.266ZM49.9929 234.99L51.6049 233.852L51.0283 233.036L49.4162 234.173L49.9929 234.99ZM53.217 232.715L54.8291 231.577L54.2524 230.76L52.6404 231.898L53.217 232.715ZM56.4412 230.439L58.0533 229.301L57.4766 228.484L55.8645 229.622L56.4412 230.439ZM59.6654 228.163L61.2775 227.025L60.7008 226.208L59.0887 227.346L59.6654 228.163ZM62.8896 225.887L64.5017 224.749L63.925 223.932L62.3129 225.07L62.8896 225.887ZM66.1138 223.611L67.7259 222.473L67.1492 221.656L65.5371 222.794L66.1138 223.611ZM69.338 221.335L70.95 220.197L70.3734 219.38L68.7613 220.518L69.338 221.335ZM72.5621 219.059L74.1742 217.921L73.5975 217.104L71.9855 218.242L72.5621 219.059ZM75.7863 216.783L77.3984 215.645L76.8217 214.828L75.2096 215.966L75.7863 216.783ZM79.0105 214.507L80.6226 213.369L80.0459 212.552L78.4338 213.69L79.0105 214.507ZM82.2347 212.231L83.8468 211.094L83.2701 210.277L81.658 211.415L82.2347 212.231Z" fill="#B59D66"/>
<path d="M133.518 208.472L135.813 213.77L139.253 209.134L133.518 208.472ZM135.664 210.688L137.294 211.897L137.89 211.094L136.26 209.885L135.664 210.688ZM138.924 213.107L140.554 214.316L141.15 213.513L139.52 212.304L138.924 213.107ZM142.183 215.525L143.813 216.735L144.409 215.932L142.779 214.722L142.183 215.525ZM145.443 217.944L147.073 219.154L147.669 218.351L146.039 217.141L145.443 217.944ZM148.703 220.363L150.332 221.572L150.928 220.769L149.298 219.56L148.703 220.363ZM151.962 222.782L153.592 223.991L154.188 223.188L152.558 221.979L151.962 222.782ZM155.222 225.2L156.852 226.41L157.447 225.607L155.818 224.397L155.222 225.2ZM158.481 227.619L160.111 228.829L160.707 228.026L159.077 226.816L158.481 227.619ZM161.741 230.038L163.371 231.247L163.967 230.444L162.337 229.235L161.741 230.038ZM165 232.457L166.63 233.666L167.226 232.863L165.596 231.654L165 232.457ZM168.26 234.875L169.89 236.085L170.486 235.282L168.856 234.072L168.26 234.875ZM171.52 237.294L173.149 238.504L173.745 237.701L172.115 236.491L171.52 237.294ZM174.779 239.713L176.409 240.922L177.005 240.119L175.375 238.91L174.779 239.713ZM178.039 242.132L179.668 243.341L180.264 242.538L178.635 241.329L178.039 242.132ZM181.298 244.55L182.113 245.155L182.709 244.352L181.894 243.747L181.298 244.55Z" fill="#B59D66"/>
</svg>
