<svg width="195" height="291" viewBox="0 0 195 291" fill="none" xmlns="http://www.w3.org/2000/svg">
<g clip-path="url(#clip0_18_2579)">
<path d="M49.3838 24.3144C53.3104 24.3144 57.1615 24.4654 61.0125 24.4654C61.4656 24.4654 61.4656 25.2206 61.0125 25.2206C57.0859 25.2206 53.2349 25.0695 49.3838 25.0695C48.9308 25.0695 48.9308 24.3144 49.3838 24.3144Z" fill="#9B9267"/>
<path d="M61.0881 25.2961C58.9738 28.4675 57.3881 31.941 55.2738 35.1124C54.9718 35.49 54.3677 35.1124 54.5942 34.7349C56.7085 31.5634 58.2943 28.09 60.4086 24.9185C60.7106 24.5409 61.3902 24.9185 61.0881 25.2961Z" fill="#9B9267"/>
<path d="M50.0635 24.7675C50.9696 26.5042 51.9512 28.09 52.7819 29.8267C53.537 31.4124 54.1411 33.1492 55.0472 34.6594C55.2737 35.1124 54.5941 35.49 54.3676 35.0369C53.4615 33.5267 52.8574 31.79 52.1023 30.2042C51.2717 28.4675 50.29 26.8063 49.3839 25.145C49.1573 24.692 49.8369 24.3144 50.0635 24.7675Z" fill="#9B9267"/>
<path d="M49.9125 30.9594C53.688 31.3369 57.4635 30.9594 61.2391 30.9594C61.7676 30.9594 61.7676 31.7145 61.2391 31.7145C57.4635 31.7145 53.688 32.092 49.9125 31.7145C49.4594 31.7145 49.3839 30.9594 49.9125 30.9594Z" fill="#9B9267"/>
<path d="M159.629 258.473C155.703 258.473 151.852 258.322 148.001 258.322C147.548 258.322 147.548 257.567 148.001 257.567C151.927 257.567 155.778 257.718 159.629 257.718C160.158 257.718 160.158 258.473 159.629 258.473Z" fill="#9B9267"/>
<path d="M148.001 257.416C150.115 254.244 151.701 250.771 153.815 247.6C154.117 247.222 154.721 247.6 154.495 247.977C152.38 251.149 150.795 254.622 148.68 257.793C148.378 258.171 147.699 257.793 148.001 257.416Z" fill="#9B9267"/>
<path d="M159.025 257.945C158.119 256.208 157.138 254.622 156.307 252.885C155.552 251.3 154.948 249.563 154.042 248.053C153.815 247.6 154.495 247.222 154.721 247.675C155.627 249.185 156.231 250.922 156.987 252.508C157.817 254.244 158.799 255.906 159.705 257.567C159.931 258.02 159.252 258.398 159.025 257.945Z" fill="#9B9267"/>
<path d="M159.176 251.753C155.401 251.375 151.625 251.753 147.85 251.753C147.321 251.753 147.321 250.998 147.85 250.998C151.625 250.998 155.401 250.62 159.176 250.998C159.629 250.998 159.629 251.828 159.176 251.753Z" fill="#9B9267"/>
<path d="M22.9551 206.295C19.0286 206.295 15.1775 206.144 11.3265 206.144C10.8734 206.144 10.8734 205.389 11.3265 205.389C15.253 205.389 19.1041 205.54 22.9551 205.54C23.4082 205.54 23.4082 206.295 22.9551 206.295Z" fill="#9B9267"/>
<path d="M11.251 205.238C13.3653 202.067 14.9511 198.593 17.0654 195.422C17.3674 195.044 17.9715 195.422 17.745 195.799C15.6307 198.971 14.045 202.444 11.9307 205.616C11.6286 205.993 11.0245 205.616 11.251 205.238Z" fill="#9B9267"/>
<path d="M22.2755 205.767C21.3694 204.03 20.3878 202.444 19.5572 200.707C18.8021 199.122 18.198 197.385 17.2918 195.875C17.0653 195.422 17.7449 195.044 17.9714 195.497C18.8776 197.007 19.4817 198.744 20.2368 200.33C21.0674 202.067 22.049 203.728 22.9551 205.389C23.1817 205.842 22.5021 206.22 22.2755 205.767Z" fill="#9B9267"/>
<path d="M167.256 65.2412C171.182 65.2412 175.034 65.3922 178.885 65.3922C179.338 65.3922 179.338 66.1473 178.885 66.1473C174.958 66.1473 171.107 65.9963 167.256 65.9963C166.727 65.9963 166.727 65.2412 167.256 65.2412Z" fill="#9B9267"/>
<path d="M178.885 66.2984C176.77 69.4698 175.185 72.9433 173.07 76.1148C172.768 76.4923 172.164 76.1148 172.391 75.7372C174.505 72.5657 176.091 69.0923 178.205 65.9208C178.507 65.5433 179.187 65.9208 178.885 66.2984Z" fill="#9B9267"/>
<path d="M167.936 65.7698C168.842 67.5065 169.823 69.0923 170.654 70.829C171.409 72.4147 172.013 74.1515 172.919 75.6617C173.146 76.1147 172.466 76.4923 172.24 76.0392C171.334 74.529 170.729 72.7923 169.974 71.2066C169.144 69.4698 168.162 67.8086 167.256 66.1473C167.029 65.6943 167.634 65.3167 167.936 65.7698Z" fill="#9B9267"/>
<path d="M44.8532 93.5577C44.8532 96.7292 45.1553 99.9006 45.1553 103.072C45.1553 106.244 45.0042 109.339 44.9287 112.511C44.9287 113.039 44.1736 113.039 44.1736 112.511C44.1736 109.339 44.3247 106.244 44.4002 103.072C44.4002 99.9006 44.1736 96.7292 44.0981 93.5577C44.0226 93.1047 44.8532 93.1047 44.8532 93.5577Z" fill="#9B9267"/>
<path d="M39.6431 102.317C42.9655 102.468 46.2125 102.241 49.535 102.317C50.0635 102.317 50.0635 103.148 49.535 103.072C46.2125 102.997 42.9655 103.223 39.6431 103.072C39.1145 103.072 39.1145 102.241 39.6431 102.317Z" fill="#9B9267"/>
<path d="M43.4185 100.354C44.5512 101.939 45.9104 103.299 46.9675 104.96C47.2696 105.413 46.59 105.79 46.288 105.337C45.2308 103.676 43.7961 102.317 42.739 100.731C42.5124 100.354 43.192 99.9761 43.4185 100.354Z" fill="#9B9267"/>
<path d="M42.5881 104.507C43.7207 103.148 44.8534 101.788 45.986 100.429C46.2881 100.052 46.8922 100.58 46.5146 100.958C45.382 102.317 44.1738 103.676 43.1166 105.035C42.8146 105.413 42.286 104.884 42.5881 104.507Z" fill="#9B9267"/>
<path d="M36.9245 237.708C37 241.181 37 244.655 37 248.128C37 248.657 36.2449 248.657 36.2449 248.128C36.2449 244.655 36.2449 241.181 36.1694 237.708C36.1694 237.255 36.9245 237.255 36.9245 237.708Z" fill="#9B9267"/>
<path d="M33.9041 242.314C35.7164 242.389 37.5286 242.238 39.3409 242.314C39.8694 242.314 39.8694 243.144 39.3409 243.069C37.5286 242.993 35.7164 243.144 33.9041 243.069C33.3755 243.144 33.3755 242.314 33.9041 242.314Z" fill="#9B9267"/>
<path d="M36.1693 241.408C36.7734 242.314 37.5285 243.069 38.1326 243.975C38.4346 244.428 37.755 244.806 37.453 244.353C36.8489 243.446 36.0938 242.691 35.4897 241.785C35.1877 241.332 35.8673 240.955 36.1693 241.408Z" fill="#9B9267"/>
<path d="M35.4142 243.597C36.0183 242.842 36.6979 242.087 37.302 241.332C37.604 240.955 38.2081 241.483 37.8305 241.861C37.2265 242.616 36.5469 243.371 35.9428 244.126C35.6407 244.579 35.1122 243.975 35.4142 243.597Z" fill="#9B9267"/>
<path d="M176.77 205.918C176.77 211.505 177.299 217.093 177.299 222.606C177.299 228.344 176.922 234.083 176.922 239.822C176.922 240.351 176.166 240.351 176.166 239.822C176.166 234.083 176.544 228.344 176.544 222.606C176.544 217.018 176.091 211.43 176.015 205.918C175.94 205.389 176.77 205.389 176.77 205.918Z" fill="#9B9267"/>
<path d="M167.709 221.85C173.599 222.077 179.564 221.699 185.454 221.85C185.983 221.85 185.983 222.681 185.454 222.605C179.489 222.454 173.599 222.832 167.709 222.605C167.181 222.605 167.181 221.775 167.709 221.85Z" fill="#9B9267"/>
<path d="M174.279 218.301C176.242 221.171 178.809 223.587 180.697 226.532C180.999 226.985 180.319 227.363 180.017 226.91C178.13 223.965 175.562 221.548 173.599 218.679C173.373 218.226 174.052 217.848 174.279 218.301Z" fill="#9B9267"/>
<path d="M173.221 225.701C175.185 223.21 177.299 220.793 179.338 218.452C179.64 218.075 180.244 218.603 179.866 218.981C177.828 221.397 175.713 223.814 173.75 226.23C173.524 226.608 172.919 226.079 173.221 225.701Z" fill="#9B9267"/>
<path d="M169.521 176.317C169.521 179.64 169.823 183.038 169.823 186.36C169.823 189.607 169.597 192.854 169.597 196.177C169.597 196.705 168.842 196.705 168.842 196.177C168.842 192.93 168.993 189.683 169.068 186.36C169.068 183.038 168.766 179.64 168.766 176.317C168.691 175.789 169.521 175.789 169.521 176.317Z" fill="#9B9267"/>
<path d="M164.084 185.454C167.558 185.605 171.031 185.379 174.505 185.454C175.034 185.454 175.034 186.285 174.505 186.209C171.031 186.134 167.558 186.36 164.084 186.209C163.556 186.209 163.556 185.379 164.084 185.454Z" fill="#9B9267"/>
<path d="M168.087 183.415C169.219 185.077 170.729 186.511 171.862 188.248C172.164 188.701 171.485 189.079 171.182 188.626C170.05 186.889 168.615 185.454 167.407 183.793C167.105 183.415 167.784 183.038 168.087 183.415Z" fill="#9B9267"/>
<path d="M167.18 187.72C168.313 186.285 169.521 184.85 170.729 183.491C171.032 183.113 171.636 183.642 171.258 184.02C170.05 185.454 168.842 186.813 167.709 188.248C167.407 188.701 166.878 188.097 167.18 187.72Z" fill="#9B9267"/>
<path d="M52.4797 270.781C52.4797 274.104 52.7817 277.502 52.7817 280.824C52.7817 284.071 52.5552 287.318 52.5552 290.641C52.5552 291.169 51.8001 291.169 51.8001 290.641C51.8001 287.394 51.9511 284.147 52.0266 280.824C52.0266 277.502 51.7246 274.104 51.7246 270.781C51.7246 270.253 52.4797 270.253 52.4797 270.781Z" fill="#9B9267"/>
<path d="M47.043 279.918C50.5164 280.069 53.9899 279.843 57.4634 279.918C57.992 279.918 57.992 280.749 57.4634 280.673C53.9899 280.598 50.5164 280.824 47.043 280.673C46.5899 280.673 46.5899 279.918 47.043 279.918Z" fill="#9B9267"/>
<path d="M51.045 277.879C52.1777 279.541 53.6879 280.975 54.8206 282.712C55.1226 283.165 54.443 283.543 54.141 283.09C53.0083 281.353 51.5736 279.918 50.3654 278.257C50.1389 277.879 50.8185 277.502 51.045 277.879Z" fill="#9B9267"/>
<path d="M50.2144 282.183C51.3471 280.749 52.5552 279.314 53.7634 277.955C54.0654 277.577 54.6695 278.106 54.292 278.483C53.0838 279.918 51.8756 281.277 50.743 282.712C50.4409 283.165 49.9124 282.637 50.2144 282.183Z" fill="#9B9267"/>
<path d="M189.154 46.7411C189.154 50.0636 189.456 53.4615 189.456 56.784C189.456 60.031 189.23 63.2779 189.23 66.6004C189.23 67.129 188.474 67.129 188.474 66.6004C188.474 63.3534 188.625 60.1065 188.701 56.784C188.701 53.4615 188.399 50.0636 188.399 46.7411C188.323 46.2125 189.154 46.2125 189.154 46.7411Z" fill="#9B9267"/>
<path d="M183.642 55.8779C187.115 56.0289 190.589 55.8024 194.062 55.8779C194.591 55.8779 194.591 56.7085 194.062 56.633C190.589 56.5575 187.115 56.784 183.642 56.633C183.189 56.633 183.189 55.8779 183.642 55.8779Z" fill="#9B9267"/>
<path d="M187.644 53.9146C188.777 55.5759 190.287 57.0106 191.419 58.7473C191.721 59.2004 191.042 59.5779 190.74 59.1249C189.607 57.3881 188.172 55.9534 186.964 54.2922C186.738 53.8391 187.417 53.4616 187.644 53.9146Z" fill="#9B9267"/>
<path d="M186.813 58.2187C187.946 56.784 189.154 55.3493 190.362 53.9901C190.664 53.6126 191.268 54.1411 190.891 54.5187C189.683 55.9534 188.475 57.3126 187.342 58.7473C187.04 59.1248 186.511 58.5963 186.813 58.2187Z" fill="#9B9267"/>
<path d="M32.4695 60.333C32.4695 65.9208 32.998 71.5086 32.998 77.0209C32.998 82.7597 32.6205 88.4985 32.6205 94.2373C32.6205 94.7659 31.8654 94.7659 31.8654 94.2373C31.8654 88.4985 32.2429 82.7597 32.2429 77.0209C32.2429 71.4331 31.7899 65.8453 31.7144 60.333C31.7144 59.8044 32.4695 59.8044 32.4695 60.333Z" fill="#9B9267"/>
<path d="M23.4081 76.2658C29.298 76.4923 35.2633 76.1147 41.1531 76.2658C41.6817 76.2658 41.6817 77.0964 41.1531 77.0209C35.1878 76.8699 29.298 77.2474 23.4081 77.0209C22.8795 77.0209 22.8795 76.2658 23.4081 76.2658Z" fill="#9B9267"/>
<path d="M30.053 72.7168C32.0163 75.5862 34.5837 78.0025 36.4715 80.9474C36.7735 81.4005 36.0939 81.7781 35.7918 81.325C33.9041 78.3801 31.3367 75.9637 29.3734 73.0943C29.0714 72.7168 29.751 72.2637 30.053 72.7168Z" fill="#9B9267"/>
<path d="M28.9205 80.1168C30.8837 77.625 32.998 75.2086 35.0368 72.8678C35.3389 72.4902 35.943 73.0188 35.5654 73.3964C33.5266 75.8127 31.4123 78.229 29.449 80.6454C29.2225 81.0985 28.6184 80.4944 28.9205 80.1168Z" fill="#9B9267"/>
<path d="M157.817 151.323C157.666 150.87 156.911 151.021 157.062 151.55C157.062 151.625 157.062 151.625 157.138 151.701C156.609 153.513 152.531 164.915 157.742 164.085C162.046 163.481 158.421 153.513 157.817 151.323Z" fill="#9B9267"/>
<path d="M52.3287 243.597C52.1777 243.144 51.4225 243.295 51.5736 243.824C51.5736 243.9 51.5736 243.9 51.6491 243.975C51.1205 245.787 47.0429 257.189 52.2532 256.359C56.5573 255.679 53.0083 245.787 52.3287 243.597Z" fill="#9B9267"/>
<path d="M41.1531 36.2451C41.0021 35.7921 40.247 35.9431 40.398 36.4717C40.398 36.5472 40.398 36.5472 40.4736 36.6227C39.945 38.4349 35.8674 49.837 41.0776 49.0064C45.3817 48.3268 41.7572 38.3594 41.1531 36.2451Z" fill="#9B9267"/>
<path d="M147.397 18.4246C147.246 17.9715 146.491 18.1225 146.642 18.6511C146.642 18.7266 146.642 18.7266 146.717 18.8021C146.189 20.6144 142.111 32.0165 147.321 31.1859C151.625 30.5063 148.001 20.5389 147.397 18.4246Z" fill="#9B9267"/>
<path d="M130.935 4.00205C131.086 3.6245 131.162 3.54899 131.162 3.70001V3.77552C130.935 3.32246 131.615 2.9449 131.842 3.39797C132.144 4.07756 131.464 4.90818 130.784 4.37961C130.18 3.85103 130.709 2.86939 131.464 3.24694C132.219 3.6245 131.69 4.68165 131.011 4.45512C130.633 4.37961 130.482 3.92654 130.633 3.6245C130.784 3.24694 131.237 3.17143 131.539 3.47348C131.766 3.85103 131.237 4.37961 130.935 4.00205Z" fill="#9B9267"/>
<path d="M136.976 263.306C137.127 262.928 137.203 262.853 137.203 263.004V263.079C136.976 262.626 137.656 262.249 137.882 262.702C138.184 263.381 137.505 264.212 136.825 263.683C136.221 263.155 136.75 262.173 137.505 262.551C138.26 262.928 137.731 263.985 137.052 263.759C136.674 263.683 136.523 263.23 136.674 262.928C136.825 262.551 137.278 262.475 137.58 262.777C137.882 263.155 137.354 263.683 136.976 263.306Z" fill="#9B9267"/>
<path d="M148.378 223.361C148.529 222.983 148.605 222.908 148.605 223.059V223.134C148.378 222.681 149.058 222.303 149.284 222.757C149.586 223.436 148.907 224.267 148.227 223.738C147.623 223.21 148.152 222.228 148.907 222.605C149.662 222.983 149.133 224.04 148.454 223.814C148.076 223.738 147.925 223.285 148.076 222.983C148.227 222.605 148.68 222.53 148.982 222.832C149.209 223.21 148.68 223.814 148.378 223.361Z" fill="#9B9267"/>
<path d="M148.001 239.746C148.152 239.369 148.227 239.293 148.227 239.444V239.52C148.001 239.067 148.68 238.689 148.907 239.142C149.209 239.822 148.529 240.653 147.85 240.124C147.246 239.595 147.774 238.614 148.529 238.991C149.284 239.369 148.756 240.426 148.076 240.2C147.699 240.124 147.548 239.671 147.699 239.369C147.85 238.991 148.303 238.916 148.605 239.218C148.907 239.52 148.378 240.124 148.001 239.746Z" fill="#9B9267"/>
<path d="M24.3897 39.5676C24.5408 39.19 24.6163 39.1145 24.6163 39.2655V39.3411C24.3897 38.888 25.0693 38.5104 25.2959 38.9635C25.5979 39.6431 24.9183 40.4737 24.2387 39.9451C23.6346 39.4166 24.1632 38.4349 24.9183 38.8125C25.6734 39.19 25.1448 40.2472 24.4652 40.0207C24.0877 39.9451 23.9367 39.4921 24.0877 39.19C24.2387 38.8125 24.6918 38.737 24.9938 39.039C25.2204 39.4166 24.6918 39.9451 24.3897 39.5676Z" fill="#9B9267"/>
<path d="M98.6922 6.26737C98.8432 5.88982 98.9188 5.81431 98.9188 5.96533V6.04084C98.6922 5.58778 99.3718 5.21022 99.5984 5.66329C99.9004 6.34288 99.2208 7.1735 98.5412 6.64492C97.9371 6.11635 98.4657 5.13471 99.2208 5.51226C99.9759 5.88982 99.4473 6.94697 98.7677 6.72044C98.3902 6.64492 98.2392 6.19186 98.3902 5.88982C98.5412 5.51226 98.9943 5.43675 99.2963 5.7388C99.5984 6.11635 98.9943 6.64492 98.6922 6.26737Z" fill="#9B9267"/>
<path d="M171.56 105.715C171.711 105.337 171.787 105.262 171.787 105.413V105.488C171.56 105.035 172.24 104.658 172.466 105.111C172.768 105.79 172.089 106.621 171.409 106.092C170.805 105.564 171.334 104.582 172.089 104.96C172.844 105.337 172.315 106.395 171.636 106.168C171.258 106.093 171.107 105.639 171.258 105.337C171.409 104.96 171.862 104.884 172.164 105.186C172.466 105.564 171.938 106.092 171.56 105.715Z" fill="#9B9267"/>
<path d="M168.087 160.913C168.238 160.536 168.313 160.46 168.313 160.611V160.687C168.087 160.234 168.766 159.856 168.993 160.309C169.295 160.989 168.615 161.819 167.936 161.291C167.332 160.762 167.86 159.781 168.615 160.158C169.37 160.536 168.842 161.593 168.162 161.366C167.785 161.291 167.634 160.838 167.785 160.536C167.936 160.158 168.389 160.083 168.691 160.385C168.917 160.762 168.389 161.291 168.087 160.913Z" fill="#9B9267"/>
<path d="M190.362 78.7576C190.513 78.3801 190.589 78.3046 190.589 78.4556V78.5311C190.362 78.078 191.042 77.7005 191.269 78.1535C191.571 78.8331 190.891 79.6638 190.211 79.1352C189.607 78.6066 190.136 77.625 190.891 78.0025C191.646 78.3801 191.117 79.4372 190.438 79.2107C190.06 79.1352 189.909 78.6821 190.06 78.3801C190.211 78.0025 190.664 77.927 190.966 78.2291C191.269 78.6066 190.74 79.1352 190.362 78.7576Z" fill="#9B9267"/>
<path d="M20.0858 121.799C20.2368 121.421 20.3123 121.346 20.3123 121.497V121.572C20.0858 121.119 20.7654 120.742 20.9919 121.195C21.294 121.874 20.6143 122.705 19.9348 122.176C19.3307 121.648 19.8592 120.666 20.6144 121.044C21.3695 121.421 20.8409 122.478 20.1613 122.252C19.7837 122.176 19.6327 121.723 19.7837 121.421C19.9348 121.044 20.3878 120.968 20.6899 121.27C20.9919 121.648 20.3878 122.252 20.0858 121.799Z" fill="#9B9267"/>
<path d="M168.011 54.9718C168.162 54.5942 168.238 54.5187 168.238 54.6697V54.7452C168.011 54.2922 168.691 53.9146 168.917 54.3677C169.219 55.0473 168.54 55.8779 167.86 55.3493C167.256 54.8207 167.785 53.8391 168.54 54.2167C169.295 54.5942 168.766 55.6514 168.087 55.4248C167.709 55.3493 167.558 54.8963 167.709 54.5942C167.86 54.2167 168.313 54.1411 168.615 54.4432C168.842 54.8207 168.313 55.3493 168.011 54.9718Z" fill="#9B9267"/>
<path d="M158.044 234.159C158.195 233.781 158.27 233.706 158.27 233.857V233.932C158.044 233.479 158.723 233.101 158.95 233.555C159.252 234.234 158.572 235.065 157.893 234.536C157.289 234.008 157.817 233.026 158.572 233.404C159.327 233.781 158.799 234.838 158.119 234.612C157.742 234.536 157.591 234.083 157.742 233.781C157.893 233.404 158.346 233.328 158.648 233.63C158.874 234.008 158.346 234.536 158.044 234.159Z" fill="#9B9267"/>
<path d="M43.494 231.818C43.645 231.44 43.7205 231.365 43.7205 231.516V231.591C43.494 231.138 44.1736 230.761 44.4001 231.214C44.7022 231.893 44.0226 232.724 43.343 232.195C42.7389 231.667 43.2675 230.685 44.0226 231.063C44.7777 231.44 44.2491 232.497 43.5695 232.271C43.1919 232.195 43.0409 231.742 43.1919 231.44C43.343 231.063 43.796 230.987 44.0981 231.289C44.3246 231.591 43.796 232.195 43.494 231.818Z" fill="#9B9267"/>
<path d="M22.3509 221.624C22.5019 221.246 22.5774 221.171 22.5774 221.322V221.397C22.3509 220.944 23.0305 220.567 23.257 221.02C23.5591 221.699 22.8795 222.53 22.1999 222.001C21.5958 221.473 22.1244 220.491 22.8795 220.869C23.6346 221.246 23.106 222.303 22.4264 222.077C22.0489 222.001 21.8978 221.548 22.0489 221.246C22.1999 220.869 22.653 220.793 22.955 221.095C23.257 221.473 22.653 222.001 22.3509 221.624Z" fill="#9B9267"/>
<path d="M0.377285 146.189C0.528307 145.811 0.603808 145.736 0.603808 145.887V145.962C0.377276 145.509 1.05688 145.132 1.28341 145.585C1.58545 146.264 0.905851 147.095 0.226255 146.566C-0.377831 146.038 0.150763 145.056 0.905869 145.434C1.66098 145.811 1.1324 146.868 0.452801 146.642C0.0752473 146.566 -0.0757741 146.113 0.0752473 145.811C0.226269 145.434 0.679319 145.358 0.981362 145.66C1.2834 145.962 0.754839 146.566 0.377285 146.189Z" fill="#9B9267"/>
<path d="M46.4388 83.2128C46.5898 82.8352 46.6653 82.7597 46.6653 82.9107V82.9862C46.4388 82.5332 47.1184 82.1556 47.3449 82.6087C47.647 83.2883 46.9674 84.1189 46.2878 83.5903C45.6837 83.0617 46.2123 82.0801 46.9674 82.4577C47.7225 82.8352 47.1939 83.8924 46.5143 83.6658C46.1368 83.5903 45.9857 83.1372 46.1368 82.8352C46.2878 82.4577 46.7409 82.3821 47.0429 82.6842C47.2694 83.0617 46.7409 83.5903 46.4388 83.2128Z" fill="#9B9267"/>
<path d="M54.443 65.2412C54.594 64.8637 54.6695 64.7882 54.6695 64.9392V65.0147C54.443 64.5616 55.1226 64.1841 55.3491 64.6371C55.6511 65.3167 54.9715 66.1473 54.2919 65.6188C53.6878 65.0902 54.2164 64.1086 54.9715 64.4861C55.7266 64.8637 55.1981 65.9208 54.5185 65.6943C54.1409 65.6188 53.9899 65.1657 54.1409 64.8637C54.2919 64.4861 54.745 64.4106 55.047 64.7126C55.3491 65.0902 54.8205 65.6188 54.443 65.2412Z" fill="#9B9267"/>
<path d="M182.283 96.2761C182.056 98.2394 180.923 99.8251 179.187 100.807C178.734 101.033 178.356 100.354 178.809 100.127C180.244 99.3721 181.301 97.9373 181.527 96.2761C181.603 95.823 182.358 95.823 182.283 96.2761Z" fill="#9B9267"/>
<path d="M179.262 99.9761C181.074 100.807 182.207 102.695 181.981 104.733C181.905 105.262 181.15 105.262 181.225 104.733C181.376 102.997 180.47 101.411 178.885 100.656C178.432 100.429 178.809 99.7496 179.262 99.9761Z" fill="#9B9267"/>
<path d="M181.301 104.809C181.603 103.072 182.811 101.562 184.397 100.882C184.85 100.656 185.228 101.335 184.774 101.562C183.264 102.166 182.283 103.45 181.981 105.035C181.981 105.488 181.225 105.262 181.301 104.809Z" fill="#9B9267"/>
<path d="M184.774 101.486C182.585 100.882 181.981 98.6169 181.603 96.6537C181.527 96.1251 182.283 95.9741 182.358 96.4271C182.66 98.0884 183.038 100.203 184.925 100.731C185.454 100.882 185.227 101.637 184.774 101.486Z" fill="#9B9267"/>
<path d="M7.92855 182.056C8.07958 181.679 8.15509 181.603 8.15509 181.754V181.83C7.92856 181.377 8.60815 180.999 8.83468 181.452C9.13672 182.132 8.45713 182.962 7.77754 182.434C7.17345 181.905 7.70202 180.924 8.45713 181.301C9.21223 181.679 8.68367 182.736 8.00407 182.509C7.62652 182.434 7.47549 181.981 7.62652 181.679C7.77754 181.301 8.2306 181.226 8.53264 181.528C8.75917 181.905 8.2306 182.434 7.92855 182.056Z" fill="#9B9267"/>
<path d="M18.6511 172.617C18.4246 174.581 17.2919 176.166 15.5552 177.148C15.1021 177.375 14.7246 176.695 15.1776 176.468C16.6123 175.713 17.6695 174.279 17.896 172.617C17.896 172.164 18.6511 172.089 18.6511 172.617Z" fill="#9B9267"/>
<path d="M15.5551 176.317C17.3674 177.148 18.5001 179.036 18.2735 181.075C18.198 181.603 17.4429 181.603 17.5184 181.075C17.6694 179.338 16.7633 177.752 15.1776 176.997C14.7245 176.771 15.1021 176.091 15.5551 176.317Z" fill="#9B9267"/>
<path d="M17.594 181.075C17.896 179.338 19.1042 177.828 20.6899 177.148C21.143 176.922 21.5205 177.601 21.0675 177.828C19.5572 178.432 18.5756 179.715 18.2736 181.301C18.2736 181.83 17.5185 181.603 17.594 181.075Z" fill="#9B9267"/>
<path d="M21.0674 177.828C18.8776 177.224 18.2735 174.958 17.896 172.995C17.8205 172.466 18.5756 172.315 18.6511 172.768C18.9531 174.43 19.3307 176.544 21.2185 177.073C21.747 177.224 21.596 177.979 21.0674 177.828Z" fill="#9B9267"/>
<path d="M170.201 20.3879C169.974 22.3511 168.842 23.9369 167.105 24.9185C166.652 25.145 166.274 24.4654 166.727 24.2389C168.162 23.4838 169.219 22.0491 169.446 20.3879C169.446 19.8593 170.201 19.8593 170.201 20.3879Z" fill="#9B9267"/>
<path d="M167.105 24.0879C168.917 24.9185 170.05 26.8063 169.823 28.8451C169.748 29.3736 168.993 29.3736 169.068 28.8451C169.219 27.1083 168.313 25.5226 166.727 24.7675C166.274 24.541 166.652 23.8614 167.105 24.0879Z" fill="#9B9267"/>
<path d="M169.219 28.845C169.521 27.1083 170.729 25.5981 172.315 24.9185C172.768 24.692 173.146 25.3716 172.693 25.5981C171.182 26.2022 170.201 27.4859 169.899 29.0716C169.823 29.5246 169.068 29.3736 169.219 28.845Z" fill="#9B9267"/>
<path d="M172.617 25.5981C170.427 24.994 169.823 22.7287 169.446 20.7654C169.37 20.2368 170.125 20.0858 170.201 20.5389C170.503 22.2001 170.88 24.3144 172.768 24.843C173.297 24.994 173.146 25.7491 172.617 25.5981Z" fill="#9B9267"/>
<path d="M121.421 7.02249C120.439 6.94698 119.458 7.47556 119.231 8.53271C119.005 9.58986 119.835 10.5715 120.892 10.647C121.95 10.647 122.78 9.81639 122.78 8.75924C122.78 7.70209 121.95 6.94698 120.968 6.79596C120.439 6.72045 120.666 5.96534 121.194 6.04085C122.629 6.26738 123.762 7.55107 123.611 8.98577C123.46 10.4205 122.176 11.5531 120.741 11.4021C119.382 11.2511 118.4 9.96741 118.552 8.60822C118.703 7.098 120.062 6.11636 121.496 6.26739C121.95 6.26739 121.95 7.098 121.421 7.02249Z" fill="#9B9267"/>
<path d="M136.297 280.145C135.315 280.069 134.333 280.598 134.107 281.655C133.88 282.712 134.711 283.694 135.768 283.769C136.825 283.769 137.656 282.939 137.656 281.881C137.656 280.824 136.825 280.069 135.844 279.918C135.315 279.843 135.542 279.088 136.07 279.163C137.505 279.39 138.637 280.673 138.486 282.108C138.335 283.543 137.052 284.675 135.617 284.524C134.258 284.373 133.276 283.09 133.427 281.73C133.578 280.22 134.937 279.239 136.372 279.39C136.825 279.39 136.825 280.145 136.297 280.145Z" fill="#9B9267"/>
<path d="M143.923 167.86C142.941 167.785 141.96 168.313 141.733 169.37C141.507 170.428 142.337 171.409 143.395 171.485C144.452 171.485 145.282 170.654 145.282 169.597C145.282 168.54 144.452 167.785 143.47 167.634C142.941 167.558 143.168 166.803 143.697 166.879C145.131 167.105 146.264 168.389 146.113 169.824C145.962 171.258 144.678 172.391 143.244 172.24C141.884 172.089 140.903 170.805 141.054 169.446C141.205 167.936 142.564 166.954 143.999 167.105C144.452 167.105 144.452 167.936 143.923 167.86Z" fill="#9B9267"/>
<path d="M33.2246 217.697C32.243 217.622 31.2614 218.15 31.0348 219.208C30.8083 220.265 31.6389 221.246 32.6961 221.322C33.7532 221.322 34.5838 220.491 34.5838 219.434C34.5838 218.377 33.7532 217.622 32.7716 217.471C32.243 217.395 32.4695 216.64 32.9981 216.716C34.4328 216.942 35.5655 218.226 35.4144 219.661C35.2634 221.095 33.9798 222.228 32.545 222.077C31.1859 221.926 30.2042 220.642 30.3552 219.283C30.5063 217.773 31.8655 216.791 33.3002 216.942C33.7532 217.018 33.7532 217.773 33.2246 217.697Z" fill="#9B9267"/>
<path d="M162.801 207.277C161.819 207.201 160.838 207.73 160.611 208.787C160.384 209.844 161.215 210.826 162.272 210.901C163.329 210.901 164.16 210.071 164.16 209.014C164.16 207.956 163.329 207.201 162.348 207.05C161.819 206.975 162.046 206.22 162.574 206.295C164.009 206.522 165.142 207.805 164.991 209.24C164.84 210.675 163.556 211.807 162.121 211.656C160.762 211.505 159.78 210.222 159.931 208.863C160.082 207.352 161.442 206.371 162.876 206.522C163.329 206.597 163.329 207.352 162.801 207.277Z" fill="#9B9267"/>
<path d="M20.4632 92.5761C19.4815 92.5006 18.4999 93.0291 18.2733 94.0863C18.0468 95.1434 18.8774 96.1251 19.9346 96.2006C20.9917 96.2006 21.8223 95.37 21.8223 94.3128C21.8223 93.2557 20.9917 92.5006 20.0101 92.3495C19.4815 92.274 19.7081 91.5189 20.2366 91.5944C21.6713 91.821 22.804 93.1047 22.653 94.5394C22.502 95.9741 21.2183 97.1067 19.7836 96.9557C18.4244 96.8047 17.4427 95.521 17.5938 94.1618C17.7448 92.6516 19.104 91.6699 20.5387 91.821C20.9162 91.821 20.9162 92.6516 20.4632 92.5761Z" fill="#9B9267"/>
<path d="M169.748 134.711C168.766 134.636 167.785 135.164 167.558 136.221C167.331 137.278 168.162 138.26 169.219 138.336C170.276 138.336 171.107 137.505 171.107 136.448C171.107 135.391 170.276 134.636 169.295 134.485C168.766 134.409 168.993 133.654 169.521 133.729C170.956 133.956 172.089 135.24 171.938 136.674C171.787 138.109 170.503 139.242 169.068 139.091C167.709 138.94 166.727 137.656 166.878 136.297C167.029 134.787 168.389 133.805 169.823 133.956C170.201 133.956 170.201 134.711 169.748 134.711Z" fill="#9B9267"/>
<path d="M13.5918 152.305C12.6102 152.23 11.6286 152.758 11.402 153.815C11.1755 154.872 12.0061 155.854 13.0633 155.93C14.1204 155.93 14.951 155.099 14.951 154.042C14.951 152.985 14.1204 152.23 13.1388 152.079C12.6102 152.003 12.8367 151.248 13.3653 151.323C14.8 151.55 15.9327 152.834 15.7816 154.268C15.6306 155.703 14.3469 156.836 12.9122 156.685C11.553 156.534 10.5714 155.25 10.7224 153.891C10.8734 152.381 12.2326 151.399 13.6673 151.55C14.1204 151.625 14.1204 152.381 13.5918 152.305Z" fill="#9B9267"/>
<path d="M101.26 280.673C115.682 280.673 125.876 277.275 129.878 275.69C131.162 275.161 131.993 273.877 131.917 272.518C131.615 267.006 131.011 248.279 133.654 237.028C134.711 232.648 136.523 229.024 138.411 225.248C142.262 217.546 146.642 208.863 146.415 190.438C146.113 164.311 151.172 139.921 155.476 123.989C159.327 109.717 162.348 96.5027 160.611 79.8148C160.007 73.8494 160.158 69.3188 160.309 65.6188C160.536 59.2004 160.687 55.3493 155.401 53.6126C153.513 53.0085 151.701 53.4616 150.04 54.8963C145.207 59.1249 142.866 71.7351 144.905 82.4577C144.98 82.9862 144.98 83.4393 144.754 83.8924C143.621 86.6863 140.752 94.2373 139.317 103.903C137.203 117.872 134.938 123.913 133.352 126.556C133.05 127.084 133.201 127.764 133.729 127.991C134.258 128.293 134.938 128.142 135.164 127.613C137.505 123.535 139.619 115.607 141.356 104.205C142.791 94.7659 145.585 87.3659 146.642 84.6475C146.944 83.8169 147.095 82.9107 146.868 82.0046C144.754 71.0555 147.548 59.7289 151.323 56.4065C152.38 55.5003 153.438 55.1983 154.57 55.5759C158.119 56.7085 158.195 58.7473 157.968 65.3922C157.817 69.0923 157.666 73.7739 158.27 79.8903C160.007 96.2761 156.987 109.264 153.211 123.309C148.907 139.317 143.772 164.009 144.074 190.362C144.301 208.258 139.997 216.716 136.297 224.191C134.333 228.118 132.521 231.742 131.389 236.424C128.67 247.977 129.35 267.006 129.576 272.518C129.576 272.971 129.35 273.424 128.897 273.575C122.403 276.218 98.8434 283.769 66.9779 272.141C66.5248 271.989 66.2228 271.536 66.2983 271.083C66.6004 266.402 67.2044 249.789 61.9187 230.836C61.7677 230.232 61.1636 229.93 60.5595 230.081C59.9554 230.232 59.6534 230.836 59.8044 231.44C64.9391 250.016 64.4105 266.402 64.1085 270.932C64.033 272.367 64.8636 273.726 66.2228 274.179C79.6637 279.088 91.4434 280.673 101.26 280.673Z" fill="#AB9F6E"/>
<path d="M66.8268 234.687C67.3554 234.687 67.8085 234.31 67.884 233.781C67.9595 233.177 67.5819 232.648 66.9779 232.573C66.7513 232.573 47.3451 229.401 34.8858 189.758C29.9776 174.279 27.3347 163.707 25.2204 155.25C21.8225 141.809 20.0102 134.409 12.8367 123.687C6.04073 113.493 7.02237 110.246 7.77748 109.264C9.13667 107.603 13.2898 107.98 18.8775 110.246C29.6001 114.55 34.9613 125.046 39.7185 139.393C44.0981 152.758 53.0839 158.421 53.4614 158.648C53.99 158.95 54.6696 158.799 54.9717 158.27C55.2737 157.742 55.1227 157.138 54.5941 156.76C54.5186 156.685 45.9104 151.248 41.7573 138.638C37.5287 125.725 31.8654 113.04 19.7082 108.131C14.951 106.244 8.75912 104.582 6.11624 107.829C3.77541 110.699 5.43665 116.438 11.0244 124.819C18.0469 135.24 19.7082 142.111 23.1061 155.703C25.2204 164.236 27.8633 174.807 32.847 190.362C45.8349 231.44 65.9207 234.536 66.7513 234.612C66.7513 234.687 66.7513 234.687 66.8268 234.687Z" fill="#AB9F6E"/>
<path d="M139.997 133.578C140.148 133.578 140.374 133.503 140.45 133.427C140.752 133.125 140.752 132.672 140.525 132.446C140.374 132.295 136.599 128.142 131.691 125.348C129.576 124.14 127.84 123.46 126.329 122.856C124.366 122.101 122.705 121.421 120.515 119.76C120.213 119.533 119.76 119.609 119.533 119.911C119.307 120.213 119.382 120.666 119.684 120.893C122.025 122.629 123.913 123.384 125.876 124.14C127.386 124.744 128.972 125.348 131.086 126.556C135.768 129.199 139.544 133.352 139.544 133.352C139.619 133.503 139.846 133.578 139.997 133.578Z" fill="#AB9F6E"/>
<path d="M51.9513 157.213C52.2534 157.213 52.4799 157.138 52.7064 156.911C54.5942 155.099 58.6718 145.585 58.5208 129.123C58.4453 120.364 59.88 112.435 61.3147 104.129C62.5983 96.8802 63.9575 89.4047 64.2596 81.174C64.7882 67.5066 66.6759 57.6902 67.5065 54.1412C67.7331 53.084 67.8086 51.9514 67.8086 50.8187C67.431 32.092 71.8862 20.1614 76.2658 17.0654C77.2474 16.3858 78.1535 16.1593 78.9842 16.4613C82.2311 17.6695 82.2311 20.992 81.7781 31.5635C81.627 35.037 81.4005 39.3411 81.4005 44.4003C81.325 51.2718 81.0985 57.0106 80.8719 62.5229C80.4944 72.4903 80.1168 81.0985 81.023 91.5945C82.3821 107.754 86.3842 114.927 86.5352 115.229C86.7618 115.607 87.2148 115.833 87.5924 115.758C88.0454 115.682 88.3475 115.38 88.4985 115.003C90.9148 106.168 91.7455 82.3067 92.1985 70.829V69.9984C92.3496 66.3739 92.5761 62.6739 92.8781 58.8228C93.4822 51.3473 94.0863 42.8146 94.0863 30.3553C94.0863 15.3287 97.8618 5.58779 101.411 2.94492C102.317 2.26532 103.148 2.1143 103.903 2.34083C108.282 3.62451 109.49 5.73881 109.415 17.9715C109.339 29.5247 109.868 41.1533 111.001 53.6881C112.133 65.8453 111.831 75.8882 110.925 90.1598C109.944 105.111 110.925 115.607 110.925 115.682C111.001 116.286 111.454 116.74 112.058 116.664C112.662 116.664 113.115 116.211 113.115 115.607C113.568 100.354 116.135 89.6312 118.476 80.1924C118.703 79.1352 119.005 78.0781 119.231 77.0209C121.421 67.9596 121.572 56.4065 121.723 47.1187C121.723 45.6085 121.799 44.2493 121.799 42.8901C121.95 34.7349 124.215 22.2001 128.066 19.8593C128.821 19.4062 129.501 19.4062 130.331 19.7838C136.146 22.4267 136.146 28.8451 135.391 38.2084L135.24 39.7186C134.56 47.8738 134.182 53.235 135.013 66.1474C135.542 74.1515 135.391 79.8148 135.164 86.3087C135.013 90.8394 134.862 95.5965 135.013 101.562C135.24 115.984 133.654 126.254 133.654 126.329C133.578 126.933 133.956 127.462 134.56 127.538C135.164 127.613 135.693 127.236 135.768 126.631C135.768 126.556 137.354 116.06 137.203 101.486C137.127 95.521 137.278 90.8394 137.354 86.3087C137.505 79.9658 137.731 74.0005 137.203 65.9208C136.372 53.1595 136.825 47.8738 137.429 39.7941L137.58 38.2839C138.26 29.9022 138.94 21.2185 131.313 17.745C129.803 17.0654 128.368 17.1409 127.009 17.9715C121.95 21.143 119.835 34.9615 119.684 42.8901C119.684 44.2493 119.609 45.6085 119.609 47.1187C119.458 56.2555 119.307 67.6576 117.193 76.4923C116.966 77.5495 116.664 78.6066 116.437 79.6638C115.229 84.6475 113.87 90.0087 112.888 96.2006C112.964 94.3129 113.039 92.2741 113.191 90.1598C114.097 76.1148 114.399 65.5433 113.266 53.3105C112.133 40.8513 111.605 29.2981 111.68 17.8205C111.68 6.04086 110.774 2.03879 104.582 0.151022C103.148 -0.302042 101.637 0.0755111 100.203 1.13266C95.2945 4.83268 91.972 16.4613 92.0475 30.2043C92.0475 42.588 91.4434 51.0452 90.8393 58.5208C90.5373 62.3718 90.2353 66.0719 90.1597 69.7719V70.6025C89.7822 79.9658 89.0271 100.656 87.2148 111.076C85.9311 107.678 84.0434 101.184 83.2128 91.2924C82.3066 80.9475 82.6842 72.3392 83.0617 62.4473C83.2883 57.1616 83.5148 51.1207 83.5903 44.2493C83.6658 39.2656 83.8168 34.9615 83.9679 31.488C84.4209 20.9165 84.6475 16.0838 79.7393 14.2715C78.6821 13.894 77.0209 13.7429 75.0576 15.1777C70.0739 18.7267 65.2412 31.1104 65.6943 50.7432C65.6943 51.7248 65.6188 52.7065 65.4677 53.6126C64.7126 57.2371 62.7494 67.129 62.2208 81.023C61.9187 89.1026 60.5596 96.5782 59.2759 103.752C57.7657 112.209 56.331 120.213 56.4065 129.199C56.5575 146.34 52.0268 154.57 51.1962 155.401C50.7432 155.779 50.7432 156.458 51.1962 156.911C51.4228 157.138 51.6493 157.213 51.9513 157.213Z" fill="#AB9F6E"/>
<path d="M114.852 117.57C115.154 117.57 115.38 117.419 115.531 117.117C115.682 116.74 115.531 116.362 115.154 116.211C115.078 116.211 112.964 115.38 109.188 115.305C108.811 115.305 108.433 115.607 108.433 115.984C108.433 116.362 108.735 116.74 109.113 116.74C112.662 116.815 114.55 117.57 114.625 117.57C114.625 117.57 114.776 117.57 114.852 117.57Z" fill="#AB9F6E"/>
<path d="M83.0617 116.664C83.1372 116.664 83.1372 116.664 83.2127 116.664C86.8372 115.909 90.0842 115.984 91.2923 116.06C91.3679 116.06 91.4434 116.06 91.4434 116.06C91.8209 116.06 92.1985 115.758 92.1985 115.305C92.1985 114.927 91.8964 114.625 91.5189 114.55C89.8576 114.474 86.6107 114.399 82.9862 115.154C82.6086 115.229 82.3821 115.607 82.4576 115.984C82.3821 116.437 82.6841 116.664 83.0617 116.664Z" fill="#AB9F6E"/>
<path d="M127.764 234.234C127.915 234.234 127.991 234.234 128.066 234.159C128.293 234.008 133.805 231.063 137.127 226.91C137.354 226.608 137.354 226.155 136.976 225.928C136.674 225.701 136.221 225.701 135.995 226.079C132.823 230.006 127.462 232.95 127.387 232.95C127.009 233.102 126.933 233.555 127.084 233.932C127.235 234.083 127.538 234.234 127.764 234.234Z" fill="#AB9F6E"/>
<path d="M130.331 158.874C127.915 157.289 125.876 155.325 124.215 152.909C123.762 152.305 124.819 151.701 125.272 152.305C126.782 154.57 128.67 156.383 130.936 157.817C131.54 158.195 130.936 159.252 130.331 158.874Z" fill="#AB9F6E"/>
<path d="M131.389 163.028C126.178 162.726 122.252 159.856 118.476 156.609C113.795 152.607 109.113 149.285 102.921 148.303C96.8046 147.321 90.4617 148.605 85.176 151.852C80.5698 154.721 76.7188 158.572 71.433 160.309C70.6779 160.536 70.3759 159.403 71.131 159.177C77.0208 157.289 81.0984 152.532 86.5352 149.738C90.9148 147.472 95.8985 146.491 100.807 146.868C105.79 147.246 110.548 148.907 114.55 151.852C119.911 155.779 124.29 161.366 131.389 161.819C132.144 161.895 132.144 163.103 131.389 163.028Z" fill="#AB9F6E"/>
<path d="M126.782 161.744C118.778 168.238 108.584 172.844 98.0882 171.636C89.0269 170.579 80.7207 165.519 75.737 157.817C75.284 157.213 76.3411 156.609 76.7942 157.213C81.7779 164.84 90.1596 169.748 99.1453 170.503C108.962 171.334 118.476 166.954 125.952 160.838C126.48 160.385 127.386 161.215 126.782 161.744Z" fill="#AB9F6E"/>
<path d="M122.403 161.291C116.664 155.93 110.699 150.644 102.77 149.209C94.2372 147.699 85.78 150.795 79.8146 156.911C79.2861 157.44 78.4554 156.609 78.984 156.081C84.9494 149.964 93.18 146.793 101.713 147.85C110.472 148.907 117.041 154.57 123.233 160.385C123.837 160.913 123.007 161.744 122.403 161.291Z" fill="#AB9F6E"/>
<path d="M124.97 161.895C123.535 161.366 122.327 160.611 121.195 159.554C120.666 159.026 121.497 158.195 122.025 158.723C122.931 159.63 124.064 160.309 125.272 160.762C126.027 160.989 125.725 162.197 124.97 161.895Z" fill="#AB9F6E"/>
<path d="M79.5127 156.458C78.6821 157.062 77.8515 157.666 77.0209 158.27C76.4168 158.723 75.8127 157.666 76.4168 157.213C77.2474 156.609 78.078 156.005 78.9086 155.401C79.5127 155.023 80.1168 156.081 79.5127 156.458Z" fill="#AB9F6E"/>
<path d="M109.566 150.115C113.644 152.909 115.003 158.044 113.795 162.801C112.511 167.86 108.131 171.032 103.148 171.787C102.392 171.938 102.09 170.73 102.845 170.654C106.923 169.975 110.85 167.709 112.284 163.632C113.87 159.252 112.964 153.891 108.962 151.172C108.358 150.719 108.962 149.662 109.566 150.115Z" fill="#AB9F6E"/>
<path d="M95.1434 171.107C86.1576 166.879 83.4392 153.136 93.2556 148.001C93.9352 147.623 94.5393 148.681 93.8597 149.058C84.7229 153.891 87.5923 166.275 95.7475 170.126C96.4271 170.428 95.823 171.485 95.1434 171.107Z" fill="#AB9F6E"/>
<path d="M100.203 155.325C102.09 155.174 103.903 156.534 104.054 158.497C104.205 160.46 102.77 162.197 100.731 162.272C98.7678 162.348 97.1066 160.687 97.1066 158.723C97.1066 156.76 98.9188 155.325 100.807 155.401C101.562 155.401 101.562 156.609 100.807 156.609C97.6351 156.534 97.5596 161.215 100.731 161.064C102.015 160.989 102.996 159.781 102.845 158.497C102.694 157.138 101.486 156.383 100.203 156.458C99.4474 156.534 99.4474 155.401 100.203 155.325Z" fill="#AB9F6E"/>
<path d="M100.656 156.005C102.468 155.779 103.676 158.119 102.241 159.403C100.958 160.46 98.9189 159.328 99.2965 157.666C99.7496 155.854 102.392 155.93 102.77 157.742C103.148 159.403 101.184 160.687 99.7496 159.781C98.3149 158.799 98.7679 156.383 100.58 156.383C102.241 156.383 103.45 158.874 102.392 160.083C101.26 161.517 98.7679 160.536 98.6924 158.799C98.6169 157.062 100.731 156.156 101.864 157.515C102.997 158.95 102.619 161.517 100.429 161.366C98.8434 161.215 97.7863 159.026 98.7679 157.742C100.127 156.081 102.166 158.572 102.241 159.932C102.317 161.97 99.9006 162.121 98.8434 160.762C98.3149 160.083 98.0128 159.101 98.3149 158.27C98.5414 157.515 99.2965 157.062 100.052 157.364C101.411 157.893 102.392 160.309 100.882 161.215C99.221 162.272 97.4087 160.083 98.0128 158.497C98.2394 157.817 98.9189 157.364 99.5985 157.515C100.429 157.666 101.109 158.648 101.26 159.403C101.411 160.234 100.807 160.989 99.9006 160.762C98.8434 160.536 98.5414 159.101 98.5414 158.195C98.5414 157.44 98.9189 156.534 99.8251 156.685C100.731 156.836 101.033 158.119 101.033 158.874C101.033 159.705 100.429 160.611 99.523 160.46C98.4659 160.309 98.2393 159.177 98.3149 158.27C98.3904 157.44 98.7679 156.458 99.7496 156.534C100.882 156.609 101.184 158.044 101.184 158.95C101.184 159.705 99.9761 159.705 99.9761 158.95C99.9761 158.723 99.9761 158.119 99.7496 157.893C99.372 157.591 99.372 158.27 99.4475 158.421C99.372 158.723 99.523 158.799 99.8251 158.723C99.8251 158.572 99.7496 158.421 99.7496 158.346C99.6741 158.119 99.5985 157.968 99.6741 157.742C99.523 157.968 99.6741 158.497 99.7496 158.648C99.8251 158.799 100.203 159.328 99.9006 159.101C99.8251 158.95 99.6741 158.799 99.5985 158.572C99.4475 158.723 99.221 158.799 99.07 158.95C98.9945 159.252 99.372 159.856 99.5985 160.007C100.656 160.611 100.354 159.101 99.9761 158.648C99.221 157.817 99.372 159.101 99.6741 159.554C99.8251 159.781 100.203 160.158 100.505 160.234C101.26 160.309 101.184 159.63 100.958 159.252C100.807 158.874 99.7496 157.515 99.5985 158.648C99.523 159.328 100.127 160.158 100.807 159.932C101.637 159.705 101.335 158.346 100.731 157.968C99.8251 157.44 99.5985 158.874 100.505 159.252C101.562 159.705 101.788 158.648 101.335 157.893C101.109 157.515 100.807 157.213 100.354 157.44C99.9761 157.666 99.9761 158.044 100.127 158.346C100.58 159.101 101.864 158.572 101.411 157.742C100.807 156.458 99.5985 158.497 100.958 158.421C101.486 158.421 101.713 157.893 101.486 157.44C101.335 156.987 100.958 156.911 100.58 156.987C99.9006 157.289 99.9761 156.081 100.656 156.005Z" fill="#AB9F6E"/>
<path d="M99.2965 156.005C99.8251 154.57 100.127 152.079 98.0883 151.701C95.8985 151.248 95.8985 154.193 96.2761 155.552C96.5026 156.307 95.3699 156.609 95.1434 155.854C94.7658 154.57 94.6903 153.136 95.3699 151.928C95.8985 151.021 96.8801 150.417 97.9373 150.493C100.882 150.644 101.26 154.193 100.354 156.307C100.203 156.987 99.07 156.685 99.2965 156.005Z" fill="#AB9F6E"/>
<path d="M96.0495 156.232C92.3495 157.893 90.2352 161.291 90.3862 165.368C90.3862 166.124 89.2535 166.124 89.178 165.368C89.027 160.913 91.3678 157.062 95.4454 155.174C96.125 154.872 96.7291 155.93 96.0495 156.232Z" fill="#AB9F6E"/>
<path d="M103.147 157.213C108.811 156.156 113.417 161.215 111.831 166.803C111.605 167.558 110.472 167.256 110.698 166.501C112.058 161.895 108.282 157.515 103.525 158.421C102.694 158.497 102.392 157.364 103.147 157.213Z" fill="#AB9F6E"/>
<path d="M111.68 164.16C111.076 159.705 107.074 156.836 102.619 157.968C101.864 158.119 101.562 156.987 102.317 156.836C107.301 155.628 112.133 158.723 112.813 163.858C112.964 164.613 111.756 164.915 111.68 164.16Z" fill="#AB9F6E"/>
<path d="M111.982 162.726C111.756 160.913 109.641 158.95 108.131 158.044C106.243 156.911 104.129 156.685 102.09 157.515C101.411 157.817 101.033 156.609 101.788 156.383C106.092 154.797 112.662 157.817 113.19 162.726C113.266 163.481 112.058 163.481 111.982 162.726Z" fill="#AB9F6E"/>
<path d="M112.36 161.442C110.397 158.195 105.564 154.721 101.788 156.987C101.109 157.364 100.505 156.383 101.184 155.93C105.564 153.362 111.152 156.987 113.417 160.838C113.795 161.517 112.738 162.121 112.36 161.442Z" fill="#AB9F6E"/>
<path d="M112.737 160.536C110.019 156.76 105.488 154.495 101.033 156.836C100.354 157.213 99.7495 156.156 100.429 155.779C105.488 153.06 110.623 155.552 113.795 159.856C114.172 160.536 113.19 161.14 112.737 160.536Z" fill="#AB9F6E"/>
<path d="M100.127 155.552C104.129 152.079 110.85 155.628 113.568 159.101C114.021 159.705 113.191 160.536 112.737 159.932C110.472 157.062 104.507 153.362 100.958 156.383C100.354 156.836 99.5231 156.005 100.127 155.552Z" fill="#AB9F6E"/>
<path d="M113.039 159.479C110.17 155.854 105.337 153.362 100.882 155.703C100.203 156.081 99.5986 155.023 100.278 154.646C105.186 152.003 110.623 154.419 113.87 158.572C114.323 159.177 113.493 160.083 113.039 159.479Z" fill="#AB9F6E"/>
<path d="M112.662 157.742C109.642 154.57 105.488 153.513 101.26 154.797C100.505 155.023 100.203 153.891 100.958 153.664C105.564 152.23 110.17 153.438 113.493 156.911C114.021 157.44 113.191 158.346 112.662 157.742Z" fill="#AB9F6E"/>
<path d="M112.058 156.609C109.566 153.362 104.054 153.438 100.505 154.57C99.7495 154.797 99.4474 153.664 100.203 153.438C104.129 152.154 110.094 152.23 112.888 155.779C113.417 156.383 112.511 157.213 112.058 156.609Z" fill="#AB9F6E"/>
<path d="M111.68 155.628C108.735 152.985 104.884 152.305 101.109 153.664C100.354 153.891 100.052 152.758 100.807 152.532C104.96 151.097 109.188 151.928 112.511 154.797C113.115 155.325 112.284 156.156 111.68 155.628Z" fill="#AB9F6E"/>
<path d="M111.303 154.344C107.905 152.381 104.054 152.154 100.429 153.513C99.7494 153.815 99.4474 152.607 100.127 152.381C104.054 150.87 108.282 151.172 111.907 153.287C112.586 153.74 111.982 154.721 111.303 154.344Z" fill="#AB9F6E"/>
<path d="M110.774 153.287C108.811 152.079 106.697 151.172 104.431 150.644C103.676 150.493 103.978 149.36 104.733 149.511C107.074 150.04 109.339 151.021 111.378 152.305C111.982 152.607 111.378 153.664 110.774 153.287Z" fill="#AB9F6E"/>
<path d="M110.246 151.852C110.321 151.928 110.397 152.003 110.472 152.003C111.001 152.456 110.321 153.211 109.717 152.909C105.564 150.795 101.184 149.738 96.5782 149.662C95.8231 149.662 95.8231 148.454 96.5782 148.454C101.411 148.53 106.017 149.662 110.321 151.852C110.095 152.154 109.868 152.456 109.566 152.758C109.49 152.683 109.415 152.607 109.339 152.607C108.886 152.154 109.717 151.323 110.246 151.852Z" fill="#AB9F6E"/>
<path d="M108.735 152.758C105.413 151.55 102.09 150.946 98.5413 150.87C97.7862 150.87 97.7862 149.662 98.5413 149.662C102.166 149.662 105.639 150.266 109.037 151.55C109.717 151.928 109.415 153.06 108.735 152.758Z" fill="#AB9F6E"/>
<path d="M105.488 152.607C103.072 151.777 100.656 151.021 98.3148 150.191C97.5597 149.964 97.9373 148.832 98.6169 149.058C101.033 149.889 103.45 150.644 105.79 151.474C106.545 151.701 106.243 152.909 105.488 152.607Z" fill="#AB9F6E"/>
<path d="M102.392 151.55C102.468 151.55 102.468 151.55 102.543 151.55C102.468 151.927 102.468 152.305 102.392 152.683C100.958 152.154 99.5985 151.625 98.1638 151.097C97.4842 150.795 97.7862 149.662 98.4658 149.964C99.9005 150.493 101.26 151.021 102.694 151.55C103.298 151.776 103.223 152.683 102.543 152.683C102.468 152.683 102.468 152.683 102.392 152.683C101.637 152.758 101.637 151.55 102.392 151.55Z" fill="#AB9F6E"/>
<path d="M101.562 153.136C100.807 152.758 100.051 152.456 99.3719 152.079C98.6923 151.776 99.2964 150.719 99.976 151.021C100.731 151.399 101.486 151.701 102.166 152.079C102.845 152.381 102.317 153.438 101.562 153.136Z" fill="#AB9F6E"/>
<path d="M104.733 150.946C103.45 150.568 102.166 150.342 100.807 150.266C100.052 150.191 100.052 148.983 100.807 149.058C102.241 149.209 103.676 149.436 105.035 149.813C105.79 150.04 105.488 151.172 104.733 150.946Z" fill="#AB9F6E"/>
<path d="M104.809 150.644C103.45 150.115 102.015 149.813 100.58 149.662C99.8251 149.587 99.8251 148.379 100.58 148.454C102.166 148.605 103.676 148.907 105.111 149.436C105.79 149.813 105.488 150.946 104.809 150.644Z" fill="#AB9F6E"/>
<path d="M97.4088 150.191C95.7475 149.889 94.1618 149.964 92.5006 150.493C91.7455 150.719 91.4434 149.587 92.1985 149.36C94.0108 148.832 95.823 148.756 97.7108 149.058C98.4659 149.209 98.1639 150.342 97.4088 150.191Z" fill="#AB9F6E"/>
<path d="M98.6924 151.021C96.3516 150.568 94.0108 150.719 91.7455 151.399C90.9904 151.625 90.6883 150.493 91.4434 150.266C93.9353 149.511 96.4271 149.36 98.9945 149.889C99.7496 150.04 99.4476 151.172 98.6924 151.021Z" fill="#AB9F6E"/>
<path d="M96.4271 151.625C94.8413 151.399 93.1801 151.323 91.5944 151.55C90.8393 151.625 90.5372 150.493 91.2923 150.417C93.1046 150.191 94.9169 150.191 96.7291 150.493C97.4842 150.644 97.1822 151.776 96.4271 151.625Z" fill="#AB9F6E"/>
<path d="M95.672 152.154C94.1617 152.079 92.727 152.079 91.2923 152.381C90.5372 152.532 90.2352 151.399 90.9903 151.248C92.576 150.946 94.0862 150.87 95.672 151.021C96.4271 151.021 96.4271 152.23 95.672 152.154Z" fill="#AB9F6E"/>
<path d="M95.1434 152.834C93.6332 152.758 92.1985 152.985 90.6883 153.438C89.9332 153.664 89.6311 152.532 90.3862 152.305C91.8964 151.776 93.4822 151.55 95.1434 151.625C95.8985 151.701 95.8985 152.834 95.1434 152.834Z" fill="#AB9F6E"/>
<path d="M94.8414 153.891C93.3312 153.74 91.8965 153.966 90.4618 154.344C89.7067 154.57 89.4046 153.438 90.1597 153.211C91.6699 152.758 93.2557 152.532 94.8414 152.683C95.5965 152.758 95.5965 153.966 94.8414 153.891Z" fill="#AB9F6E"/>
<path d="M94.9925 154.797C93.6333 154.948 92.1986 155.099 90.8394 155.25C90.9904 154.948 91.1414 154.57 91.2924 154.268L91.3679 154.344C91.8965 154.948 91.0659 155.779 90.5373 155.174L90.4618 155.099C90.0843 154.721 90.3863 154.117 90.9149 154.117C92.2741 153.966 93.7088 153.815 95.068 153.664C95.7476 153.513 95.7476 154.721 94.9925 154.797Z" fill="#AB9F6E"/>
<path d="M94.9923 155.779C93.7841 155.779 92.6514 155.93 91.5188 156.232C90.7637 156.458 90.4616 155.25 91.2167 155.099C92.4249 154.797 93.7086 154.646 94.9923 154.646C95.7474 154.57 95.7474 155.779 94.9923 155.779Z" fill="#AB9F6E"/>
<path d="M95.1434 156.232C93.2556 156.911 91.7454 158.346 90.9903 160.158C90.6883 160.838 89.7066 160.234 89.9331 159.554C90.8393 157.44 92.6515 155.854 94.7658 155.099C95.5209 154.797 95.823 155.93 95.1434 156.232Z" fill="#AB9F6E"/>
<path d="M94.0106 156.005C92.6515 157.062 91.3678 158.346 90.3106 159.705C89.8576 160.309 88.8004 159.705 89.2535 159.101C90.3861 157.591 91.6698 156.307 93.18 155.099C93.7086 154.646 94.5392 155.477 94.0106 156.005Z" fill="#AB9F6E"/>
<path d="M92.8025 155.854C91.5943 156.836 90.6127 157.968 89.7821 159.328C89.4045 160.007 88.3474 159.403 88.7249 158.723C89.5555 157.289 90.6127 156.081 91.8964 155.023C92.576 154.495 93.4066 155.325 92.8025 155.854Z" fill="#AB9F6E"/>
<path d="M91.2924 155.325C90.8394 156.609 90.3108 157.893 89.6312 159.026C89.4047 159.479 88.6496 159.403 88.574 158.874C88.574 158.799 88.574 158.799 88.574 158.723C88.3475 157.968 89.5557 157.666 89.7067 158.421C89.7067 158.497 89.7067 158.497 89.7067 158.572C89.3292 158.497 88.9516 158.497 88.6495 158.421C89.2536 157.364 89.7822 156.156 90.2353 154.948C90.3863 154.268 91.519 154.57 91.2924 155.325Z" fill="#AB9F6E"/>
<path d="M91.2924 154.193C90.9148 155.628 90.3862 157.062 89.6311 158.346C89.2536 159.026 88.2719 158.421 88.574 157.742C89.2536 156.534 89.7821 155.25 90.1597 153.891C90.3107 153.211 91.5189 153.513 91.2924 154.193Z" fill="#AB9F6E"/>
<path d="M90.9147 151.852C90.6882 153.74 90.1596 155.552 89.329 157.289C89.0269 157.893 88.1208 157.44 88.2718 156.836C88.3473 156.685 88.3473 156.534 88.4228 156.307C88.5739 155.552 89.782 155.854 89.5555 156.609C89.48 156.76 89.48 156.911 89.4045 157.138C89.0269 156.987 88.6494 156.836 88.3473 156.685C89.1024 155.174 89.5555 153.513 89.782 151.852C89.8575 151.172 91.0657 151.097 90.9147 151.852Z" fill="#AB9F6E"/>
<path d="M90.5374 152.381C89.9333 154.268 89.4802 156.156 89.1782 158.119C88.8006 158.044 88.4231 157.893 88.0455 157.817C88.0455 157.666 88.121 157.591 88.121 157.44C88.272 156.685 89.4802 156.987 89.2537 157.742C89.2537 157.893 89.1782 157.968 89.1782 158.119C89.0271 158.874 87.8945 158.572 88.0455 157.817C88.3476 155.854 88.8006 153.966 89.4047 152.079C89.6312 151.399 90.7639 151.701 90.5374 152.381Z" fill="#AB9F6E"/>
<path d="M89.5555 155.703C89.48 157.515 89.7065 159.328 90.2351 161.064C90.4616 161.819 89.329 162.121 89.1024 161.366C88.5739 159.479 88.3473 157.591 88.4229 155.703C88.3473 154.948 89.5555 154.948 89.5555 155.703Z" fill="#AB9F6E"/>
<path d="M90.2351 158.346C90.4616 159.177 90.3861 160.083 90.3861 160.913C90.3861 161.668 89.2535 161.668 89.1779 160.913C89.1779 160.234 89.2534 159.403 89.0269 158.648C88.8759 157.893 90.0086 157.591 90.2351 158.346Z" fill="#AB9F6E"/>
<path d="M88.8004 157.817C89.0269 159.479 89.48 161.14 90.0085 162.726C90.2351 163.481 89.1024 163.783 88.8759 163.028C88.3473 161.442 87.8943 159.781 87.6677 158.119C87.5922 157.364 88.7249 157.062 88.8004 157.817Z" fill="#AB9F6E"/>
<path d="M106.319 156.987C107.603 160.158 105.488 163.632 102.392 164.764C99.07 165.972 96.1251 163.632 94.7659 160.687C94.4639 160.007 95.4455 159.403 95.823 160.083C96.9557 162.65 99.4476 164.764 102.392 163.481C104.733 162.423 106.244 159.781 105.186 157.289C104.96 156.609 106.092 156.307 106.319 156.987Z" fill="#AB9F6E"/>
<path d="M108.811 158.195C109.339 162.197 106.545 165.972 102.619 167.03C98.4658 168.162 94.4638 166.048 92.5005 162.424C92.1229 161.744 93.1801 161.14 93.5576 161.819C95.2944 164.991 98.6924 166.879 102.392 165.897C105.79 164.991 108.131 161.744 107.678 158.195C107.603 157.44 108.735 157.44 108.811 158.195Z" fill="#AB9F6E"/>
<path d="M111.378 160.46C110.623 164.538 107.905 167.709 103.978 169.068C99.4474 170.654 95.3698 168.917 91.9718 165.821C91.4432 165.293 92.2739 164.462 92.8024 164.991C95.8229 167.86 99.5229 169.446 103.676 167.936C107.225 166.652 109.566 163.783 110.245 160.158C110.321 159.403 111.529 159.705 111.378 160.46Z" fill="#AB9F6E"/>
<path d="M106.017 159.328C105.941 158.799 106.319 158.195 106.848 158.044C107.376 157.893 107.98 158.119 108.282 158.572C108.509 158.95 107.905 159.328 107.678 158.95C107.301 158.421 106.697 158.799 106.772 159.328C106.772 159.781 106.092 159.781 106.017 159.328Z" fill="#AB9F6E"/>
<path d="M106.017 159.403C106.168 158.723 106.696 158.195 107.452 158.27C108.131 158.346 108.584 158.95 108.584 159.554C108.584 160.007 107.829 160.007 107.829 159.554C107.829 159.252 107.678 158.95 107.376 158.95C106.998 158.95 106.847 159.252 106.772 159.554C106.621 160.083 105.866 159.856 106.017 159.403Z" fill="#AB9F6E"/>
<path d="M107.98 160.611C108.207 159.781 109.188 159.554 109.868 160.083C110.774 160.762 110.548 161.97 110.17 162.877C110.019 163.33 109.339 163.103 109.49 162.65C109.641 162.197 109.868 161.744 109.792 161.215C109.717 160.913 109.641 160.687 109.339 160.536C109.037 160.385 108.735 160.46 108.66 160.762C108.584 161.215 107.905 161.064 107.98 160.611Z" fill="#AB9F6E"/>
<path d="M109.49 163.632C109.868 163.179 110.472 162.801 111.076 163.103C111.68 163.405 111.831 164.009 111.831 164.613C111.831 165.066 111.152 165.066 111.076 164.613C111.076 164.311 111.076 163.858 110.699 163.783C110.397 163.632 110.095 163.934 109.944 164.16C109.717 164.462 109.188 163.934 109.49 163.632Z" fill="#AB9F6E"/>
<path d="M110.246 162.423C110.85 162.423 111.303 162.65 111.68 163.103C111.982 163.481 111.303 163.858 111.076 163.481C110.85 163.254 110.623 163.103 110.321 163.103C109.792 163.179 109.793 162.423 110.246 162.423Z" fill="#AB9F6E"/>
<path d="M111.529 166.199C111.152 166.879 110.774 167.558 110.094 168.011C109.717 168.313 109.339 167.634 109.717 167.407C110.245 167.03 110.548 166.426 110.85 165.821C111.152 165.444 111.756 165.821 111.529 166.199Z" fill="#AB9F6E"/>
<path d="M110.245 162.952C111.001 163.028 111.605 163.481 111.68 164.236C111.756 164.613 111.227 164.915 111.001 164.538V164.462C110.774 164.085 111.378 163.707 111.605 164.085V164.16C111.378 164.236 111.152 164.311 110.925 164.462C110.85 164.085 110.623 163.707 110.17 163.707C109.792 163.632 109.792 162.952 110.245 162.952Z" fill="#AB9F6E"/>
<path d="M110.623 163.632C110.17 163.632 110.17 162.877 110.623 162.877C111.076 162.877 111.076 163.632 110.623 163.632Z" fill="#AB9F6E"/>
<path d="M110.85 162.952L110.925 163.028C111.152 163.254 111.001 163.632 110.699 163.632C110.623 163.632 110.472 163.632 110.396 163.632C110.396 163.405 110.472 163.179 110.472 162.952C110.623 162.952 110.699 163.028 110.85 163.028C111.227 163.103 111.152 163.707 110.774 163.707C110.623 163.707 110.472 163.707 110.321 163.707C109.868 163.707 109.868 163.028 110.321 162.952C111.076 162.877 111.68 163.481 111.68 164.236C111.68 164.689 111.001 164.689 110.925 164.236C110.925 163.858 110.623 163.632 110.245 163.707C110.245 163.481 110.245 163.254 110.245 162.952C110.396 162.952 110.548 162.952 110.699 162.952C110.699 163.179 110.623 163.405 110.623 163.632C110.472 163.632 110.396 163.556 110.245 163.556C109.868 163.481 109.943 162.877 110.321 162.877C110.396 162.877 110.548 162.877 110.623 162.877C110.548 163.103 110.472 163.254 110.396 163.481L110.321 163.405C110.019 163.179 110.548 162.65 110.85 162.952Z" fill="#AB9F6E"/>
<path d="M103.299 158.874C103.525 158.044 104.28 157.364 105.186 157.591C106.168 157.817 106.319 158.95 106.244 159.781C106.168 160.234 105.488 160.234 105.488 159.781C105.564 159.328 105.639 158.572 105.111 158.27C104.582 157.968 104.129 158.497 103.978 159.026C103.903 159.554 103.223 159.328 103.299 158.874Z" fill="#AB9F6E"/>
<path d="M100.429 154.646C100.429 155.703 99.372 156.307 98.6925 156.911C98.3149 157.213 97.8618 156.685 98.1639 156.383C98.4659 156.081 98.768 155.854 99.07 155.552C99.372 155.25 99.6741 155.023 99.6741 154.57C99.6741 154.117 100.429 154.117 100.429 154.646Z" fill="#AB9F6E"/>
<path d="M90.0842 166.35C89.7067 165.595 89.5557 164.764 89.5557 163.934C89.5557 163.481 90.3108 163.481 90.3108 163.934C90.3108 164.689 90.3863 165.368 90.6883 166.048C90.9149 166.426 90.2353 166.803 90.0842 166.35Z" fill="#AB9F6E"/>
<path d="M124.668 156.911C120.817 153.211 116.513 150.115 111.831 147.548C111.152 147.17 111.756 146.189 112.435 146.491C117.193 149.134 121.572 152.305 125.574 156.081C126.103 156.609 125.272 157.44 124.668 156.911Z" fill="#AB9F6E"/>
<path d="M107.905 145.509C97.0311 140.752 83.2126 136.674 78.0024 124.895C77.7003 124.215 78.682 123.611 79.0595 124.291C84.1188 135.844 97.8617 139.846 108.509 144.452C109.188 144.754 108.584 145.811 107.905 145.509Z" fill="#AB9F6E"/>
<path d="M131.388 134.409C117.268 136.976 98.8434 135.089 88.1964 124.442C87.6678 123.913 88.4229 123.007 88.9515 123.535C99.4474 133.88 117.495 135.693 131.313 133.201C132.068 133.05 132.144 134.258 131.388 134.409Z" fill="#AB9F6E"/>
<path d="M87.1393 232.044C94.0107 230.157 97.1822 222.757 98.8434 216.414C100.58 209.844 100.429 203.048 98.8434 196.479C98.6924 195.724 99.8251 195.422 99.9761 196.177C101.864 203.728 101.713 211.656 99.2965 219.057C97.3332 225.097 94.0107 231.365 87.4413 233.177C86.7617 233.404 86.3842 232.271 87.1393 232.044Z" fill="#AB9F6E"/>
<path d="M95.6719 189.834C89.9331 179.489 80.4942 171.862 69.1676 168.464C68.4125 168.238 68.7146 167.105 69.4697 167.332C81.0983 170.881 90.7637 178.658 96.6535 189.305C97.1066 189.834 96.0494 190.438 95.6719 189.834Z" fill="#AB9F6E"/>
<path d="M50.2146 174.581C59.6535 169.144 69.9229 165.972 80.7965 165.142C81.5516 165.066 81.5516 166.275 80.7965 166.35C70.1495 167.181 60.031 170.352 50.8187 175.638C50.1391 176.015 49.535 174.958 50.2146 174.581Z" fill="#AB9F6E"/>
<path d="M128.519 158.497C133.05 157.213 136.976 154.948 140.374 151.625C140.903 151.097 141.734 151.928 141.205 152.456C137.731 155.854 133.503 158.27 128.821 159.63C128.066 159.781 127.764 158.648 128.519 158.497Z" fill="#AB9F6E"/>
<path d="M120.515 165.973C111.982 174.43 105.941 184.85 102.619 196.403C102.392 197.158 101.26 196.856 101.486 196.101C104.809 184.322 111.001 173.75 119.684 165.142C120.213 164.613 121.044 165.444 120.515 165.973Z" fill="#AB9F6E"/>
<path d="M78.7576 152.758C76.0392 155.099 72.8677 156.76 69.3187 157.591C68.9412 157.666 68.7902 157.138 69.1677 156.987C72.5657 156.156 75.6616 154.57 78.3045 152.305C78.6065 152.079 79.0596 152.532 78.7576 152.758Z" fill="#AB9F6E"/>
<path d="M79.7393 151.776C79.7393 151.776 79.6638 151.776 79.7393 151.776C79.2862 151.776 79.2862 151.172 79.7393 151.172C80.1168 151.172 80.1168 151.776 79.7393 151.776Z" fill="#AB9F6E"/>
<path d="M139.468 162.801C136.901 162.348 134.484 161.668 132.068 160.762C131.691 160.611 131.842 160.083 132.219 160.158C134.635 161.14 137.052 161.819 139.619 162.197C139.997 162.272 139.846 162.801 139.468 162.801Z" fill="#AB9F6E"/>
<path d="M133.729 162.726C133.276 162.726 133.276 162.121 133.729 162.121C134.182 162.121 134.182 162.726 133.729 162.726Z" fill="#AB9F6E"/>
<path d="M122.025 149.813C119.08 146.642 115.531 144.452 111.378 143.168C111.001 143.093 111.152 142.489 111.529 142.564C115.758 143.848 119.458 146.189 122.403 149.36C122.705 149.662 122.252 150.115 122.025 149.813Z" fill="#AB9F6E"/>
<path d="M110.246 146.264C109.868 146.264 109.868 145.66 110.246 145.66C110.623 145.66 110.623 146.264 110.246 146.264Z" fill="#AB9F6E"/>
<path d="M82.9106 146.717C81.4003 148.681 79.6636 150.266 77.5493 151.55C77.2473 151.776 76.9452 151.248 77.2473 151.021C79.2105 149.813 80.9473 148.227 82.382 146.415C82.6085 146.113 83.1371 146.415 82.9106 146.717Z" fill="#AB9F6E"/>
<path d="M74.2269 115.456C69.9228 116.286 66.1473 118.401 63.2024 121.723C62.9758 122.025 62.5228 121.572 62.7493 121.27C65.6942 117.872 69.6208 115.682 74.0004 114.852C74.4535 114.852 74.6045 115.38 74.2269 115.456Z" fill="#AB9F6E"/>
<path d="M67.8086 119.382C66.1473 121.572 64.033 123.309 61.6167 124.668C61.3146 124.819 61.0126 124.366 61.3146 124.14C63.731 122.856 65.6943 121.119 67.431 119.005C67.6575 118.703 68.0351 119.08 67.8086 119.382Z" fill="#AB9F6E"/>
<path d="M78.2291 75.0576C74.7556 76.5678 71.1311 77.5495 67.4311 78.0025C67.0535 78.0781 67.0535 77.474 67.4311 77.3985C71.0556 76.9454 74.6046 75.9637 77.927 74.529C78.3046 74.4535 78.6066 74.9821 78.2291 75.0576Z" fill="#AB9F6E"/>
<path d="M72.7923 78.8332C70.9045 78.7576 69.1678 79.0597 67.3555 79.5883C66.978 79.7393 66.8269 79.1352 67.2045 78.9842C69.0167 78.3801 70.9045 78.1536 72.7923 78.2291C73.1698 78.3046 73.1698 78.9087 72.7923 78.8332Z" fill="#AB9F6E"/>
<path d="M74.378 51.5738C73.0188 51.8758 71.8106 52.3289 70.6024 53.0085C70.3004 53.235 69.9984 52.7065 70.3004 52.4799C71.5086 51.8003 72.7923 51.2718 74.227 50.9697C74.6045 50.9697 74.7555 51.4983 74.378 51.5738Z" fill="#AB9F6E"/>
<path d="M139.166 128.897C141.432 130.86 143.546 133.05 145.434 135.466C145.66 135.768 145.283 136.221 144.981 135.919C143.093 133.503 140.978 131.313 138.713 129.35C138.487 129.123 138.864 128.67 139.166 128.897Z" fill="#AB9F6E"/>
<path d="M137.58 127.764C137.656 127.764 137.656 127.84 137.731 127.84C138.033 128.066 137.731 128.595 137.429 128.368C137.354 128.368 137.354 128.293 137.278 128.293C136.976 128.066 137.278 127.538 137.58 127.764Z" fill="#AB9F6E"/>
<path d="M143.772 135.315C144.603 136.297 145.358 137.354 146.038 138.487C146.264 138.789 145.735 139.091 145.509 138.789C144.829 137.732 144.15 136.674 143.319 135.693C143.093 135.391 143.47 135.013 143.772 135.315Z" fill="#AB9F6E"/>
<path d="M142.413 134.787C142.036 134.787 142.036 134.182 142.413 134.182C142.791 134.258 142.791 134.787 142.413 134.787Z" fill="#AB9F6E"/>
<path d="M132.068 123.989C130.558 122.931 128.897 122.101 127.085 121.572C126.707 121.497 126.858 120.893 127.236 120.968C129.048 121.497 130.785 122.327 132.37 123.46C132.672 123.687 132.37 124.215 132.068 123.989Z" fill="#AB9F6E"/>
<path d="M97.1822 114.172C94.6903 113.946 92.274 113.946 89.7821 114.248C89.4046 114.323 89.4046 113.719 89.7821 113.644C92.274 113.342 94.6903 113.342 97.1822 113.568C97.5597 113.568 97.5597 114.172 97.1822 114.172Z" fill="#AB9F6E"/>
<path d="M95.3699 115.909C94.8413 115.909 94.3128 115.909 93.7842 115.909C93.4066 115.909 93.4066 115.305 93.7842 115.305C94.3128 115.305 94.8413 115.305 95.3699 115.305C95.7475 115.305 95.7475 115.909 95.3699 115.909Z" fill="#AB9F6E"/>
<path d="M107.376 116.06C106.998 116.06 106.998 115.456 107.376 115.456C107.754 115.456 107.754 116.06 107.376 116.06Z" fill="#AB9F6E"/>
<path d="M84.1944 114.323C81.2495 114.55 79.1352 116.966 76.2658 117.419C75.8882 117.495 75.7372 116.891 76.1147 116.815C79.0596 116.362 81.1739 113.946 84.1944 113.719C84.5719 113.719 84.5719 114.323 84.1944 114.323Z" fill="#AB9F6E"/>
<path d="M83.2882 112.058C82.0045 109.339 81.0984 106.546 80.4943 103.601C80.4188 103.223 81.0228 103.072 81.0983 103.45C81.7024 106.319 82.533 109.113 83.8167 111.756C83.9678 112.133 83.5147 112.435 83.2882 112.058Z" fill="#AB9F6E"/>
<path d="M82.2311 112.813C81.5515 111.68 81.0229 110.472 80.6454 109.188C80.4944 108.811 81.0985 108.66 81.2495 109.037C81.627 110.246 82.1556 111.378 82.8352 112.511C82.9107 112.888 82.3821 113.191 82.2311 112.813Z" fill="#AB9F6E"/>
<path d="M80.7209 113.191C80.7209 113.115 80.7209 113.115 80.7209 113.191C80.7209 112.737 81.325 112.737 81.325 113.115C81.325 113.115 81.325 113.115 81.325 113.191C81.325 113.568 80.7209 113.568 80.7209 113.191Z" fill="#AB9F6E"/>
<path d="M75.5105 237.481C71.735 237.33 68.035 236.726 64.4105 235.593C64.0329 235.442 64.1839 234.914 64.5615 234.989C68.1105 236.122 71.8105 236.726 75.5105 236.877C75.8881 236.877 75.8881 237.481 75.5105 237.481Z" fill="#AB9F6E"/>
<path d="M71.2066 238.84C69.0923 238.614 66.978 238.161 64.9392 237.481C64.5616 237.33 64.7127 236.802 65.0902 236.877C67.0535 237.632 69.0923 238.085 71.2066 238.236C71.5841 238.312 71.5841 238.916 71.2066 238.84Z" fill="#AB9F6E"/>
<path d="M65.3923 238.689C66.676 243.446 67.4311 248.279 67.5066 253.263C67.5066 253.64 66.9025 253.64 66.9025 253.263C66.827 248.355 66.0719 243.597 64.7882 238.84C64.7882 238.463 65.3168 238.312 65.3923 238.689Z" fill="#AB9F6E"/>
<path d="M67.129 239.671C68.1107 242.238 68.6393 244.957 68.7903 247.675C68.7903 248.053 68.1862 248.053 68.1862 247.675C68.0352 244.957 67.4311 242.314 66.525 239.822C66.4495 239.52 67.0535 239.369 67.129 239.671Z" fill="#AB9F6E"/>
<path d="M68.3372 240.124C67.9596 240.124 67.9596 239.52 68.3372 239.52C68.7147 239.52 68.7147 240.124 68.3372 240.124Z" fill="#AB9F6E"/>
<path d="M74.2269 239.067C72.7922 239.746 71.282 240.124 69.6963 240.2C69.3187 240.2 69.3187 239.671 69.6963 239.595C71.131 239.52 72.5657 239.142 73.9249 238.538C74.2269 238.463 74.529 238.916 74.2269 239.067Z" fill="#AB9F6E"/>
<path d="M131.313 233.555C129.727 235.593 127.462 236.877 124.895 237.255C124.517 237.33 124.366 236.726 124.744 236.651C127.235 236.273 129.35 235.065 130.86 233.102C131.086 232.799 131.54 233.253 131.313 233.555Z" fill="#AB9F6E"/>
<path d="M130.558 235.971C129.35 241.106 128.595 246.316 128.293 251.602C128.293 251.979 127.688 251.979 127.688 251.602C128.066 246.316 128.821 241.03 129.954 235.82C130.105 235.442 130.633 235.593 130.558 235.971Z" fill="#AB9F6E"/>
<path d="M129.501 236.65C128.897 237.179 128.293 237.557 127.537 237.859C127.16 238.01 127.009 237.406 127.386 237.255C127.991 237.028 128.595 236.65 129.123 236.197C129.35 235.971 129.803 236.348 129.501 236.65Z" fill="#AB9F6E"/>
<path d="M128.897 238.161C128.519 238.161 128.519 237.557 128.897 237.557C129.274 237.557 129.274 238.161 128.897 238.161Z" fill="#AB9F6E"/>
<path d="M119.609 243.522C116.664 242.163 113.568 241.181 110.397 240.728C110.019 240.653 110.17 240.124 110.548 240.124C113.795 240.577 116.966 241.559 119.911 242.918C120.289 243.144 119.986 243.673 119.609 243.522Z" fill="#AB9F6E"/>
<path d="M114.399 243.598C108.207 240.879 101.562 240.577 94.9168 240.351C94.5392 240.351 94.5392 239.746 94.9168 239.746C101.637 239.973 108.433 240.351 114.701 243.069C115.003 243.22 114.701 243.749 114.399 243.598Z" fill="#AB9F6E"/>
<path d="M138.184 217.471C136.901 222.228 134.182 226.155 130.18 229.024C129.878 229.25 129.576 228.722 129.878 228.495C133.729 225.701 136.372 221.85 137.58 217.244C137.731 216.942 138.335 217.093 138.184 217.471Z" fill="#AB9F6E"/>
<path d="M132.37 225.55C130.256 227.589 127.839 229.326 125.272 230.761C124.97 230.912 124.668 230.459 124.97 230.232C127.537 228.873 129.878 227.136 131.993 225.173C132.219 224.871 132.597 225.324 132.37 225.55Z" fill="#AB9F6E"/>
<path d="M105.564 226.759C103.449 224.795 101.713 222.53 100.278 219.963C100.127 219.661 100.58 219.359 100.807 219.661C102.166 222.152 103.903 224.418 106.017 226.306C106.243 226.608 105.866 227.061 105.564 226.759Z" fill="#AB9F6E"/>
<path d="M102.015 224.871C101.033 223.814 100.278 222.606 99.6741 221.322C99.5231 220.944 100.052 220.642 100.203 221.02C100.807 222.228 101.486 223.361 102.468 224.418C102.695 224.72 102.317 225.173 102.015 224.871Z" fill="#AB9F6E"/>
<path d="M97.8619 216.791C97.1068 221.473 94.917 225.55 91.519 228.797C91.2169 229.024 90.8394 228.646 91.0659 228.344C94.3884 225.173 96.5027 221.171 97.2578 216.64C97.3333 216.263 97.9374 216.414 97.8619 216.791Z" fill="#AB9F6E"/>
<path d="M94.3129 222.908C92.9537 225.399 91.1415 227.589 88.9517 229.401C88.6496 229.628 88.2721 229.25 88.4986 228.948C90.6884 227.212 92.4251 225.022 93.7843 222.53C94.0109 222.228 94.5394 222.53 94.3129 222.908Z" fill="#AB9F6E"/>
<path d="M65.2411 230.836C55.7268 225.399 48.1002 217.244 43.343 207.352C43.192 206.975 43.7206 206.673 43.8716 207.05C48.6288 216.867 56.1798 224.946 65.6187 230.383C65.8452 230.534 65.5432 231.063 65.2411 230.836Z" fill="#AB9F6E"/>
<path d="M53.3104 218.755C48.7042 213.469 44.7777 207.579 41.7573 201.236C41.6062 200.858 42.1348 200.556 42.2858 200.934C45.3063 207.277 49.1573 213.091 53.7635 218.301C53.99 218.603 53.5369 219.057 53.3104 218.755Z" fill="#AB9F6E"/>
<path d="M42.0593 204.861C40.2471 201.689 38.7369 198.442 37.6042 194.969C37.4532 194.591 38.0573 194.44 38.2083 194.818C39.3409 198.216 40.7756 201.463 42.5879 204.558C42.7389 204.936 42.2103 205.163 42.0593 204.861Z" fill="#AB9F6E"/>
<path d="M45.5329 205.012C43.8716 202.444 42.4369 199.801 41.3043 196.932C41.1532 196.554 41.7573 196.403 41.9084 196.781C43.041 199.575 44.4002 202.218 46.0614 204.709C46.288 205.012 45.7594 205.314 45.5329 205.012Z" fill="#AB9F6E"/>
<path d="M41.1534 199.801C40.7758 199.801 40.7758 199.197 41.1534 199.197C41.5309 199.197 41.5309 199.801 41.1534 199.801Z" fill="#AB9F6E"/>
<path d="M40.0207 174.203C40.0962 173.901 40.1717 173.675 40.2472 173.373C40.3982 173.448 40.6247 173.524 40.7758 173.599C39.2655 176.922 38.4349 180.32 38.4349 184.02C38.4349 184.397 37.8308 184.397 37.8308 184.02C37.8308 180.32 38.6615 176.695 40.2472 173.297C40.3982 172.995 40.8513 173.222 40.7758 173.524C40.7002 173.826 40.6247 174.052 40.5492 174.354C40.4737 174.732 39.8696 174.581 40.0207 174.203Z" fill="#AB9F6E"/>
<path d="M41.3042 170.579C39.8695 172.315 38.9634 174.354 38.4348 176.544C38.3593 176.922 37.7552 176.771 37.8307 176.393C38.3593 174.128 39.4165 172.013 40.8512 170.201C41.0777 169.899 41.5308 170.277 41.3042 170.579Z" fill="#AB9F6E"/>
<path d="M37.6797 174.656C37.1511 176.317 36.8491 177.979 36.698 179.715C36.698 180.093 36.094 180.093 36.094 179.715C36.245 177.903 36.547 176.166 37.0756 174.505C37.2266 174.128 37.7552 174.279 37.6797 174.656Z" fill="#AB9F6E"/>
<path d="M36.3206 181.452C35.943 181.452 35.943 180.848 36.3206 180.848C36.6981 180.924 36.6981 181.452 36.3206 181.452Z" fill="#AB9F6E"/>
<path d="M38.586 139.77C36.6982 139.846 34.8859 140.299 33.1492 140.978C32.7716 141.129 32.6206 140.525 32.9982 140.374C34.8104 139.619 36.6227 139.242 38.586 139.166C38.9635 139.166 38.9635 139.77 38.586 139.77Z" fill="#AB9F6E"/>
<path d="M37.2266 138.789C34.0552 139.166 31.1102 140.374 28.5429 142.187C28.2408 142.413 27.9388 141.885 28.2408 141.658C30.9592 139.695 33.9796 138.562 37.2266 138.109C37.6042 138.109 37.6042 138.713 37.2266 138.789Z" fill="#AB9F6E"/>
<path d="M27.4102 142.715H27.3347C26.9571 142.715 26.9571 142.111 27.3347 142.111H27.4102C27.7877 142.111 27.7877 142.715 27.4102 142.715Z" fill="#AB9F6E"/>
<path d="M29.9021 138.562C28.3919 139.091 27.0327 139.77 25.749 140.827C25.4469 141.054 25.0694 140.676 25.2959 140.374C26.5796 139.317 28.0898 138.487 29.6755 137.958C30.0531 137.883 30.2041 138.411 29.9021 138.562Z" fill="#AB9F6E"/>
<path d="M51.0453 159.177C49.0065 159.932 47.1942 161.14 45.684 162.726C45.4575 163.028 45.0044 162.575 45.231 162.272C46.8167 160.611 48.7045 159.403 50.8188 158.572C51.2718 158.497 51.4228 159.026 51.0453 159.177Z" fill="#AB9F6E"/>
<path d="M50.139 161.215C47.4206 162.575 45.3063 164.689 43.8716 167.332C43.7206 167.634 43.192 167.407 43.343 167.03C44.7777 164.236 47.0431 162.046 49.837 160.687C50.2145 160.536 50.5165 161.064 50.139 161.215Z" fill="#AB9F6E"/>
<path d="M61.1636 152.23C59.8799 153.287 58.4452 154.042 56.8595 154.495C56.482 154.57 56.3309 154.042 56.7085 153.891C58.2187 153.438 59.5779 152.758 60.7861 151.776C61.0881 151.55 61.4657 151.928 61.1636 152.23Z" fill="#AB9F6E"/>
<path d="M55.5003 155.099C55.1227 155.099 55.1227 154.495 55.5003 154.495C55.8778 154.495 55.8778 155.099 55.5003 155.099Z" fill="#AB9F6E"/>
<path d="M60.484 154.57C59.0493 155.477 57.4635 156.005 55.7268 156.232C55.3492 156.307 55.3492 155.703 55.7268 155.628C57.3125 155.401 58.8227 154.872 60.1819 154.042C60.5595 153.891 60.8615 154.344 60.484 154.57Z" fill="#AB9F6E"/>
<path d="M55.2737 160.158C53.1594 160.838 51.2716 161.895 49.6104 163.254C49.3083 163.481 48.9308 163.103 49.1573 162.801C50.894 161.291 52.9328 160.234 55.1226 159.554C55.4247 159.479 55.6512 160.083 55.2737 160.158Z" fill="#AB9F6E"/>
<path d="M79.8148 145.66C76.1903 143.621 72.3392 142.338 68.1861 141.809C67.8086 141.734 67.8086 141.205 68.1861 141.205C72.4147 141.734 76.4168 143.017 80.1168 145.132C80.4189 145.358 80.1168 145.887 79.8148 145.66Z" fill="#AB9F6E"/>
<path d="M77.6249 146.113C75.133 144.981 72.5656 144.225 69.8472 143.697C69.4697 143.621 69.6207 143.093 69.9983 143.093C72.7167 143.621 75.3595 144.452 77.9269 145.509C78.2289 145.811 77.9269 146.264 77.6249 146.113Z" fill="#AB9F6E"/>
<path d="M79.2107 147.019C78.8332 147.019 78.8332 146.415 79.2107 146.415C79.6638 146.415 79.6638 147.019 79.2107 147.019Z" fill="#AB9F6E"/>
<path d="M138.637 216.263C138.637 216.263 138.637 216.338 138.637 216.263C138.637 216.716 138.033 216.716 138.033 216.338V216.263C138.033 215.885 138.637 215.885 138.637 216.263Z" fill="#AB9F6E"/>
<path d="M138.336 212.714C137.354 216.867 135.693 220.718 133.352 224.191C133.125 224.493 132.597 224.191 132.823 223.889C135.164 220.416 136.75 216.64 137.731 212.487C137.807 212.185 138.411 212.336 138.336 212.714Z" fill="#AB9F6E"/>
<path d="M106.545 226.985C106.621 226.985 106.621 226.985 106.545 226.985C106.998 226.985 106.998 227.589 106.621 227.589H106.545C106.168 227.589 106.168 226.985 106.545 226.985Z" fill="#AB9F6E"/>
<path d="M103.299 225.399C103.299 225.399 103.299 225.475 103.299 225.399C103.601 225.701 103.223 226.155 102.921 225.852L102.846 225.777C102.619 225.55 102.997 225.097 103.299 225.399Z" fill="#AB9F6E"/>
<path d="M102.619 221.02C101.788 220.038 101.184 218.906 100.807 217.622C100.731 217.244 101.26 217.093 101.411 217.471C101.788 218.603 102.317 219.661 103.072 220.567C103.299 220.944 102.846 221.322 102.619 221.02Z" fill="#AB9F6E"/>
<path d="M154.948 87.3659C153.287 86.3842 151.55 85.7046 149.662 85.3271C149.285 85.2516 149.436 84.6475 149.813 84.723C151.701 85.1005 153.513 85.8557 155.174 86.8373C155.552 86.9883 155.25 87.5169 154.948 87.3659Z" fill="#AB9F6E"/>
<path d="M151.625 86.9128C150.568 86.6108 149.511 86.3087 148.378 85.9312C148.001 85.8557 148.152 85.2516 148.529 85.3271C149.587 85.6291 150.644 85.9312 151.776 86.3087C152.154 86.4597 152.003 87.0638 151.625 86.9128Z" fill="#AB9F6E"/>
<path d="M151.625 112.284C149.662 110.85 147.548 109.944 145.207 109.415C144.829 109.339 144.98 108.735 145.358 108.811C147.774 109.339 149.964 110.321 151.927 111.756C152.305 111.982 152.003 112.511 151.625 112.284Z" fill="#AB9F6E"/>
<path d="M152.682 114.248C150.946 112.964 148.982 112.058 146.868 111.454C146.491 111.378 146.642 110.774 147.019 110.85C149.209 111.378 151.172 112.36 152.985 113.644C153.287 113.946 152.985 114.474 152.682 114.248Z" fill="#AB9F6E"/>
<path d="M143.546 109.188C143.168 109.188 143.168 108.584 143.546 108.584C143.923 108.584 143.923 109.188 143.546 109.188Z" fill="#AB9F6E"/>
<path d="M132.672 84.572C132.672 84.4965 132.597 84.4965 132.672 84.572C132.37 84.2699 132.748 83.8169 133.05 84.1189L133.125 84.1944C133.352 84.421 132.974 84.7985 132.672 84.572Z" fill="#AB9F6E"/>
<path d="M131.615 81.325C128.746 80.5699 125.801 80.1168 122.78 80.1168C122.403 80.1168 122.403 79.5128 122.78 79.5128C125.801 79.5128 128.821 79.9658 131.766 80.7209C132.144 80.8719 131.993 81.4005 131.615 81.325Z" fill="#AB9F6E"/>
<path d="M127.311 82.0801C125.65 81.5515 123.913 81.476 122.252 81.7781C121.874 81.8536 121.723 81.2495 122.101 81.174C123.913 80.7964 125.725 80.8719 127.538 81.476C127.84 81.627 127.689 82.1556 127.311 82.0801Z" fill="#AB9F6E"/>
<path d="M107.603 67.431C103.827 66.827 100.127 67.431 96.7292 69.1678C96.4271 69.3188 96.1251 68.8657 96.4271 68.6392C99.9761 66.827 103.827 66.2229 107.754 66.9025C108.131 66.9025 107.98 67.5066 107.603 67.431Z" fill="#AB9F6E"/>
<path d="M102.921 70.527C100.429 69.9984 97.9373 70.1494 95.4455 70.9045C95.0679 70.98 94.9169 70.4515 95.2945 70.3005C97.8618 69.5453 100.429 69.3943 103.072 69.9229C103.45 69.9984 103.299 70.6025 102.921 70.527Z" fill="#AB9F6E"/>
<path d="M105.035 70.4515C104.96 70.4515 104.96 70.527 104.884 70.527C104.507 70.678 104.205 70.1494 104.582 69.9984C104.658 69.9984 104.658 69.9229 104.733 69.9229C105.111 69.7719 105.413 70.3005 105.035 70.4515Z" fill="#AB9F6E"/>
<path d="M107.301 44.7023C103.223 44.3248 99.4475 45.1554 95.8229 47.0432C95.5209 47.1942 95.2189 46.7411 95.5209 46.5146C99.1454 44.5513 103.147 43.7207 107.301 44.0982C107.678 44.1738 107.678 44.7778 107.301 44.7023Z" fill="#AB9F6E"/>
<path d="M99.5985 47.2697C98.3903 47.4962 97.3331 48.1003 96.3515 48.8554C96.0495 49.0819 95.6719 48.7044 95.8984 48.4024C96.8801 47.4962 98.0882 46.8921 99.3719 46.6656C99.7495 46.5901 99.976 47.1942 99.5985 47.2697Z" fill="#AB9F6E"/>
<path d="M132.446 50.3656C130.633 49.384 128.746 48.8554 126.631 48.7044C126.254 48.7044 126.254 48.1003 126.631 48.1003C128.746 48.2513 130.784 48.8554 132.748 49.8371C133.125 50.0636 132.823 50.5167 132.446 50.3656Z" fill="#AB9F6E"/>
<path d="M125.272 48.7799C124.895 48.7799 124.895 48.1758 125.272 48.1758C125.65 48.2513 125.65 48.7799 125.272 48.7799Z" fill="#AB9F6E"/>
<path d="M149.436 64.0331C147.699 68.5637 147.17 73.2454 147.925 78.0781C148.001 78.4556 147.397 78.6066 147.321 78.2291C146.566 73.3209 147.019 68.4882 148.832 63.882C149.058 63.5045 149.587 63.6555 149.436 64.0331Z" fill="#AB9F6E"/>
<path d="M125.65 27.8634C124.215 31.79 123.611 35.8676 123.686 40.0207C123.686 40.3982 123.082 40.3982 123.082 40.0207C122.931 35.7921 123.611 31.7145 125.046 27.7124C125.197 27.3349 125.725 27.5614 125.65 27.8634Z" fill="#AB9F6E"/>
<path d="M92.5761 92.123C92.9536 98.8435 92.123 105.413 90.0842 111.831C89.9332 112.209 89.4046 112.058 89.4801 111.68C91.5189 105.337 92.3495 98.768 91.972 92.123C91.8965 91.7455 92.5006 91.7455 92.5761 92.123Z" fill="#AB9F6E"/>
<path d="M92.9535 101.788C92.9535 101.713 92.9535 101.637 92.9535 101.486C93.1801 101.486 93.3311 101.486 93.5576 101.486C93.4066 104.884 92.727 108.131 91.5943 111.303C91.4433 111.68 90.9147 111.529 90.9903 111.152C92.1229 108.056 92.727 104.809 92.9535 101.486C92.9535 101.109 93.4821 101.109 93.5576 101.486C93.5576 101.562 93.5576 101.637 93.5576 101.788C93.5576 102.166 92.9535 102.166 92.9535 101.788Z" fill="#AB9F6E"/>
<path d="M72.4148 25.0695C70.376 32.4696 69.3188 40.0207 69.2433 47.6472C69.2433 48.0248 68.6392 48.0248 68.6392 47.6472C68.6392 39.9452 69.7719 32.3186 71.8107 24.9185C71.9617 24.541 72.4903 24.692 72.4148 25.0695Z" fill="#AB9F6E"/>
<path d="M68.9412 49.233C68.5636 49.233 68.5636 48.6289 68.9412 48.6289C69.3188 48.6289 69.3188 49.233 68.9412 49.233Z" fill="#AB9F6E"/>
<path d="M63.0513 103.45C62.5983 106.848 61.6921 110.17 61.0881 113.493C60.4085 117.344 60.1064 121.27 60.0309 125.197C60.0309 125.574 59.4268 125.574 59.4268 125.197C59.5023 121.874 59.7289 118.552 60.1819 115.305C60.786 111.303 61.9187 107.452 62.4473 103.45C62.5228 103.072 63.1269 103.072 63.0513 103.45Z" fill="#AB9F6E"/>
<path d="M61.5412 121.95C61.9943 121.95 61.9943 122.554 61.6167 122.554H61.5412C61.1637 122.554 61.1637 121.95 61.5412 121.95Z" fill="#AB9F6E"/>
<path d="M64.1841 99.3721C64.1841 104.356 63.5045 109.188 62.2208 114.021C62.1453 114.399 61.5412 114.248 61.6167 113.87C62.9004 109.113 63.5045 104.28 63.58 99.3721C63.58 98.919 64.1841 98.919 64.1841 99.3721Z" fill="#AB9F6E"/>
<path d="M33.6021 128.142C31.0347 121.723 26.4286 116.513 20.3877 113.115C20.0857 112.964 20.3877 112.435 20.6898 112.586C26.8816 116.06 31.5633 121.346 34.2062 127.915C34.3572 128.293 33.7531 128.519 33.6021 128.142Z" fill="#AB9F6E"/>
<path d="M128.142 255.981C128.217 260.965 128.293 265.949 128.368 270.932C128.368 271.31 127.84 271.31 127.84 270.932C127.764 265.949 127.689 260.965 127.613 255.981C127.613 255.604 128.142 255.604 128.142 255.981Z" fill="#AB9F6E"/>
<path d="M128.293 272.518C116.135 277.2 102.997 278.634 90.0842 276.747C89.7067 276.671 89.8577 276.143 90.2352 276.218C102.997 278.03 116.06 276.596 128.142 271.99C128.444 271.914 128.595 272.443 128.293 272.518Z" fill="#AB9F6E"/>
<path d="M126.329 271.234C119.609 273.575 112.662 275.01 105.639 275.539C105.262 275.539 105.262 275.01 105.639 275.01C112.662 274.481 119.533 273.047 126.178 270.706C126.556 270.555 126.707 271.083 126.329 271.234Z" fill="#AB9F6E"/>
<path d="M104.356 275.614C103.978 275.992 103.45 275.463 103.752 275.161L103.827 275.085C104.205 274.783 104.733 275.236 104.356 275.614Z" fill="#AB9F6E"/>
<path d="M79.3616 274.179C75.6616 273.802 72.1881 272.896 68.7901 271.385C68.4881 271.234 68.7146 270.781 69.0922 270.932C72.4146 272.367 75.8126 273.273 79.3616 273.651C79.7392 273.726 79.7392 274.255 79.3616 274.179Z" fill="#AB9F6E"/>
<path d="M98.8435 192.175C96.8047 186.662 93.4822 181.981 89.0271 178.13C88.7251 177.903 89.1781 177.45 89.4802 177.677C94.0108 181.603 97.3333 186.436 99.4476 192.024C99.5231 192.401 98.919 192.552 98.8435 192.175Z" fill="#AB9F6E"/>
<path d="M93.9352 181.075C91.4434 178.356 88.6495 176.015 85.4025 174.128C85.1005 173.901 85.4025 173.448 85.7046 173.599C88.9515 175.487 91.8209 177.828 94.3128 180.622C94.6148 180.924 94.2373 181.377 93.9352 181.075Z" fill="#AB9F6E"/>
<path d="M106.621 181.075C104.356 184.85 102.543 188.852 101.26 193.005C101.184 193.383 100.58 193.232 100.656 192.854C101.939 188.626 103.752 184.548 106.092 180.773C106.319 180.395 106.772 180.697 106.621 181.075Z" fill="#AB9F6E"/>
<path d="M103.751 182.585C102.392 185.077 101.411 187.72 100.807 190.513C100.731 190.891 100.127 190.74 100.202 190.362C100.882 187.569 101.864 184.85 103.223 182.283C103.374 181.905 103.902 182.207 103.751 182.585Z" fill="#AB9F6E"/>
<path d="M99.1455 189.381C98.2394 187.191 97.0312 185.152 95.5965 183.34C95.37 183.038 95.7475 182.66 96.0496 182.887C97.6353 184.775 98.8435 186.889 99.7496 189.154C99.8251 189.532 99.221 189.683 99.1455 189.381Z" fill="#AB9F6E"/>
<path d="M117.041 168.313C106.394 174.883 93.18 174.807 82.684 168.087C82.382 167.86 82.684 167.407 82.9861 167.558C93.331 174.203 106.319 174.279 116.739 167.785C117.041 167.634 117.343 168.087 117.041 168.313Z" fill="#AB9F6E"/>
<path d="M116.513 168.917C110.095 173.75 102.166 175.713 94.1618 174.43C93.7842 174.354 93.9352 173.826 94.3128 173.826C102.09 175.034 109.868 173.07 116.135 168.389C116.513 168.162 116.815 168.691 116.513 168.917Z" fill="#AB9F6E"/>
<path d="M81.5516 167.407C81.174 167.407 81.174 166.803 81.5516 166.803C81.9291 166.879 81.9291 167.407 81.5516 167.407Z" fill="#AB9F6E"/>
<path d="M92.8025 174.128C92.425 174.128 92.425 173.524 92.8025 173.524C93.1801 173.524 93.1801 174.128 92.8025 174.128Z" fill="#AB9F6E"/>
<path d="M114.927 155.401C116.211 159.026 115.833 162.877 113.946 166.275C113.719 166.577 113.266 166.275 113.417 165.972C115.305 162.726 115.607 159.101 114.399 155.552C114.248 155.174 114.776 155.023 114.927 155.401Z" fill="#AB9F6E"/>
<path d="M116.739 159.705C116.815 160.611 116.739 161.517 116.437 162.423C116.286 162.801 115.758 162.65 115.833 162.272C116.135 161.442 116.211 160.611 116.135 159.781C116.06 159.328 116.664 159.328 116.739 159.705Z" fill="#AB9F6E"/>
<path d="M87.2149 153.664C86.0067 157.289 86.1577 160.989 87.5924 164.538C87.7434 164.915 87.1394 165.066 86.9883 164.689C85.4781 161.064 85.4026 157.213 86.6108 153.513C86.7618 153.136 87.3659 153.287 87.2149 153.664Z" fill="#AB9F6E"/>
<path d="M85.7801 154.344C85.4026 156.005 85.2515 157.666 85.2515 159.403C85.2515 159.781 84.6474 159.781 84.6474 159.403C84.6474 157.666 84.7985 155.93 85.176 154.193C85.2515 153.815 85.8556 153.966 85.7801 154.344Z" fill="#AB9F6E"/>
<path d="M84.7985 160.989C84.7985 160.913 84.7985 160.913 84.7985 160.989C84.7985 160.536 85.4026 160.536 85.4026 160.913C85.4026 160.913 85.4026 160.913 85.4026 160.989C85.4026 161.366 84.7985 161.366 84.7985 160.989Z" fill="#AB9F6E"/>
</g>
<defs>
<clipPath id="clip0_18_2579">
<rect width="194.44" height="290.943" fill="white" transform="matrix(-1 0 0 1 194.44 0)"/>
</clipPath>
</defs>
</svg>
