<svg width="180" height="323" viewBox="0 0 180 323" fill="none" xmlns="http://www.w3.org/2000/svg">
<g opacity="0.2">
<path d="M68.7537 322.45C52.1867 322.45 40.477 318.547 35.8799 316.725C34.4053 316.118 33.4512 314.643 33.5379 313.082C33.8849 306.75 34.5788 285.239 31.543 272.315C30.3286 267.284 28.2469 263.121 26.0784 258.784C21.6548 249.936 16.624 239.962 16.8842 218.797C17.2311 188.786 11.4196 160.769 6.47556 142.468C2.0519 126.074 -1.41763 110.895 0.577349 91.7256C1.27126 84.8732 1.09778 79.6689 0.924304 75.4187C0.664088 68.046 0.490612 63.6223 6.5623 61.6273C8.73076 60.9334 10.8125 61.4538 12.7207 63.1019C18.272 67.9592 20.9609 82.4445 18.6189 94.7614C18.5322 95.3686 18.5322 95.889 18.7924 96.4094C20.0935 99.6188 23.3895 108.293 25.0376 119.395C27.4663 135.442 30.0684 142.381 31.8899 145.417C32.2369 146.024 32.0634 146.804 31.4562 147.065C30.849 147.412 30.0684 147.238 29.8082 146.631C27.1193 141.947 24.6906 132.84 22.6956 119.742C21.0476 108.9 17.8383 100.399 16.624 97.2768C16.277 96.3227 16.1035 95.2818 16.3637 94.241C18.7924 81.6639 15.5831 68.6531 11.2462 64.8366C10.0318 63.7958 8.8175 63.4488 7.51642 63.8825C3.43972 65.1836 3.35298 67.5255 3.61319 75.1585C3.78667 79.4087 3.96015 84.7865 3.26624 91.8123C1.27126 110.635 4.74079 125.554 9.07771 141.687C14.0218 160.075 19.92 188.439 19.5731 218.711C19.3128 239.268 24.2569 248.982 28.5071 257.569C30.7623 262.08 32.844 266.243 34.1451 271.621C37.2677 284.892 36.487 306.75 36.2268 313.082C36.2268 313.602 36.487 314.123 37.0075 314.296C44.467 317.332 71.5294 326.006 108.133 312.648C108.653 312.475 109 311.954 108.914 311.434C108.567 306.056 107.873 286.974 113.944 265.202C114.118 264.509 114.812 264.162 115.506 264.335C116.2 264.509 116.547 265.202 116.373 265.896C110.475 287.234 111.082 306.056 111.429 311.26C111.516 312.909 110.562 314.47 109 314.99C93.5609 320.628 80.0297 322.45 68.7537 322.45Z" fill="#AB9F6E"/>
<path d="M108.306 269.626C107.699 269.626 107.179 269.192 107.092 268.585C107.005 267.891 107.439 267.284 108.133 267.197C108.393 267.197 130.685 263.554 144.997 218.017C150.635 200.235 153.671 188.092 156.099 178.377C160.002 162.938 162.084 154.437 170.324 142.121C178.131 130.411 177.003 126.681 176.136 125.554C174.575 123.645 169.804 124.079 163.385 126.681C151.068 131.625 144.91 143.682 139.445 160.162C134.415 175.515 124.093 182.02 123.659 182.281C123.052 182.627 122.271 182.454 121.924 181.847C121.577 181.24 121.751 180.546 122.358 180.112C122.445 180.025 132.333 173.78 137.104 159.295C141.961 144.463 148.466 129.89 162.431 124.252C167.896 122.084 175.008 120.176 178.044 123.906C180.733 127.202 178.825 133.794 172.406 143.422C164.339 155.392 162.431 163.285 158.528 178.898C156.099 188.699 153.063 200.843 147.339 218.711C132.42 265.896 109.347 269.453 108.393 269.539C108.393 269.626 108.393 269.626 108.306 269.626Z" fill="#AB9F6E"/>
<path d="M24.257 153.483C24.0835 153.483 23.8233 153.397 23.7366 153.31C23.3896 152.963 23.3896 152.442 23.6498 152.182C23.8233 152.009 28.1602 147.238 33.7982 144.029C36.2269 142.641 38.2219 141.86 39.9567 141.166C42.2119 140.299 44.1201 139.518 46.6355 137.61C46.9825 137.35 47.5029 137.437 47.7631 137.784C48.0233 138.131 47.9366 138.651 47.5896 138.911C44.9007 140.906 42.7323 141.774 40.4771 142.641C38.7423 143.335 36.9208 144.029 34.4921 145.417C29.1144 148.453 24.7774 153.223 24.7774 153.223C24.6907 153.397 24.4305 153.483 24.257 153.483Z" fill="#AB9F6E"/>
<path d="M125.394 180.632C125.047 180.632 124.787 180.546 124.526 180.285C122.358 178.204 117.674 167.275 117.848 148.366C117.934 138.304 116.286 129.197 114.638 119.655C113.164 111.328 111.602 102.741 111.256 93.2869C110.648 77.5872 108.48 66.3112 107.526 62.2345C107.266 61.0202 107.179 59.7191 107.179 58.418C107.612 36.9069 102.495 23.2022 97.4641 19.646C96.3365 18.8653 95.2956 18.6051 94.3415 18.9521C90.6118 20.3399 90.6118 24.1564 91.1322 36.2997C91.3057 40.2897 91.5659 45.2338 91.5659 51.0453C91.6526 58.9385 91.9128 65.5306 92.1731 71.8625C92.6068 83.3119 93.0404 93.2001 91.9996 105.257C90.4383 123.819 85.8412 132.059 85.6677 132.406C85.4075 132.84 84.887 133.1 84.4533 133.013C83.9329 132.926 83.586 132.579 83.4125 132.146C80.6369 121.997 79.6827 94.5879 79.1623 81.4037V80.4496C78.9888 76.2861 78.7286 72.036 78.3817 67.6123C77.6878 59.0252 76.9938 49.2238 76.9938 34.9119C76.9938 17.651 72.6569 6.46173 68.5802 3.42588C67.5394 2.64524 66.5852 2.47176 65.7179 2.73197C60.687 4.20653 59.2992 6.6352 59.3859 20.6868C59.4727 33.9578 58.8655 47.3155 57.5644 61.7141C56.2634 75.679 56.6103 87.2152 57.6512 103.609C58.7788 120.783 57.6512 132.84 57.6512 132.926C57.5644 133.62 57.044 134.141 56.3501 134.054C55.6562 134.054 55.1358 133.533 55.1358 132.84C54.6153 115.318 51.6662 103.002 48.9773 92.1593C48.7171 90.9449 48.3702 89.7306 48.11 88.5163C45.5945 78.1076 45.4211 64.8367 45.2476 54.1678C45.2476 52.4331 45.1608 50.8718 45.1608 49.3105C44.9874 39.9427 42.3852 25.5442 37.9616 22.8553C37.0942 22.3349 36.3135 22.3349 35.3594 22.7685C28.6806 25.8044 28.6806 33.1772 29.5479 43.9327L29.7214 45.6675C30.5021 55.0352 30.9358 61.1937 29.9816 76.0259C29.3745 85.2202 29.5479 91.7256 29.8082 99.1851C29.9816 104.389 30.1551 109.854 29.9816 116.706C29.7214 133.273 31.5429 145.07 31.5429 145.156C31.6297 145.85 31.196 146.457 30.5021 146.544C29.8082 146.631 29.201 146.197 29.1142 145.503C29.1142 145.417 27.2927 133.36 27.4662 116.619C27.553 109.767 27.3795 104.389 27.2927 99.1851C27.1193 91.8991 26.8591 85.0467 27.4662 75.7657C28.4203 61.1069 27.8999 55.0352 27.206 45.7542L27.0325 44.0195C26.2519 34.3915 25.4712 24.4166 34.2318 20.4266C35.9666 19.646 37.6146 19.7327 39.1759 20.6868C44.9874 24.3298 47.4161 40.203 47.5895 49.3105C47.5895 50.8718 47.6763 52.4331 47.6763 54.1678C47.8497 64.6632 48.0232 77.7607 50.4519 87.9091C50.7121 89.1234 51.0591 90.3378 51.3193 91.5521C52.7071 97.2768 54.2684 103.435 55.396 110.548C55.3092 108.379 55.2225 106.037 55.049 103.609C54.0082 87.4754 53.6612 75.332 54.9623 61.2804C56.2634 46.9686 56.8705 33.6976 56.7838 20.5133C56.7838 6.98216 57.8247 2.38502 64.9372 0.21656C66.5852 -0.30387 68.32 0.129822 69.968 1.34416C75.606 5.59434 79.4225 18.9521 79.3358 34.7384C79.3358 48.9635 80.0297 58.6782 80.7236 67.2653C81.0705 71.689 81.4175 75.9392 81.5042 80.1894V81.1435C81.9379 91.899 82.8053 115.665 84.887 127.635C86.3616 123.732 88.5301 116.273 89.4842 104.91C90.525 93.0266 90.0913 83.1385 89.6577 71.7757C89.3974 65.704 89.1372 58.765 89.0505 50.8718C88.9637 45.1471 88.7903 40.203 88.6168 36.213C88.0964 24.0696 87.8361 18.5184 93.4741 16.4366C94.6885 16.0029 96.5967 15.8295 98.8519 17.4775C104.577 21.5542 110.128 35.7793 109.607 58.3313C109.607 59.4589 109.694 60.5865 109.868 61.6273C110.735 65.7908 112.99 77.1535 113.597 93.1134C113.944 102.394 115.506 110.981 116.98 119.222C118.715 128.936 120.363 138.131 120.276 148.452C120.103 168.142 125.307 177.597 126.261 178.551C126.782 178.984 126.782 179.765 126.261 180.285C126.001 180.546 125.741 180.632 125.394 180.632Z" fill="#AB9F6E"/>
<path d="M53.1408 135.095C52.7939 135.095 52.5337 134.921 52.3602 134.574C52.1867 134.141 52.3602 133.707 52.7939 133.533C52.8806 133.533 55.3093 132.579 59.6462 132.493C60.0799 132.493 60.5136 132.84 60.5136 133.273C60.5136 133.707 60.1666 134.141 59.7329 134.141C55.6562 134.227 53.4878 135.095 53.401 135.095C53.401 135.095 53.2276 135.095 53.1408 135.095Z" fill="#AB9F6E"/>
<path d="M89.6577 134.054C89.571 134.054 89.571 134.054 89.4842 134.054C85.3208 133.187 81.591 133.273 80.2032 133.36C80.1165 133.36 80.0297 133.36 80.0297 133.36C79.596 133.36 79.1624 133.013 79.1624 132.493C79.1624 132.059 79.5093 131.712 79.943 131.625C81.8513 131.539 85.581 131.452 89.7444 132.319C90.1781 132.406 90.4384 132.84 90.3516 133.273C90.4384 133.794 90.0914 134.054 89.6577 134.054Z" fill="#AB9F6E"/>
<path d="M38.3086 269.106C38.1352 269.106 38.0484 269.106 37.9617 269.019C37.7015 268.845 31.3696 265.463 27.5531 260.692C27.2929 260.345 27.2929 259.825 27.7265 259.564C28.0735 259.304 28.5939 259.304 28.8542 259.738C32.4972 264.248 38.6556 267.631 38.7423 267.631C39.176 267.805 39.2628 268.325 39.0893 268.759C38.9158 268.932 38.5689 269.106 38.3086 269.106Z" fill="#AB9F6E"/>
<path d="M35.3593 182.541C38.1349 180.719 40.4768 178.464 42.3851 175.688C42.9055 174.994 41.6912 174.301 41.1707 174.994C39.436 177.597 37.2675 179.678 34.6654 181.326C33.9714 181.76 34.6654 182.974 35.3593 182.541Z" fill="#AB9F6E"/>
<path d="M34.1452 187.311C40.1301 186.964 44.6405 183.668 48.9774 179.939C54.3552 175.341 59.733 171.525 66.8455 170.397C73.8714 169.27 81.1574 170.744 87.2291 174.474C92.5201 177.77 96.9438 182.194 103.015 184.189C103.883 184.449 104.23 183.148 103.362 182.888C96.5968 180.719 91.9129 175.255 85.6678 172.045C80.6369 169.443 74.9122 168.316 69.2742 168.749C63.5495 169.183 58.085 171.091 53.4878 174.474C47.3294 178.984 42.2986 185.403 34.1452 185.923C33.2778 186.01 33.2778 187.398 34.1452 187.311Z" fill="#AB9F6E"/>
<path d="M39.436 185.837C48.6303 193.296 60.34 198.587 72.3966 197.199C82.8052 195.985 92.3464 190.174 98.0712 181.326C98.5916 180.632 97.3773 179.938 96.8568 180.632C91.1321 189.393 81.5041 195.031 71.1823 195.898C59.9063 196.852 48.9772 191.822 40.3901 184.796C39.7829 184.275 38.7421 185.23 39.436 185.837Z" fill="#AB9F6E"/>
<path d="M44.4669 185.316C51.059 179.158 57.9114 173.086 67.0189 171.438C76.8203 169.703 86.535 173.26 93.3874 180.286C93.9946 180.893 94.9487 179.939 94.3415 179.331C87.4892 172.306 78.0347 168.663 68.2332 169.877C58.1716 171.091 50.6253 177.597 43.5128 184.275C42.8189 184.883 43.773 185.837 44.4669 185.316Z" fill="#AB9F6E"/>
<path d="M41.5178 186.01C43.1659 185.403 44.5537 184.536 45.8548 183.321C46.4619 182.714 45.5078 181.76 44.9006 182.367C43.8598 183.408 42.5587 184.189 41.1709 184.709C40.3035 184.969 40.6505 186.357 41.5178 186.01Z" fill="#AB9F6E"/>
<path d="M93.7342 179.765C94.6883 180.459 95.6424 181.153 96.5966 181.847C97.2905 182.367 97.9844 181.153 97.2905 180.632C96.3364 179.939 95.3822 179.245 94.4281 178.551C93.7342 178.117 93.0403 179.331 93.7342 179.765Z" fill="#AB9F6E"/>
<path d="M59.2126 172.479C54.5287 175.688 52.9674 181.587 54.3553 187.051C55.8298 192.863 60.8606 196.506 66.5854 197.373C67.4528 197.546 67.7997 196.159 66.9323 196.072C62.2484 195.291 57.7381 192.689 56.09 188.005C54.2685 182.974 55.3094 176.816 59.9065 173.693C60.6004 173.173 59.9065 171.959 59.2126 172.479Z" fill="#AB9F6E"/>
<path d="M75.7795 196.592C86.1014 191.735 89.224 175.949 77.948 170.05C77.1674 169.617 76.4735 170.831 77.2541 171.265C87.7494 176.816 84.4534 191.041 75.0856 195.465C74.305 195.812 74.9989 197.026 75.7795 196.592Z" fill="#AB9F6E"/>
<path d="M69.9682 178.464C67.7997 178.29 65.718 179.852 65.5445 182.107C65.371 184.362 67.0191 186.357 69.361 186.444C71.6162 186.531 73.5244 184.622 73.5244 182.367C73.5244 180.112 71.4427 178.464 69.2743 178.551C68.4069 178.551 68.4069 179.938 69.2743 179.938C72.9173 179.852 73.004 185.23 69.361 185.056C67.8864 184.969 66.7588 183.582 66.9323 182.107C67.1058 180.546 68.4936 179.678 69.9682 179.765C70.8355 179.852 70.8355 178.551 69.9682 178.464Z" fill="#AB9F6E"/>
<path d="M69.4477 179.245C67.3659 178.984 65.9781 181.673 67.6262 183.148C69.1007 184.362 71.4426 183.061 71.009 181.153C70.4885 179.071 67.4527 179.158 67.019 181.24C66.5853 183.148 68.8405 184.622 70.4885 183.582C72.1366 182.454 71.6161 179.678 69.5344 179.678C67.6262 179.678 66.2383 182.541 67.4527 183.929C68.7538 185.577 71.6161 184.449 71.7029 182.454C71.7896 180.459 69.3609 179.418 68.0598 180.979C66.7588 182.627 67.1925 185.577 69.7079 185.403C71.5294 185.23 72.7437 182.714 71.6161 181.24C70.0548 179.331 67.7129 182.194 67.6262 183.755C67.5394 186.097 70.315 186.27 71.5294 184.709C72.1366 183.929 72.4835 182.801 72.1366 181.847C71.8763 180.979 71.009 180.459 70.1416 180.806C68.5803 181.413 67.4527 184.189 69.1874 185.23C71.0957 186.444 73.1774 183.929 72.4835 182.107C72.2233 181.326 71.4426 180.806 70.662 180.979C69.7079 181.153 68.9272 182.28 68.7538 183.148C68.5803 184.102 69.2742 184.969 70.315 184.709C71.5294 184.449 71.8763 182.801 71.8763 181.76C71.8763 180.893 71.4426 179.852 70.4018 180.025C69.3609 180.199 69.014 181.673 69.014 182.541C69.014 183.495 69.7079 184.536 70.7487 184.362C71.9631 184.189 72.2233 182.888 72.1366 181.847C72.0498 180.893 71.6161 179.765 70.4885 179.852C69.1874 179.939 68.8405 181.587 68.8405 182.627C68.8405 183.495 70.2283 183.495 70.2283 182.627C70.2283 182.367 70.2283 181.673 70.4885 181.413C70.9222 181.066 70.9222 181.847 70.8355 182.02C70.9222 182.367 70.7487 182.454 70.4018 182.367C70.4018 182.194 70.4885 182.02 70.4885 181.934C70.5753 181.673 70.662 181.5 70.5753 181.24C70.7487 181.5 70.5753 182.107 70.4885 182.28C70.4018 182.454 69.9681 183.061 70.315 182.801C70.4018 182.627 70.5753 182.454 70.662 182.194C70.8355 182.367 71.0957 182.454 71.2692 182.627C71.3559 182.974 70.9222 183.668 70.662 183.842C69.4477 184.536 69.7946 182.801 70.2283 182.28C71.0957 181.326 70.9222 182.801 70.5753 183.321C70.4018 183.582 69.9681 184.015 69.6211 184.102C68.7538 184.189 68.8405 183.408 69.1007 182.974C69.2742 182.541 70.4885 180.979 70.662 182.28C70.7487 183.061 70.0548 184.015 69.2742 183.755C68.3201 183.495 68.667 181.934 69.3609 181.5C70.4018 180.893 70.662 182.541 69.6211 182.974C68.4068 183.495 68.1466 182.28 68.667 181.413C68.9272 180.979 69.2742 180.632 69.7946 180.893C70.2283 181.153 70.2283 181.587 70.0548 181.934C69.5344 182.801 68.0598 182.194 68.5803 181.24C69.2742 179.765 70.662 182.107 69.1007 182.02C68.4935 182.02 68.2333 181.413 68.4935 180.893C68.667 180.372 69.1007 180.285 69.5344 180.372C70.315 180.719 70.2283 179.331 69.4477 179.245Z" fill="#AB9F6E"/>
<path d="M71.0088 179.245C70.4016 177.597 70.0547 174.734 72.3966 174.301C74.912 173.78 74.912 177.163 74.4783 178.724C74.2181 179.592 75.5192 179.939 75.7794 179.071C76.2131 177.597 76.2998 175.949 75.5192 174.561C74.912 173.52 73.7844 172.826 72.5701 172.913C69.1873 173.086 68.7536 177.163 69.7945 179.592C69.9679 180.372 71.269 180.025 71.0088 179.245Z" fill="#AB9F6E"/>
<path d="M74.7387 179.505C78.9889 181.413 81.4176 185.316 81.2441 190C81.2441 190.868 82.5452 190.868 82.6319 190C82.8054 184.883 80.1165 180.459 75.4326 178.291C74.652 177.944 73.9581 179.158 74.7387 179.505Z" fill="#AB9F6E"/>
<path d="M66.5853 180.632C60.08 179.418 54.7889 185.23 56.6104 191.648C56.8706 192.516 58.1717 192.169 57.9115 191.301C56.3502 186.01 60.6871 180.979 66.1516 182.02C67.1058 182.107 67.4527 180.806 66.5853 180.632Z" fill="#AB9F6E"/>
<path d="M56.7838 188.612C57.4777 183.495 62.0749 180.199 67.1924 181.5C68.0598 181.673 68.4068 180.372 67.5394 180.199C61.8147 178.811 56.2634 182.367 55.4828 188.265C55.3093 189.133 56.6971 189.48 56.7838 188.612Z" fill="#AB9F6E"/>
<path d="M56.4369 186.964C56.6971 184.883 59.1258 182.627 60.8605 181.587C63.029 180.285 65.4577 180.025 67.7996 180.979C68.5803 181.326 69.0139 179.939 68.1466 179.678C63.2025 177.857 55.6562 181.326 55.0491 186.964C54.9623 187.832 56.3501 187.832 56.4369 186.964Z" fill="#AB9F6E"/>
<path d="M56.0032 185.49C58.2584 181.76 63.8097 177.77 68.1466 180.372C68.9273 180.806 69.6212 179.678 68.8405 179.158C63.8097 176.209 57.3911 180.372 54.7889 184.796C54.3552 185.577 55.5696 186.27 56.0032 185.49Z" fill="#AB9F6E"/>
<path d="M55.5696 184.449C58.6922 180.112 63.8965 177.51 69.0141 180.199C69.7947 180.632 70.4886 179.418 69.708 178.984C63.8965 175.862 57.9983 178.724 54.3553 183.668C53.9216 184.449 55.0492 185.143 55.5696 184.449Z" fill="#AB9F6E"/>
<path d="M70.0549 178.724C65.4578 174.734 57.738 178.811 54.6155 182.801C54.095 183.495 55.0491 184.449 55.5696 183.755C58.1717 180.459 65.0241 176.209 69.1008 179.678C69.7947 180.199 70.7488 179.245 70.0549 178.724Z" fill="#AB9F6E"/>
<path d="M55.2227 183.235C58.5187 179.071 64.07 176.209 69.1875 178.898C69.9682 179.331 70.6621 178.117 69.8814 177.683C64.2434 174.647 57.9983 177.423 54.2685 182.194C53.7481 182.888 54.7022 183.929 55.2227 183.235Z" fill="#AB9F6E"/>
<path d="M55.6562 181.24C59.1257 177.597 63.8963 176.382 68.7536 177.857C69.621 178.117 69.968 176.816 69.1006 176.556C63.8096 174.908 58.5185 176.295 54.702 180.285C54.0949 180.893 55.049 181.933 55.6562 181.24Z" fill="#AB9F6E"/>
<path d="M56.3502 179.939C59.2125 176.209 65.5445 176.296 69.6212 177.597C70.4885 177.857 70.8355 176.556 69.9681 176.296C65.4577 174.821 58.6054 174.908 55.3961 178.984C54.7889 179.678 55.8298 180.632 56.3502 179.939Z" fill="#AB9F6E"/>
<path d="M56.7838 178.811C60.1666 175.775 64.5903 174.994 68.9272 176.556C69.7946 176.816 70.1415 175.515 69.2741 175.255C64.5035 173.607 59.6462 174.561 55.8297 177.857C55.1358 178.464 56.0899 179.418 56.7838 178.811Z" fill="#AB9F6E"/>
<path d="M57.2175 177.336C61.1208 175.081 65.5444 174.821 69.7079 176.382C70.4885 176.729 70.8355 175.341 70.0548 175.081C65.5444 173.346 60.6871 173.693 56.5236 176.122C55.743 176.642 56.4369 177.77 57.2175 177.336Z" fill="#AB9F6E"/>
<path d="M57.8246 176.122C60.0798 174.734 62.5085 173.693 65.1106 173.086C65.978 172.913 65.6311 171.612 64.7637 171.785C62.0748 172.392 59.4726 173.52 57.1307 174.994C56.4368 175.341 57.1307 176.556 57.8246 176.122Z" fill="#AB9F6E"/>
<path d="M58.4318 174.474C58.3451 174.561 58.2583 174.648 58.1716 174.648C57.5644 175.168 58.3451 176.035 59.039 175.688C63.8096 173.26 68.8404 172.045 74.1315 171.959C74.9988 171.959 74.9988 170.571 74.1315 170.571C68.5802 170.658 63.2892 171.959 58.3451 174.474C58.6053 174.821 58.8655 175.168 59.2125 175.515C59.2992 175.428 59.3859 175.341 59.4727 175.341C59.9931 174.821 59.039 173.867 58.4318 174.474Z" fill="#AB9F6E"/>
<path d="M60.1666 175.515C63.9831 174.127 67.7996 173.433 71.8763 173.346C72.7437 173.346 72.7437 171.959 71.8763 171.959C67.7129 171.959 63.7229 172.653 59.8197 174.127C59.039 174.561 59.386 175.862 60.1666 175.515Z" fill="#AB9F6E"/>
<path d="M63.8963 175.341C66.6719 174.387 69.4475 173.52 72.1364 172.566C73.0038 172.306 72.5701 171.004 71.7895 171.265C69.0138 172.219 66.2382 173.086 63.5493 174.04C62.6819 174.301 63.0289 175.688 63.8963 175.341Z" fill="#AB9F6E"/>
<path d="M67.4527 174.127C67.366 174.127 67.366 174.127 67.2792 174.127C67.366 174.561 67.366 174.994 67.4527 175.428C69.1008 174.821 70.662 174.214 72.3101 173.607C73.0907 173.26 72.7438 171.959 71.9631 172.306C70.3151 172.913 68.7538 173.52 67.1058 174.127C66.4119 174.387 66.4986 175.428 67.2792 175.428C67.366 175.428 67.366 175.428 67.4527 175.428C68.3201 175.515 68.3201 174.127 67.4527 174.127Z" fill="#AB9F6E"/>
<path d="M68.4068 175.949C69.2742 175.515 70.1415 175.168 70.9222 174.734C71.7028 174.387 71.0089 173.173 70.2283 173.52C69.3609 173.954 68.4935 174.301 67.7129 174.734C66.9322 175.081 67.5394 176.296 68.4068 175.949Z" fill="#AB9F6E"/>
<path d="M64.7639 173.433C66.2385 172.999 67.713 172.739 69.2743 172.652C70.1417 172.566 70.1417 171.178 69.2743 171.265C67.6263 171.438 65.9783 171.698 64.417 172.132C63.5496 172.392 63.8965 173.693 64.7639 173.433Z" fill="#AB9F6E"/>
<path d="M64.6771 173.086C66.2384 172.479 67.8864 172.132 69.5345 171.959C70.4019 171.872 70.4019 170.484 69.5345 170.571C67.713 170.744 65.9782 171.091 64.3302 171.698C63.5495 172.132 63.8965 173.433 64.6771 173.086Z" fill="#AB9F6E"/>
<path d="M73.1775 172.566C75.0857 172.219 76.9073 172.306 78.8155 172.913C79.6829 173.173 80.0298 171.872 79.1624 171.612C77.0807 171.004 74.999 170.918 72.8306 171.265C71.9632 171.438 72.3101 172.739 73.1775 172.566Z" fill="#AB9F6E"/>
<path d="M71.7029 173.52C74.3918 172.999 77.0807 173.173 79.6828 173.954C80.5502 174.214 80.8972 172.913 80.0298 172.652C77.1674 171.785 74.305 171.612 71.3559 172.219C70.4886 172.392 70.8355 173.693 71.7029 173.52Z" fill="#AB9F6E"/>
<path d="M74.305 174.214C76.1265 173.954 78.0347 173.867 79.8562 174.127C80.7236 174.214 81.0706 172.913 80.2032 172.826C78.1214 172.566 76.0397 172.566 73.958 172.913C73.0906 173.086 73.4376 174.387 74.305 174.214Z" fill="#AB9F6E"/>
<path d="M75.1725 174.821C76.9073 174.734 78.5553 174.734 80.2033 175.081C81.0707 175.255 81.4177 173.954 80.5503 173.78C78.7288 173.433 76.994 173.346 75.1725 173.52C74.3051 173.52 74.3051 174.908 75.1725 174.821Z" fill="#AB9F6E"/>
<path d="M75.7797 175.602C77.5145 175.515 79.1625 175.775 80.8972 176.295C81.7646 176.556 82.1116 175.255 81.2442 174.994C79.5094 174.387 77.6879 174.127 75.7797 174.214C74.9123 174.301 74.9123 175.602 75.7797 175.602Z" fill="#AB9F6E"/>
<path d="M76.1264 176.816C77.8611 176.642 79.5092 176.903 81.1572 177.336C82.0246 177.597 82.3715 176.296 81.5042 176.035C79.7694 175.515 77.9479 175.255 76.1264 175.428C75.259 175.515 75.259 176.903 76.1264 176.816Z" fill="#AB9F6E"/>
<path d="M75.9531 177.857C77.5144 178.03 79.1624 178.204 80.7237 178.377C80.5502 178.03 80.3767 177.597 80.2033 177.25L80.1165 177.336C79.5093 178.03 80.4635 178.984 81.0706 178.29L81.1574 178.204C81.5911 177.77 81.2441 177.076 80.6369 177.076C79.0757 176.903 77.4276 176.729 75.8663 176.556C75.0857 176.382 75.0857 177.77 75.9531 177.857Z" fill="#AB9F6E"/>
<path d="M75.953 178.984C77.3408 178.984 78.6419 179.158 79.943 179.505C80.8104 179.765 81.1573 178.377 80.2899 178.204C78.9021 177.857 77.4276 177.683 75.953 177.683C75.0856 177.597 75.0856 178.984 75.953 178.984Z" fill="#AB9F6E"/>
<path d="M75.7796 179.505C77.9481 180.285 79.6828 181.933 80.5502 184.015C80.8972 184.796 82.0248 184.102 81.7646 183.321C80.7237 180.893 78.642 179.071 76.2133 178.204C75.3459 177.857 74.999 179.158 75.7796 179.505Z" fill="#AB9F6E"/>
<path d="M77.0807 179.245C78.642 180.459 80.1165 181.933 81.3309 183.495C81.8513 184.189 83.0656 183.495 82.5452 182.801C81.2441 181.066 79.7696 179.592 78.0348 178.204C77.4276 177.683 76.4735 178.637 77.0807 179.245Z" fill="#AB9F6E"/>
<path d="M78.4683 179.071C79.8561 180.199 80.9837 181.5 81.9379 183.061C82.3716 183.842 83.5859 183.148 83.1522 182.367C82.1981 180.719 80.9837 179.331 79.5092 178.117C78.7285 177.51 77.7744 178.464 78.4683 179.071Z" fill="#AB9F6E"/>
<path d="M80.2032 178.464C80.7237 179.939 81.3308 181.413 82.1115 182.714C82.3717 183.235 83.2391 183.148 83.3258 182.541C83.3258 182.454 83.3258 182.454 83.3258 182.367C83.586 181.5 82.1982 181.153 82.0247 182.02C82.0247 182.107 82.0247 182.107 82.0247 182.194C82.4584 182.107 82.8921 182.107 83.2391 182.02C82.5452 180.806 81.938 179.418 81.4176 178.03C81.2441 177.25 79.943 177.597 80.2032 178.464Z" fill="#AB9F6E"/>
<path d="M80.203 177.163C80.6367 178.811 81.2439 180.459 82.1113 181.934C82.545 182.714 83.6726 182.02 83.3256 181.24C82.545 179.852 81.9378 178.377 81.5041 176.816C81.3306 176.035 79.9428 176.382 80.203 177.163Z" fill="#AB9F6E"/>
<path d="M80.6371 174.474C80.8973 176.642 81.5044 178.724 82.4586 180.719C82.8055 181.413 83.8464 180.893 83.6729 180.199C83.5862 180.025 83.5862 179.852 83.4994 179.592C83.3259 178.724 81.9381 179.071 82.1983 179.939C82.2851 180.112 82.2851 180.286 82.3718 180.546C82.8055 180.372 83.2392 180.199 83.5862 180.025C82.7188 178.291 82.1984 176.382 81.9381 174.474C81.8514 173.693 80.4636 173.607 80.6371 174.474Z" fill="#AB9F6E"/>
<path d="M81.0706 175.081C81.7645 177.25 82.2849 179.418 82.6319 181.673C83.0656 181.587 83.4993 181.413 83.9329 181.326C83.9329 181.153 83.8462 181.066 83.8462 180.893C83.6727 180.025 82.2849 180.372 82.5451 181.24C82.5451 181.413 82.6319 181.5 82.6319 181.673C82.8053 182.541 84.1064 182.194 83.9329 181.326C83.586 179.071 83.0656 176.903 82.3717 174.734C82.1115 173.954 80.8104 174.301 81.0706 175.081Z" fill="#AB9F6E"/>
<path d="M82.1982 178.898C82.2849 180.979 82.0247 183.061 81.4175 185.056C81.1573 185.923 82.4584 186.27 82.7186 185.403C83.3258 183.235 83.586 181.066 83.4992 178.898C83.586 178.03 82.1982 178.03 82.1982 178.898Z" fill="#AB9F6E"/>
<path d="M81.4176 181.933C81.1574 182.888 81.2441 183.928 81.2441 184.883C81.2441 185.75 82.5452 185.75 82.6319 184.883C82.6319 184.102 82.5452 183.148 82.8054 182.28C82.9789 181.413 81.6778 181.066 81.4176 181.933Z" fill="#AB9F6E"/>
<path d="M83.0656 181.326C82.8054 183.235 82.2849 185.143 81.6778 186.964C81.4176 187.832 82.7186 188.179 82.9788 187.311C83.586 185.49 84.1064 183.581 84.3667 181.673C84.4534 180.806 83.1523 180.459 83.0656 181.326Z" fill="#AB9F6E"/>
<path d="M62.9423 180.372C61.4678 184.015 63.8965 188.005 67.4527 189.306C71.2692 190.694 74.652 188.005 76.2133 184.622C76.5603 183.842 75.4327 183.148 74.999 183.928C73.6979 186.878 70.8355 189.306 67.4527 187.832C64.7639 186.617 63.0291 183.581 64.2434 180.719C64.5036 179.938 63.2026 179.592 62.9423 180.372Z" fill="#AB9F6E"/>
<path d="M60.0799 181.76C59.4727 186.357 62.682 190.694 67.1924 191.908C71.963 193.21 76.5602 190.781 78.8154 186.617C79.2491 185.837 78.0347 185.143 77.601 185.923C75.606 189.566 71.7028 191.735 67.4526 190.607C63.5494 189.566 60.8605 185.837 61.3809 181.76C61.4677 180.893 60.1666 180.893 60.0799 181.76Z" fill="#AB9F6E"/>
<path d="M57.1307 184.362C57.9981 189.046 61.1207 192.689 65.6311 194.25C70.8354 196.072 75.5192 194.077 79.4225 190.521C80.0296 189.913 79.0755 188.959 78.4684 189.566C74.9988 192.863 70.7486 194.684 65.978 192.949C61.9013 191.475 59.2124 188.179 58.4318 184.015C58.345 183.148 56.9572 183.495 57.1307 184.362Z" fill="#AB9F6E"/>
<path d="M63.2892 183.061C63.3759 182.454 62.9422 181.76 62.3351 181.587C61.7279 181.413 61.034 181.673 60.687 182.194C60.4268 182.627 61.1207 183.061 61.381 182.627C61.8146 182.02 62.5085 182.454 62.4218 183.061C62.4218 183.582 63.2025 183.582 63.2892 183.061Z" fill="#AB9F6E"/>
<path d="M63.2892 183.148C63.1157 182.367 62.5085 181.76 61.6412 181.847C60.8605 181.934 60.3401 182.627 60.3401 183.321C60.3401 183.842 61.2075 183.842 61.2075 183.321C61.2075 182.974 61.381 182.627 61.7279 182.627C62.1616 182.627 62.3351 182.974 62.4218 183.321C62.5953 183.928 63.4627 183.668 63.2892 183.148Z" fill="#AB9F6E"/>
<path d="M61.034 184.536C60.7738 183.581 59.6462 183.321 58.8656 183.928C57.8247 184.709 58.0849 186.097 58.5186 187.138C58.6921 187.658 59.4728 187.398 59.2993 186.878C59.1258 186.357 58.8656 185.837 58.9523 185.23C59.0391 184.883 59.1258 184.622 59.4728 184.449C59.8197 184.275 60.1667 184.362 60.2534 184.709C60.3401 185.23 61.1208 185.056 61.034 184.536Z" fill="#AB9F6E"/>
<path d="M59.2992 188.005C58.8655 187.485 58.1716 187.051 57.4777 187.398C56.7838 187.745 56.6104 188.439 56.6104 189.133C56.6104 189.653 57.391 189.653 57.4777 189.133C57.4777 188.786 57.4777 188.265 57.9114 188.179C58.2584 188.005 58.6053 188.352 58.7788 188.612C59.039 188.959 59.6462 188.352 59.2992 188.005Z" fill="#AB9F6E"/>
<path d="M58.432 186.617C57.738 186.617 57.2176 186.878 56.7839 187.398C56.437 187.832 57.2176 188.265 57.4778 187.832C57.738 187.571 57.9983 187.398 58.3452 187.398C58.9524 187.485 58.9524 186.617 58.432 186.617Z" fill="#AB9F6E"/>
<path d="M56.9572 190.954C57.3909 191.735 57.8246 192.516 58.6053 193.036C59.039 193.383 59.4727 192.602 59.039 192.342C58.4318 191.908 58.0848 191.214 57.7379 190.521C57.3909 190.087 56.697 190.521 56.9572 190.954Z" fill="#AB9F6E"/>
<path d="M58.4318 187.225C57.5644 187.311 56.8705 187.832 56.7838 188.699C56.6971 189.133 57.3042 189.48 57.5644 189.046V188.959C57.8247 188.526 57.1307 188.092 56.8705 188.526V188.612C57.1307 188.699 57.391 188.786 57.6512 188.959C57.7379 188.526 57.9981 188.092 58.5186 188.092C58.9523 188.005 58.9523 187.225 58.4318 187.225Z" fill="#AB9F6E"/>
<path d="M57.9982 188.005C58.5187 188.005 58.5187 187.138 57.9982 187.138C57.4778 187.138 57.4778 188.005 57.9982 188.005Z" fill="#AB9F6E"/>
<path d="M57.7381 187.225L57.6513 187.311C57.3911 187.571 57.5646 188.005 57.9115 188.005C57.9983 188.005 58.1718 188.005 58.2585 188.005C58.2585 187.745 58.1717 187.485 58.1717 187.225C57.9983 187.225 57.9115 187.311 57.7381 187.311C57.3044 187.398 57.3911 188.092 57.8248 188.092C57.9983 188.092 58.1718 188.092 58.3452 188.092C58.8657 188.092 58.8657 187.311 58.3452 187.225C57.4778 187.138 56.7839 187.832 56.7839 188.699C56.7839 189.22 57.5646 189.22 57.6513 188.699C57.6513 188.265 57.9983 188.005 58.432 188.092C58.432 187.832 58.432 187.571 58.432 187.225C58.2585 187.225 58.085 187.225 57.9115 187.225C57.9115 187.485 57.9983 187.745 57.9983 188.005C58.1718 188.005 58.2585 187.918 58.432 187.918C58.8657 187.832 58.7789 187.138 58.3452 187.138C58.2585 187.138 58.085 187.138 57.9983 187.138C58.085 187.398 58.1718 187.571 58.2585 187.832L58.3452 187.745C58.6922 187.485 58.085 186.878 57.7381 187.225Z" fill="#AB9F6E"/>
<path d="M66.4118 182.541C66.1516 181.587 65.2842 180.806 64.2433 181.066C63.1157 181.326 62.9423 182.627 63.029 183.582C63.1157 184.102 63.8964 184.102 63.8964 183.582C63.8096 183.061 63.7229 182.194 64.3301 181.847C64.9372 181.5 65.4577 182.107 65.6311 182.714C65.7179 183.321 66.4985 183.061 66.4118 182.541Z" fill="#AB9F6E"/>
<path d="M69.708 177.683C69.708 178.898 70.9223 179.592 71.703 180.285C72.1367 180.632 72.6571 180.025 72.3102 179.678C71.9632 179.331 71.6163 179.071 71.2693 178.724C70.9223 178.377 70.5754 178.117 70.5754 177.597C70.5754 177.076 69.708 177.076 69.708 177.683Z" fill="#AB9F6E"/>
<path d="M81.591 191.128C82.0247 190.26 82.1982 189.306 82.1982 188.352C82.1982 187.832 81.3308 187.832 81.3308 188.352C81.3308 189.22 81.244 190 80.8971 190.781C80.6369 191.215 81.4175 191.648 81.591 191.128Z" fill="#AB9F6E"/>
<path d="M41.8647 180.285C46.2884 176.035 51.2325 172.479 56.6102 169.53C57.3909 169.096 56.697 167.969 55.9163 168.316C50.4518 171.351 45.421 174.994 40.8238 179.331C40.2167 179.939 41.1708 180.893 41.8647 180.285Z" fill="#AB9F6E"/>
<path d="M34.1452 154.437C50.3653 157.387 71.5294 155.218 83.7595 142.988C84.3667 142.381 83.4993 141.34 82.8921 141.947C70.8355 153.83 50.105 155.912 34.2319 153.05C33.3645 152.876 33.2778 154.264 34.1452 154.437Z" fill="#AB9F6E"/>
<path d="M84.9738 266.59C77.0807 264.422 73.4376 255.921 71.5294 248.635C69.5344 241.089 69.7079 233.283 71.5294 225.736C71.7029 224.869 70.4018 224.522 70.2283 225.389C68.0599 234.063 68.2333 243.171 71.009 251.671C73.2642 258.61 77.0806 265.81 84.6269 267.891C85.4075 268.151 85.8412 266.85 84.9738 266.59Z" fill="#AB9F6E"/>
<path d="M37.4413 182.107C32.237 180.632 27.7266 178.03 23.8234 174.214C23.2162 173.607 22.2621 174.561 22.8693 175.168C26.8592 179.071 31.7166 181.847 37.0944 183.408C37.9617 183.581 38.3087 182.28 37.4413 182.107Z" fill="#AB9F6E"/>
<path d="M94.6017 175.515C97.7243 178.204 101.367 180.112 105.444 181.066C105.878 181.153 106.051 180.546 105.617 180.372C101.714 179.418 98.158 177.597 95.1222 174.994C94.7752 174.734 94.2548 175.255 94.6017 175.515Z" fill="#AB9F6E"/>
<path d="M93.4742 174.387C93.4742 174.387 93.5609 174.387 93.4742 174.387C93.9946 174.387 93.9946 173.693 93.4742 173.693C93.0405 173.693 93.0405 174.387 93.4742 174.387Z" fill="#AB9F6E"/>
<path d="M24.8641 187.051C27.8133 186.531 30.5889 185.75 33.3645 184.709C33.7982 184.536 33.6247 183.928 33.191 184.015C30.4154 185.143 27.6398 185.923 24.6907 186.357C24.257 186.444 24.4305 187.051 24.8641 187.051Z" fill="#AB9F6E"/>
<path d="M31.4562 186.964C31.9767 186.964 31.9767 186.27 31.4562 186.27C30.9358 186.27 30.9358 186.964 31.4562 186.964Z" fill="#AB9F6E"/>
<path d="M44.9005 172.132C48.2833 168.489 52.36 165.974 57.1307 164.499C57.5644 164.412 57.3909 163.718 56.9572 163.805C52.0998 165.28 47.8497 167.969 44.4669 171.612C44.1199 171.959 44.6403 172.479 44.9005 172.132Z" fill="#AB9F6E"/>
<path d="M58.4317 168.055C58.8654 168.055 58.8654 167.361 58.4317 167.361C57.998 167.361 57.998 168.055 58.4317 168.055Z" fill="#AB9F6E"/>
<path d="M89.8311 168.576C91.5658 170.831 93.5608 172.653 95.9895 174.127C96.3364 174.387 96.6834 173.78 96.3364 173.52C94.0812 172.132 92.0862 170.311 90.4382 168.229C90.178 167.882 89.5708 168.229 89.8311 168.576Z" fill="#AB9F6E"/>
<path d="M99.8061 132.666C104.75 133.62 109.087 136.049 112.47 139.865C112.73 140.212 113.251 139.692 112.99 139.345C109.608 135.442 105.097 132.926 100.066 131.972C99.5459 131.972 99.3724 132.579 99.8061 132.666Z" fill="#AB9F6E"/>
<path d="M107.179 137.176C109.087 139.692 111.516 141.687 114.291 143.248C114.638 143.422 114.985 142.901 114.638 142.641C111.863 141.166 109.608 139.171 107.613 136.743C107.352 136.396 106.919 136.83 107.179 137.176Z" fill="#AB9F6E"/>
<path d="M95.2091 86.261C99.199 87.9958 103.362 89.1234 107.613 89.6438C108.046 89.7306 108.046 89.0366 107.613 88.9499C103.449 88.4295 99.3725 87.3019 95.556 85.6538C95.1223 85.5671 94.7754 86.1743 95.2091 86.261Z" fill="#AB9F6E"/>
<path d="M101.454 90.5979C103.623 90.5112 105.618 90.8582 107.699 91.4653C108.133 91.6388 108.307 90.9449 107.873 90.7714C105.791 90.0775 103.623 89.8173 101.454 89.904C101.02 89.9908 101.02 90.6847 101.454 90.5979Z" fill="#AB9F6E"/>
<path d="M99.6326 59.2854C101.194 59.6324 102.582 60.1528 103.969 60.9334C104.316 61.1936 104.663 60.5865 104.316 60.3263C102.929 59.5456 101.454 58.9384 99.806 58.5915C99.3723 58.5915 99.1989 59.1987 99.6326 59.2854Z" fill="#AB9F6E"/>
<path d="M25.211 148.106C22.6089 150.361 20.1802 152.876 18.0117 155.652C17.7515 155.999 18.1852 156.519 18.5322 156.172C20.7006 153.397 23.1293 150.881 25.7315 148.626C25.9917 148.366 25.558 147.845 25.211 148.106Z" fill="#AB9F6E"/>
<path d="M27.0325 146.804C26.9458 146.804 26.9458 146.891 26.859 146.891C26.5121 147.151 26.859 147.759 27.206 147.498C27.2927 147.498 27.2927 147.412 27.3795 147.412C27.7264 147.151 27.3795 146.544 27.0325 146.804Z" fill="#AB9F6E"/>
<path d="M19.92 155.478C18.9659 156.606 18.0985 157.82 17.3179 159.121C17.0577 159.468 17.6648 159.815 17.925 159.468C18.7057 158.254 19.4863 157.04 20.4404 155.912C20.7007 155.565 20.267 155.131 19.92 155.478Z" fill="#AB9F6E"/>
<path d="M21.4813 154.871C21.915 154.871 21.915 154.177 21.4813 154.177C21.0476 154.264 21.0476 154.871 21.4813 154.871Z" fill="#AB9F6E"/>
<path d="M33.3644 142.468C35.0992 141.253 37.0075 140.299 39.0892 139.692C39.5229 139.605 39.3494 138.911 38.9157 138.998C36.834 139.605 34.839 140.559 33.0175 141.86C32.6705 142.121 33.0175 142.728 33.3644 142.468Z" fill="#AB9F6E"/>
<path d="M73.4376 131.192C76.2999 130.931 79.0756 130.931 81.9379 131.278C82.3716 131.365 82.3716 130.671 81.9379 130.584C79.0756 130.237 76.2999 130.237 73.4376 130.498C73.0039 130.498 73.0039 131.192 73.4376 131.192Z" fill="#AB9F6E"/>
<path d="M75.5194 133.187C76.1265 133.187 76.7337 133.187 77.3409 133.187C77.7746 133.187 77.7746 132.493 77.3409 132.493C76.7337 132.493 76.1265 132.493 75.5194 132.493C75.0857 132.493 75.0857 133.187 75.5194 133.187Z" fill="#AB9F6E"/>
<path d="M61.7279 133.36C62.1615 133.36 62.1615 132.666 61.7279 132.666C61.2942 132.666 61.2942 133.36 61.7279 133.36Z" fill="#AB9F6E"/>
<path d="M88.3565 131.365C91.7393 131.625 94.168 134.401 97.4641 134.921C97.8977 135.008 98.0712 134.314 97.6375 134.227C94.2547 133.707 91.8261 130.931 88.3565 130.671C87.9228 130.671 87.9228 131.365 88.3565 131.365Z" fill="#AB9F6E"/>
<path d="M89.3975 128.763C90.872 125.64 91.9129 122.431 92.6068 119.048C92.6935 118.614 91.9996 118.441 91.9129 118.875C91.219 122.171 90.2649 125.38 88.7903 128.416C88.6168 128.85 89.1372 129.197 89.3975 128.763Z" fill="#AB9F6E"/>
<path d="M90.6118 129.63C91.3924 128.329 91.9996 126.941 92.4333 125.467C92.6067 125.033 91.9128 124.86 91.7394 125.293C91.3057 126.681 90.6985 127.982 89.9179 129.283C89.8311 129.717 90.4383 130.064 90.6118 129.63Z" fill="#AB9F6E"/>
<path d="M92.3465 130.064C92.3465 129.977 92.3465 129.977 92.3465 130.064C92.3465 129.543 91.6526 129.543 91.6526 129.977C91.6526 129.977 91.6526 129.977 91.6526 130.064C91.6526 130.498 92.3465 130.498 92.3465 130.064Z" fill="#AB9F6E"/>
<path d="M98.3316 272.835C102.669 272.662 106.919 271.968 111.082 270.667C111.516 270.493 111.342 269.886 110.909 269.973C106.832 271.274 102.582 271.968 98.3316 272.141C97.8979 272.141 97.8979 272.835 98.3316 272.835Z" fill="#AB9F6E"/>
<path d="M103.276 274.397C105.704 274.136 108.133 273.616 110.475 272.835C110.909 272.662 110.735 272.055 110.302 272.141C108.046 273.009 105.704 273.529 103.276 273.703C102.842 273.79 102.842 274.483 103.276 274.397Z" fill="#AB9F6E"/>
<path d="M109.955 274.223C108.48 279.688 107.613 285.239 107.526 290.964C107.526 291.397 108.22 291.397 108.22 290.964C108.307 285.326 109.174 279.861 110.648 274.397C110.648 273.963 110.041 273.789 109.955 274.223Z" fill="#AB9F6E"/>
<path d="M107.96 275.351C106.832 278.3 106.225 281.423 106.051 284.545C106.051 284.979 106.745 284.979 106.745 284.545C106.919 281.423 107.613 278.387 108.653 275.524C108.74 275.177 108.046 275.004 107.96 275.351Z" fill="#AB9F6E"/>
<path d="M106.572 275.871C107.005 275.871 107.005 275.177 106.572 275.177C106.138 275.177 106.138 275.871 106.572 275.871Z" fill="#AB9F6E"/>
<path d="M99.8061 274.657C101.454 275.438 103.189 275.871 105.01 275.958C105.444 275.958 105.444 275.351 105.01 275.264C103.362 275.177 101.714 274.744 100.153 274.05C99.8061 273.963 99.4591 274.483 99.8061 274.657Z" fill="#AB9F6E"/>
<path d="M34.2318 268.325C36.0533 270.667 38.6555 272.141 41.6046 272.575C42.0383 272.662 42.2117 271.968 41.7781 271.881C38.9157 271.448 36.487 270.06 34.7522 267.805C34.492 267.458 33.9716 267.978 34.2318 268.325Z" fill="#AB9F6E"/>
<path d="M35.0993 271.101C36.4871 276.999 37.3544 282.984 37.7014 289.055C37.7014 289.489 38.3953 289.489 38.3953 289.055C37.9616 282.984 37.0942 276.912 35.7932 270.927C35.6197 270.493 35.0125 270.667 35.0993 271.101Z" fill="#AB9F6E"/>
<path d="M36.3135 271.881C37.0074 272.488 37.7013 272.922 38.5687 273.269C39.0024 273.442 39.1759 272.749 38.7422 272.575C38.0483 272.315 37.3544 271.881 36.7472 271.361C36.487 271.101 35.9666 271.534 36.3135 271.881Z" fill="#AB9F6E"/>
<path d="M37.0074 273.616C37.4411 273.616 37.4411 272.922 37.0074 272.922C36.5737 272.922 36.5737 273.616 37.0074 273.616Z" fill="#AB9F6E"/>
<path d="M47.6764 279.774C51.0592 278.213 54.6155 277.086 58.2585 276.565C58.6922 276.478 58.5187 275.871 58.085 275.871C54.3552 276.392 50.7122 277.519 47.3294 279.081C46.8957 279.341 47.2427 279.948 47.6764 279.774Z" fill="#AB9F6E"/>
<path d="M53.6613 279.861C60.7739 276.739 68.4069 276.392 76.0398 276.131C76.4735 276.131 76.4735 275.438 76.0398 275.438C68.3201 275.698 60.5137 276.131 53.3144 279.254C52.9674 279.427 53.3144 280.035 53.6613 279.861Z" fill="#AB9F6E"/>
<path d="M26.3386 249.85C27.8132 255.314 30.9358 259.825 35.5329 263.121C35.8799 263.381 36.2268 262.774 35.8799 262.513C31.4562 259.304 28.4204 254.881 27.0326 249.589C26.8591 249.243 26.1652 249.416 26.3386 249.85Z" fill="#AB9F6E"/>
<path d="M33.0175 259.131C35.4462 261.473 38.2218 263.468 41.1709 265.116C41.5179 265.289 41.8648 264.769 41.5179 264.508C38.5688 262.947 35.8799 260.952 33.4512 258.697C33.191 258.35 32.7573 258.87 33.0175 259.131Z" fill="#AB9F6E"/>
<path d="M63.8098 260.518C66.2384 258.263 68.2334 255.661 69.8815 252.712C70.0549 252.365 69.5345 252.018 69.2743 252.365C67.713 255.227 65.718 257.83 63.2893 259.998C63.0291 260.345 63.4628 260.865 63.8098 260.518Z" fill="#AB9F6E"/>
<path d="M67.8864 258.35C69.014 257.136 69.8814 255.748 70.5753 254.273C70.7488 253.84 70.1416 253.493 69.9681 253.926C69.2742 255.314 68.4936 256.615 67.366 257.83C67.1058 258.177 67.5395 258.697 67.8864 258.35Z" fill="#AB9F6E"/>
<path d="M72.6569 249.069C73.5243 254.447 76.0397 259.131 79.9429 262.86C80.2899 263.121 80.7236 262.687 80.4634 262.34C76.6469 258.697 74.2182 254.1 73.3508 248.896C73.2641 248.462 72.5702 248.635 72.6569 249.069Z" fill="#AB9F6E"/>
<path d="M76.7336 256.095C78.2949 258.957 80.3766 261.473 82.8921 263.554C83.239 263.815 83.6727 263.381 83.4125 263.034C80.8971 261.039 78.9021 258.524 77.3408 255.661C77.0806 255.314 76.4734 255.661 76.7336 256.095Z" fill="#AB9F6E"/>
<path d="M110.128 265.202C121.057 258.957 129.818 249.59 135.282 238.227C135.456 237.793 134.848 237.446 134.675 237.88C129.211 249.156 120.537 258.437 109.694 264.682C109.434 264.855 109.781 265.463 110.128 265.202Z" fill="#AB9F6E"/>
<path d="M123.833 251.324C129.124 245.253 133.634 238.487 137.104 231.201C137.277 230.767 136.67 230.42 136.496 230.854C133.027 238.14 128.603 244.819 123.312 250.804C123.052 251.151 123.572 251.671 123.833 251.324Z" fill="#AB9F6E"/>
<path d="M136.757 235.364C138.838 231.721 140.573 227.992 141.874 224.002C142.048 223.568 141.354 223.394 141.18 223.828C139.879 227.731 138.231 231.461 136.149 235.017C135.976 235.451 136.583 235.711 136.757 235.364Z" fill="#AB9F6E"/>
<path d="M132.767 235.538C134.675 232.589 136.323 229.553 137.624 226.257C137.797 225.823 137.104 225.65 136.93 226.083C135.629 229.293 134.068 232.329 132.159 235.191C131.899 235.538 132.506 235.885 132.767 235.538Z" fill="#AB9F6E"/>
<path d="M137.797 229.553C138.231 229.553 138.231 228.859 137.797 228.859C137.364 228.859 137.364 229.553 137.797 229.553Z" fill="#AB9F6E"/>
<path d="M139.098 200.149C139.012 199.802 138.925 199.541 138.838 199.194C138.665 199.281 138.405 199.368 138.231 199.455C139.966 203.271 140.92 207.174 140.92 211.425C140.92 211.858 141.614 211.858 141.614 211.425C141.614 207.174 140.66 203.011 138.838 199.108C138.665 198.761 138.144 199.021 138.231 199.368C138.318 199.715 138.405 199.975 138.491 200.322C138.578 200.756 139.272 200.582 139.098 200.149Z" fill="#AB9F6E"/>
<path d="M137.624 195.985C139.272 197.98 140.313 200.322 140.92 202.837C141.007 203.271 141.701 203.098 141.614 202.664C141.007 200.062 139.792 197.633 138.144 195.551C137.884 195.204 137.364 195.638 137.624 195.985Z" fill="#AB9F6E"/>
<path d="M141.787 200.669C142.395 202.577 142.742 204.485 142.915 206.48C142.915 206.914 143.609 206.914 143.609 206.48C143.436 204.399 143.089 202.404 142.481 200.496C142.308 200.062 141.701 200.235 141.787 200.669Z" fill="#AB9F6E"/>
<path d="M143.349 208.475C143.782 208.475 143.782 207.782 143.349 207.782C142.915 207.868 142.915 208.475 143.349 208.475Z" fill="#AB9F6E"/>
<path d="M140.746 160.596C142.915 160.683 144.997 161.203 146.992 161.984C147.425 162.157 147.599 161.463 147.165 161.29C145.083 160.422 143.002 159.989 140.746 159.902C140.313 159.902 140.313 160.596 140.746 160.596Z" fill="#AB9F6E"/>
<path d="M142.308 159.468C145.951 159.902 149.334 161.29 152.283 163.372C152.63 163.632 152.977 163.025 152.63 162.764C149.507 160.509 146.038 159.208 142.308 158.688C141.874 158.688 141.874 159.382 142.308 159.468Z" fill="#AB9F6E"/>
<path d="M153.584 163.979H153.671C154.104 163.979 154.104 163.285 153.671 163.285H153.584C153.15 163.285 153.15 163.979 153.584 163.979Z" fill="#AB9F6E"/>
<path d="M150.721 159.208C152.456 159.815 154.017 160.596 155.492 161.81C155.839 162.07 156.273 161.637 156.012 161.29C154.538 160.075 152.803 159.121 150.982 158.514C150.548 158.427 150.374 159.035 150.721 159.208Z" fill="#AB9F6E"/>
<path d="M126.435 182.888C128.777 183.755 130.858 185.143 132.593 186.964C132.853 187.311 133.374 186.791 133.114 186.444C131.292 184.536 129.124 183.148 126.695 182.194C126.175 182.107 126.001 182.714 126.435 182.888Z" fill="#AB9F6E"/>
<path d="M127.476 185.23C130.598 186.791 133.027 189.22 134.675 192.255C134.848 192.602 135.456 192.342 135.282 191.908C133.634 188.699 131.032 186.184 127.823 184.622C127.389 184.449 127.042 185.056 127.476 185.23Z" fill="#AB9F6E"/>
<path d="M114.812 174.908C116.286 176.122 117.934 176.989 119.756 177.51C120.19 177.597 120.363 176.989 119.929 176.816C118.195 176.295 116.633 175.515 115.246 174.387C114.899 174.127 114.465 174.561 114.812 174.908Z" fill="#AB9F6E"/>
<path d="M121.317 178.204C121.751 178.204 121.751 177.51 121.317 177.51C120.884 177.51 120.884 178.204 121.317 178.204Z" fill="#AB9F6E"/>
<path d="M115.592 177.597C117.24 178.637 119.062 179.245 121.057 179.505C121.491 179.592 121.491 178.898 121.057 178.811C119.235 178.551 117.501 177.944 115.939 176.989C115.506 176.816 115.159 177.336 115.592 177.597Z" fill="#AB9F6E"/>
<path d="M121.578 184.015C124.006 184.796 126.175 186.01 128.083 187.572C128.43 187.832 128.864 187.398 128.603 187.051C126.608 185.316 124.266 184.102 121.751 183.321C121.404 183.235 121.144 183.928 121.578 184.015Z" fill="#AB9F6E"/>
<path d="M93.3876 167.361C97.5511 165.02 101.975 163.545 106.745 162.938C107.179 162.851 107.179 162.244 106.745 162.244C101.888 162.851 97.2909 164.326 93.0407 166.754C92.6937 167.015 93.0407 167.622 93.3876 167.361Z" fill="#AB9F6E"/>
<path d="M95.9028 167.882C98.7651 166.581 101.714 165.713 104.837 165.106C105.271 165.02 105.097 164.412 104.663 164.412C101.541 165.02 98.5049 165.974 95.5558 167.188C95.2089 167.535 95.5558 168.055 95.9028 167.882Z" fill="#AB9F6E"/>
<path d="M94.0812 168.923C94.5149 168.923 94.5149 168.229 94.0812 168.229C93.5608 168.229 93.5608 168.923 94.0812 168.923Z" fill="#AB9F6E"/>
<path d="M25.8181 248.462C25.8181 248.462 25.8181 248.549 25.8181 248.462C25.8181 248.982 26.512 248.982 26.512 248.549V248.462C26.512 248.028 25.8181 248.028 25.8181 248.462Z" fill="#AB9F6E"/>
<path d="M26.1652 244.385C27.2928 249.156 29.201 253.579 31.8899 257.569C32.1501 257.916 32.7573 257.569 32.4971 257.222C29.8082 253.232 27.9867 248.896 26.8591 244.125C26.7724 243.778 26.0785 243.951 26.1652 244.385Z" fill="#AB9F6E"/>
<path d="M62.6819 260.779C62.5952 260.779 62.5952 260.779 62.6819 260.779C62.1615 260.779 62.1615 261.473 62.5952 261.473H62.6819C63.1156 261.473 63.1156 260.779 62.6819 260.779Z" fill="#AB9F6E"/>
<path d="M66.4117 258.957C66.4117 258.957 66.4117 259.044 66.4117 258.957C66.0648 259.304 66.4985 259.825 66.8454 259.478L66.9322 259.391C67.1924 259.131 66.7587 258.61 66.4117 258.957Z" fill="#AB9F6E"/>
<path d="M67.1924 253.926C68.1465 252.799 68.8405 251.498 69.2741 250.023C69.3609 249.59 68.7537 249.416 68.5802 249.85C68.1465 251.151 67.5394 252.365 66.672 253.406C66.4118 253.84 66.9322 254.273 67.1924 253.926Z" fill="#AB9F6E"/>
<path d="M7.08272 100.399C8.99097 99.2718 10.9859 98.4912 13.1544 98.0575C13.5881 97.9707 13.4146 97.2768 12.9809 97.3636C10.8125 97.7973 8.73075 98.6646 6.82251 99.7922C6.38881 99.9657 6.73577 100.573 7.08272 100.399Z" fill="#AB9F6E"/>
<path d="M10.8993 99.879C12.1136 99.532 13.328 99.1851 14.6291 98.7514C15.0627 98.6646 14.8893 97.9707 14.4556 98.0575C13.2412 98.4044 12.0269 98.7514 10.7258 99.1851C10.2921 99.3586 10.4656 100.052 10.8993 99.879Z" fill="#AB9F6E"/>
<path d="M10.899 129.023C13.1542 127.375 15.5829 126.334 18.2718 125.727C18.7055 125.64 18.532 124.946 18.0983 125.033C15.3227 125.64 12.8073 126.768 10.5521 128.416C10.1184 128.676 10.4653 129.283 10.899 129.023Z" fill="#AB9F6E"/>
<path d="M9.68476 131.278C11.6797 129.804 13.9349 128.763 16.3636 128.069C16.7973 127.982 16.6238 127.288 16.1901 127.375C13.6747 127.982 11.4195 129.11 9.33781 130.584C8.99085 130.931 9.3378 131.538 9.68476 131.278Z" fill="#AB9F6E"/>
<path d="M20.1802 125.467C20.6139 125.467 20.6139 124.773 20.1802 124.773C19.7466 124.773 19.7466 125.467 20.1802 125.467Z" fill="#AB9F6E"/>
<path d="M32.6704 97.1901C32.6704 97.1033 32.7571 97.1033 32.6704 97.1901C33.0173 96.8431 32.5836 96.3227 32.2367 96.6697L32.1499 96.7564C31.8897 97.0166 32.3234 97.4503 32.6704 97.1901Z" fill="#AB9F6E"/>
<path d="M33.8849 93.4603C37.181 92.5929 40.5638 92.0725 44.0333 92.0725C44.467 92.0725 44.467 91.3786 44.0333 91.3786C40.5638 91.3786 37.0942 91.899 33.7114 92.7664C33.2777 92.9399 33.4512 93.5471 33.8849 93.4603Z" fill="#AB9F6E"/>
<path d="M38.8291 94.3277C40.7373 93.7205 42.7323 93.6338 44.6405 93.9807C45.0742 94.0675 45.2477 93.3736 44.814 93.2868C42.7323 92.8531 40.6506 92.9399 38.5688 93.6338C38.2219 93.8072 38.3954 94.4144 38.8291 94.3277Z" fill="#AB9F6E"/>
<path d="M61.4679 77.5005C65.8048 76.8066 70.055 77.5005 73.9582 79.4955C74.3052 79.6689 74.6521 79.1485 74.3052 78.8883C70.2285 76.8066 65.8048 76.1127 61.2944 76.8933C60.8607 76.8933 61.0342 77.5872 61.4679 77.5005Z" fill="#AB9F6E"/>
<path d="M66.8456 81.0567C69.708 80.4496 72.5703 80.623 75.4327 81.4904C75.8664 81.5772 76.0399 80.97 75.6062 80.7965C72.6571 79.9291 69.708 79.7556 66.6721 80.3628C66.2384 80.4496 66.4119 81.1435 66.8456 81.0567Z" fill="#AB9F6E"/>
<path d="M64.4168 80.97C64.5036 80.97 64.5036 81.0567 64.5903 81.0567C65.024 81.2302 65.371 80.623 64.9373 80.4495C64.8505 80.4495 64.8505 80.3628 64.7638 80.3628C64.3301 80.1893 63.9831 80.7965 64.4168 80.97Z" fill="#AB9F6E"/>
<path d="M61.8145 51.3922C66.4984 50.9585 70.8353 51.9126 74.9988 54.0811C75.3457 54.2546 75.6927 53.7341 75.3457 53.4739C71.1823 51.2187 66.5851 50.2646 61.8145 50.6983C61.3808 50.785 61.3808 51.4789 61.8145 51.3922Z" fill="#AB9F6E"/>
<path d="M70.6618 54.3413C72.0497 54.6016 73.264 55.2955 74.3916 56.1629C74.7385 56.4231 75.1722 55.9894 74.912 55.6424C73.7844 54.6016 72.3966 53.9077 70.9221 53.6474C70.4884 53.5607 70.2282 54.2546 70.6618 54.3413Z" fill="#AB9F6E"/>
<path d="M32.9308 57.8976C35.0125 56.77 37.181 56.1628 39.6096 55.9893C40.0433 55.9893 40.0433 55.2954 39.6096 55.2954C37.181 55.4689 34.839 56.1628 32.5838 57.2904C32.1501 57.5506 32.4971 58.071 32.9308 57.8976Z" fill="#AB9F6E"/>
<path d="M41.1707 56.0761C41.6044 56.0761 41.6044 55.3822 41.1707 55.3822C40.737 55.4689 40.737 56.0761 41.1707 56.0761Z" fill="#AB9F6E"/>
<path d="M13.4147 73.5972C15.4097 78.8015 16.0169 84.1793 15.1495 89.7306C15.0627 90.1643 15.7567 90.3377 15.8434 89.9041C16.7108 84.2661 16.1903 78.7148 14.1086 73.4238C13.8484 72.9901 13.2412 73.1635 13.4147 73.5972Z" fill="#AB9F6E"/>
<path d="M40.7372 32.0496C42.3852 36.56 43.0791 41.2439 42.9924 46.0145C42.9924 46.4482 43.6863 46.4482 43.6863 46.0145C43.8598 41.1571 43.0791 36.4732 41.4311 31.8761C41.2576 31.4424 40.6505 31.7026 40.7372 32.0496Z" fill="#AB9F6E"/>
<path d="M78.7286 105.864C78.2949 113.584 79.249 121.13 81.591 128.503C81.7644 128.936 82.3716 128.763 82.2849 128.329C79.9429 121.043 78.9888 113.497 79.4225 105.864C79.5092 105.43 78.8153 105.43 78.7286 105.864Z" fill="#AB9F6E"/>
<path d="M78.295 116.966C78.295 116.88 78.295 116.793 78.295 116.619C78.0348 116.619 77.8613 116.619 77.6011 116.619C77.7746 120.523 78.5552 124.252 79.8563 127.895C80.0297 128.329 80.6369 128.156 80.5502 127.722C79.2491 124.166 78.5552 120.436 78.295 116.619C78.295 116.186 77.6878 116.186 77.6011 116.619C77.6011 116.706 77.6011 116.793 77.6011 116.966C77.6011 117.4 78.295 117.4 78.295 116.966Z" fill="#AB9F6E"/>
<path d="M101.888 28.8402C104.23 37.3406 105.444 46.0144 105.531 54.775C105.531 55.2087 106.225 55.2087 106.225 54.775C106.225 45.9277 104.924 37.1671 102.582 28.6667C102.408 28.233 101.801 28.4065 101.888 28.8402Z" fill="#AB9F6E"/>
<path d="M105.878 56.5965C106.311 56.5965 106.311 55.9026 105.878 55.9026C105.444 55.9026 105.444 56.5965 105.878 56.5965Z" fill="#AB9F6E"/>
<path d="M112.643 118.875C113.164 122.778 114.205 126.594 114.898 130.411C115.679 134.835 116.026 139.345 116.113 143.855C116.113 144.289 116.807 144.289 116.807 143.855C116.72 140.039 116.46 136.222 115.939 132.493C115.245 127.895 113.944 123.472 113.337 118.875C113.25 118.441 112.556 118.441 112.643 118.875Z" fill="#AB9F6E"/>
<path d="M114.378 140.126C113.858 140.126 113.858 140.82 114.291 140.82H114.378C114.812 140.82 114.812 140.126 114.378 140.126Z" fill="#AB9F6E"/>
<path d="M111.342 114.191C111.342 119.916 112.123 125.467 113.597 131.018C113.684 131.452 114.378 131.278 114.291 130.845C112.817 125.38 112.123 119.829 112.036 114.191C112.036 113.67 111.342 113.67 111.342 114.191Z" fill="#AB9F6E"/>
<path d="M146.472 147.238C149.421 139.865 154.712 133.88 161.651 129.977C161.998 129.804 161.651 129.197 161.304 129.37C154.191 133.36 148.813 139.432 145.778 146.978C145.604 147.412 146.298 147.672 146.472 147.238Z" fill="#AB9F6E"/>
<path d="M37.875 294.086C37.7882 299.811 37.7015 305.536 37.6147 311.26C37.6147 311.694 38.2219 311.694 38.2219 311.26C38.3087 305.536 38.3954 299.811 38.4821 294.086C38.4821 293.653 37.875 293.653 37.875 294.086Z" fill="#AB9F6E"/>
<path d="M37.7013 313.082C51.6662 318.46 66.7587 320.108 81.591 317.939C82.0246 317.853 81.8512 317.245 81.4175 317.332C66.7587 319.414 51.7529 317.766 37.8748 312.475C37.5279 312.388 37.3544 312.995 37.7013 313.082Z" fill="#AB9F6E"/>
<path d="M39.9565 311.608C47.6763 314.296 55.6562 315.944 63.7229 316.552C64.1566 316.552 64.1566 315.944 63.7229 315.944C55.6562 315.337 47.763 313.689 40.13 311C39.6963 310.827 39.5228 311.434 39.9565 311.608Z" fill="#AB9F6E"/>
<path d="M65.1975 316.638C65.6312 317.072 66.2384 316.465 65.8914 316.118L65.8047 316.031C65.371 315.684 64.7638 316.205 65.1975 316.638Z" fill="#AB9F6E"/>
<path d="M93.908 314.99C98.1582 314.557 102.148 313.516 106.051 311.781C106.398 311.607 106.138 311.087 105.704 311.261C101.888 312.909 97.9847 313.949 93.908 314.383C93.4743 314.47 93.4743 315.077 93.908 314.99Z" fill="#AB9F6E"/>
<path d="M71.5295 220.792C73.8715 214.46 77.6879 209.083 82.8055 204.659C83.1525 204.399 82.632 203.878 82.2851 204.139C77.0808 208.649 73.2643 214.2 70.8356 220.619C70.7489 221.053 71.4428 221.226 71.5295 220.792Z" fill="#AB9F6E"/>
<path d="M77.1672 208.042C80.0296 204.919 83.2389 202.23 86.9686 200.062C87.3156 199.802 86.9686 199.281 86.6217 199.455C82.8919 201.623 79.5959 204.312 76.7335 207.521C76.3866 207.868 76.8202 208.389 77.1672 208.042Z" fill="#AB9F6E"/>
<path d="M62.5952 208.042C65.1974 212.379 67.2791 216.976 68.7537 221.746C68.8404 222.18 69.5343 222.007 69.4476 221.573C67.973 216.716 65.8913 212.032 63.2024 207.695C62.9422 207.261 62.4218 207.608 62.5952 208.042Z" fill="#AB9F6E"/>
<path d="M65.8914 209.777C67.4527 212.639 68.5803 215.675 69.2742 218.884C69.361 219.318 70.0549 219.144 69.9681 218.711C69.1875 215.501 68.0599 212.379 66.4986 209.43C66.3251 208.996 65.718 209.343 65.8914 209.777Z" fill="#AB9F6E"/>
<path d="M71.1823 217.583C72.2232 215.068 73.611 212.726 75.259 210.644C75.5193 210.297 75.0856 209.863 74.7386 210.124C72.9171 212.292 71.5293 214.721 70.4884 217.323C70.4017 217.756 71.0956 217.93 71.1823 217.583Z" fill="#AB9F6E"/>
<path d="M50.6254 193.383C62.8555 200.929 78.0347 200.842 90.0914 193.123C90.4383 192.863 90.0914 192.342 89.7444 192.516C77.8613 200.149 62.9423 200.235 50.9724 192.776C50.6254 192.602 50.2784 193.123 50.6254 193.383Z" fill="#AB9F6E"/>
<path d="M51.2327 194.077C58.6054 199.628 67.713 201.883 76.9072 200.409C77.3409 200.322 77.1675 199.715 76.7338 199.715C67.7997 201.103 58.8657 198.847 51.6664 193.47C51.2327 193.209 50.8857 193.817 51.2327 194.077Z" fill="#AB9F6E"/>
<path d="M91.3924 192.342C91.8261 192.342 91.8261 191.648 91.3924 191.648C90.9587 191.735 90.9587 192.342 91.3924 192.342Z" fill="#AB9F6E"/>
<path d="M78.4686 200.062C78.9023 200.062 78.9023 199.368 78.4686 199.368C78.0349 199.368 78.0349 200.062 78.4686 200.062Z" fill="#AB9F6E"/>
<path d="M53.0541 178.551C51.5795 182.714 52.0132 187.138 54.1817 191.041C54.4419 191.388 54.9623 191.041 54.7888 190.694C52.6204 186.964 52.2734 182.801 53.6612 178.724C53.8347 178.29 53.2275 178.117 53.0541 178.551Z" fill="#AB9F6E"/>
<path d="M50.9722 183.495C50.8855 184.536 50.9722 185.577 51.3192 186.617C51.4926 187.051 52.0998 186.878 52.0131 186.444C51.6661 185.49 51.5794 184.536 51.6661 183.582C51.7528 183.061 51.0589 183.061 50.9722 183.495Z" fill="#AB9F6E"/>
<path d="M84.8871 176.556C86.2749 180.719 86.1014 184.969 84.4534 189.046C84.2799 189.48 84.9738 189.653 85.1473 189.22C86.8821 185.056 86.9688 180.632 85.581 176.382C85.4075 175.949 84.7136 176.122 84.8871 176.556Z" fill="#AB9F6E"/>
<path d="M86.5351 177.336C86.9688 179.245 87.1423 181.153 87.1423 183.148C87.1423 183.581 87.8361 183.581 87.8361 183.148C87.8361 181.153 87.6627 179.158 87.229 177.163C87.1422 176.729 86.4483 176.903 86.5351 177.336Z" fill="#AB9F6E"/>
<path d="M87.6627 184.969C87.6627 184.883 87.6627 184.883 87.6627 184.969C87.6627 184.449 86.9688 184.449 86.9688 184.883C86.9688 184.883 86.9688 184.883 86.9688 184.969C86.9688 185.403 87.6627 185.403 87.6627 184.969Z" fill="#AB9F6E"/>
</g>
<path d="M62.0347 167.425C74.525 161.96 90.3981 157.276 96.3831 143.745C96.73 142.964 95.6024 142.271 95.1687 143.051C89.3573 156.322 73.5709 160.919 61.3408 166.21C60.5601 166.557 61.254 167.772 62.0347 167.425Z" fill="#AB9F6E"/>
<path d="M76.0865 218.34C82.6786 206.457 93.5209 197.696 106.532 193.793C107.399 193.533 107.052 192.232 106.185 192.492C92.827 196.569 81.7245 205.503 74.9589 217.733C74.4385 218.34 75.6528 219.034 76.0865 218.34Z" fill="#AB9F6E"/>
<path d="M128.303 200.819C117.461 194.574 105.664 190.931 93.174 189.977C92.3066 189.89 92.3066 191.278 93.174 191.364C105.404 192.319 117.027 195.962 127.609 202.033C128.39 202.467 129.084 201.253 128.303 200.819Z" fill="#AB9F6E"/>
<path d="M47.5494 190.931C57.3509 200.646 64.2899 212.615 68.1064 225.886C68.3666 226.754 69.6677 226.407 69.4075 225.539C65.591 212.008 58.4785 199.865 48.5036 189.977C47.8964 189.37 46.9423 190.324 47.5494 190.931Z" fill="#AB9F6E"/>
<path d="M34.6088 154.674C50.8289 157.623 71.993 155.455 84.2232 143.225C84.8303 142.617 83.9629 141.577 83.3558 142.184C71.2991 154.067 50.5687 156.149 34.6955 153.286C33.8281 153.113 33.7414 154.501 34.6088 154.674Z" fill="#AB9F6E"/>
</svg>
