<svg width="195" height="291" viewBox="0 0 195 291" fill="none" xmlns="http://www.w3.org/2000/svg">
<g clip-path="url(#clip0_18_2578)">
<path d="M145.056 24.3145C141.13 24.3145 137.278 24.4655 133.427 24.4655C132.974 24.4655 132.974 25.2206 133.427 25.2206C137.354 25.2206 141.205 25.0696 145.056 25.0696C145.509 25.0696 145.509 24.3145 145.056 24.3145Z" fill="#9B9267"/>
<path d="M133.352 25.2961C135.466 28.4675 137.052 31.941 139.166 35.1125C139.468 35.49 140.072 35.1125 139.846 34.7349C137.731 31.5635 136.146 28.09 134.031 24.9185C133.729 24.541 133.05 24.9185 133.352 25.2961Z" fill="#9B9267"/>
<path d="M144.376 24.7675C143.47 26.5043 142.489 28.09 141.658 29.8267C140.903 31.4125 140.299 33.1492 139.393 34.6594C139.166 35.1125 139.846 35.49 140.072 35.037C140.978 33.5268 141.583 31.79 142.338 30.2043C143.168 28.4675 144.15 26.8063 145.056 25.1451C145.283 24.692 144.603 24.3144 144.376 24.7675Z" fill="#9B9267"/>
<path d="M144.527 30.9594C140.752 31.337 136.976 30.9594 133.201 30.9594C132.672 30.9594 132.672 31.7145 133.201 31.7145C136.976 31.7145 140.752 32.0921 144.527 31.7145C144.981 31.7145 145.056 30.9594 144.527 30.9594Z" fill="#9B9267"/>
<path d="M34.8105 258.473C38.737 258.473 42.5881 258.322 46.4391 258.322C46.8922 258.322 46.8922 257.567 46.4391 257.567C42.5126 257.567 38.6615 257.718 34.8105 257.718C34.2819 257.718 34.2819 258.473 34.8105 258.473Z" fill="#9B9267"/>
<path d="M46.4391 257.416C44.3248 254.245 42.7391 250.771 40.6248 247.6C40.3228 247.222 39.7187 247.6 39.9452 247.977C42.0595 251.149 43.6452 254.622 45.7595 257.794C46.0616 258.171 46.7412 257.794 46.4391 257.416Z" fill="#9B9267"/>
<path d="M35.4146 257.945C36.3208 256.208 37.3024 254.622 38.133 252.885C38.8881 251.3 39.4922 249.563 40.3983 248.053C40.6249 247.6 39.9453 247.222 39.7188 247.675C38.8126 249.185 38.2085 250.922 37.4534 252.508C36.6228 254.245 35.6412 255.906 34.735 257.567C34.5085 258.02 35.1881 258.398 35.4146 257.945Z" fill="#9B9267"/>
<path d="M35.2636 251.753C39.0392 251.375 42.8147 251.753 46.5902 251.753C47.1188 251.753 47.1188 250.998 46.5902 250.998C42.8147 250.998 39.0392 250.62 35.2636 250.998C34.8106 250.998 34.8106 251.828 35.2636 251.753Z" fill="#9B9267"/>
<path d="M171.485 206.295C175.411 206.295 179.262 206.144 183.113 206.144C183.567 206.144 183.567 205.389 183.113 205.389C179.187 205.389 175.336 205.54 171.485 205.54C171.032 205.54 171.032 206.295 171.485 206.295Z" fill="#9B9267"/>
<path d="M183.189 205.238C181.075 202.067 179.489 198.593 177.375 195.422C177.073 195.044 176.468 195.422 176.695 195.799C178.809 198.971 180.395 202.444 182.509 205.616C182.811 205.993 183.415 205.616 183.189 205.238Z" fill="#9B9267"/>
<path d="M172.164 205.767C173.071 204.03 174.052 202.444 174.883 200.707C175.638 199.122 176.242 197.385 177.148 195.875C177.375 195.422 176.695 195.044 176.469 195.497C175.562 197.007 174.958 198.744 174.203 200.33C173.373 202.067 172.391 203.728 171.485 205.389C171.258 205.842 171.938 206.22 172.164 205.767Z" fill="#9B9267"/>
<path d="M27.184 65.2412C23.2575 65.2412 19.4064 65.3922 15.5554 65.3922C15.1023 65.3922 15.1023 66.1473 15.5554 66.1473C19.4819 66.1473 23.333 65.9963 27.184 65.9963C27.7126 65.9963 27.7126 65.2412 27.184 65.2412Z" fill="#9B9267"/>
<path d="M15.5554 66.2983C17.6697 69.4698 19.2554 72.9433 21.3697 76.1147C21.6718 76.4923 22.2759 76.1147 22.0493 75.7372C19.935 72.5657 18.3493 69.0922 16.235 65.9208C15.933 65.5432 15.2534 65.9208 15.5554 66.2983Z" fill="#9B9267"/>
<path d="M26.5044 65.7698C25.5983 67.5065 24.6166 69.0922 23.786 70.829C23.0309 72.4147 22.4268 74.1515 21.5207 75.6617C21.2942 76.1147 21.9738 76.4923 22.2003 76.0392C23.1064 74.529 23.7105 72.7923 24.4656 71.2065C25.2962 69.4698 26.2779 67.8086 27.184 66.1473C27.4105 65.6943 26.8064 65.3167 26.5044 65.7698Z" fill="#9B9267"/>
<path d="M149.587 93.5578C149.587 96.7292 149.285 99.9007 149.285 103.072C149.285 106.244 149.436 109.339 149.511 112.511C149.511 113.04 150.266 113.04 150.266 112.511C150.266 109.339 150.115 106.244 150.04 103.072C150.04 99.9007 150.266 96.7292 150.342 93.5578C150.417 93.1047 149.587 93.1047 149.587 93.5578Z" fill="#9B9267"/>
<path d="M154.797 102.317C151.474 102.468 148.227 102.241 144.905 102.317C144.376 102.317 144.376 103.148 144.905 103.072C148.227 102.997 151.474 103.223 154.797 103.072C155.325 103.072 155.325 102.241 154.797 102.317Z" fill="#9B9267"/>
<path d="M151.021 100.354C149.889 101.939 148.53 103.299 147.472 104.96C147.17 105.413 147.85 105.79 148.152 105.337C149.209 103.676 150.644 102.317 151.701 100.731C151.928 100.354 151.248 99.9762 151.021 100.354Z" fill="#9B9267"/>
<path d="M151.852 104.507C150.719 103.148 149.587 101.788 148.454 100.429C148.152 100.052 147.548 100.58 147.925 100.958C149.058 102.317 150.266 103.676 151.323 105.035C151.625 105.413 152.154 104.884 151.852 104.507Z" fill="#9B9267"/>
<path d="M157.515 237.708C157.44 241.181 157.44 244.655 157.44 248.128C157.44 248.657 158.195 248.657 158.195 248.128C158.195 244.655 158.195 241.181 158.271 237.708C158.271 237.255 157.515 237.255 157.515 237.708Z" fill="#9B9267"/>
<path d="M160.536 242.314C158.724 242.389 156.911 242.238 155.099 242.314C154.57 242.314 154.57 243.144 155.099 243.069C156.911 242.993 158.724 243.144 160.536 243.069C161.064 243.144 161.064 242.314 160.536 242.314Z" fill="#9B9267"/>
<path d="M158.271 241.408C157.667 242.314 156.911 243.069 156.307 243.975C156.005 244.428 156.685 244.806 156.987 244.353C157.591 243.446 158.346 242.691 158.95 241.785C159.252 241.332 158.573 240.955 158.271 241.408Z" fill="#9B9267"/>
<path d="M159.026 243.597C158.422 242.842 157.742 242.087 157.138 241.332C156.836 240.955 156.232 241.483 156.609 241.861C157.213 242.616 157.893 243.371 158.497 244.126C158.799 244.579 159.328 243.975 159.026 243.597Z" fill="#9B9267"/>
<path d="M17.6694 205.918C17.6694 211.505 17.1409 217.093 17.1409 222.606C17.1409 228.344 17.5184 234.083 17.5184 239.822C17.5184 240.351 18.2735 240.351 18.2735 239.822C18.2735 234.083 17.896 228.344 17.896 222.606C17.896 217.018 18.349 211.43 18.4245 205.918C18.5001 205.389 17.6694 205.389 17.6694 205.918Z" fill="#9B9267"/>
<path d="M26.7308 221.85C20.841 222.077 14.8756 221.699 8.98579 221.85C8.45721 221.85 8.45721 222.681 8.98579 222.606C14.9511 222.454 20.841 222.832 26.7308 222.606C27.2594 222.606 27.2594 221.775 26.7308 221.85Z" fill="#9B9267"/>
<path d="M20.1613 218.301C18.198 221.171 15.6307 223.587 13.7429 226.532C13.4409 226.985 14.1205 227.363 14.4225 226.91C16.3103 223.965 18.8776 221.548 20.8409 218.679C21.0674 218.226 20.3878 217.848 20.1613 218.301Z" fill="#9B9267"/>
<path d="M21.2185 225.701C19.2552 223.21 17.1409 220.793 15.1021 218.452C14.8 218.075 14.196 218.603 14.5735 218.981C16.6123 221.397 18.7266 223.814 20.6899 226.23C20.9164 226.608 21.5205 226.079 21.2185 225.701Z" fill="#9B9267"/>
<path d="M24.9187 176.317C24.9187 179.64 24.6167 183.038 24.6167 186.36C24.6167 189.607 24.8432 192.854 24.8432 196.177C24.8432 196.705 25.5983 196.705 25.5983 196.177C25.5983 192.93 25.4473 189.683 25.3718 186.36C25.3718 183.038 25.6738 179.64 25.6738 176.317C25.7494 175.789 24.9187 175.789 24.9187 176.317Z" fill="#9B9267"/>
<path d="M30.3555 185.454C26.882 185.605 23.4085 185.379 19.935 185.454C19.4064 185.454 19.4064 186.285 19.935 186.209C23.4085 186.134 26.882 186.36 30.3555 186.209C30.8841 186.209 30.8841 185.379 30.3555 185.454Z" fill="#9B9267"/>
<path d="M26.3534 183.415C25.2207 185.077 23.7105 186.511 22.5779 188.248C22.2758 188.701 22.9554 189.079 23.2575 188.626C24.3901 186.889 25.8248 185.454 27.033 183.793C27.335 183.415 26.6554 183.038 26.3534 183.415Z" fill="#9B9267"/>
<path d="M27.2595 187.72C26.1268 186.285 24.9187 184.85 23.7105 183.491C23.4084 183.113 22.8044 183.642 23.1819 184.02C24.3901 185.454 25.5983 186.813 26.7309 188.248C27.033 188.701 27.5615 188.097 27.2595 187.72Z" fill="#9B9267"/>
<path d="M141.96 270.781C141.96 274.104 141.658 277.502 141.658 280.824C141.658 284.071 141.885 287.318 141.885 290.641C141.885 291.169 142.64 291.169 142.64 290.641C142.64 287.394 142.489 284.147 142.413 280.824C142.413 277.502 142.715 274.104 142.715 270.781C142.715 270.253 141.96 270.253 141.96 270.781Z" fill="#9B9267"/>
<path d="M147.397 279.918C143.923 280.069 140.45 279.843 136.977 279.918C136.448 279.918 136.448 280.749 136.977 280.673C140.45 280.598 143.923 280.824 147.397 280.673C147.85 280.673 147.85 279.918 147.397 279.918Z" fill="#9B9267"/>
<path d="M143.395 277.879C142.262 279.541 140.752 280.975 139.619 282.712C139.317 283.165 139.997 283.543 140.299 283.09C141.432 281.353 142.866 279.918 144.075 278.257C144.301 277.879 143.621 277.502 143.395 277.879Z" fill="#9B9267"/>
<path d="M144.226 282.183C143.093 280.749 141.885 279.314 140.677 277.955C140.375 277.577 139.77 278.106 140.148 278.483C141.356 279.918 142.564 281.277 143.697 282.712C143.999 283.165 144.528 282.637 144.226 282.183Z" fill="#9B9267"/>
<path d="M5.28593 46.7411C5.28593 50.0636 4.98389 53.4615 4.98389 56.784C4.98389 60.031 5.21042 63.2779 5.21042 66.6004C5.21042 67.129 5.96553 67.129 5.96553 66.6004C5.96553 63.3534 5.8145 60.1065 5.73899 56.784C5.73899 53.4615 6.04104 50.0636 6.04104 46.7411C6.11655 46.2125 5.28593 46.2125 5.28593 46.7411Z" fill="#9B9267"/>
<path d="M10.7981 55.8779C7.32462 56.0289 3.85112 55.8024 0.377632 55.8779C-0.150943 55.8779 -0.150943 56.7085 0.377632 56.633C3.85112 56.5575 7.32462 56.784 10.7981 56.633C11.2512 56.633 11.2512 55.8779 10.7981 55.8779Z" fill="#9B9267"/>
<path d="M6.79603 53.9146C5.66337 55.5758 4.15315 57.0105 3.02049 58.7473C2.71845 59.2004 3.39805 59.5779 3.70009 59.1248C4.83275 57.3881 6.26745 55.9534 7.47562 54.2922C7.70216 53.8391 7.02256 53.4615 6.79603 53.9146Z" fill="#9B9267"/>
<path d="M7.62667 58.2187C6.49401 56.784 5.28584 55.3493 4.07767 53.9901C3.77563 53.6126 3.17154 54.1411 3.5491 54.5187C4.75727 55.9534 5.96544 57.3126 7.0981 58.7473C7.40014 59.1248 7.92872 58.5963 7.62667 58.2187Z" fill="#9B9267"/>
<path d="M161.97 60.333C161.97 65.9208 161.442 71.5086 161.442 77.0209C161.442 82.7597 161.819 88.4985 161.819 94.2373C161.819 94.7659 162.575 94.7659 162.575 94.2373C162.575 88.4985 162.197 82.7597 162.197 77.0209C162.197 71.4331 162.65 65.8453 162.726 60.333C162.726 59.8044 161.97 59.8044 161.97 60.333Z" fill="#9B9267"/>
<path d="M171.032 76.2658C165.142 76.4923 159.177 76.1148 153.287 76.2658C152.758 76.2658 152.758 77.0964 153.287 77.0209C159.252 76.8699 165.142 77.2474 171.032 77.0209C171.56 77.0209 171.56 76.2658 171.032 76.2658Z" fill="#9B9267"/>
<path d="M164.387 72.7168C162.424 75.5862 159.856 78.0025 157.968 80.9474C157.666 81.4005 158.346 81.7781 158.648 81.325C160.536 78.3801 163.103 75.9637 165.067 73.0943C165.369 72.7168 164.689 72.2637 164.387 72.7168Z" fill="#9B9267"/>
<path d="M165.519 80.1168C163.556 77.625 161.442 75.2086 159.403 72.8678C159.101 72.4902 158.497 73.0188 158.875 73.3964C160.913 75.8127 163.028 78.2291 164.991 80.6454C165.217 81.0985 165.822 80.4944 165.519 80.1168Z" fill="#9B9267"/>
<path d="M36.6227 151.323C36.7738 150.87 37.5289 151.021 37.3778 151.55C37.3778 151.625 37.3778 151.625 37.3023 151.701C37.8309 153.513 41.9085 164.915 36.6982 164.085C32.3941 163.481 36.0187 153.513 36.6227 151.323Z" fill="#9B9267"/>
<path d="M142.111 243.597C142.262 243.144 143.017 243.295 142.866 243.824C142.866 243.9 142.866 243.9 142.791 243.975C143.319 245.787 147.397 257.189 142.187 256.359C137.883 255.679 141.432 245.787 142.111 243.597Z" fill="#9B9267"/>
<path d="M153.287 36.2451C153.438 35.7921 154.193 35.9431 154.042 36.4717C154.042 36.5472 154.042 36.5472 153.966 36.6227C154.495 38.4349 158.573 49.8371 153.362 49.0064C149.058 48.3268 152.683 38.3594 153.287 36.2451Z" fill="#9B9267"/>
<path d="M47.0431 18.4246C47.1942 17.9715 47.9493 18.1225 47.7983 18.6511C47.7983 18.7266 47.7983 18.7266 47.7227 18.8021C48.2513 20.6144 52.3289 32.0165 47.1187 31.1859C42.8146 30.5063 46.4391 20.5389 47.0431 18.4246Z" fill="#9B9267"/>
<path d="M63.5046 4.00205C63.3535 3.6245 63.278 3.54899 63.278 3.70001V3.77552C63.5046 3.32246 62.825 2.9449 62.5984 3.39797C62.2964 4.07756 62.976 4.90818 63.6556 4.37961C64.2597 3.85103 63.7311 2.86939 62.976 3.24694C62.2209 3.6245 62.7494 4.68165 63.429 4.45512C63.8066 4.37961 63.9576 3.92654 63.8066 3.6245C63.6556 3.24694 63.2025 3.17143 62.9005 3.47348C62.6739 3.85103 63.2025 4.37961 63.5046 4.00205Z" fill="#9B9267"/>
<path d="M57.4638 263.306C57.3128 262.928 57.2373 262.853 57.2373 263.004V263.079C57.4638 262.626 56.7842 262.249 56.5577 262.702C56.2556 263.381 56.9352 264.212 57.6148 263.683C58.2189 263.155 57.6903 262.173 56.9352 262.551C56.1801 262.928 56.7087 263.985 57.3883 263.759C57.7658 263.683 57.9168 263.23 57.7658 262.928C57.6148 262.551 57.1617 262.475 56.8597 262.777C56.5577 263.155 57.0862 263.683 57.4638 263.306Z" fill="#9B9267"/>
<path d="M46.0617 223.361C45.9107 222.983 45.8352 222.908 45.8352 223.059V223.134C46.0617 222.681 45.3821 222.303 45.1556 222.756C44.8535 223.436 45.5331 224.267 46.2127 223.738C46.8168 223.21 46.2882 222.228 45.5331 222.605C44.778 222.983 45.3066 224.04 45.9862 223.814C46.3637 223.738 46.5147 223.285 46.3637 222.983C46.2127 222.605 45.7596 222.53 45.4576 222.832C45.2311 223.21 45.7596 223.814 46.0617 223.361Z" fill="#9B9267"/>
<path d="M46.4391 239.746C46.2881 239.369 46.2126 239.293 46.2126 239.444V239.52C46.4391 239.067 45.7595 238.689 45.533 239.142C45.231 239.822 45.9105 240.653 46.5901 240.124C47.1942 239.595 46.6657 238.614 45.9105 238.991C45.1554 239.369 45.684 240.426 46.3636 240.2C46.7412 240.124 46.8922 239.671 46.7412 239.369C46.5901 238.991 46.1371 238.916 45.835 239.218C45.533 239.52 46.0616 240.124 46.4391 239.746Z" fill="#9B9267"/>
<path d="M170.05 39.5676C169.899 39.1901 169.824 39.1145 169.824 39.2656V39.3411C170.05 38.888 169.371 38.5105 169.144 38.9635C168.842 39.6431 169.522 40.4737 170.201 39.9452C170.805 39.4166 170.277 38.4349 169.522 38.8125C168.767 39.1901 169.295 40.2472 169.975 40.0207C170.352 39.9452 170.503 39.4921 170.352 39.1901C170.201 38.8125 169.748 38.737 169.446 39.039C169.22 39.4166 169.748 39.9452 170.05 39.5676Z" fill="#9B9267"/>
<path d="M95.7477 6.26737C95.5967 5.88982 95.5212 5.81431 95.5212 5.96533V6.04084C95.7477 5.58778 95.0681 5.21022 94.8416 5.66329C94.5395 6.34288 95.2191 7.1735 95.8987 6.64492C96.5028 6.11635 95.9742 5.13471 95.2191 5.51226C94.464 5.88982 94.9926 6.94697 95.6722 6.72044C96.0498 6.64492 96.2008 6.19186 96.0498 5.88982C95.8987 5.51226 95.4457 5.43675 95.1436 5.7388C94.8416 6.11635 95.4457 6.64492 95.7477 6.26737Z" fill="#9B9267"/>
<path d="M22.8798 105.715C22.7288 105.337 22.6533 105.262 22.6533 105.413V105.488C22.8798 105.035 22.2002 104.658 21.9737 105.111C21.6716 105.79 22.3512 106.621 23.0308 106.092C23.6349 105.564 23.1063 104.582 22.3512 104.96C21.5961 105.337 22.1247 106.395 22.8043 106.168C23.1818 106.093 23.3329 105.639 23.1818 105.337C23.0308 104.96 22.5778 104.884 22.2757 105.186C21.9737 105.564 22.5022 106.092 22.8798 105.715Z" fill="#9B9267"/>
<path d="M26.3532 160.913C26.2022 160.536 26.1267 160.46 26.1267 160.611V160.687C26.3532 160.234 25.6736 159.856 25.4471 160.309C25.145 160.989 25.8246 161.819 26.5042 161.291C27.1083 160.762 26.5797 159.781 25.8246 160.158C25.0695 160.536 25.5981 161.593 26.2777 161.366C26.6552 161.291 26.8062 160.838 26.6552 160.536C26.5042 160.158 26.0511 160.083 25.7491 160.385C25.5226 160.762 26.0511 161.291 26.3532 160.913Z" fill="#9B9267"/>
<path d="M4.07755 78.7577C3.92653 78.3801 3.85102 78.3046 3.85102 78.4556V78.5311C4.07755 78.0781 3.39796 77.7005 3.17142 78.1536C2.86938 78.8332 3.54898 79.6638 4.22857 79.1352C4.83266 78.6066 4.30408 77.625 3.54898 78.0026C2.79387 78.3801 3.32244 79.4373 4.00204 79.2107C4.37959 79.1352 4.53062 78.6822 4.37959 78.3801C4.22857 78.0026 3.77551 77.927 3.47347 78.2291C3.17142 78.6066 3.7 79.1352 4.07755 78.7577Z" fill="#9B9267"/>
<path d="M174.354 121.799C174.203 121.421 174.128 121.346 174.128 121.497V121.572C174.354 121.119 173.675 120.742 173.448 121.195C173.146 121.874 173.826 122.705 174.505 122.176C175.109 121.648 174.581 120.666 173.826 121.044C173.07 121.421 173.599 122.478 174.279 122.252C174.656 122.176 174.807 121.723 174.656 121.421C174.505 121.044 174.052 120.968 173.75 121.27C173.448 121.648 174.052 122.252 174.354 121.799Z" fill="#9B9267"/>
<path d="M26.4289 54.9718C26.2778 54.5942 26.2023 54.5187 26.2023 54.6697V54.7452C26.4289 54.2922 25.7493 53.9146 25.5227 54.3677C25.2207 55.0473 25.9003 55.8779 26.5799 55.3493C27.184 54.8208 26.6554 53.8391 25.9003 54.2167C25.1452 54.5942 25.6738 55.6514 26.3534 55.4248C26.7309 55.3493 26.8819 54.8963 26.7309 54.5942C26.5799 54.2167 26.1268 54.1412 25.8248 54.4432C25.5983 54.8208 26.1268 55.3493 26.4289 54.9718Z" fill="#9B9267"/>
<path d="M36.3962 234.159C36.2451 233.781 36.1696 233.706 36.1696 233.857V233.932C36.3962 233.479 35.7166 233.102 35.49 233.555C35.188 234.234 35.8676 235.065 36.5472 234.536C37.1513 234.008 36.6227 233.026 35.8676 233.404C35.1125 233.781 35.641 234.838 36.3206 234.612C36.6982 234.536 36.8492 234.083 36.6982 233.781C36.5472 233.404 36.0941 233.328 35.7921 233.63C35.5655 234.008 36.0941 234.536 36.3962 234.159Z" fill="#9B9267"/>
<path d="M150.946 231.818C150.795 231.44 150.719 231.365 150.719 231.516V231.591C150.946 231.138 150.266 230.761 150.04 231.214C149.738 231.893 150.417 232.724 151.097 232.195C151.701 231.667 151.172 230.685 150.417 231.063C149.662 231.44 150.191 232.497 150.87 232.271C151.248 232.195 151.399 231.742 151.248 231.44C151.097 231.063 150.644 230.987 150.342 231.289C150.115 231.591 150.644 232.195 150.946 231.818Z" fill="#9B9267"/>
<path d="M172.089 221.624C171.938 221.246 171.863 221.171 171.863 221.322V221.397C172.089 220.944 171.409 220.567 171.183 221.02C170.881 221.699 171.56 222.53 172.24 222.001C172.844 221.473 172.316 220.491 171.56 220.869C170.805 221.246 171.334 222.303 172.014 222.077C172.391 222.001 172.542 221.548 172.391 221.246C172.24 220.869 171.787 220.793 171.485 221.095C171.183 221.473 171.787 222.001 172.089 221.624Z" fill="#9B9267"/>
<path d="M194.063 146.189C193.912 145.811 193.836 145.736 193.836 145.887V145.962C194.063 145.509 193.383 145.132 193.157 145.585C192.854 146.264 193.534 147.095 194.214 146.566C194.818 146.038 194.289 145.056 193.534 145.434C192.779 145.811 193.308 146.868 193.987 146.642C194.365 146.566 194.516 146.113 194.365 145.811C194.214 145.434 193.761 145.358 193.459 145.66C193.157 145.962 193.685 146.566 194.063 146.189Z" fill="#9B9267"/>
<path d="M148.001 83.2127C147.85 82.8352 147.775 82.7597 147.775 82.9107V82.9862C148.001 82.5332 147.322 82.1556 147.095 82.6087C146.793 83.2883 147.473 84.1189 148.152 83.5903C148.756 83.0617 148.228 82.0801 147.473 82.4576C146.717 82.8352 147.246 83.8923 147.926 83.6658C148.303 83.5903 148.454 83.1372 148.303 82.8352C148.152 82.4576 147.699 82.3821 147.397 82.6842C147.171 83.0617 147.699 83.5903 148.001 83.2127Z" fill="#9B9267"/>
<path d="M139.997 65.2412C139.846 64.8636 139.77 64.7881 139.77 64.9391V65.0147C139.997 64.5616 139.317 64.184 139.091 64.6371C138.789 65.3167 139.468 66.1473 140.148 65.6187C140.752 65.0902 140.224 64.1085 139.468 64.4861C138.713 64.8636 139.242 65.9208 139.921 65.6943C140.299 65.6187 140.45 65.1657 140.299 64.8636C140.148 64.4861 139.695 64.4106 139.393 64.7126C139.091 65.0902 139.619 65.6187 139.997 65.2412Z" fill="#9B9267"/>
<path d="M12.1574 96.2761C12.3839 98.2394 13.5166 99.8251 15.2533 100.807C15.7064 101.033 16.084 100.354 15.6309 100.127C14.1962 99.3721 13.139 97.9374 12.9125 96.2761C12.837 95.8231 12.0819 95.8231 12.1574 96.2761Z" fill="#9B9267"/>
<path d="M15.1778 99.9761C13.3655 100.807 12.2329 102.695 12.4594 104.733C12.5349 105.262 13.29 105.262 13.2145 104.733C13.0635 102.997 13.9696 101.411 15.5553 100.656C16.0084 100.429 15.6308 99.7496 15.1778 99.9761Z" fill="#9B9267"/>
<path d="M13.1389 104.809C12.8369 103.072 11.6287 101.562 10.043 100.882C9.58995 100.656 9.21239 101.335 9.66546 101.562C11.1757 102.166 12.1573 103.45 12.4594 105.035C12.4594 105.488 13.2145 105.262 13.1389 104.809Z" fill="#9B9267"/>
<path d="M9.66554 101.486C11.8554 100.882 12.4594 98.617 12.837 96.6537C12.9125 96.1251 12.1574 95.9741 12.0819 96.4271C11.7798 98.0884 11.4023 100.203 9.51452 100.731C8.98595 100.882 9.21248 101.637 9.66554 101.486Z" fill="#9B9267"/>
<path d="M186.511 182.056C186.36 181.679 186.285 181.603 186.285 181.754V181.83C186.511 181.377 185.832 180.999 185.605 181.452C185.303 182.132 185.983 182.962 186.662 182.434C187.266 181.905 186.738 180.924 185.983 181.301C185.228 181.679 185.756 182.736 186.436 182.509C186.813 182.434 186.964 181.981 186.813 181.679C186.662 181.301 186.209 181.226 185.907 181.528C185.681 181.905 186.209 182.434 186.511 182.056Z" fill="#9B9267"/>
<path d="M175.789 172.617C176.015 174.581 177.148 176.166 178.885 177.148C179.338 177.375 179.715 176.695 179.262 176.468C177.828 175.713 176.77 174.279 176.544 172.617C176.544 172.164 175.789 172.089 175.789 172.617Z" fill="#9B9267"/>
<path d="M178.885 176.317C177.073 177.148 175.94 179.036 176.166 181.075C176.242 181.603 176.997 181.603 176.922 181.075C176.771 179.338 177.677 177.752 179.262 176.997C179.715 176.771 179.338 176.091 178.885 176.317Z" fill="#9B9267"/>
<path d="M176.846 181.075C176.544 179.338 175.336 177.828 173.75 177.148C173.297 176.922 172.919 177.601 173.372 177.828C174.883 178.432 175.864 179.715 176.166 181.301C176.166 181.83 176.921 181.603 176.846 181.075Z" fill="#9B9267"/>
<path d="M173.373 177.828C175.562 177.224 176.166 174.958 176.544 172.995C176.619 172.466 175.864 172.315 175.789 172.768C175.487 174.43 175.109 176.544 173.221 177.073C172.693 177.224 172.844 177.979 173.373 177.828Z" fill="#9B9267"/>
<path d="M24.239 20.3879C24.4655 22.3512 25.5982 23.9369 27.335 24.9185C27.788 25.1451 28.1656 24.4655 27.7125 24.2389C26.2778 23.4838 25.2207 22.0491 24.9941 20.3879C24.9941 19.8593 24.239 19.8593 24.239 20.3879Z" fill="#9B9267"/>
<path d="M27.335 24.0879C25.5227 24.9185 24.3901 26.8063 24.6166 28.8451C24.6921 29.3736 25.4472 29.3736 25.3717 28.8451C25.2207 27.1083 26.1268 25.5226 27.7126 24.7675C28.1656 24.541 27.7881 23.8614 27.335 24.0879Z" fill="#9B9267"/>
<path d="M25.2207 28.8451C24.9187 27.1083 23.7105 25.5981 22.1248 24.9185C21.6717 24.692 21.2942 25.3716 21.7472 25.5981C23.2575 26.2022 24.2391 27.4859 24.5411 29.0716C24.6167 29.5247 25.3718 29.3736 25.2207 28.8451Z" fill="#9B9267"/>
<path d="M21.8227 25.5981C24.0125 24.994 24.6166 22.7287 24.9941 20.7654C25.0697 20.2369 24.3146 20.0858 24.239 20.5389C23.937 22.2001 23.5594 24.3144 21.6717 24.843C21.1431 24.994 21.2941 25.7491 21.8227 25.5981Z" fill="#9B9267"/>
<path d="M73.019 7.02246C74.0007 6.94695 74.9823 7.47553 75.2088 8.53268C75.4354 9.58982 74.6047 10.5715 73.5476 10.647C72.4904 10.647 71.6598 9.81636 71.6598 8.75921C71.6598 7.70206 72.4904 6.94695 73.4721 6.79593C74.0007 6.72042 73.7741 5.96531 73.2455 6.04082C71.8108 6.26735 70.6782 7.55104 70.8292 8.98574C70.9802 10.4204 72.2639 11.5531 73.6986 11.4021C75.0578 11.2511 76.0394 9.96738 75.8884 8.60819C75.7374 7.09797 74.3782 6.11633 72.9435 6.26735C72.4904 6.26735 72.4904 7.09797 73.019 7.02246Z" fill="#9B9267"/>
<path d="M58.1433 280.145C59.1249 280.069 60.1066 280.598 60.3331 281.655C60.5596 282.712 59.729 283.694 58.6719 283.769C57.6147 283.769 56.7841 282.939 56.7841 281.881C56.7841 280.824 57.6147 280.069 58.5963 279.918C59.1249 279.843 58.8984 279.088 58.3698 279.163C56.9351 279.39 55.8025 280.673 55.9535 282.108C56.1045 283.543 57.3882 284.675 58.8229 284.524C60.1821 284.373 61.1637 283.09 61.0127 281.73C60.8617 280.22 59.5025 279.239 58.0678 279.39C57.6147 279.39 57.6147 280.145 58.1433 280.145Z" fill="#9B9267"/>
<path d="M50.5168 167.86C51.4985 167.785 52.4801 168.313 52.7066 169.37C52.9332 170.428 52.1025 171.409 51.0454 171.485C49.9882 171.485 49.1576 170.654 49.1576 169.597C49.1576 168.54 49.9882 167.785 50.9699 167.634C51.4985 167.558 51.2719 166.803 50.7433 166.879C49.3086 167.105 48.176 168.389 48.327 169.824C48.478 171.258 49.7617 172.391 51.1964 172.24C52.5556 172.089 53.5372 170.805 53.3862 169.446C53.2352 167.936 51.876 166.954 50.4413 167.105C49.9882 167.105 49.9882 167.936 50.5168 167.86Z" fill="#9B9267"/>
<path d="M161.215 217.697C162.197 217.622 163.179 218.15 163.405 219.208C163.632 220.265 162.801 221.246 161.744 221.322C160.687 221.322 159.856 220.491 159.856 219.434C159.856 218.377 160.687 217.622 161.668 217.471C162.197 217.395 161.97 216.64 161.442 216.716C160.007 216.942 158.874 218.226 159.025 219.661C159.177 221.095 160.46 222.228 161.895 222.077C163.254 221.926 164.236 220.642 164.085 219.283C163.934 217.773 162.574 216.791 161.14 216.942C160.687 217.018 160.687 217.773 161.215 217.697Z" fill="#9B9267"/>
<path d="M31.6391 207.277C32.6208 207.201 33.6024 207.73 33.8289 208.787C34.0555 209.844 33.2249 210.826 32.1677 210.901C31.1106 210.901 30.2799 210.071 30.2799 209.014C30.2799 207.956 31.1106 207.201 32.0922 207.05C32.6208 206.975 32.3942 206.22 31.8657 206.295C30.431 206.522 29.2983 207.805 29.4493 209.24C29.6003 210.675 30.884 211.807 32.3187 211.656C33.6779 211.505 34.6596 210.222 34.5085 208.863C34.3575 207.352 32.9983 206.371 31.5636 206.522C31.1106 206.597 31.1106 207.352 31.6391 207.277Z" fill="#9B9267"/>
<path d="M173.977 92.5761C174.958 92.5006 175.94 93.0292 176.167 94.0863C176.393 95.1435 175.563 96.1251 174.505 96.2006C173.448 96.2006 172.618 95.37 172.618 94.3129C172.618 93.2557 173.448 92.5006 174.43 92.3496C174.958 92.2741 174.732 91.519 174.203 91.5945C172.769 91.821 171.636 93.1047 171.787 94.5394C171.938 95.9741 173.222 97.1067 174.656 96.9557C176.016 96.8047 176.997 95.521 176.846 94.1618C176.695 92.6516 175.336 91.67 173.901 91.821C173.524 91.821 173.524 92.6516 173.977 92.5761Z" fill="#9B9267"/>
<path d="M24.6921 134.711C25.6738 134.636 26.6554 135.164 26.8819 136.221C27.1085 137.278 26.2778 138.26 25.2207 138.336C24.1635 138.336 23.3329 137.505 23.3329 136.448C23.3329 135.391 24.1635 134.636 25.1452 134.485C25.6738 134.409 25.4472 133.654 24.9186 133.729C23.4839 133.956 22.3513 135.24 22.5023 136.674C22.6533 138.109 23.937 139.242 25.3717 139.091C26.7309 138.94 27.7125 137.656 27.5615 136.297C27.4105 134.787 26.0513 133.805 24.6166 133.956C24.239 133.956 24.239 134.711 24.6921 134.711Z" fill="#9B9267"/>
<path d="M180.848 152.305C181.83 152.23 182.811 152.758 183.038 153.815C183.264 154.872 182.434 155.854 181.377 155.93C180.32 155.93 179.489 155.099 179.489 154.042C179.489 152.985 180.32 152.23 181.301 152.079C181.83 152.003 181.603 151.248 181.075 151.323C179.64 151.55 178.507 152.834 178.658 154.268C178.809 155.703 180.093 156.836 181.528 156.685C182.887 156.534 183.869 155.25 183.718 153.891C183.567 152.381 182.207 151.399 180.773 151.55C180.32 151.625 180.32 152.381 180.848 152.305Z" fill="#9B9267"/>
<path d="M93.1802 280.673C78.7576 280.673 68.5637 277.275 64.5616 275.689C63.278 275.161 62.4473 273.877 62.5228 272.518C62.8249 267.006 63.429 248.279 60.7861 237.028C59.729 232.648 57.9167 229.024 56.0289 225.248C52.1779 217.546 47.7983 208.863 48.0248 190.438C48.3268 164.311 43.2676 139.921 38.9635 123.989C35.1125 109.717 32.092 96.5026 33.8288 79.8148C34.4329 73.8494 34.2819 69.3188 34.1308 65.6188C33.9043 59.2003 33.7533 55.3493 39.039 53.6126C40.9268 53.0085 42.739 53.4615 44.4003 54.8962C49.233 59.1248 51.5738 71.7351 49.535 82.4576C49.4595 82.9862 49.4595 83.4393 49.686 83.8923C50.8187 86.6862 53.6881 94.2373 55.1228 103.903C57.2371 117.872 59.5024 123.913 61.0881 126.556C61.3902 127.084 61.2392 127.764 60.7106 127.991C60.182 128.293 59.5024 128.142 59.2759 127.613C56.9351 123.535 54.8208 115.607 53.084 104.205C51.6493 94.7659 48.8554 87.3658 47.7983 84.6474C47.4962 83.8168 47.3452 82.9107 47.5717 82.0046C49.686 71.0555 46.8921 59.7289 43.1166 56.4064C42.0595 55.5003 41.0023 55.1983 39.8696 55.5758C36.3206 56.7085 36.2451 58.7473 36.4717 65.3922C36.6227 69.0922 36.7737 73.7739 36.1696 79.8903C34.4329 96.2761 37.4533 109.264 41.2288 123.309C45.5329 139.317 50.6677 164.009 50.3656 190.362C50.1391 208.258 54.4432 216.716 58.1432 224.191C60.1065 228.118 61.9188 231.742 63.0514 236.424C65.7698 247.977 65.0902 267.006 64.8637 272.518C64.8637 272.971 65.0902 273.424 65.5433 273.575C72.0372 276.218 95.5965 283.769 127.462 272.14C127.915 271.989 128.217 271.536 128.142 271.083C127.84 266.402 127.236 249.789 132.521 230.836C132.672 230.232 133.276 229.93 133.88 230.081C134.485 230.232 134.787 230.836 134.636 231.44C129.501 250.016 130.029 266.402 130.331 270.932C130.407 272.367 129.576 273.726 128.217 274.179C114.776 279.087 102.997 280.673 93.1802 280.673Z" fill="#AB9F6E"/>
<path d="M127.613 234.687C127.085 234.687 126.631 234.31 126.556 233.781C126.48 233.177 126.858 232.648 127.462 232.573C127.689 232.573 147.095 229.401 159.554 189.758C164.462 174.279 167.105 163.707 169.22 155.25C172.617 141.809 174.43 134.409 181.603 123.686C188.399 113.493 187.418 110.246 186.662 109.264C185.303 107.603 181.15 107.98 175.562 110.246C164.84 114.55 159.479 125.046 154.721 139.393C150.342 152.758 141.356 158.421 140.978 158.648C140.45 158.95 139.77 158.799 139.468 158.27C139.166 157.742 139.317 157.138 139.846 156.76C139.921 156.685 148.53 151.248 152.683 138.638C156.911 125.725 162.575 113.039 174.732 108.131C179.489 106.243 185.681 104.582 188.324 107.829C190.665 110.699 189.003 116.437 183.416 124.819C176.393 135.24 174.732 142.111 171.334 155.703C169.219 164.236 166.577 174.807 161.593 190.362C148.605 231.44 128.519 234.536 127.689 234.612C127.689 234.687 127.689 234.687 127.613 234.687Z" fill="#AB9F6E"/>
<path d="M54.4432 133.578C54.2922 133.578 54.0657 133.503 53.9902 133.427C53.6881 133.125 53.6881 132.672 53.9146 132.446C54.0657 132.295 57.8412 128.142 62.7494 125.348C64.8637 124.14 66.6004 123.46 68.1107 122.856C70.0739 122.101 71.7352 121.421 73.925 119.76C74.227 119.533 74.6801 119.609 74.9066 119.911C75.1331 120.213 75.0576 120.666 74.7556 120.893C72.4148 122.629 70.527 123.384 68.5637 124.14C67.0535 124.744 65.4678 125.348 63.3535 126.556C58.6718 129.199 54.8963 133.352 54.8963 133.352C54.8208 133.503 54.5942 133.578 54.4432 133.578Z" fill="#AB9F6E"/>
<path d="M142.489 157.213C142.187 157.213 141.96 157.138 141.733 156.911C139.846 155.099 135.768 145.585 135.919 129.123C135.995 120.364 134.56 112.435 133.125 104.129C131.842 96.8802 130.482 89.4046 130.18 81.174C129.652 67.5065 127.764 57.6901 126.933 54.1411C126.707 53.084 126.631 51.9513 126.631 50.8187C127.009 32.092 122.554 20.1613 118.174 17.0654C117.193 16.3858 116.286 16.1593 115.456 16.4613C112.209 17.6695 112.209 20.9919 112.662 31.5634C112.813 35.0369 113.039 39.341 113.039 44.4003C113.115 51.2717 113.341 57.0105 113.568 62.5228C113.946 72.4902 114.323 81.0985 113.417 91.5944C112.058 107.754 108.056 114.927 107.905 115.229C107.678 115.607 107.225 115.833 106.848 115.758C106.394 115.682 106.092 115.38 105.941 115.003C103.525 106.168 102.694 82.3066 102.241 70.829V69.9984C102.09 66.3739 101.864 62.6738 101.562 58.8228C100.958 51.3472 100.354 42.8145 100.354 30.3553C100.354 15.3286 96.5781 5.58776 93.0291 2.94489C92.123 2.26529 91.2924 2.11427 90.5373 2.3408C86.1576 3.62448 84.9495 5.73878 85.025 17.9715C85.1005 29.5247 84.5719 41.1533 83.4392 53.6881C82.3066 65.8453 82.6086 75.8882 83.5148 90.1597C84.4964 105.111 83.5148 115.607 83.5148 115.682C83.4392 116.286 82.9862 116.739 82.3821 116.664C81.778 116.664 81.3249 116.211 81.3249 115.607C80.8719 100.354 78.3045 89.6312 75.9637 80.1923C75.7372 79.1352 75.4351 78.078 75.2086 77.0209C73.0188 67.9596 72.8678 56.4065 72.7167 47.1186C72.7167 45.6084 72.6412 44.2492 72.6412 42.89C72.4902 34.7349 70.2249 22.2001 66.3738 19.8593C65.6187 19.4062 64.9391 19.4062 64.1085 19.7838C58.2942 22.4266 58.2942 28.8451 59.0493 38.2084L59.2003 39.7186C59.8799 47.8737 60.2575 53.235 59.4268 66.1473C58.8983 74.1515 59.0493 79.8148 59.2758 86.3087C59.4268 90.8393 59.5779 95.5965 59.4268 101.562C59.2003 115.984 60.786 126.254 60.786 126.329C60.8615 126.933 60.484 127.462 59.8799 127.538C59.2758 127.613 58.7472 127.235 58.6717 126.631C58.6717 126.556 57.086 116.06 57.237 101.486C57.3125 95.521 57.1615 90.8393 57.086 86.3087C56.935 79.9658 56.7085 74.0004 57.237 65.9208C58.0677 53.1595 57.6146 47.8737 57.0105 39.7941L56.8595 38.2839C56.1799 29.9022 55.5003 21.2185 63.1269 17.745C64.6371 17.0654 66.0718 17.1409 67.431 17.9715C72.4902 21.143 74.6045 34.9614 74.7555 42.89C74.7555 44.2492 74.831 45.6084 74.831 47.1186C74.982 56.2554 75.1331 67.6576 77.2474 76.4923C77.4739 77.5495 77.7759 78.6066 78.0025 79.6637C79.2107 84.6475 80.5698 90.0087 81.5515 96.2006C81.476 94.3128 81.4005 92.274 81.2494 90.1597C80.3433 76.1147 80.0413 65.5432 81.1739 53.3105C82.3066 40.8513 82.8352 29.2981 82.7596 17.8205C82.7596 6.04083 83.6658 2.03876 89.8577 0.150991C91.2924 -0.302073 92.8026 0.0754806 94.2373 1.13263C99.1455 4.83265 102.468 16.4613 102.392 30.2042C102.392 42.588 102.997 51.0452 103.601 58.5208C103.903 62.3718 104.205 66.0718 104.28 69.7718V70.6025C104.658 79.9658 105.413 100.656 107.225 111.076C108.509 107.678 110.397 101.184 111.227 91.2924C112.133 80.9474 111.756 72.3392 111.378 62.4473C111.152 57.1616 110.925 51.1207 110.85 44.2492C110.774 39.2655 110.623 34.9614 110.472 31.4879C110.019 20.9164 109.792 16.0837 114.701 14.2715C115.758 13.8939 117.419 13.7429 119.382 15.1776C124.366 18.7266 129.199 31.1104 128.746 50.7432C128.746 51.7248 128.821 52.7064 128.972 53.6126C129.727 57.2371 131.691 67.129 132.219 81.0229C132.521 89.1026 133.88 96.5781 135.164 103.752C136.674 112.209 138.109 120.213 138.033 129.199C137.882 146.34 142.413 154.57 143.244 155.401C143.697 155.779 143.697 156.458 143.244 156.911C143.017 157.138 142.791 157.213 142.489 157.213Z" fill="#AB9F6E"/>
<path d="M79.5883 117.57C79.2863 117.57 79.0597 117.419 78.9087 117.117C78.7577 116.74 78.9087 116.362 79.2863 116.211C79.3618 116.211 81.4761 115.38 85.2516 115.305C85.6292 115.305 86.0067 115.607 86.0067 115.984C86.0067 116.362 85.7047 116.74 85.3271 116.74C81.7781 116.815 79.8903 117.57 79.8148 117.57C79.8148 117.57 79.6638 117.57 79.5883 117.57Z" fill="#AB9F6E"/>
<path d="M111.378 116.664C111.303 116.664 111.303 116.664 111.227 116.664C107.603 115.909 104.356 115.984 103.148 116.06C103.072 116.06 102.997 116.06 102.997 116.06C102.619 116.06 102.241 115.758 102.241 115.305C102.241 114.927 102.544 114.625 102.921 114.55C104.582 114.474 107.829 114.399 111.454 115.154C111.831 115.229 112.058 115.607 111.982 115.984C112.058 116.437 111.756 116.664 111.378 116.664Z" fill="#AB9F6E"/>
<path d="M66.6759 234.234C66.5249 234.234 66.4494 234.234 66.3738 234.159C66.1473 234.008 60.635 231.063 57.3126 226.91C57.086 226.608 57.086 226.155 57.4636 225.928C57.7656 225.701 58.2187 225.701 58.4452 226.079C61.6167 230.006 66.9779 232.95 67.0534 232.95C67.431 233.101 67.5065 233.555 67.3555 233.932C67.2045 234.083 66.9024 234.234 66.6759 234.234Z" fill="#AB9F6E"/>
<path d="M64.1085 158.874C66.5248 157.289 68.5636 155.325 70.2248 152.909C70.6779 152.305 69.6207 151.701 69.1677 152.305C67.6575 154.57 65.7697 156.383 63.5044 157.817C62.9003 158.195 63.5044 159.252 64.1085 158.874Z" fill="#AB9F6E"/>
<path d="M63.0514 163.028C68.2617 162.726 72.1882 159.856 75.9638 156.609C80.6454 152.607 85.3271 149.285 91.519 148.303C97.6353 147.321 103.978 148.605 109.264 151.852C113.87 154.721 117.721 158.572 123.007 160.309C123.762 160.536 124.064 159.403 123.309 159.177C117.419 157.289 113.342 152.532 107.905 149.738C103.525 147.472 98.5415 146.491 93.6333 146.868C88.6496 147.246 83.8924 148.907 79.8903 151.852C74.5291 155.779 70.1494 161.366 63.0514 161.819C62.2963 161.895 62.2963 163.103 63.0514 163.028Z" fill="#AB9F6E"/>
<path d="M67.6577 161.744C75.6618 168.238 85.8558 172.844 96.3518 171.636C105.413 170.579 113.719 165.519 118.703 157.817C119.156 157.213 118.099 156.609 117.646 157.213C112.662 164.84 104.28 169.748 95.2946 170.503C85.4782 171.334 75.9639 166.954 68.4883 160.838C67.9597 160.385 67.0536 161.215 67.6577 161.744Z" fill="#AB9F6E"/>
<path d="M72.0373 161.291C77.7761 155.93 83.7414 150.644 91.6701 149.209C100.203 147.699 108.66 150.795 114.625 156.911C115.154 157.44 115.984 156.609 115.456 156.081C109.491 149.964 101.26 146.793 92.7272 147.85C83.968 148.907 77.3985 154.57 71.2067 160.385C70.6026 160.913 71.4332 161.744 72.0373 161.291Z" fill="#AB9F6E"/>
<path d="M69.4699 161.895C70.9046 161.366 72.1128 160.611 73.2454 159.554C73.774 159.025 72.9434 158.195 72.4148 158.723C71.5087 159.63 70.376 160.309 69.1679 160.762C68.4128 160.989 68.7148 162.197 69.4699 161.895Z" fill="#AB9F6E"/>
<path d="M114.927 156.458C115.758 157.062 116.588 157.666 117.419 158.27C118.023 158.723 118.627 157.666 118.023 157.213C117.193 156.609 116.362 156.005 115.531 155.401C114.927 155.023 114.323 156.081 114.927 156.458Z" fill="#AB9F6E"/>
<path d="M84.874 150.115C80.7964 152.909 79.4372 158.044 80.6454 162.801C81.9291 167.86 86.3087 171.032 91.2924 171.787C92.0475 171.938 92.3496 170.73 91.5945 170.654C87.5169 169.975 83.5903 167.709 82.1556 163.632C80.5699 159.252 81.476 153.891 85.4781 151.172C86.0822 150.719 85.4781 149.662 84.874 150.115Z" fill="#AB9F6E"/>
<path d="M99.2966 171.107C108.282 166.879 111.001 153.136 101.184 148.001C100.505 147.623 99.9006 148.681 100.58 149.058C109.717 153.891 106.848 166.275 98.6925 170.126C98.0129 170.428 98.617 171.485 99.2966 171.107Z" fill="#AB9F6E"/>
<path d="M94.2374 155.325C92.3497 155.174 90.5374 156.534 90.3864 158.497C90.2354 160.46 91.6701 162.197 93.7089 162.272C95.6721 162.348 97.3334 160.687 97.3334 158.723C97.3334 156.76 95.5211 155.325 93.6333 155.401C92.8782 155.401 92.8782 156.609 93.6333 156.609C96.8048 156.534 96.8803 161.215 93.7089 161.064C92.4252 160.989 91.4435 159.781 91.5946 158.497C91.7456 157.138 92.9538 156.383 94.2374 156.458C94.9925 156.534 94.9925 155.401 94.2374 155.325Z" fill="#AB9F6E"/>
<path d="M93.7842 156.005C91.972 155.779 90.7638 158.119 92.1985 159.403C93.4822 160.46 95.521 159.328 95.1434 157.666C94.6904 155.854 92.0475 155.93 91.67 157.742C91.2924 159.403 93.2557 160.687 94.6904 159.781C96.1251 158.799 95.672 156.383 93.8598 156.383C92.1985 156.383 90.9904 158.874 92.0475 160.083C93.1802 161.517 95.672 160.536 95.7475 158.799C95.823 157.062 93.7087 156.156 92.5761 157.515C91.4434 158.95 91.821 161.517 94.0108 161.366C95.5965 161.215 96.6537 159.025 95.672 157.742C94.3128 156.081 92.274 158.572 92.1985 159.932C92.123 161.97 94.5394 162.121 95.5965 160.762C96.1251 160.083 96.4271 159.101 96.1251 158.27C95.8986 157.515 95.1434 157.062 94.3883 157.364C93.0291 157.893 92.0475 160.309 93.5577 161.215C95.219 162.272 97.0312 160.083 96.4271 158.497C96.2006 157.817 95.521 157.364 94.8414 157.515C94.0108 157.666 93.3312 158.648 93.1802 159.403C93.0291 160.234 93.6332 160.989 94.5394 160.762C95.5965 160.536 95.8985 159.101 95.8985 158.195C95.8985 157.44 95.521 156.534 94.6149 156.685C93.7087 156.836 93.4067 158.119 93.4067 158.874C93.4067 159.705 94.0108 160.611 94.9169 160.46C95.9741 160.309 96.2006 159.177 96.1251 158.27C96.0496 157.44 95.672 156.458 94.6904 156.534C93.5577 156.609 93.2557 158.044 93.2557 158.95C93.2557 159.705 94.4638 159.705 94.4638 158.95C94.4638 158.723 94.4638 158.119 94.6904 157.893C95.0679 157.591 95.0679 158.27 94.9924 158.421C95.0679 158.723 94.9169 158.799 94.6149 158.723C94.6149 158.572 94.6904 158.421 94.6904 158.346C94.7659 158.119 94.8414 157.968 94.7659 157.742C94.9169 157.968 94.7659 158.497 94.6904 158.648C94.6149 158.799 94.2373 159.328 94.5394 159.101C94.6149 158.95 94.7659 158.799 94.8414 158.572C94.9924 158.723 95.219 158.799 95.37 158.95C95.4455 159.252 95.0679 159.856 94.8414 160.007C93.7842 160.611 94.0863 159.101 94.4638 158.648C95.219 157.817 95.0679 159.101 94.7659 159.554C94.6149 159.781 94.2373 160.158 93.9353 160.234C93.1802 160.309 93.2557 159.63 93.4822 159.252C93.6332 158.874 94.6904 157.515 94.8414 158.648C94.9169 159.328 94.3128 160.158 93.6332 159.932C92.8026 159.705 93.1047 158.346 93.7087 157.968C94.6149 157.44 94.8414 158.874 93.9353 159.252C92.8781 159.705 92.6516 158.648 93.1047 157.893C93.3312 157.515 93.6332 157.213 94.0863 157.44C94.4638 157.666 94.4638 158.044 94.3128 158.346C93.8598 159.101 92.5761 158.572 93.0291 157.742C93.6332 156.458 94.8414 158.497 93.4822 158.421C92.9536 158.421 92.7271 157.893 92.9536 157.44C93.1047 156.987 93.4822 156.911 93.8598 156.987C94.5394 157.289 94.4638 156.081 93.7842 156.005Z" fill="#AB9F6E"/>
<path d="M95.1435 156.005C94.6149 154.57 94.3128 152.079 96.3516 151.701C98.5414 151.248 98.5414 154.193 98.1639 155.552C97.9373 156.307 99.07 156.609 99.2965 155.854C99.6741 154.57 99.7496 153.136 99.07 151.928C98.5414 151.021 97.5598 150.417 96.5026 150.493C93.5577 150.644 93.1802 154.193 94.0863 156.307C94.2373 156.987 95.37 156.685 95.1435 156.005Z" fill="#AB9F6E"/>
<path d="M98.3905 156.232C102.09 157.893 104.205 161.291 104.054 165.368C104.054 166.123 105.186 166.123 105.262 165.368C105.413 160.913 103.072 157.062 98.9945 155.174C98.315 154.872 97.7109 155.93 98.3905 156.232Z" fill="#AB9F6E"/>
<path d="M91.2925 157.213C85.6292 156.156 81.0231 161.215 82.6088 166.803C82.8353 167.558 83.968 167.256 83.7415 166.501C82.3823 161.895 86.1578 157.515 90.915 158.421C91.7456 158.497 92.0476 157.364 91.2925 157.213Z" fill="#AB9F6E"/>
<path d="M82.7597 164.16C83.3638 159.705 87.3659 156.836 91.821 157.968C92.5761 158.119 92.8782 156.987 92.123 156.836C87.1393 155.628 82.3067 158.723 81.6271 163.858C81.476 164.613 82.6842 164.915 82.7597 164.16Z" fill="#AB9F6E"/>
<path d="M82.4577 162.725C82.6842 160.913 84.7985 158.95 86.3087 158.044C88.1965 156.911 90.3108 156.685 92.3496 157.515C93.0292 157.817 93.4067 156.609 92.6516 156.383C88.3475 154.797 81.7781 157.817 81.2495 162.725C81.174 163.481 82.3821 163.481 82.4577 162.725Z" fill="#AB9F6E"/>
<path d="M82.08 161.442C84.0433 158.195 88.8759 154.721 92.6515 156.987C93.3311 157.364 93.9352 156.383 93.2556 155.93C88.8759 153.362 83.2882 156.987 81.0228 160.838C80.6453 161.517 81.7024 162.121 82.08 161.442Z" fill="#AB9F6E"/>
<path d="M81.7026 160.536C84.421 156.76 88.9516 154.495 93.4067 156.836C94.0863 157.213 94.6904 156.156 94.0108 155.779C88.9516 153.06 83.8169 155.552 80.6454 159.856C80.2679 160.536 81.2495 161.14 81.7026 160.536Z" fill="#AB9F6E"/>
<path d="M94.3127 155.552C90.3107 152.079 83.5902 155.628 80.8718 159.101C80.4188 159.705 81.2494 160.536 81.7025 159.932C83.9678 157.062 89.9331 153.362 93.4821 156.383C94.0862 156.836 94.9168 156.005 94.3127 155.552Z" fill="#AB9F6E"/>
<path d="M81.4005 159.479C84.2699 155.854 89.1025 153.362 93.5577 155.703C94.2373 156.081 94.8414 155.023 94.1618 154.646C89.2536 152.003 83.8168 154.419 80.5698 158.572C80.1168 159.176 80.9474 160.083 81.4005 159.479Z" fill="#AB9F6E"/>
<path d="M81.778 157.742C84.7984 154.57 88.9515 153.513 93.1801 154.797C93.9352 155.023 94.2372 153.891 93.4821 153.664C88.876 152.23 84.2698 153.438 80.9474 156.911C80.4188 157.44 81.2494 158.346 81.778 157.742Z" fill="#AB9F6E"/>
<path d="M82.3822 156.609C84.8741 153.362 90.3864 153.438 93.9354 154.57C94.6905 154.797 94.9925 153.664 94.2374 153.438C90.3108 152.154 84.3455 152.23 81.5516 155.779C81.023 156.383 81.9292 157.213 82.3822 156.609Z" fill="#AB9F6E"/>
<path d="M82.7597 155.628C85.7046 152.985 89.5557 152.305 93.3312 153.664C94.0863 153.891 94.3883 152.758 93.6332 152.532C89.4801 151.097 85.2515 151.927 81.9291 154.797C81.325 155.325 82.1556 156.156 82.7597 155.628Z" fill="#AB9F6E"/>
<path d="M83.1374 154.344C86.5353 152.381 90.3864 152.154 94.0109 153.513C94.6905 153.815 94.9925 152.607 94.313 152.381C90.3864 150.87 86.1578 151.172 82.5333 153.287C81.8537 153.74 82.4578 154.721 83.1374 154.344Z" fill="#AB9F6E"/>
<path d="M83.6658 153.287C85.6291 152.079 87.7434 151.172 90.0087 150.644C90.7638 150.493 90.4618 149.36 89.7067 149.511C87.3659 150.04 85.1005 151.021 83.0617 152.305C82.4577 152.607 83.0617 153.664 83.6658 153.287Z" fill="#AB9F6E"/>
<path d="M84.1943 151.852C84.1188 151.927 84.0433 152.003 83.9678 152.003C83.4392 152.456 84.1188 153.211 84.7229 152.909C88.876 150.795 93.2556 149.738 97.8618 149.662C98.6169 149.662 98.6169 148.454 97.8618 148.454C93.0291 148.529 88.4229 149.662 84.1188 151.852C84.3454 152.154 84.5719 152.456 84.8739 152.758C84.9494 152.683 85.025 152.607 85.1005 152.607C85.5535 152.154 84.7229 151.323 84.1943 151.852Z" fill="#AB9F6E"/>
<path d="M85.7046 152.758C89.0271 151.55 92.3496 150.946 95.8986 150.87C96.6537 150.87 96.6537 149.662 95.8986 149.662C92.2741 149.662 88.8006 150.266 85.4026 151.55C84.723 151.927 85.0251 153.06 85.7046 152.758Z" fill="#AB9F6E"/>
<path d="M88.9516 152.607C91.3679 151.777 93.7843 151.021 96.1251 150.191C96.8802 149.964 96.5027 148.832 95.8231 149.058C93.4067 149.889 90.9904 150.644 88.6495 151.474C87.8944 151.701 88.1965 152.909 88.9516 152.607Z" fill="#AB9F6E"/>
<path d="M92.0476 151.55C91.9721 151.55 91.9721 151.55 91.8966 151.55C91.9721 151.927 91.9721 152.305 92.0476 152.683C93.4823 152.154 94.8415 151.625 96.2762 151.097C96.9558 150.795 96.6537 149.662 95.9741 149.964C94.5394 150.493 93.1803 151.021 91.7455 151.55C91.1415 151.776 91.217 152.683 91.8966 152.683C91.9721 152.683 91.9721 152.683 92.0476 152.683C92.8027 152.758 92.8027 151.55 92.0476 151.55Z" fill="#AB9F6E"/>
<path d="M92.8782 153.136C93.6334 152.758 94.3885 152.456 95.0681 152.078C95.7477 151.776 95.1436 150.719 94.464 151.021C93.7089 151.399 92.9538 151.701 92.2742 152.078C91.5946 152.381 92.1231 153.438 92.8782 153.136Z" fill="#AB9F6E"/>
<path d="M89.7067 150.946C90.9904 150.568 92.2741 150.342 93.6333 150.266C94.3884 150.191 94.3884 148.983 93.6333 149.058C92.1986 149.209 90.7639 149.436 89.4047 149.813C88.6496 150.04 88.9516 151.172 89.7067 150.946Z" fill="#AB9F6E"/>
<path d="M89.6312 150.644C90.9904 150.115 92.4251 149.813 93.8598 149.662C94.6149 149.587 94.6149 148.378 93.8598 148.454C92.274 148.605 90.7638 148.907 89.3291 149.436C88.6495 149.813 88.9516 150.946 89.6312 150.644Z" fill="#AB9F6E"/>
<path d="M97.0312 150.191C98.6924 149.889 100.278 149.964 101.939 150.493C102.694 150.719 102.997 149.587 102.241 149.36C100.429 148.832 98.6169 148.756 96.7291 149.058C95.974 149.209 96.2761 150.342 97.0312 150.191Z" fill="#AB9F6E"/>
<path d="M95.7475 151.021C98.0883 150.568 100.429 150.719 102.694 151.399C103.45 151.625 103.752 150.493 102.997 150.266C100.505 149.511 98.0128 149.36 95.4454 149.889C94.6903 150.04 94.9924 151.172 95.7475 151.021Z" fill="#AB9F6E"/>
<path d="M98.0129 151.625C99.5986 151.399 101.26 151.323 102.846 151.55C103.601 151.625 103.903 150.493 103.148 150.417C101.335 150.191 99.5231 150.191 97.7108 150.493C96.9557 150.644 97.2578 151.776 98.0129 151.625Z" fill="#AB9F6E"/>
<path d="M98.768 152.154C100.278 152.078 101.713 152.078 103.148 152.381C103.903 152.532 104.205 151.399 103.45 151.248C101.864 150.946 100.354 150.87 98.768 151.021C98.0129 151.021 98.0129 152.229 98.768 152.154Z" fill="#AB9F6E"/>
<path d="M99.2966 152.834C100.807 152.758 102.241 152.985 103.752 153.438C104.507 153.664 104.809 152.532 104.054 152.305C102.544 151.776 100.958 151.55 99.2966 151.625C98.5414 151.701 98.5414 152.834 99.2966 152.834Z" fill="#AB9F6E"/>
<path d="M99.5986 153.891C101.109 153.74 102.543 153.966 103.978 154.344C104.733 154.57 105.035 153.438 104.28 153.211C102.77 152.758 101.184 152.532 99.5986 152.683C98.8434 152.758 98.8434 153.966 99.5986 153.891Z" fill="#AB9F6E"/>
<path d="M99.4475 154.797C100.807 154.948 102.241 155.099 103.601 155.25C103.45 154.948 103.299 154.57 103.148 154.268L103.072 154.344C102.543 154.948 103.374 155.779 103.903 155.174L103.978 155.099C104.356 154.721 104.054 154.117 103.525 154.117C102.166 153.966 100.731 153.815 99.372 153.664C98.6924 153.513 98.6924 154.721 99.4475 154.797Z" fill="#AB9F6E"/>
<path d="M99.4477 155.779C100.656 155.779 101.789 155.93 102.921 156.232C103.676 156.458 103.978 155.25 103.223 155.099C102.015 154.797 100.731 154.646 99.4477 154.646C98.6926 154.57 98.6926 155.779 99.4477 155.779Z" fill="#AB9F6E"/>
<path d="M99.2966 156.232C101.184 156.911 102.695 158.346 103.45 160.158C103.752 160.838 104.733 160.234 104.507 159.554C103.601 157.44 101.788 155.854 99.6741 155.099C98.919 154.797 98.617 155.93 99.2966 156.232Z" fill="#AB9F6E"/>
<path d="M100.429 156.005C101.788 157.062 103.072 158.346 104.129 159.705C104.582 160.309 105.64 159.705 105.186 159.101C104.054 157.591 102.77 156.307 101.26 155.099C100.731 154.646 99.9007 155.476 100.429 156.005Z" fill="#AB9F6E"/>
<path d="M101.637 155.854C102.846 156.836 103.827 157.968 104.658 159.328C105.035 160.007 106.093 159.403 105.715 158.723C104.884 157.289 103.827 156.081 102.544 155.023C101.864 154.495 101.033 155.325 101.637 155.854Z" fill="#AB9F6E"/>
<path d="M103.148 155.325C103.601 156.609 104.129 157.893 104.809 159.026C105.035 159.479 105.79 159.403 105.866 158.874C105.866 158.799 105.866 158.799 105.866 158.723C106.092 157.968 104.884 157.666 104.733 158.421C104.733 158.497 104.733 158.497 104.733 158.572C105.111 158.497 105.488 158.497 105.79 158.421C105.186 157.364 104.658 156.156 104.205 154.948C104.054 154.268 102.921 154.57 103.148 155.325Z" fill="#AB9F6E"/>
<path d="M103.148 154.193C103.525 155.628 104.054 157.062 104.809 158.346C105.186 159.025 106.168 158.421 105.866 157.742C105.186 156.534 104.658 155.25 104.28 153.891C104.129 153.211 102.921 153.513 103.148 154.193Z" fill="#AB9F6E"/>
<path d="M103.525 151.852C103.752 153.74 104.28 155.552 105.111 157.289C105.413 157.893 106.319 157.44 106.168 156.836C106.093 156.685 106.093 156.534 106.017 156.307C105.866 155.552 104.658 155.854 104.884 156.609C104.96 156.76 104.96 156.911 105.035 157.138C105.413 156.987 105.791 156.836 106.093 156.685C105.338 155.174 104.884 153.513 104.658 151.852C104.582 151.172 103.374 151.097 103.525 151.852Z" fill="#AB9F6E"/>
<path d="M103.903 152.381C104.507 154.268 104.96 156.156 105.262 158.119C105.639 158.044 106.017 157.893 106.394 157.817C106.394 157.666 106.319 157.591 106.319 157.44C106.168 156.685 104.96 156.987 105.186 157.742C105.186 157.893 105.262 157.968 105.262 158.119C105.413 158.874 106.545 158.572 106.394 157.817C106.092 155.854 105.639 153.966 105.035 152.079C104.809 151.399 103.676 151.701 103.903 152.381Z" fill="#AB9F6E"/>
<path d="M104.884 155.703C104.96 157.515 104.733 159.328 104.205 161.064C103.978 161.819 105.111 162.121 105.337 161.366C105.866 159.479 106.093 157.591 106.017 155.703C106.093 154.948 104.884 154.948 104.884 155.703Z" fill="#AB9F6E"/>
<path d="M104.205 158.346C103.978 159.177 104.054 160.083 104.054 160.913C104.054 161.668 105.186 161.668 105.262 160.913C105.262 160.234 105.186 159.403 105.413 158.648C105.564 157.893 104.431 157.591 104.205 158.346Z" fill="#AB9F6E"/>
<path d="M105.64 157.817C105.413 159.479 104.96 161.14 104.431 162.725C104.205 163.481 105.338 163.783 105.564 163.028C106.093 161.442 106.546 159.781 106.772 158.119C106.848 157.364 105.715 157.062 105.64 157.817Z" fill="#AB9F6E"/>
<path d="M88.1209 156.987C86.8372 160.158 88.9515 163.632 92.0475 164.764C95.3699 165.972 98.3149 163.632 99.674 160.687C99.9761 160.007 98.9945 159.403 98.6169 160.083C97.4842 162.65 94.9924 164.764 92.0475 163.481C89.7066 162.423 88.1964 159.781 89.2536 157.289C89.4801 156.609 88.3474 156.307 88.1209 156.987Z" fill="#AB9F6E"/>
<path d="M85.6292 158.195C85.1006 162.197 87.8945 165.972 91.821 167.03C95.9741 168.162 99.9762 166.048 101.939 162.423C102.317 161.744 101.26 161.14 100.882 161.819C99.1456 164.991 95.7476 166.879 92.0476 165.897C88.6496 164.991 86.3088 161.744 86.7618 158.195C86.8373 157.44 85.7047 157.44 85.6292 158.195Z" fill="#AB9F6E"/>
<path d="M83.0619 160.46C83.817 164.538 86.5354 167.709 90.4619 169.068C94.9926 170.654 99.0701 168.917 102.468 165.821C102.997 165.293 102.166 164.462 101.638 164.991C98.6171 167.86 94.9171 169.446 90.764 167.936C87.215 166.652 84.8741 163.783 84.1945 160.158C84.119 159.403 82.9109 159.705 83.0619 160.46Z" fill="#AB9F6E"/>
<path d="M88.423 159.328C88.4985 158.799 88.1209 158.195 87.5923 158.044C87.0638 157.893 86.4597 158.119 86.1576 158.572C85.9311 158.95 86.5352 159.328 86.7617 158.95C87.1393 158.421 87.7434 158.799 87.6679 159.328C87.6679 159.781 88.3474 159.781 88.423 159.328Z" fill="#AB9F6E"/>
<path d="M88.4231 159.403C88.2721 158.723 87.7435 158.195 86.9884 158.27C86.3088 158.346 85.8557 158.95 85.8557 159.554C85.8557 160.007 86.6108 160.007 86.6108 159.554C86.6108 159.252 86.7618 158.95 87.0639 158.95C87.4414 158.95 87.5925 159.252 87.668 159.554C87.819 160.083 88.5741 159.856 88.4231 159.403Z" fill="#AB9F6E"/>
<path d="M86.4598 160.611C86.2333 159.781 85.2516 159.554 84.572 160.083C83.6659 160.762 83.8924 161.97 84.27 162.877C84.421 163.33 85.1006 163.103 84.9496 162.65C84.7986 162.197 84.572 161.744 84.6475 161.215C84.7231 160.913 84.7986 160.687 85.1006 160.536C85.4026 160.385 85.7047 160.46 85.7802 160.762C85.8557 161.215 86.5353 161.064 86.4598 160.611Z" fill="#AB9F6E"/>
<path d="M84.9495 163.632C84.5719 163.179 83.9678 162.801 83.3637 163.103C82.7597 163.405 82.6086 164.009 82.6086 164.613C82.6086 165.066 83.2882 165.066 83.3637 164.613C83.3637 164.311 83.3637 163.858 83.7413 163.783C84.0433 163.632 84.3454 163.934 84.4964 164.16C84.7229 164.462 85.2515 163.934 84.9495 163.632Z" fill="#AB9F6E"/>
<path d="M84.1944 162.423C83.5903 162.423 83.1372 162.65 82.7597 163.103C82.4576 163.481 83.1372 163.858 83.3638 163.481C83.5903 163.254 83.8168 163.103 84.1189 163.103C84.6474 163.179 84.6474 162.423 84.1944 162.423Z" fill="#AB9F6E"/>
<path d="M82.9108 166.199C83.2883 166.879 83.6659 167.558 84.3455 168.011C84.723 168.313 85.1006 167.634 84.723 167.407C84.1945 167.03 83.8924 166.426 83.5904 165.821C83.2883 165.444 82.6843 165.821 82.9108 166.199Z" fill="#AB9F6E"/>
<path d="M84.1945 162.952C83.4394 163.028 82.8353 163.481 82.7598 164.236C82.6842 164.613 83.2128 164.915 83.4394 164.538V164.462C83.6659 164.085 83.0618 163.707 82.8353 164.085V164.16C83.0618 164.236 83.2883 164.311 83.5149 164.462C83.5904 164.085 83.8169 163.707 84.27 163.707C84.6475 163.632 84.6475 162.952 84.1945 162.952Z" fill="#AB9F6E"/>
<path d="M83.8168 163.632C84.2699 163.632 84.2699 162.877 83.8168 162.877C83.3638 162.877 83.3638 163.632 83.8168 163.632Z" fill="#AB9F6E"/>
<path d="M83.5904 162.952L83.5149 163.028C83.2883 163.254 83.4394 163.632 83.7414 163.632C83.8169 163.632 83.9679 163.632 84.0435 163.632C84.0435 163.405 83.9679 163.179 83.9679 162.952C83.8169 162.952 83.7414 163.028 83.5904 163.028C83.2128 163.103 83.2883 163.707 83.6659 163.707C83.8169 163.707 83.9679 163.707 84.119 163.707C84.572 163.707 84.572 163.028 84.119 162.952C83.3639 162.877 82.7598 163.481 82.7598 164.236C82.7598 164.689 83.4394 164.689 83.5149 164.236C83.5149 163.858 83.8169 163.632 84.1945 163.707C84.1945 163.481 84.1945 163.254 84.1945 162.952C84.0434 162.952 83.8924 162.952 83.7414 162.952C83.7414 163.179 83.8169 163.405 83.8169 163.632C83.9679 163.632 84.0434 163.556 84.1945 163.556C84.572 163.481 84.4965 162.877 84.119 162.877C84.0434 162.877 83.8924 162.877 83.8169 162.877C83.8924 163.103 83.9679 163.254 84.0435 163.481L84.119 163.405C84.421 163.179 83.8924 162.65 83.5904 162.952Z" fill="#AB9F6E"/>
<path d="M91.1413 158.874C90.9148 158.044 90.1597 157.364 89.2536 157.591C88.2719 157.817 88.1209 158.95 88.1964 159.781C88.2719 160.234 88.9515 160.234 88.9515 159.781C88.876 159.328 88.8005 158.572 89.3291 158.27C89.8577 157.968 90.3107 158.497 90.4617 159.025C90.5373 159.554 91.2168 159.328 91.1413 158.874Z" fill="#AB9F6E"/>
<path d="M94.0107 154.646C94.0107 155.703 95.0679 156.307 95.7475 156.911C96.125 157.213 96.5781 156.685 96.2761 156.383C95.974 156.081 95.672 155.854 95.3699 155.552C95.0679 155.25 94.7658 155.023 94.7658 154.57C94.7658 154.117 94.0107 154.117 94.0107 154.646Z" fill="#AB9F6E"/>
<path d="M104.356 166.35C104.733 165.595 104.884 164.764 104.884 163.934C104.884 163.481 104.129 163.481 104.129 163.934C104.129 164.689 104.054 165.368 103.752 166.048C103.525 166.426 104.205 166.803 104.356 166.35Z" fill="#AB9F6E"/>
<path d="M69.7718 156.911C73.6229 153.211 77.927 150.115 82.6086 147.548C83.2882 147.17 82.6842 146.189 82.0046 146.491C77.2474 149.134 72.8678 152.305 68.8657 156.081C68.3371 156.609 69.1677 157.44 69.7718 156.911Z" fill="#AB9F6E"/>
<path d="M86.5353 145.509C97.4089 140.752 111.227 136.674 116.438 124.895C116.74 124.215 115.758 123.611 115.38 124.291C110.321 135.844 96.5782 139.846 85.9312 144.452C85.2516 144.754 85.8557 145.811 86.5353 145.509Z" fill="#AB9F6E"/>
<path d="M63.0515 134.409C77.172 136.976 95.5966 135.089 106.244 124.442C106.772 123.913 106.017 123.007 105.488 123.535C94.9925 133.88 76.9454 135.693 63.127 133.201C62.3719 133.05 62.2964 134.258 63.0515 134.409Z" fill="#AB9F6E"/>
<path d="M107.301 232.044C100.429 230.157 97.2578 222.757 95.5965 216.414C93.8598 209.844 94.0108 203.048 95.5965 196.479C95.7475 195.724 94.6149 195.422 94.4639 196.177C92.5761 203.728 92.7271 211.656 95.1435 219.057C97.1067 225.097 100.429 231.365 106.999 233.177C107.678 233.404 108.056 232.271 107.301 232.044Z" fill="#AB9F6E"/>
<path d="M98.7681 189.834C104.507 179.489 113.946 171.862 125.272 168.464C126.027 168.238 125.725 167.105 124.97 167.332C113.342 170.881 103.676 178.658 97.7864 189.305C97.3334 189.834 98.3905 190.438 98.7681 189.834Z" fill="#AB9F6E"/>
<path d="M144.225 174.581C134.786 169.144 124.517 165.972 113.643 165.142C112.888 165.066 112.888 166.274 113.643 166.35C124.29 167.181 134.409 170.352 143.621 175.638C144.301 176.015 144.905 174.958 144.225 174.581Z" fill="#AB9F6E"/>
<path d="M65.9208 158.497C61.3901 157.213 57.4636 154.948 54.0656 151.625C53.537 151.097 52.7064 151.927 53.235 152.456C56.7084 155.854 60.9371 158.27 65.6187 159.63C66.3738 159.781 66.6759 158.648 65.9208 158.497Z" fill="#AB9F6E"/>
<path d="M73.9249 165.972C82.4576 174.43 88.4985 184.85 91.8209 196.403C92.0475 197.158 93.1801 196.856 92.9536 196.101C89.6311 184.322 83.4392 173.75 74.7555 165.142C74.2269 164.613 73.3963 165.444 73.9249 165.972Z" fill="#AB9F6E"/>
<path d="M115.682 152.758C118.401 155.099 121.572 156.76 125.121 157.591C125.499 157.666 125.65 157.138 125.272 156.987C121.874 156.156 118.778 154.57 116.135 152.305C115.833 152.078 115.38 152.532 115.682 152.758Z" fill="#AB9F6E"/>
<path d="M114.701 151.776C114.701 151.776 114.776 151.776 114.701 151.776C115.154 151.776 115.154 151.172 114.701 151.172C114.323 151.172 114.323 151.776 114.701 151.776Z" fill="#AB9F6E"/>
<path d="M54.9718 162.801C57.5391 162.348 59.9555 161.668 62.3718 160.762C62.7494 160.611 62.5983 160.083 62.2208 160.158C59.8045 161.14 57.3881 161.819 54.8207 162.197C54.4432 162.272 54.5942 162.801 54.9718 162.801Z" fill="#AB9F6E"/>
<path d="M60.7106 162.725C61.1637 162.725 61.1637 162.121 60.7106 162.121C60.2576 162.121 60.2576 162.725 60.7106 162.725Z" fill="#AB9F6E"/>
<path d="M72.4147 149.813C75.3596 146.642 78.9086 144.452 83.0617 143.168C83.4392 143.093 83.2882 142.489 82.9106 142.564C78.682 143.848 74.982 146.189 72.0371 149.36C71.7351 149.662 72.1881 150.115 72.4147 149.813Z" fill="#AB9F6E"/>
<path d="M84.1943 146.264C84.5719 146.264 84.5719 145.66 84.1943 145.66C83.8167 145.66 83.8167 146.264 84.1943 146.264Z" fill="#AB9F6E"/>
<path d="M111.529 146.717C113.04 148.681 114.776 150.266 116.891 151.55C117.193 151.776 117.495 151.248 117.193 151.021C115.229 149.813 113.493 148.227 112.058 146.415C111.831 146.113 111.303 146.415 111.529 146.717Z" fill="#AB9F6E"/>
<path d="M120.213 115.456C124.517 116.286 128.293 118.401 131.238 121.723C131.464 122.025 131.917 121.572 131.691 121.27C128.746 117.872 124.819 115.682 120.44 114.852C119.986 114.852 119.835 115.38 120.213 115.456Z" fill="#AB9F6E"/>
<path d="M126.631 119.382C128.293 121.572 130.407 123.309 132.823 124.668C133.125 124.819 133.427 124.366 133.125 124.14C130.709 122.856 128.746 121.119 127.009 119.005C126.782 118.703 126.405 119.08 126.631 119.382Z" fill="#AB9F6E"/>
<path d="M116.211 75.0576C119.684 76.5678 123.309 77.5495 127.009 78.0025C127.386 78.078 127.386 77.4739 127.009 77.3984C123.384 76.9454 119.835 75.9637 116.513 74.529C116.135 74.4535 115.833 74.9821 116.211 75.0576Z" fill="#AB9F6E"/>
<path d="M121.648 78.8331C123.535 78.7576 125.272 79.0597 127.084 79.5882C127.462 79.7393 127.613 79.1352 127.235 78.9841C125.423 78.3801 123.535 78.1535 121.648 78.229C121.27 78.3046 121.27 78.9086 121.648 78.8331Z" fill="#AB9F6E"/>
<path d="M120.062 51.5738C121.421 51.8758 122.629 52.3289 123.837 53.0085C124.14 53.235 124.442 52.7064 124.14 52.4799C122.931 51.8003 121.648 51.2717 120.213 50.9697C119.835 50.9697 119.684 51.4982 120.062 51.5738Z" fill="#AB9F6E"/>
<path d="M55.2737 128.897C53.0084 130.86 50.8941 133.05 49.0064 135.466C48.7798 135.768 49.1574 136.221 49.4594 135.919C51.3472 133.503 53.4615 131.313 55.7268 129.35C55.9533 129.123 55.5758 128.67 55.2737 128.897Z" fill="#AB9F6E"/>
<path d="M56.8596 127.764C56.7841 127.764 56.7841 127.84 56.7086 127.84C56.4066 128.066 56.7086 128.595 57.0106 128.368C57.0862 128.368 57.0862 128.293 57.1617 128.293C57.4637 128.066 57.1617 127.538 56.8596 127.764Z" fill="#AB9F6E"/>
<path d="M50.6677 135.315C49.8371 136.297 49.082 137.354 48.4024 138.487C48.1759 138.789 48.7045 139.091 48.931 138.789C49.6106 137.731 50.2902 136.674 51.1208 135.693C51.3473 135.391 50.9698 135.013 50.6677 135.315Z" fill="#AB9F6E"/>
<path d="M52.0268 134.787C52.4044 134.787 52.4044 134.182 52.0268 134.182C51.6493 134.258 51.6493 134.787 52.0268 134.787Z" fill="#AB9F6E"/>
<path d="M62.3717 123.988C63.8819 122.931 65.5432 122.101 67.3554 121.572C67.733 121.497 67.582 120.893 67.2044 120.968C65.3922 121.497 63.6554 122.327 62.0697 123.46C61.7676 123.686 62.0697 124.215 62.3717 123.988Z" fill="#AB9F6E"/>
<path d="M97.2578 114.172C99.7496 113.946 102.166 113.946 104.658 114.248C105.035 114.323 105.035 113.719 104.658 113.644C102.166 113.342 99.7496 113.341 97.2578 113.568C96.8802 113.568 96.8802 114.172 97.2578 114.172Z" fill="#AB9F6E"/>
<path d="M99.07 115.909C99.5986 115.909 100.127 115.909 100.656 115.909C101.033 115.909 101.033 115.305 100.656 115.305C100.127 115.305 99.5986 115.305 99.07 115.305C98.6925 115.305 98.6925 115.909 99.07 115.909Z" fill="#AB9F6E"/>
<path d="M87.0639 116.06C87.4415 116.06 87.4415 115.456 87.0639 115.456C86.6864 115.456 86.6864 116.06 87.0639 116.06Z" fill="#AB9F6E"/>
<path d="M110.246 114.323C113.19 114.55 115.305 116.966 118.174 117.419C118.552 117.495 118.703 116.89 118.325 116.815C115.38 116.362 113.266 113.946 110.246 113.719C109.868 113.719 109.868 114.323 110.246 114.323Z" fill="#AB9F6E"/>
<path d="M111.152 112.058C112.435 109.339 113.342 106.546 113.946 103.601C114.021 103.223 113.417 103.072 113.342 103.45C112.738 106.319 111.907 109.113 110.623 111.756C110.472 112.133 110.925 112.435 111.152 112.058Z" fill="#AB9F6E"/>
<path d="M112.209 112.813C112.888 111.68 113.417 110.472 113.795 109.188C113.946 108.811 113.341 108.66 113.19 109.037C112.813 110.246 112.284 111.378 111.605 112.511C111.529 112.888 112.058 113.191 112.209 112.813Z" fill="#AB9F6E"/>
<path d="M113.719 113.191C113.719 113.115 113.719 113.115 113.719 113.191C113.719 112.737 113.115 112.737 113.115 113.115C113.115 113.115 113.115 113.115 113.115 113.191C113.115 113.568 113.719 113.568 113.719 113.191Z" fill="#AB9F6E"/>
<path d="M118.929 237.481C122.705 237.33 126.405 236.726 130.029 235.593C130.407 235.442 130.256 234.914 129.878 234.989C126.329 236.122 122.629 236.726 118.929 236.877C118.552 236.877 118.552 237.481 118.929 237.481Z" fill="#AB9F6E"/>
<path d="M123.233 238.84C125.348 238.614 127.462 238.161 129.501 237.481C129.878 237.33 129.727 236.802 129.35 236.877C127.386 237.632 125.348 238.085 123.233 238.236C122.856 238.312 122.856 238.916 123.233 238.84Z" fill="#AB9F6E"/>
<path d="M129.048 238.689C127.764 243.446 127.009 248.279 126.933 253.263C126.933 253.64 127.537 253.64 127.537 253.263C127.613 248.355 128.368 243.597 129.652 238.84C129.652 238.463 129.123 238.312 129.048 238.689Z" fill="#AB9F6E"/>
<path d="M127.311 239.671C126.329 242.238 125.801 244.957 125.65 247.675C125.65 248.053 126.254 248.053 126.254 247.675C126.405 244.957 127.009 242.314 127.915 239.822C127.99 239.52 127.386 239.369 127.311 239.671Z" fill="#AB9F6E"/>
<path d="M126.103 240.124C126.48 240.124 126.48 239.52 126.103 239.52C125.725 239.52 125.725 240.124 126.103 240.124Z" fill="#AB9F6E"/>
<path d="M120.213 239.067C121.648 239.746 123.158 240.124 124.744 240.2C125.121 240.2 125.121 239.671 124.744 239.595C123.309 239.52 121.874 239.142 120.515 238.538C120.213 238.463 119.911 238.916 120.213 239.067Z" fill="#AB9F6E"/>
<path d="M63.1269 233.555C64.7126 235.593 66.978 236.877 69.5453 237.255C69.9229 237.33 70.0739 236.726 69.6964 236.65C67.2045 236.273 65.0902 235.065 63.58 233.102C63.3535 232.799 62.9004 233.253 63.1269 233.555Z" fill="#AB9F6E"/>
<path d="M63.8821 235.971C65.0903 241.106 65.8454 246.316 66.1474 251.602C66.1474 251.979 66.7515 251.979 66.7515 251.602C66.3739 246.316 65.6188 241.03 64.4862 235.82C64.3352 235.442 63.8066 235.593 63.8821 235.971Z" fill="#AB9F6E"/>
<path d="M64.9392 236.65C65.5433 237.179 66.1474 237.557 66.9025 237.859C67.28 238.01 67.4311 237.406 67.0535 237.255C66.4494 237.028 65.8453 236.65 65.3168 236.197C65.0902 235.971 64.6372 236.348 64.9392 236.65Z" fill="#AB9F6E"/>
<path d="M65.5432 238.161C65.9207 238.161 65.9207 237.557 65.5432 237.557C65.1656 237.557 65.1656 238.161 65.5432 238.161Z" fill="#AB9F6E"/>
<path d="M74.831 243.522C77.7759 242.163 80.8719 241.181 84.0433 240.728C84.4209 240.653 84.2699 240.124 83.8923 240.124C80.6453 240.577 77.4739 241.559 74.529 242.918C74.1514 243.144 74.4535 243.673 74.831 243.522Z" fill="#AB9F6E"/>
<path d="M80.0414 243.598C86.2333 240.879 92.8782 240.577 99.5232 240.351C99.9007 240.351 99.9007 239.746 99.5232 239.746C92.8027 239.973 86.0068 240.351 79.7394 243.069C79.4373 243.22 79.7394 243.749 80.0414 243.598Z" fill="#AB9F6E"/>
<path d="M56.2555 217.471C57.5392 222.228 60.2575 226.154 64.2596 229.024C64.5617 229.25 64.8637 228.722 64.5617 228.495C60.7106 225.701 58.0677 221.85 56.8596 217.244C56.7085 216.942 56.1045 217.093 56.2555 217.471Z" fill="#AB9F6E"/>
<path d="M62.0699 225.55C64.1842 227.589 66.6005 229.326 69.1679 230.761C69.4699 230.912 69.7719 230.459 69.4699 230.232C66.9025 228.873 64.5617 227.136 62.4474 225.173C62.2209 224.871 61.8433 225.324 62.0699 225.55Z" fill="#AB9F6E"/>
<path d="M88.8762 226.759C90.9905 224.795 92.7272 222.53 94.1619 219.963C94.3129 219.661 93.8599 219.359 93.6333 219.661C92.2742 222.152 90.5374 224.418 88.4231 226.306C88.1966 226.608 88.5741 227.061 88.8762 226.759Z" fill="#AB9F6E"/>
<path d="M92.425 224.871C93.4066 223.814 94.1617 222.606 94.7658 221.322C94.9168 220.944 94.3883 220.642 94.2373 221.02C93.6332 222.228 92.9536 223.361 91.9719 224.418C91.7454 224.72 92.123 225.173 92.425 224.871Z" fill="#AB9F6E"/>
<path d="M96.5781 216.791C97.3332 221.473 99.523 225.55 102.921 228.797C103.223 229.024 103.601 228.646 103.374 228.344C100.052 225.173 97.9372 221.171 97.1821 216.64C97.1066 216.263 96.5025 216.414 96.5781 216.791Z" fill="#AB9F6E"/>
<path d="M100.127 222.908C101.486 225.399 103.298 227.589 105.488 229.401C105.79 229.628 106.168 229.25 105.941 228.948C103.752 227.212 102.015 225.022 100.656 222.53C100.429 222.228 99.9005 222.53 100.127 222.908Z" fill="#AB9F6E"/>
<path d="M129.199 230.836C138.713 225.399 146.34 217.244 151.097 207.352C151.248 206.975 150.719 206.673 150.568 207.05C145.811 216.867 138.26 224.946 128.821 230.383C128.595 230.534 128.897 231.063 129.199 230.836Z" fill="#AB9F6E"/>
<path d="M141.13 218.754C145.736 213.469 149.662 207.579 152.683 201.236C152.834 200.858 152.305 200.556 152.154 200.934C149.134 207.277 145.283 213.091 140.676 218.301C140.45 218.603 140.903 219.057 141.13 218.754Z" fill="#AB9F6E"/>
<path d="M152.381 204.86C154.193 201.689 155.703 198.442 156.836 194.969C156.987 194.591 156.383 194.44 156.232 194.818C155.099 198.216 153.664 201.463 151.852 204.558C151.701 204.936 152.23 205.163 152.381 204.86Z" fill="#AB9F6E"/>
<path d="M148.907 205.011C150.568 202.444 152.003 199.801 153.136 196.932C153.287 196.554 152.683 196.403 152.532 196.781C151.399 199.575 150.04 202.218 148.378 204.709C148.152 205.011 148.681 205.314 148.907 205.011Z" fill="#AB9F6E"/>
<path d="M153.287 199.801C153.664 199.801 153.664 199.197 153.287 199.197C152.909 199.197 152.909 199.801 153.287 199.801Z" fill="#AB9F6E"/>
<path d="M154.419 174.203C154.344 173.901 154.268 173.675 154.193 173.373C154.042 173.448 153.815 173.524 153.664 173.599C155.174 176.921 156.005 180.319 156.005 184.02C156.005 184.397 156.609 184.397 156.609 184.02C156.609 180.319 155.778 176.695 154.193 173.297C154.042 172.995 153.589 173.221 153.664 173.524C153.74 173.826 153.815 174.052 153.891 174.354C153.966 174.732 154.57 174.581 154.419 174.203Z" fill="#AB9F6E"/>
<path d="M153.136 170.579C154.57 172.315 155.477 174.354 156.005 176.544C156.081 176.922 156.685 176.771 156.609 176.393C156.081 174.128 155.023 172.013 153.589 170.201C153.362 169.899 152.909 170.277 153.136 170.579Z" fill="#AB9F6E"/>
<path d="M156.76 174.656C157.289 176.317 157.591 177.979 157.742 179.715C157.742 180.093 158.346 180.093 158.346 179.715C158.195 177.903 157.893 176.166 157.364 174.505C157.213 174.128 156.685 174.279 156.76 174.656Z" fill="#AB9F6E"/>
<path d="M158.119 181.452C158.497 181.452 158.497 180.848 158.119 180.848C157.742 180.924 157.742 181.452 158.119 181.452Z" fill="#AB9F6E"/>
<path d="M155.854 139.77C157.742 139.846 159.554 140.299 161.291 140.978C161.668 141.129 161.819 140.525 161.442 140.374C159.63 139.619 157.817 139.242 155.854 139.166C155.476 139.166 155.476 139.77 155.854 139.77Z" fill="#AB9F6E"/>
<path d="M157.213 138.789C160.385 139.166 163.33 140.374 165.897 142.187C166.199 142.413 166.501 141.885 166.199 141.658C163.481 139.695 160.46 138.562 157.213 138.109C156.836 138.109 156.836 138.713 157.213 138.789Z" fill="#AB9F6E"/>
<path d="M167.03 142.715H167.105C167.483 142.715 167.483 142.111 167.105 142.111H167.03C166.652 142.111 166.652 142.715 167.03 142.715Z" fill="#AB9F6E"/>
<path d="M164.538 138.562C166.048 139.091 167.407 139.77 168.691 140.827C168.993 141.054 169.371 140.676 169.144 140.374C167.86 139.317 166.35 138.487 164.764 137.958C164.387 137.883 164.236 138.411 164.538 138.562Z" fill="#AB9F6E"/>
<path d="M143.395 159.176C145.433 159.932 147.246 161.14 148.756 162.725C148.982 163.028 149.436 162.574 149.209 162.272C147.623 160.611 145.735 159.403 143.621 158.572C143.168 158.497 143.017 159.025 143.395 159.176Z" fill="#AB9F6E"/>
<path d="M144.301 161.215C147.019 162.574 149.134 164.689 150.568 167.332C150.719 167.634 151.248 167.407 151.097 167.03C149.662 164.236 147.397 162.046 144.603 160.687C144.225 160.536 143.923 161.064 144.301 161.215Z" fill="#AB9F6E"/>
<path d="M133.276 152.23C134.56 153.287 135.995 154.042 137.58 154.495C137.958 154.57 138.109 154.042 137.731 153.891C136.221 153.438 134.862 152.758 133.654 151.776C133.352 151.55 132.974 151.927 133.276 152.23Z" fill="#AB9F6E"/>
<path d="M138.94 155.099C139.317 155.099 139.317 154.495 138.94 154.495C138.562 154.495 138.562 155.099 138.94 155.099Z" fill="#AB9F6E"/>
<path d="M133.956 154.57C135.391 155.476 136.976 156.005 138.713 156.232C139.091 156.307 139.091 155.703 138.713 155.628C137.127 155.401 135.617 154.872 134.258 154.042C133.88 153.891 133.578 154.344 133.956 154.57Z" fill="#AB9F6E"/>
<path d="M139.166 160.158C141.281 160.838 143.168 161.895 144.83 163.254C145.132 163.481 145.509 163.103 145.283 162.801C143.546 161.291 141.507 160.234 139.317 159.554C139.015 159.479 138.789 160.083 139.166 160.158Z" fill="#AB9F6E"/>
<path d="M114.625 145.66C118.25 143.621 122.101 142.338 126.254 141.809C126.631 141.734 126.631 141.205 126.254 141.205C122.025 141.734 118.023 143.017 114.323 145.132C114.021 145.358 114.323 145.887 114.625 145.66Z" fill="#AB9F6E"/>
<path d="M116.815 146.113C119.307 144.98 121.874 144.225 124.593 143.697C124.97 143.621 124.819 143.093 124.442 143.093C121.723 143.621 119.08 144.452 116.513 145.509C116.211 145.811 116.513 146.264 116.815 146.113Z" fill="#AB9F6E"/>
<path d="M115.229 147.019C115.607 147.019 115.607 146.415 115.229 146.415C114.776 146.415 114.776 147.019 115.229 147.019Z" fill="#AB9F6E"/>
<path d="M55.8025 216.263C55.8025 216.263 55.8025 216.338 55.8025 216.263C55.8025 216.716 56.4066 216.716 56.4066 216.338V216.263C56.4066 215.885 55.8025 215.885 55.8025 216.263Z" fill="#AB9F6E"/>
<path d="M56.1044 212.714C57.0861 216.867 58.7473 220.718 61.0881 224.191C61.3147 224.493 61.8432 224.191 61.6167 223.889C59.2759 220.416 57.6901 216.64 56.7085 212.487C56.633 212.185 56.0289 212.336 56.1044 212.714Z" fill="#AB9F6E"/>
<path d="M87.8946 226.985C87.819 226.985 87.819 226.985 87.8946 226.985C87.4415 226.985 87.4415 227.589 87.819 227.589H87.8946C88.2721 227.589 88.2721 226.985 87.8946 226.985Z" fill="#AB9F6E"/>
<path d="M91.1413 225.399C91.1413 225.399 91.1413 225.475 91.1413 225.399C90.8393 225.701 91.2168 226.155 91.5189 225.852L91.5944 225.777C91.8209 225.55 91.4434 225.097 91.1413 225.399Z" fill="#AB9F6E"/>
<path d="M91.821 221.02C92.6516 220.038 93.2557 218.905 93.6332 217.622C93.7087 217.244 93.1801 217.093 93.0291 217.471C92.6516 218.603 92.123 219.661 91.3679 220.567C91.1414 220.944 91.5944 221.322 91.821 221.02Z" fill="#AB9F6E"/>
<path d="M39.4921 87.3658C41.1533 86.3842 42.8901 85.7046 44.7778 85.327C45.1554 85.2515 45.0044 84.6474 44.6268 84.7229C42.739 85.1005 40.9268 85.8556 39.2655 86.8372C38.888 86.9883 39.19 87.5168 39.4921 87.3658Z" fill="#AB9F6E"/>
<path d="M42.8145 86.9128C43.8717 86.6108 44.9288 86.3087 46.0615 85.9312C46.4391 85.8557 46.288 85.2516 45.9105 85.3271C44.8533 85.6291 43.7962 85.9312 42.6635 86.3087C42.286 86.4597 42.437 87.0638 42.8145 86.9128Z" fill="#AB9F6E"/>
<path d="M42.8147 112.284C44.7779 110.85 46.8922 109.944 49.2331 109.415C49.6106 109.339 49.4596 108.735 49.082 108.811C46.6657 109.339 44.4759 110.321 42.5126 111.756C42.1351 111.982 42.4371 112.511 42.8147 112.284Z" fill="#AB9F6E"/>
<path d="M41.7575 114.248C43.4942 112.964 45.4575 112.058 47.5718 111.454C47.9494 111.378 47.7983 110.774 47.4208 110.85C45.231 111.378 43.2677 112.36 41.4554 113.644C41.1534 113.946 41.4554 114.474 41.7575 114.248Z" fill="#AB9F6E"/>
<path d="M50.8942 109.188C51.2718 109.188 51.2718 108.584 50.8942 108.584C50.5167 108.584 50.5167 109.188 50.8942 109.188Z" fill="#AB9F6E"/>
<path d="M61.7678 84.572C61.7678 84.4964 61.8433 84.4964 61.7678 84.572C62.0698 84.2699 61.6923 83.8169 61.3902 84.1189L61.3147 84.1944C61.0882 84.4209 61.4657 84.7985 61.7678 84.572Z" fill="#AB9F6E"/>
<path d="M62.8248 81.3249C65.6942 80.5698 68.6391 80.1168 71.6595 80.1168C72.0371 80.1168 72.0371 79.5127 71.6595 79.5127C68.6391 79.5127 65.6187 79.9658 62.6738 80.7209C62.2962 80.8719 62.4472 81.4005 62.8248 81.3249Z" fill="#AB9F6E"/>
<path d="M67.1289 82.0801C68.7901 81.5515 70.5269 81.476 72.1881 81.778C72.5657 81.8535 72.7167 81.2495 72.3392 81.174C70.5269 80.7964 68.7146 80.8719 66.9024 81.476C66.6003 81.627 66.7514 82.1556 67.1289 82.0801Z" fill="#AB9F6E"/>
<path d="M86.8372 67.431C90.6128 66.8269 94.3128 67.431 97.7108 69.1677C98.0128 69.3188 98.3149 68.8657 98.0128 68.6392C94.4638 66.8269 90.6128 66.2228 86.6862 66.9024C86.3087 66.9024 86.4597 67.5065 86.8372 67.431Z" fill="#AB9F6E"/>
<path d="M91.5189 70.5269C94.0107 69.9984 96.5026 70.1494 98.9945 70.9045C99.372 70.98 99.523 70.4514 99.1455 70.3004C96.5781 69.5453 94.0107 69.3943 91.3679 69.9229C90.9903 69.9984 91.1413 70.6024 91.5189 70.5269Z" fill="#AB9F6E"/>
<path d="M89.4047 70.4514C89.4802 70.4514 89.4802 70.5269 89.5557 70.5269C89.9333 70.678 90.2353 70.1494 89.8578 69.9984C89.7823 69.9984 89.7823 69.9228 89.7067 69.9228C89.3292 69.7718 89.0272 70.3004 89.4047 70.4514Z" fill="#AB9F6E"/>
<path d="M87.1394 44.7023C91.2169 44.3248 94.9925 45.1554 98.617 47.0432C98.919 47.1942 99.2211 46.7411 98.919 46.5146C95.2945 44.5513 91.2925 43.7207 87.1394 44.0982C86.7618 44.1738 86.7618 44.7778 87.1394 44.7023Z" fill="#AB9F6E"/>
<path d="M94.8415 47.2697C96.0497 47.4962 97.1068 48.1003 98.0884 48.8554C98.3905 49.0819 98.768 48.7044 98.5415 48.4023C97.5599 47.4962 96.3517 46.8921 95.068 46.6656C94.6905 46.5901 94.4639 47.1941 94.8415 47.2697Z" fill="#AB9F6E"/>
<path d="M61.9943 50.3656C63.8066 49.384 65.6944 48.8554 67.8087 48.7044C68.1862 48.7044 68.1862 48.1003 67.8087 48.1003C65.6944 48.2513 63.6556 48.8554 61.6923 49.837C61.3148 50.0636 61.6168 50.5166 61.9943 50.3656Z" fill="#AB9F6E"/>
<path d="M69.1677 48.7799C69.5452 48.7799 69.5452 48.1758 69.1677 48.1758C68.7901 48.2513 68.7901 48.7799 69.1677 48.7799Z" fill="#AB9F6E"/>
<path d="M45.0043 64.033C46.741 68.5637 47.2696 73.2454 46.5145 78.078C46.439 78.4556 47.043 78.6066 47.1186 78.2291C47.8737 73.3209 47.4206 68.4882 45.6083 63.882C45.3818 63.5045 44.8532 63.6555 45.0043 64.033Z" fill="#AB9F6E"/>
<path d="M68.7903 27.8634C70.225 31.79 70.8291 35.8676 70.7536 40.0207C70.7536 40.3982 71.3577 40.3982 71.3577 40.0207C71.5087 35.7921 70.8291 31.7145 69.3944 27.7124C69.2434 27.3349 68.7148 27.5614 68.7903 27.8634Z" fill="#AB9F6E"/>
<path d="M101.864 92.123C101.486 98.8435 102.317 105.413 104.356 111.831C104.507 112.209 105.035 112.058 104.96 111.68C102.921 105.337 102.09 98.7679 102.468 92.123C102.543 91.7455 101.939 91.7455 101.864 92.123Z" fill="#AB9F6E"/>
<path d="M101.486 101.788C101.486 101.713 101.486 101.637 101.486 101.486C101.26 101.486 101.109 101.486 100.882 101.486C101.033 104.884 101.713 108.131 102.846 111.303C102.997 111.68 103.525 111.529 103.45 111.152C102.317 108.056 101.713 104.809 101.486 101.486C101.486 101.109 100.958 101.109 100.882 101.486C100.882 101.562 100.882 101.637 100.882 101.788C100.882 102.166 101.486 102.166 101.486 101.788Z" fill="#AB9F6E"/>
<path d="M122.025 25.0695C124.064 32.4696 125.121 40.0207 125.197 47.6472C125.197 48.0248 125.801 48.0248 125.801 47.6472C125.801 39.9452 124.668 32.3186 122.629 24.9185C122.478 24.541 121.95 24.692 122.025 25.0695Z" fill="#AB9F6E"/>
<path d="M125.499 49.2329C125.876 49.2329 125.876 48.6288 125.499 48.6288C125.121 48.6288 125.121 49.2329 125.499 49.2329Z" fill="#AB9F6E"/>
<path d="M131.389 103.45C131.842 106.848 132.748 110.17 133.352 113.493C134.031 117.344 134.334 121.27 134.409 125.197C134.409 125.574 135.013 125.574 135.013 125.197C134.938 121.874 134.711 118.552 134.258 115.305C133.654 111.303 132.521 107.452 131.993 103.45C131.917 103.072 131.313 103.072 131.389 103.45Z" fill="#AB9F6E"/>
<path d="M132.899 121.95C132.446 121.95 132.446 122.554 132.823 122.554H132.899C133.276 122.554 133.276 121.95 132.899 121.95Z" fill="#AB9F6E"/>
<path d="M130.256 99.372C130.256 104.356 130.935 109.188 132.219 114.021C132.295 114.399 132.899 114.248 132.823 113.87C131.54 109.113 130.935 104.28 130.86 99.372C130.86 98.919 130.256 98.919 130.256 99.372Z" fill="#AB9F6E"/>
<path d="M160.838 128.142C163.405 121.723 168.011 116.513 174.052 113.115C174.354 112.964 174.052 112.435 173.75 112.586C167.558 116.06 162.877 121.346 160.234 127.915C160.083 128.293 160.687 128.519 160.838 128.142Z" fill="#AB9F6E"/>
<path d="M66.2983 255.981C66.2228 260.965 66.1473 265.949 66.0718 270.932C66.0718 271.31 66.6003 271.31 66.6003 270.932C66.6759 265.949 66.7514 260.965 66.8269 255.981C66.8269 255.604 66.2983 255.604 66.2983 255.981Z" fill="#AB9F6E"/>
<path d="M66.1473 272.518C78.3045 277.2 91.4434 278.634 104.356 276.747C104.733 276.671 104.582 276.143 104.205 276.218C91.4434 278.03 78.38 276.596 66.2983 271.99C65.9963 271.914 65.8453 272.443 66.1473 272.518Z" fill="#AB9F6E"/>
<path d="M68.1105 271.234C74.831 273.575 81.778 275.01 88.8005 275.538C89.178 275.538 89.178 275.01 88.8005 275.01C81.778 274.481 74.9065 273.047 68.2616 270.706C67.884 270.555 67.733 271.083 68.1105 271.234Z" fill="#AB9F6E"/>
<path d="M90.0842 275.614C90.4618 275.992 90.9904 275.463 90.6883 275.161L90.6128 275.085C90.2353 274.783 89.7067 275.236 90.0842 275.614Z" fill="#AB9F6E"/>
<path d="M115.078 274.179C118.778 273.802 122.252 272.896 125.65 271.385C125.952 271.234 125.725 270.781 125.348 270.932C122.025 272.367 118.627 273.273 115.078 273.651C114.701 273.726 114.701 274.255 115.078 274.179Z" fill="#AB9F6E"/>
<path d="M95.5964 192.175C97.6352 186.662 100.958 181.981 105.413 178.13C105.715 177.903 105.262 177.45 104.96 177.677C100.429 181.603 97.1067 186.436 94.9924 192.024C94.9168 192.401 95.5209 192.552 95.5964 192.175Z" fill="#AB9F6E"/>
<path d="M100.505 181.075C102.997 178.356 105.79 176.015 109.037 174.128C109.339 173.901 109.037 173.448 108.735 173.599C105.488 175.487 102.619 177.828 100.127 180.622C99.8251 180.924 100.203 181.377 100.505 181.075Z" fill="#AB9F6E"/>
<path d="M87.819 181.075C90.0843 184.85 91.8966 188.852 93.1803 193.005C93.2558 193.383 93.8599 193.232 93.7844 192.854C92.5007 188.626 90.6884 184.548 88.3476 180.773C88.1211 180.395 87.668 180.697 87.819 181.075Z" fill="#AB9F6E"/>
<path d="M90.6885 182.585C92.0477 185.077 93.0293 187.72 93.6334 190.513C93.7089 190.891 94.313 190.74 94.2375 190.362C93.5579 187.569 92.5762 184.85 91.217 182.283C91.066 181.905 90.5374 182.207 90.6885 182.585Z" fill="#AB9F6E"/>
<path d="M95.2944 189.381C96.2006 187.191 97.4087 185.152 98.8434 183.34C99.07 183.038 98.6924 182.66 98.3904 182.887C96.8047 184.775 95.5965 186.889 94.6904 189.154C94.6148 189.532 95.2189 189.683 95.2944 189.381Z" fill="#AB9F6E"/>
<path d="M77.3985 168.313C88.0456 174.883 101.26 174.807 111.756 168.087C112.058 167.86 111.756 167.407 111.454 167.558C101.109 174.203 88.1211 174.279 77.7006 167.785C77.3985 167.634 77.0965 168.087 77.3985 168.313Z" fill="#AB9F6E"/>
<path d="M77.927 168.917C84.3454 173.75 92.274 175.713 100.278 174.43C100.656 174.354 100.505 173.826 100.127 173.826C92.3495 175.034 84.5719 173.07 78.3045 168.389C77.927 168.162 77.625 168.691 77.927 168.917Z" fill="#AB9F6E"/>
<path d="M112.888 167.407C113.266 167.407 113.266 166.803 112.888 166.803C112.511 166.879 112.511 167.407 112.888 167.407Z" fill="#AB9F6E"/>
<path d="M101.637 174.128C102.015 174.128 102.015 173.524 101.637 173.524C101.26 173.524 101.26 174.128 101.637 174.128Z" fill="#AB9F6E"/>
<path d="M79.5127 155.401C78.229 159.025 78.6065 162.877 80.4943 166.274C80.7208 166.577 81.1739 166.274 81.0229 165.972C79.1351 162.725 78.8331 159.101 80.0412 155.552C80.1923 155.174 79.6637 155.023 79.5127 155.401Z" fill="#AB9F6E"/>
<path d="M77.7006 159.705C77.6251 160.611 77.7006 161.517 78.0026 162.423C78.1536 162.801 78.6822 162.65 78.6067 162.272C78.3047 161.442 78.2291 160.611 78.3047 159.781C78.3802 159.328 77.7761 159.328 77.7006 159.705Z" fill="#AB9F6E"/>
<path d="M107.225 153.664C108.433 157.289 108.282 160.989 106.848 164.538C106.696 164.915 107.301 165.066 107.452 164.689C108.962 161.064 109.037 157.213 107.829 153.513C107.678 153.136 107.074 153.287 107.225 153.664Z" fill="#AB9F6E"/>
<path d="M108.66 154.344C109.037 156.005 109.188 157.666 109.188 159.403C109.188 159.781 109.792 159.781 109.792 159.403C109.792 157.666 109.641 155.93 109.264 154.193C109.188 153.815 108.584 153.966 108.66 154.344Z" fill="#AB9F6E"/>
<path d="M109.641 160.989C109.641 160.913 109.641 160.913 109.641 160.989C109.641 160.536 109.037 160.536 109.037 160.913C109.037 160.913 109.037 160.913 109.037 160.989C109.037 161.366 109.641 161.366 109.641 160.989Z" fill="#AB9F6E"/>
</g>
<defs>
<clipPath id="clip0_18_2578">
<rect width="194.44" height="290.943" fill="white"/>
</clipPath>
</defs>
</svg>
