<svg width="351" height="351" viewBox="0 0 351 351" fill="none" xmlns="http://www.w3.org/2000/svg">
<path d="M227.754 236.647C222.72 241.858 218.216 247.246 213.446 251.75C214.506 252.103 215.566 252.545 216.537 252.898C217.862 253.428 219.275 253.87 220.689 254.223C222.102 254.576 223.603 254.753 225.193 254.664C226.341 254.576 227.578 254.399 228.814 253.958C231.022 251.132 233.053 248.305 235.173 245.567C234.996 243.536 234.025 241.681 232.877 240.445C231.375 238.855 229.521 237.884 227.754 236.647ZM232.877 245.921L229.609 246.627L232.082 248.129L229.079 247.687L230.669 250.072L228.284 248.57L228.902 251.662L227.313 249.277L226.871 252.721L226.341 249.63C225.811 250.778 225.37 251.838 224.84 252.986C225.016 251.838 225.193 250.69 225.37 249.63C224.575 250.602 223.78 251.573 222.985 252.545C223.515 251.397 224.045 250.337 224.486 249.189C223.515 249.895 222.543 250.69 221.483 251.397C222.278 250.425 223.073 249.454 223.868 248.482C222.808 248.924 221.748 249.365 220.6 249.718C221.572 249.012 222.543 248.305 223.515 247.51L220.335 247.687L223.515 246.451L220.777 245.479C221.837 245.479 222.897 245.391 223.956 245.302L221.925 243.359L224.663 244.331L223.515 241.593L225.546 243.536L225.458 240.268L226.518 243.094C226.871 241.946 227.224 240.798 227.489 239.65C227.489 240.71 227.489 241.858 227.489 242.918C228.107 241.858 228.814 240.798 229.432 239.738C229.079 240.886 228.726 242.035 228.372 243.183L231.11 240.533L229.167 243.713L232.258 241.946C231.375 242.83 230.492 243.624 229.521 244.508C230.58 244.243 231.64 244.066 232.788 243.801C231.729 244.331 230.669 244.949 229.697 245.567L232.877 245.921Z" fill="#E3C679"/>
<path d="M217.686 205.028C217.333 204.764 217.068 204.322 216.891 203.792C216.626 204.322 216.273 204.675 215.831 204.852C216.096 205.117 216.449 205.558 216.538 206.177C216.979 205.558 217.333 205.205 217.686 205.028Z" fill="#E3C679"/>
<path d="M218.834 196.196C218.745 196.815 218.48 197.345 218.127 197.786C218.569 197.875 219.098 198.14 219.54 198.493C219.982 198.934 220.512 199.553 220.865 200.348C221.042 199.464 221.306 198.669 221.571 198.051C221.836 197.345 222.013 196.726 222.278 196.196C221.13 195.755 219.982 194.96 218.745 194.077C218.922 194.872 218.922 195.578 218.834 196.196Z" fill="#E3C679"/>
<path d="M240.03 230.73L238.882 230.288L237.734 229.935C236.939 229.67 236.232 229.405 235.437 229.228L234.289 230.2L233.229 231.171C232.523 231.79 231.816 232.496 231.11 233.203L229.785 234.527C229.343 234.969 228.902 235.411 228.46 235.852C228.725 236.029 228.99 236.206 229.255 236.382C230.491 237.177 231.816 238.06 232.876 239.032C234.377 240.445 235.614 242.3 235.967 244.596L237.557 242.565C238.087 241.858 238.617 241.24 239.147 240.622C241.355 237.972 243.563 235.411 245.947 233.203C245.417 233.026 244.888 232.761 244.446 232.584C243.033 231.878 241.531 231.348 240.03 230.73Z" fill="#E3C679"/>
<path d="M213.976 224.547C213.887 223.929 213.976 223.222 214.241 222.516C213.534 222.957 212.827 223.134 212.209 223.134C212.297 223.664 212.209 224.371 211.768 225.165C212.739 224.724 213.446 224.547 213.976 224.547Z" fill="#E3C679"/>
<path d="M205.585 233.291C206.204 234.351 206.557 235.852 206.557 237.354C212.209 233.821 217.332 229.405 221.483 223.841C223.514 221.014 225.369 217.923 226.694 214.479C228.019 211.034 228.902 207.325 228.99 203.527C227.665 205.647 225.987 207.148 224.221 208.296C222.454 209.444 220.6 210.151 218.833 210.769C216.802 211.476 214.594 212.182 212.474 212.889C210.355 213.595 208.412 214.39 206.645 215.627C205.674 216.687 204.525 217.747 203.377 218.718C202.406 220.043 201.876 221.279 201.699 222.516C201.523 223.752 201.699 225.077 202.052 226.314C202.847 228.787 204.525 231.26 205.585 233.291ZM211.149 225.695C211.326 225.43 211.414 225.165 211.591 224.9C211.768 224.459 211.856 224.017 211.856 223.664C211.856 222.957 211.591 222.516 211.326 222.251C212.121 222.869 213.004 222.781 213.799 222.339C214.241 222.163 214.594 221.898 214.947 221.544C215.3 221.279 215.565 220.926 215.742 220.661C215.565 220.926 215.3 221.279 215.124 221.721C214.947 222.074 214.682 222.516 214.594 222.957C214.329 223.841 214.329 224.724 215.036 225.43C214.771 225.254 214.241 224.989 213.446 225.077C212.739 225.165 211.768 225.519 210.443 226.49C210.796 226.225 210.973 225.96 211.149 225.695Z" fill="#E3C679"/>
<path d="M171.14 251.308L171.228 251.132L170.521 251.485L171.14 251.308Z" fill="#E3C679"/>
<path d="M151.533 272.593C151.71 272.77 151.886 272.947 152.063 273.123C152.24 273.3 152.505 273.388 152.681 273.565C153.123 273.83 153.565 274.007 154.006 274.095C154.448 274.272 154.889 274.272 155.331 274.272C155.508 274.272 155.773 274.272 155.949 274.272C156.126 274.272 156.391 274.183 156.567 274.183C157.009 274.095 157.362 273.918 157.716 273.653C158.069 273.388 158.334 273.123 158.599 272.858C159.129 272.24 159.57 271.534 159.835 270.827C157.627 272.24 154.713 273.035 151.533 272.593Z" fill="#E3C679"/>
<path d="M223.337 255.724C222.013 255.636 220.864 255.371 219.628 255.106C217.243 254.488 214.947 253.428 212.739 252.633C212.651 252.721 212.562 252.81 212.474 252.898L211.326 253.958C210.973 254.311 210.531 254.664 210.178 255.018L209.03 255.989L208.411 256.519L207.793 256.961L206.557 257.932L205.32 258.815L204.702 259.257L204.084 259.699C203.642 259.964 203.289 260.317 202.847 260.582L200.992 261.73L199.138 262.79C199.403 265.086 200.109 267.383 200.816 269.591C201.522 271.799 202.229 274.095 202.317 276.48C202.317 277.009 202.317 277.628 202.229 278.246C206.027 276.215 209.648 273.742 213.004 271.092C216.36 268.442 219.451 265.351 222.278 262.26C224.309 259.964 226.252 257.579 228.018 255.283C227.842 255.371 227.665 255.371 227.4 255.459C225.899 255.724 224.574 255.724 223.337 255.724ZM213.269 265.616C212.209 264.645 210.884 264.645 209.648 264.91C209.03 265.086 208.411 265.351 207.881 265.616C207.351 265.881 206.91 266.234 206.468 266.499C206.822 266.234 207.263 265.793 207.616 265.351C207.97 264.91 208.411 264.38 208.676 263.85C209.206 262.702 209.295 261.553 208.411 260.405C208.765 260.759 209.471 261.2 210.443 261.2C210.973 261.2 211.503 261.112 212.209 260.847C212.916 260.582 213.622 260.14 214.505 259.434C213.799 260.317 213.357 261.023 213.092 261.73C212.827 262.437 212.651 262.967 212.651 263.496C212.651 264.556 212.916 265.263 213.269 265.616Z" fill="#E3C679"/>
<path d="M175.468 279.571C173.613 277.009 171.494 274.448 169.727 271.975C169.55 271.71 169.197 271.18 168.756 270.562C168.667 270.562 167.784 270.474 166.636 270.297C165.488 270.121 164.075 269.767 163.015 269.414C162.926 270.209 162.926 270.915 162.926 271.445C162.838 273.83 162.662 276.48 161.955 278.953C161.602 280.189 161.072 281.425 160.365 282.485C160.012 283.015 159.57 283.545 159.04 283.987C158.51 284.428 157.981 284.87 157.362 285.223C158.864 285.753 160.454 286.195 161.955 286.46C163.456 286.725 165.046 286.901 166.548 287.078C171.229 287.431 175.645 286.99 179.884 286.195C179.619 285.93 179.442 285.665 179.266 285.4C177.764 283.457 176.793 281.425 175.468 279.571ZM172.112 284.075C171.582 284.605 171.494 285.135 171.405 285.488C171.229 284.517 170.434 283.898 169.55 283.633C169.109 283.457 168.579 283.369 168.137 283.28C167.696 283.192 167.254 283.104 166.901 283.104C167.254 283.104 167.696 283.104 168.137 283.015C168.579 282.927 169.021 282.839 169.462 282.662C170.345 282.309 170.964 281.69 170.964 280.631C171.052 280.984 171.229 281.514 171.847 281.955C172.465 282.397 173.437 282.75 175.026 282.75C173.525 283.015 172.642 283.545 172.112 284.075Z" fill="#E3C679"/>
<path d="M169.374 283.015C170.169 283.28 170.875 283.633 171.317 284.075C171.67 283.633 172.2 283.192 173.083 282.839C172.112 282.662 171.494 282.22 171.14 281.867C170.787 282.397 170.257 282.75 169.374 283.015Z" fill="#E3C679"/>
<path d="M200.286 196.638L200.993 197.433C201.523 197.345 202.053 197.256 202.582 197.256C201.788 196.903 201.081 196.815 200.286 196.638Z" fill="#E3C679"/>
<path d="M198.873 266.853C198.52 265.704 198.255 264.468 198.167 263.231C197.195 263.761 196.135 264.291 195.075 264.821C194.016 265.263 192.956 265.793 191.896 266.146C188.275 267.647 184.565 268.707 180.768 269.502C180.326 269.59 179.796 269.679 179.354 269.767C178.913 269.855 178.383 269.944 177.941 270.032C176.97 270.12 175.998 270.297 175.115 270.385C173.26 270.562 171.406 270.65 169.728 270.562L169.816 270.65C171.582 272.947 173.525 275.331 175.292 277.716C176.263 278.952 177.058 280.366 177.941 281.779C178.825 283.192 179.708 284.605 180.944 285.841C187.921 284.428 194.722 282.044 200.993 278.776C201.081 278.422 201.17 277.981 201.17 277.628C201.346 274.978 200.64 272.593 199.933 270.297C199.58 269.149 199.226 268.001 198.873 266.853ZM193.397 274.978C192.602 276.303 191.189 277.363 189.423 277.981C187.657 278.599 185.802 278.511 184.389 277.893C182.976 277.274 182.004 276.303 181.739 274.89C181.651 274.536 181.651 274.095 181.651 273.742C182.181 274.713 183.241 275.508 184.477 275.861C185.095 276.038 185.802 276.126 186.508 276.126C187.215 276.126 188.01 275.95 188.716 275.773C189.511 275.508 190.13 275.155 190.748 274.801C191.013 274.625 191.278 274.36 191.543 274.183C191.808 273.918 191.984 273.653 192.249 273.388C192.602 272.858 192.956 272.328 193.132 271.71C193.309 271.18 193.309 270.562 193.309 269.944C193.574 270.209 193.751 270.562 193.927 270.915C194.369 272.24 194.192 273.742 193.397 274.978Z" fill="#E3C679"/>
<path d="M199.667 197.61L200.021 197.521L199.579 197.256L199.667 197.61Z" fill="#E3C679"/>
<path d="M152.858 259.345C153.212 259.345 153.565 259.257 153.918 259.257C154.271 259.257 154.713 259.257 155.066 259.345C155.42 259.345 155.773 259.434 156.126 259.522L156.656 259.61L157.186 259.699C157.451 259.169 157.981 258.551 158.599 257.932C158.864 257.579 159.306 257.314 159.659 256.961C160.101 256.608 160.454 256.343 160.984 255.989C160.542 255.194 159.924 254.576 159.306 253.87C157.804 252.28 156.303 250.778 155.42 248.924C154.978 248.04 154.625 246.981 154.536 245.921C154.448 244.773 154.536 243.624 154.89 242.3C155.066 241.593 155.331 240.887 155.773 240.18C156.126 239.473 156.568 238.767 157.098 238.149C154.536 239.385 152.063 240.887 149.59 242.83C147.117 244.773 144.733 247.157 142.79 250.248C142.525 250.69 142.348 251.043 142.083 251.485C141.907 251.927 141.642 252.28 141.465 252.721C141.112 253.605 140.67 254.488 140.405 255.371C140.228 255.813 140.14 256.343 139.964 256.784C139.875 257.226 139.787 257.756 139.699 258.197C139.522 259.169 139.434 260.14 139.434 261.112C139.434 263.055 139.61 265.086 140.052 266.941C140.14 267.383 140.317 267.824 140.405 268.266L140.582 268.972C140.67 269.149 140.758 269.414 140.847 269.591C141.023 270.032 141.2 270.474 141.377 270.827L141.995 272.064C142.348 268.354 143.761 265.086 145.793 262.878C147.824 260.759 150.474 259.61 152.858 259.345ZM143.85 256.431C143.585 256.784 143.32 257.137 143.143 257.579C142.966 258.021 142.79 258.462 142.613 258.904C142.525 259.169 142.436 259.345 142.436 259.61C142.348 259.875 142.348 260.14 142.348 260.405C142.348 260.67 142.26 260.935 142.26 261.2C142.26 261.465 142.26 261.73 142.26 261.995C142.26 262.525 142.348 263.055 142.525 263.585C142.172 263.055 141.995 262.437 141.818 261.818C141.2 259.345 141.642 256.519 142.966 254.488C143.32 253.958 143.585 253.516 144.026 253.075C144.38 252.721 144.821 252.368 145.174 252.015C145.351 251.838 145.616 251.75 145.793 251.662C145.969 251.573 146.234 251.485 146.411 251.397C146.852 251.22 147.206 251.132 147.647 251.132C149.237 251.043 150.297 251.927 151.004 253.075C151.269 253.605 151.533 254.311 151.71 255.018C151.798 255.724 151.887 256.431 151.887 257.137C151.887 257.579 151.887 257.932 151.798 258.374C151.622 257.844 151.357 257.314 151.092 256.784C150.827 256.254 150.474 255.813 150.12 255.459C149.325 254.664 148.266 254.223 146.941 254.488C146.234 254.664 145.616 255.018 144.998 255.548C144.38 255.813 144.115 256.078 143.85 256.431Z" fill="#E3C679"/>
<path d="M159.748 270.032C158.511 269.856 157.187 269.767 155.862 269.944C154.272 270.12 152.506 270.562 151.357 271.71C154.537 272.152 157.54 271.445 159.748 270.032Z" fill="#E3C679"/>
<path d="M159.482 281.602C160.277 280.366 160.807 279.041 161.16 277.628C161.514 276.215 161.69 274.713 161.867 273.3C161.955 272.594 162.044 271.887 162.132 271.18C162.22 270.474 162.308 269.767 162.397 269.149C162.132 269.061 161.867 268.884 161.514 268.707C161.337 268.619 161.249 268.531 161.16 268.531C161.072 268.442 160.895 268.442 160.807 268.354C160.365 268.001 159.836 267.736 159.482 267.294C158.599 266.588 157.981 265.705 157.539 264.998C157.098 264.291 156.921 263.673 156.833 263.232C156.833 263.143 156.744 263.055 156.744 262.967C156.744 262.878 156.744 262.79 156.744 262.79C156.744 262.702 156.744 262.613 156.744 262.613C156.656 262.172 156.656 261.73 156.744 261.377C156.833 260.935 156.921 260.582 157.186 260.14C155.949 259.875 154.713 259.787 153.476 259.964C152.77 260.052 152.063 260.229 151.357 260.494C151.18 260.582 151.004 260.582 150.827 260.67C150.65 260.759 150.474 260.847 150.297 260.935C149.944 261.112 149.59 261.289 149.237 261.465C148.884 261.642 148.619 261.907 148.266 262.172C147.912 262.437 147.647 262.702 147.382 262.967C146.852 263.585 146.234 264.203 145.793 264.91C144.203 267.206 143.143 270.297 143.055 273.83C144.644 276.303 146.499 278.423 148.707 280.277C148.972 280.542 149.237 280.719 149.502 280.984L150.385 281.602C150.915 282.044 151.533 282.397 152.152 282.75C152.77 283.104 153.388 283.457 154.006 283.81C154.625 284.075 155.243 284.428 155.861 284.605C157.451 283.898 158.599 282.839 159.482 281.602ZM155.243 275.155C154.978 275.155 154.625 275.066 154.36 275.066C154.183 275.066 154.095 274.978 153.918 274.978C153.741 274.89 153.653 274.89 153.476 274.802C152.24 274.36 151.18 273.565 150.297 272.417C149.237 272.152 148.089 271.799 147.029 271.269C147.824 272.682 148.707 273.918 149.767 275.066C149.944 275.243 150.12 275.42 150.209 275.596L150.297 275.685H150.385C150.562 275.685 150.827 275.773 151.092 275.861C151.622 276.038 152.063 276.48 152.328 276.921C152.593 277.451 152.593 277.893 152.328 278.158C152.063 278.423 151.622 278.511 151.004 278.246C150.385 277.981 149.855 277.363 149.767 276.833C149.767 276.656 149.767 276.48 149.855 276.303C149.855 276.303 149.767 276.303 149.767 276.215C149.325 275.861 148.972 275.42 148.619 274.978C148.266 274.537 147.912 274.095 147.647 273.653C147.029 272.77 146.411 271.799 145.881 270.739C145.793 270.65 145.793 270.562 145.793 270.474L145.351 270.209C144.733 269.767 144.909 268.796 145.528 269.149C147.029 270.209 148.619 270.915 150.209 271.269C150.209 271.269 150.209 271.18 150.297 271.18C150.915 270.386 151.798 269.944 152.77 269.591C153.212 269.414 153.741 269.326 154.271 269.237C154.801 269.149 155.243 269.061 155.773 269.061C156.744 268.972 157.628 268.972 158.511 269.061C158.687 269.061 158.952 269.061 159.129 269.061H159.394H159.659C159.836 269.061 160.012 269.149 160.277 269.149C160.454 269.149 160.63 269.149 160.807 269.237C160.984 269.237 160.984 269.414 160.984 269.502C160.984 269.591 160.895 269.767 160.807 269.856C160.542 270.915 160.1 271.887 159.482 272.77C158.864 273.653 157.981 274.36 156.833 274.713C156.391 275.066 155.861 275.155 155.243 275.155Z" fill="#E3C679"/>
<path d="M209.825 261.818C209.913 262.702 209.648 263.585 209.118 264.556C210.178 264.203 211.15 264.026 212.033 264.203C212.033 263.408 212.209 262.525 212.739 261.377C211.503 261.818 210.531 261.907 209.825 261.818Z" fill="#E3C679"/>
<path d="M138.727 221.279C139.169 220.749 139.433 220.22 139.522 219.69C139.787 218.453 139.345 217.305 138.55 216.422C138.462 217.482 138.285 218.453 138.02 219.513C137.755 220.484 137.402 221.544 137.049 222.516C137.755 222.163 138.374 221.721 138.727 221.279Z" fill="#E3C679"/>
<path d="M139.875 224.636C139.698 224.636 139.61 224.547 139.522 224.459C139.522 224.459 139.522 224.459 139.433 224.459C138.815 224.724 138.109 224.989 137.49 225.165C136.872 225.43 136.166 225.607 135.547 225.784C136.96 225.607 138.285 225.254 139.61 224.989C140.317 224.812 140.935 224.636 141.553 224.459L142.525 224.194C142.878 224.106 143.143 224.017 143.496 223.929L145.439 223.311L147.294 222.604L148.265 222.251L149.149 221.898L151.003 221.103C148.884 220.573 147.117 219.601 145.616 218.365C145.086 217.923 144.379 217.305 143.496 216.422C143.055 215.98 142.613 215.539 142.171 215.097C141.73 214.655 141.2 214.125 140.758 213.684C139.433 214.214 138.02 214.744 136.607 215.185C137.137 210.681 137.755 206.177 138.02 201.672C138.02 201.319 138.109 200.966 138.109 200.612C138.109 200.436 138.109 200.348 138.109 200.171C138.197 199.111 138.197 198.051 138.197 196.991C138.197 194.518 138.109 192.134 137.844 189.749C137.844 189.484 137.755 189.131 137.755 188.866C137.667 188.248 137.579 187.718 137.49 187.188C137.402 186.835 137.314 186.481 137.225 186.04C136.519 182.683 135.371 179.416 133.869 176.148C133.693 175.794 133.516 175.441 133.339 175.176C131.131 170.76 128.57 166.609 125.656 162.635C124.507 161.045 123.271 159.455 122.034 157.865C117.53 152.213 112.496 147.002 107.815 141.526C105.342 138.612 104.459 135.52 105.254 131.811C106.048 128.278 107.55 125.01 108.168 121.389C109.581 113.882 109.228 106.11 111.259 98.6909C112.231 95.0698 113.467 91.6253 114.439 88.0042C115.41 84.3831 116.205 80.7619 116.912 77.1408C119.12 76.6109 120.268 74.5795 120.886 72.5482C121.593 70.4285 121.946 68.3088 122.123 66.1008C123.889 66.1891 125.126 67.9555 125.479 69.5453C125.92 71.665 125.302 73.9613 124.861 75.9926C124.419 78.2006 123.977 80.4087 123.624 82.5283C122.918 86.7677 122.476 90.9188 122.123 95.2464C121.151 95.7764 120.268 96.3946 119.385 96.9245C117.53 98.161 115.675 99.3975 113.909 100.722C112.407 101.782 111.436 102.93 111.171 104.785C110.818 106.993 110.994 109.289 110.906 111.409L110.729 118.916C110.729 119.888 112.143 119.888 112.231 118.916C112.319 114.854 112.407 110.702 112.496 106.64C112.584 104.962 112.761 103.549 114.174 102.4C115.675 101.164 117.353 100.104 118.943 99.0442C124.772 95.2465 130.955 91.9786 137.402 89.4173C138.285 90.0356 139.168 90.4772 140.228 90.6538C141.465 90.8304 142.525 90.3888 143.584 89.9472C145.086 89.2407 146.587 88.5341 148.089 87.8275C148.972 89.2407 148.442 91.4487 147.647 92.6852C146.676 94.1866 144.998 95.0698 143.32 95.688C140.228 96.9245 137.314 97.9844 134.488 99.7508C131.661 101.517 129.1 103.549 126.45 105.668C125.214 106.64 124.066 107.611 123.536 109.113C122.829 111.056 122.653 113.352 122.388 115.472C122.123 117.503 121.946 119.623 121.593 121.654C121.239 123.774 121.328 125.982 120.975 128.102C120.798 129.073 122.211 129.426 122.388 128.455C122.653 126.953 122.653 125.364 122.741 123.862C122.829 123.862 122.829 123.862 122.918 123.951H123.006L123.094 124.039C123.094 124.039 123.183 124.039 123.183 124.127C123.624 124.304 123.977 124.569 124.419 124.657C124.772 124.745 125.126 124.834 125.479 124.834C124.066 127.13 122.564 129.515 121.063 131.723C119.915 133.401 118.767 135.079 117.707 136.757C116.735 138.258 115.94 139.848 116.117 141.703C116.205 142.674 117.707 142.674 117.618 141.703C117.442 140.025 118.237 138.7 119.12 137.287C120.091 135.785 121.151 134.372 122.123 132.871C123.889 130.133 125.656 127.395 127.422 124.569C128.217 123.244 129.012 121.919 129.807 120.594C130.601 119.181 131.396 117.68 132.456 116.443C134.576 114.059 138.02 112.91 140.67 111.321C143.408 109.731 145.969 107.876 148.53 106.11C148.795 105.933 149.149 105.668 149.414 105.492C149.502 105.492 149.502 105.58 149.59 105.58C150.827 106.198 152.24 106.286 153.476 105.757C154.889 105.138 156.214 104.078 157.451 103.019C157.539 102.93 157.539 102.93 157.627 102.842C158.334 104.873 154.713 108.936 153.741 110.173C151.798 112.381 149.237 113.882 147.029 115.737L146.941 115.825C144.379 117.856 141.641 120.241 139.61 122.802C138.639 124.127 138.109 125.54 137.49 127.042C136.784 128.72 135.989 130.31 134.929 131.811C134.399 132.606 135.636 133.312 136.166 132.518C136.254 132.429 136.254 132.341 136.342 132.253C137.667 135.697 137.579 139.672 136.077 143.028C135.636 143.911 136.96 144.617 137.314 143.734C137.579 143.204 137.755 142.674 137.932 142.144C138.727 143.381 139.61 144.441 140.582 145.501C141.2 146.119 141.818 146.825 142.525 147.355C143.143 147.885 143.673 148.415 144.291 148.857C146.057 150.358 148.001 151.683 149.855 153.096C151.357 154.156 152.858 155.304 154.271 156.452C157.451 159.102 160.454 162.281 161.867 166.256C162.573 168.376 162.838 170.495 162.397 172.703C162.043 174.735 161.602 176.678 161.602 178.709C161.602 180.299 161.69 181.8 161.867 183.302C161.867 183.478 161.867 183.655 161.955 183.743C162.308 186.923 162.75 190.102 162.485 193.282C161.69 194.96 160.895 196.638 160.277 198.404C159.659 199.906 159.217 201.496 158.864 203.174C153.123 207.06 147.382 210.681 141.465 213.242C141.73 213.507 141.995 213.684 142.171 213.949C143.496 215.274 144.998 216.687 146.587 217.835C148.177 218.983 150.032 219.955 152.24 220.396C155.243 219.071 158.157 217.57 160.895 215.98C161.337 216.863 161.778 217.658 162.22 218.541C162.927 220.131 163.28 221.898 163.633 223.664C164.251 227.285 164.781 230.906 165.223 234.616C164.958 234.704 164.781 234.792 164.516 234.881C163.633 235.234 162.662 235.587 161.778 235.941C161.514 236.029 161.337 236.117 161.072 236.206L160.365 236.47C159.924 236.647 159.394 236.912 158.952 237.089C157.362 238.59 156.214 240.357 155.684 242.3C155.331 243.624 155.243 244.949 155.419 246.186C155.596 247.422 156.038 248.57 156.568 249.63C157.186 250.778 158.157 251.662 159.041 252.545C159.924 253.428 160.807 254.399 161.425 255.548C162.397 254.841 163.633 254.223 164.87 253.693C165.223 253.516 165.488 253.428 165.841 253.251L166.813 252.81C167.431 252.545 168.138 252.28 168.844 252.015C169.374 251.485 169.904 250.955 170.434 250.425C169.816 250.602 169.286 250.69 168.756 250.867C168.226 251.043 167.608 251.132 167.078 251.308C167.519 251.043 168.049 250.778 168.579 250.425C169.109 250.16 169.639 249.807 170.081 249.542C169.462 249.542 168.932 249.542 168.402 249.542H166.724C167.254 249.365 167.873 249.277 168.402 249.1C168.932 248.924 169.551 248.835 170.169 248.659C169.109 248.305 168.138 247.952 167.078 247.687H168.844L170.61 247.775C169.816 247.157 169.021 246.539 168.226 245.921C169.286 246.274 170.257 246.627 171.317 246.981L169.992 244.508L172.289 246.451L172.112 243.536L173.348 246.097L174.408 243.183L174.497 246.097C175.203 245.214 175.91 244.331 176.616 243.448L175.468 246.362L178.471 244.331C177.764 245.214 176.97 246.097 176.263 246.892L179.796 245.656L176.793 247.687L180.414 247.422L176.881 248.659L178.294 248.924C182.092 247.687 186.067 246.451 190.041 245.038C188.716 244.243 187.568 243.448 186.685 242.741C184.477 240.975 182.445 239.032 180.149 237.354C177.853 235.676 175.291 234.174 172.024 233.556C171.317 233.379 170.61 233.291 169.904 233.291L168.579 233.733L167.254 234.174C167.078 234.262 166.813 234.351 166.636 234.351C166.371 232.143 166.106 230.023 165.753 227.815C165.311 225.077 164.958 222.251 164.075 219.601C163.633 218.277 163.015 217.04 162.397 215.892C162.308 215.804 162.308 215.627 162.22 215.539C161.778 214.655 161.337 213.772 160.984 212.889C160.719 212.182 160.454 211.388 160.277 210.681C160.012 209.356 159.924 207.943 160.012 206.618C160.012 206.177 160.1 205.823 160.1 205.382C160.189 204.322 160.454 203.35 160.719 202.379C161.072 201.142 161.514 199.818 161.955 198.669C162.132 198.228 162.308 197.698 162.573 197.256C164.605 192.575 167.166 188.159 168.667 183.302C169.374 180.917 169.904 178.444 170.169 175.971C170.434 173.763 170.875 171.467 170.61 169.259C170.257 167.051 168.932 165.108 167.873 163.165C166.636 160.78 165.576 158.307 164.163 156.099C161.337 151.86 157.804 148.15 154.625 144.176C154.271 143.823 153.918 143.381 153.565 142.939C152.152 141.261 150.473 139.23 150.915 137.11C150.915 137.022 151.003 136.845 151.003 136.757C151.003 136.669 151.092 136.58 151.092 136.58C151.18 136.669 151.18 136.669 151.268 136.757C151.357 136.845 151.357 136.845 151.445 136.934C152.24 137.728 152.946 138.612 153.83 139.23C154.006 139.318 154.095 139.407 154.271 139.495C155.154 140.025 156.214 140.29 157.186 140.113C158.246 139.936 159.129 139.23 159.57 138.347C160.63 139.407 161.69 140.555 162.75 141.526C165.046 143.734 167.431 145.942 169.727 148.15C171.935 150.27 174.497 152.213 176.263 154.774C178.029 157.247 179.443 159.985 181.032 162.635C181.121 163.43 182.445 163.43 182.445 162.546C182.534 159.455 185.802 157.247 185.095 154.068C184.653 152.213 183.505 150.535 182.975 148.68C182.445 146.737 182.269 144.882 181.915 142.939C181.562 141.173 180.237 139.848 179.089 138.523C177.853 136.934 176.616 135.344 175.291 133.842C174.055 132.341 172.73 130.839 171.317 129.426C169.992 128.19 168.491 127.307 167.078 126.335C165.576 125.452 164.075 124.48 162.927 123.244C162.838 123.156 162.75 123.067 162.662 122.979C161.602 121.831 160.454 119.711 161.337 118.298C161.514 118.386 161.69 118.475 161.778 118.651C162.573 119.181 163.457 119.623 164.251 120.064C164.693 120.241 165.046 120.506 165.488 120.683C165.93 120.859 166.371 121.036 166.901 121.213C168.402 121.654 169.992 121.389 171.14 120.329C171.847 120.771 172.642 121.124 173.348 121.566C177.058 123.774 180.679 126.159 184.035 128.896C185.625 130.221 187.126 131.546 188.628 132.959C190.041 134.284 191.542 135.697 192.514 137.464C193.75 139.583 194.369 141.968 195.075 144.352C195.693 146.649 196.312 148.945 196.753 151.241C197.195 153.803 197.548 156.276 197.813 158.837C197.99 160.957 197.901 163.253 198.696 165.284C199.05 166.168 200.463 165.814 200.109 164.931C199.315 162.811 199.403 160.338 199.226 158.13C199.05 155.922 198.696 153.803 198.343 151.595C197.548 147.09 196.4 142.498 194.634 138.347C193.044 134.549 189.776 131.811 186.685 129.161C183.77 126.6 180.591 124.304 177.323 122.272C177.323 122.184 177.323 122.184 177.234 122.096C175.38 119.888 173.702 117.68 172.024 115.383C171.405 114.412 170.61 113.44 170.346 112.292C170.169 111.497 170.257 110.791 170.61 110.261C171.935 111.409 173.348 112.381 174.85 113.264C176.44 114.147 178.383 114.589 179.972 113.529C181.827 115.118 183.594 116.708 185.448 118.386C189.423 121.919 193.485 125.275 197.283 128.985C199.05 130.751 200.728 132.694 201.699 134.991C202.759 137.464 203.024 140.201 203.201 142.851C203.377 145.854 203.201 148.945 203.466 151.948C203.819 154.774 204.437 157.512 205.409 160.162C205.762 161.045 207.175 160.692 206.822 159.809C205.762 156.806 205.055 153.714 204.79 150.535C204.79 150.093 204.79 149.563 204.702 149.122C205.32 150.712 205.939 152.39 206.645 153.979C207.263 155.393 207.97 156.894 208.676 158.307C209.383 159.809 210.355 161.222 210.796 162.811C211.768 165.991 209.118 169.082 207.882 171.82C206.557 174.558 205.497 177.473 204.437 180.299C204.172 181.094 203.819 181.889 203.554 182.595C202.229 186.04 200.816 189.484 199.491 192.929C199.315 193.459 199.138 193.988 198.873 194.43C198.873 194.518 198.785 194.607 198.785 194.695C198.696 194.872 198.696 195.048 198.608 195.225C198.52 195.49 198.431 195.755 198.343 196.02C198.255 196.196 198.166 196.373 198.166 196.638C198.078 196.903 197.99 197.08 197.901 197.345C197.813 197.521 197.813 197.698 197.725 197.875C197.636 198.051 197.636 198.228 197.548 198.404V198.493C197.46 198.669 197.46 198.846 197.372 199.023C197.283 199.111 197.283 199.288 197.283 199.376C196.135 202.909 195.164 206.53 194.545 210.239C194.192 212.359 194.015 214.479 193.927 216.598C193.839 219.336 194.104 222.074 194.545 224.812C192.514 225.784 190.394 226.755 188.186 227.55C183.152 229.493 177.764 231.083 172.112 232.849C175.821 233.468 179.089 235.322 181.562 237.265C183.947 239.12 186.067 241.151 188.539 242.918C189.334 243.536 190.394 244.154 191.454 244.773C192.602 244.331 193.75 243.889 194.899 243.448C196.047 242.918 197.195 242.476 198.431 241.946C199.58 241.416 200.728 240.886 201.964 240.268C203.112 239.65 204.26 239.032 205.497 238.325C205.674 235.764 204.525 233.821 203.377 231.701C202.406 230.023 201.523 228.168 201.081 226.314C200.639 224.371 200.728 222.428 201.699 220.396C200.728 221.103 199.756 221.809 198.696 222.428C198.166 222.781 197.636 223.046 197.107 223.399C196.753 223.576 196.4 223.841 195.958 224.017C195.605 221.986 195.428 219.866 195.428 217.747C195.428 215.185 195.693 212.536 196.047 209.974C196.577 206.795 197.283 203.704 198.255 200.701C198.343 200.524 198.343 200.348 198.431 200.171C198.52 199.818 198.696 199.376 198.785 199.023C198.785 198.934 198.873 198.758 198.873 198.669C198.961 198.493 198.961 198.316 199.05 198.139C199.05 198.051 199.138 197.963 199.138 197.875C199.226 197.61 199.315 197.256 199.403 196.991V196.903C199.491 196.638 199.58 196.285 199.756 196.02C199.756 195.931 199.756 195.931 199.844 195.843C199.933 195.578 200.021 195.225 200.198 194.96C200.286 194.783 200.374 194.607 200.374 194.342C200.551 193.9 200.728 193.547 200.816 193.105C201.699 192.84 202.582 192.575 203.554 192.31L202.141 193.194L201.434 193.635C201.169 193.812 200.993 193.988 200.728 194.077C201.258 193.988 201.876 193.988 202.406 193.988C202.936 193.988 203.554 193.988 204.084 193.988C203.554 194.077 203.024 194.342 202.406 194.43C201.876 194.607 201.346 194.695 200.816 194.96C201.081 195.048 201.346 195.048 201.611 195.137L202.406 195.402L203.907 195.843H202.317C202.052 195.843 201.788 195.843 201.523 195.843L200.728 195.931C201.081 196.108 201.434 196.373 201.788 196.55C202.141 196.815 202.494 197.08 202.847 197.256L204.172 197.168H205.497C205.939 196.285 206.292 195.313 206.557 194.518C207.087 192.487 207.087 190.367 207.175 188.248C207.352 186.128 207.617 184.008 209.118 182.154C207.882 182.154 206.557 182.154 205.32 182.242C205.497 181.712 205.762 181.182 205.939 180.652C207.087 177.649 208.235 174.558 209.648 171.643C210.796 169.259 212.828 166.698 212.739 163.96C212.739 162.546 212.121 161.222 211.503 159.985C210.708 158.484 209.913 156.894 209.206 155.393C207.617 151.948 206.204 148.504 205.055 144.882C205.055 144.794 204.967 144.706 204.879 144.617C204.879 143.469 204.79 142.409 204.702 141.261C204.437 138.435 203.907 135.609 202.582 133.048C201.523 131.104 200.021 129.338 198.431 127.748C197.46 124.569 195.782 121.743 194.104 119.005C192.691 116.708 191.454 114.5 190.218 112.116C190.041 111.409 189.599 110.702 189.334 109.996C188.981 109.201 188.628 108.406 188.186 107.611C187.921 107.17 187.656 106.728 187.391 106.286C187.215 106.022 187.038 105.757 186.861 105.58C186.331 105.05 185.802 104.432 185.007 104.167C184.3 103.99 183.329 104.167 182.887 104.785C182.534 105.227 182.534 105.933 182.799 106.551C180.679 107.611 180.326 109.908 180.856 112.116C179.531 110.967 178.206 109.908 176.793 109.024C176.351 108.759 175.91 108.494 175.468 108.318C175.026 108.053 174.585 107.788 174.143 107.611C174.143 107.611 174.055 107.611 174.055 107.523C173.525 107.17 172.907 106.905 172.289 106.64H172.2C172.112 106.551 171.935 106.551 171.847 106.463H171.759C171.14 106.198 170.522 106.198 169.904 106.463C169.462 106.64 169.197 106.993 169.021 107.435C168.932 107.611 168.932 107.788 168.932 107.965C168.932 108.053 168.932 108.141 168.932 108.318C169.021 108.759 169.286 109.113 169.551 109.378C169.462 109.466 169.462 109.554 169.374 109.643C168.579 110.967 168.844 112.734 169.551 114.235C169.727 114.589 169.904 114.942 170.081 115.207C171.229 116.973 172.465 118.651 173.702 120.241C172.465 119.535 171.229 118.828 169.904 118.121C169.374 117.856 168.844 117.503 168.314 117.238C167.343 116.708 166.283 116.267 165.135 116.002C165.046 115.913 164.958 115.913 164.87 115.825C163.898 115.295 162.485 114.412 161.337 114.589C160.984 114.677 160.63 114.765 160.277 115.118C159.747 115.648 159.57 116.532 160.012 117.15C160.1 117.327 160.277 117.415 160.365 117.591C159.659 118.563 159.482 119.976 160.012 121.389C160.365 122.449 160.984 123.332 161.69 124.127C163.368 125.982 165.841 127.218 167.873 128.543C171.494 130.928 174.143 134.461 176.793 137.817C177.499 138.788 178.294 139.672 179.089 140.555C180.149 141.791 180.591 142.763 180.767 144.441C181.032 146.737 181.562 148.945 182.357 151.065C182.799 152.213 183.594 153.361 183.77 154.598C183.947 155.657 183.417 156.629 182.975 157.512C182.445 158.484 181.915 159.455 181.474 160.515C180.326 158.484 179.089 156.452 177.853 154.509C176.44 152.301 174.497 150.623 172.642 148.857C168.138 144.617 163.722 140.378 159.217 136.139C158.334 135.344 157.451 134.461 156.479 133.931C156.303 133.842 156.214 133.666 156.038 133.577C155.949 133.489 155.773 133.401 155.684 133.312C155.419 133.136 155.243 132.959 154.978 132.783C154.713 131.988 154.448 131.281 154.095 130.486C154.006 130.133 153.83 129.78 153.653 129.515C153.476 129.073 153.3 128.72 153.123 128.278C152.946 127.837 152.681 127.395 152.505 126.953C151.18 124.127 149.502 121.389 147.736 118.828C147.559 118.563 147.294 118.298 147.117 117.945C147.206 117.856 147.382 117.768 147.471 117.68C148.089 117.238 148.619 116.708 149.237 116.267C150.473 115.383 151.798 114.5 152.946 113.529C154.271 112.381 155.419 111.056 156.479 109.643C157.009 108.936 157.804 107.965 158.422 106.993C158.511 106.905 158.511 106.816 158.599 106.728C159.482 105.227 160.012 103.637 159.041 102.224C159.217 102.135 159.305 101.959 159.482 101.87C159.747 101.606 160.1 101.341 160.277 100.987C160.895 100.634 160.984 99.7508 160.63 99.1325C160.365 98.6909 159.924 98.5143 159.394 98.5143C158.952 98.5143 158.599 98.6026 158.157 98.7793C158.069 98.8676 157.892 98.8676 157.804 98.9559C157.627 99.0442 157.451 99.1325 157.274 99.2209C156.656 99.5741 156.126 99.8391 155.596 100.192C155.066 100.546 154.536 100.899 154.006 101.252C153.388 101.517 152.858 101.782 152.328 102.135C149.325 104.167 146.499 106.375 143.496 108.318C142.966 108.671 142.436 109.024 141.906 109.289C140.847 108.053 139.963 106.64 139.168 105.227C138.55 104.078 137.755 103.019 136.607 102.665C136.607 102.577 136.519 102.577 136.519 102.489C136.254 102.224 135.989 101.959 135.724 101.694C135.636 101.606 135.547 101.517 135.371 101.341C136.519 100.634 137.755 99.9274 138.992 99.3092C141.906 97.8961 145.439 97.3661 147.824 95.0698C149.767 93.3034 150.827 89.7706 149.502 87.3859C150.032 87.121 150.473 86.9444 151.003 86.6794C151.798 86.2378 152.593 85.2663 151.71 84.4714C151.268 84.1181 150.738 84.0298 150.209 84.1181C149.237 84.0298 148.089 84.4714 147.294 84.8247H147.206C146.587 85.0013 146.057 85.2663 145.439 85.5312C143.584 85.7079 141.553 86.5911 140.052 87.121C139.168 87.4743 138.285 87.7392 137.402 88.0925H137.314C132.633 89.9472 128.128 92.1552 123.712 94.6282C123.977 90.8304 124.419 87.0327 125.037 83.2349C125.391 81.3802 125.656 79.5254 126.097 77.6707C126.539 75.6394 127.069 73.608 127.157 71.5766C127.245 68.927 125.92 65.8358 123.183 65.0409C122.918 64.9526 122.564 64.9526 122.299 64.8643C122.388 63.8928 122.476 62.6563 122.123 61.7731C121.769 60.8016 120.886 60.5366 120.003 60.8899C118.06 61.7731 117.795 64.2461 117.53 66.0125C117.353 67.0723 117.177 68.0438 117.088 69.1037C116.47 70.8701 116.294 72.9014 115.94 74.7562C115.322 78.6423 114.439 82.44 113.467 86.3261C112.407 90.2122 111.083 94.0983 110.023 97.9844C109.493 99.8391 109.14 101.694 108.786 103.637C107.373 98.3377 106.048 93.0384 104.282 87.9159C103.31 85.0896 102.339 82.2634 100.926 79.7021C99.7777 77.4941 97.923 75.4627 95.3617 75.1978C95.0967 75.1978 94.9201 75.1978 94.6551 75.1978C94.0369 73.1664 93.3303 71.135 92.5354 69.192C92.3588 68.7504 91.7405 68.3971 91.2989 68.8387C89.6208 70.6934 90.1508 73.2547 90.769 75.4627C90.9457 76.2576 91.2106 77.0525 91.3873 77.759C91.2989 78.1123 91.2989 78.3773 91.2989 78.7306C91.5639 81.8218 92.7121 84.8247 93.242 87.8275C93.9485 91.272 94.3901 94.6282 94.7434 98.161C95.0084 101.252 94.8317 104.52 95.2733 107.611C95.5383 109.289 96.3332 110.702 97.1281 112.204L99.6894 117.503C101.367 120.948 103.134 124.392 104.812 127.925C104.37 129.426 103.929 131.016 103.664 132.518C103.134 135.609 103.664 138.523 105.43 141.085C107.285 143.823 109.846 146.207 112.143 148.68C116.294 153.361 120.356 158.13 124.066 163.165C125.037 164.489 125.92 165.726 126.804 167.139C128.658 169.965 130.425 172.88 132.015 175.971C133.693 179.327 135.017 182.772 135.812 186.481C133.428 186.835 131.043 187.276 128.658 187.894C127.069 188.336 125.479 188.778 123.977 189.307C122.388 189.926 120.886 190.544 119.385 191.339C119.915 191.515 120.356 191.78 120.798 191.957C121.239 192.222 121.681 192.487 122.123 192.84C122.918 193.459 123.624 194.165 124.331 194.872C127.952 192.84 132.103 191.427 136.342 190.367C136.431 190.191 136.431 190.102 136.519 189.926C136.96 193.459 136.96 196.903 136.784 200.436C136.784 200.966 136.696 201.496 136.696 202.026C136.696 202.555 136.607 203.174 136.519 203.704C136.166 207.501 135.636 211.299 135.194 215.009C135.194 215.274 135.106 215.627 135.106 215.892C133.428 216.422 131.661 216.775 129.895 217.04C130.16 218.63 130.778 220.22 131.043 221.809C131.22 222.604 131.308 223.399 131.22 224.194C131.131 224.989 130.955 225.784 130.425 226.579C130.778 226.579 131.043 226.579 131.396 226.49L132.368 226.402L133.339 226.314C133.516 226.314 133.693 226.314 133.781 226.225C133.074 231.171 132.368 236.206 131.485 241.151C131.573 241.151 131.661 241.151 131.838 241.151C132.28 241.151 132.633 241.24 132.986 241.416C133.958 235.587 134.841 229.846 135.636 224.017C135.812 223.752 135.901 223.487 135.989 223.222C135.989 223.222 135.901 223.222 135.901 223.134C134.841 221.986 134.752 220.396 135.282 218.895C135.547 218.188 135.901 217.482 136.431 216.863C136.696 216.598 136.96 216.245 137.225 215.98C137.49 215.715 137.844 215.45 138.109 215.185C138.374 215.009 138.639 215.185 138.639 215.362C139.787 216.51 140.67 218.012 140.228 219.69C140.052 220.396 139.698 221.103 139.08 221.721C138.462 222.339 137.667 222.869 136.784 223.134C136.519 223.841 136.077 224.459 135.724 225.165C136.696 224.901 137.667 224.459 138.639 224.106L139.08 223.929C139.08 223.929 139.08 223.929 139.168 223.929C139.168 223.929 139.168 223.929 139.168 223.841C139.168 223.752 139.257 223.576 139.345 223.487C139.61 223.222 139.963 223.046 140.317 223.046C141.112 223.046 141.553 223.664 140.935 224.194C140.758 224.636 140.228 224.724 139.875 224.636ZM159.217 213.596L157.716 212.801L158.069 214.39L157.097 213.154C157.009 213.772 156.921 214.302 156.833 214.832L156.479 213.242L155.508 214.92L155.861 213.242L154.36 214.744L155.331 213.066C154.713 213.419 154.095 213.772 153.476 214.125C154.006 213.684 154.448 213.154 154.978 212.712C154.271 212.889 153.653 213.066 153.035 213.242C153.653 212.889 154.271 212.536 154.889 212.182H152.946L154.889 211.652L153.211 211.123H155.154L153.918 210.063C154.448 210.239 155.066 210.416 155.596 210.593L154.889 209.18L156.126 210.239L156.038 208.561L156.744 209.974L157.274 208.296L157.362 209.974C157.716 209.444 158.157 208.915 158.511 208.385L157.981 210.151L158.952 209.356C158.952 209.444 158.952 209.533 158.952 209.709L158.422 210.416L159.041 210.151C159.041 210.239 159.129 210.416 159.129 210.504L158.687 210.858L159.129 210.769C159.129 210.858 159.217 211.034 159.217 211.123L158.776 211.299L159.305 211.388C159.305 211.476 159.394 211.652 159.394 211.741C159.129 211.829 158.864 211.829 158.599 211.829L159.57 212.271C159.57 212.359 159.659 212.447 159.659 212.536C159.217 212.447 158.776 212.447 158.334 212.359L159.217 213.596ZM196.135 228.257C196.4 228.433 196.665 228.61 196.842 228.787C197.636 229.493 198.078 230.376 198.166 231.436C198.166 231.966 198.166 232.584 197.901 233.203C197.901 233.291 197.813 233.379 197.813 233.468C197.636 233.997 197.283 234.527 196.842 234.969C196.665 235.146 196.577 235.322 196.4 235.411C196.047 235.764 195.605 236.117 195.252 236.382C196.047 235.234 196.312 233.997 196.135 232.938C195.958 231.878 195.252 230.906 194.192 230.2C192.072 228.875 188.981 229.052 186.596 230.553C186.861 230.2 187.126 229.846 187.48 229.493C188.716 228.345 190.218 227.638 191.719 227.373C192.867 227.197 194.015 227.285 195.075 227.638C195.517 227.992 195.87 228.08 196.135 228.257ZM201.346 191.78C201.434 191.604 201.523 191.339 201.611 191.162C201.788 191.074 202.052 190.897 202.229 190.809C201.964 191.074 201.699 191.427 201.346 191.78ZM182.357 108.671C182.622 108.23 182.887 107.965 183.24 107.788C183.77 109.289 184.388 110.702 185.183 112.027C186.155 113.529 187.656 114.765 189.511 114.589C189.599 114.589 189.599 114.589 189.688 114.5C191.631 118.121 194.104 121.478 195.782 125.275C191.719 121.566 187.48 117.945 183.417 114.235C183.152 113.97 182.887 113.705 182.622 113.529C182.71 113.352 182.71 113.175 182.622 112.999C182.004 111.674 181.562 109.996 182.357 108.671ZM165.488 160.868C166.106 162.017 166.636 163.253 167.254 164.401C167.961 165.638 168.667 166.874 169.109 168.199C169.904 170.495 169.286 173.057 168.932 175.441C168.314 180.74 166.548 185.598 164.34 190.367C164.251 187.011 163.633 183.743 163.457 180.387C163.368 178.002 163.633 175.883 164.163 173.586C164.516 171.643 164.605 169.7 164.163 167.846C163.722 165.638 162.75 163.695 161.602 161.928C161.514 160.957 161.425 160.073 161.072 159.102C160.63 157.777 160.189 156.452 159.835 155.128C159.394 153.714 158.952 152.213 158.511 150.8C161.072 153.803 163.633 157.071 165.488 160.868ZM148.619 122.272C149.414 123.509 150.12 124.834 150.827 126.159C151.003 126.6 151.268 126.953 151.445 127.395C151.71 128.013 152.063 128.631 152.328 129.25C152.505 129.603 152.593 129.956 152.77 130.31C152.946 130.663 153.123 131.104 153.211 131.546C152.417 131.281 151.445 131.281 150.738 131.723C149.855 132.164 149.237 133.224 149.59 134.196C149.767 134.549 149.944 134.902 150.209 135.256C150.12 135.432 150.032 135.609 149.944 135.874C149.767 136.227 149.679 136.669 149.679 137.022C149.679 137.199 149.679 137.375 149.679 137.552C149.679 138.788 150.209 140.113 150.827 141.173C151.533 142.409 152.505 143.469 153.388 144.617C154.183 145.589 155.066 146.56 155.861 147.532C155.949 147.62 155.949 147.709 156.038 147.709C156.833 150.182 157.627 152.655 158.422 155.128C158.776 156.364 159.217 157.601 159.57 158.837C159.57 159.014 159.659 159.102 159.659 159.279C157.274 156.629 154.271 154.333 151.357 152.213C151.092 152.036 150.915 151.86 150.65 151.683C149.855 151.153 149.149 150.623 148.442 150.093C147.647 149.475 146.852 148.945 146.146 148.327C144.556 147.002 142.966 145.589 141.641 144.088C140.582 142.939 139.698 141.615 138.904 140.29C139.522 137.11 139.08 133.842 137.667 130.839C138.109 129.956 138.639 129.073 138.992 128.19C139.08 128.013 139.168 127.837 139.168 127.66C140.758 131.546 141.818 135.697 142.79 139.848C142.79 140.025 142.878 140.113 142.966 140.201C143.408 140.643 144.379 140.29 144.203 139.495C144.114 139.053 144.026 138.7 143.938 138.258C142.878 134.019 141.73 129.78 139.963 125.805C140.317 124.922 140.847 124.039 141.465 123.332C142.878 121.743 144.468 120.153 146.146 118.74C147.029 119.711 147.824 120.948 148.619 122.272ZM128.393 120.771C127.952 121.566 127.422 122.272 126.98 123.067H126.892C126.804 123.156 126.715 123.156 126.627 123.244L126.45 123.332C126.362 123.332 126.274 123.421 126.185 123.421H126.009H125.832C125.744 123.421 125.655 123.421 125.567 123.332C125.479 123.332 125.391 123.244 125.302 123.244C125.302 123.244 125.302 123.244 125.214 123.244C125.214 123.244 125.126 123.244 125.126 123.156C124.507 122.891 123.977 122.537 123.359 122.449C123.624 120.329 123.889 118.298 124.154 116.178C124.419 114.147 124.596 111.939 125.214 109.908C125.744 108.23 127.334 107.081 128.747 106.022C129.012 106.64 129.453 107.258 129.807 107.876C129.807 108.141 129.807 108.406 129.807 108.759C129.895 109.819 130.513 110.791 130.955 111.762C131.396 112.822 131.926 113.882 132.368 114.942C130.69 116.532 129.63 118.651 128.393 120.771ZM136.342 103.725C137.137 104.078 137.49 104.873 137.932 105.492C138.727 106.993 139.61 108.406 140.67 109.643C138.55 110.879 136.431 112.027 134.311 113.264C134.046 113.44 133.781 113.617 133.516 113.794C133.074 112.822 132.633 111.939 132.191 110.967C131.75 110.084 131.22 109.113 131.131 108.141C131.131 106.463 132.456 104.697 133.869 103.902C134.664 103.637 135.636 103.372 136.342 103.725ZM98.3646 110.791C97.7463 109.466 97.0397 108.23 96.9514 106.728C96.7748 105.315 96.8631 103.814 96.7748 102.4C96.5981 99.4858 96.3332 96.6596 95.9799 93.8333C95.6266 91.0954 95.185 88.2691 94.5668 85.6195C94.5668 85.5312 94.5668 85.4429 94.4785 85.3546C94.7434 85.3546 95.0967 85.1779 95.185 84.913C96.1565 82.44 95.9799 79.7904 95.3617 77.2291C95.2733 76.9642 95.185 76.6992 95.185 76.4342C95.9799 76.5226 96.8631 76.8758 97.393 77.2291C98.6295 78.024 99.4244 79.3488 100.043 80.5853C101.367 83.1466 102.339 85.8845 103.222 88.5341C105.254 94.6282 106.755 100.811 108.433 106.993C108.433 107.081 108.521 107.081 108.521 107.17C108.433 107.876 108.345 108.583 108.256 109.289C107.903 113.175 107.638 117.15 106.932 120.948C106.667 122.537 106.137 124.127 105.607 125.629C103.222 120.771 100.749 115.737 98.3646 110.791Z" fill="#E3C679"/>
<path d="M111.348 197.433C110.995 197.786 110.73 198.139 110.465 198.493C110.288 198.758 110.112 198.934 109.935 199.199C109.759 199.464 109.582 199.729 109.405 199.906C109.582 200.524 109.759 201.054 110.112 201.584C110.377 202.114 110.73 202.467 111.172 202.82C112.143 203.704 113.291 204.322 114.351 204.852C114.704 203.969 115.234 203.085 115.764 202.29C116.736 200.877 117.884 199.553 119.297 198.316C120.004 197.698 120.71 197.168 121.417 196.55C122.212 196.02 122.918 195.49 123.713 195.048C123.007 194.253 122.212 193.547 121.417 192.929C120.534 192.31 119.65 191.869 118.591 191.604C117.531 192.222 116.471 192.929 115.499 193.635C115.411 193.9 115.323 194.077 115.234 194.342C115.588 193.988 115.941 193.723 116.383 193.37C116.118 193.723 115.853 194.165 115.499 194.518C115.941 194.342 116.383 194.077 116.736 193.9C116.383 194.165 116.029 194.518 115.588 194.783C116.029 194.695 116.471 194.607 116.824 194.518C116.383 194.695 116.029 194.96 115.588 195.137C115.941 195.137 116.383 195.225 116.736 195.225L116.118 195.313L115.499 195.49C115.853 195.666 116.118 195.843 116.471 195.931C116.118 195.931 115.676 195.843 115.323 195.843L115.941 196.638C115.588 196.461 115.323 196.285 114.969 196.196C115.058 196.55 115.146 196.903 115.234 197.256L114.616 196.461C114.528 196.903 114.528 197.256 114.528 197.61C114.44 197.256 114.351 196.903 114.263 196.55C114.086 196.991 113.91 197.345 113.821 197.786C113.821 197.433 113.91 196.991 113.91 196.55C113.645 196.903 113.38 197.345 113.115 197.698C113.291 197.256 113.468 196.903 113.556 196.461C113.203 196.815 112.85 197.08 112.496 197.433C112.761 196.991 113.026 196.638 113.291 196.196C112.85 196.461 112.496 196.638 112.055 196.903C112.408 196.55 112.761 196.196 113.203 195.931L112.32 196.373C111.967 196.726 111.613 197.08 111.348 197.433Z" fill="#E3C679"/>
<path d="M129.276 217.04C128.57 217.128 127.952 217.217 127.245 217.305C126.539 217.393 125.92 217.393 125.302 217.393C124.86 217.482 124.419 217.482 123.977 217.57C124.419 217.835 124.949 218.1 125.479 218.365C124.86 218.276 124.331 218.188 123.801 218.011C124.154 218.365 124.507 218.806 124.949 219.16C124.419 218.895 123.889 218.63 123.447 218.365C123.624 218.806 123.889 219.336 124.066 219.778C123.712 219.425 123.271 218.983 122.917 218.541C122.917 219.071 122.917 219.513 122.917 220.043C122.741 219.601 122.564 219.071 122.387 218.63C122.211 219.071 121.946 219.513 121.769 220.043L121.858 218.541C121.504 218.895 121.063 219.248 120.709 219.601C120.974 219.16 121.239 218.718 121.416 218.276C120.886 218.453 120.444 218.718 119.915 218.895C120.356 218.541 120.709 218.276 121.151 217.923C120.621 218.011 120.091 218.011 119.561 218.011C120.091 217.835 120.533 217.658 121.063 217.482C120.533 217.393 120.091 217.217 119.561 217.04C119.914 217.04 120.179 217.04 120.533 217.04C119.738 216.863 119.031 216.598 118.325 216.245C117.706 215.98 117 215.539 116.47 215.097C115.94 216.068 115.498 217.04 115.234 218.1C114.969 219.16 114.792 220.308 114.969 221.456C115.145 222.516 115.587 223.576 116.47 224.636C118.59 225.519 120.798 226.137 123.006 226.402C124.066 226.579 125.125 226.667 126.185 226.667C127.245 226.755 128.305 226.755 129.276 226.667C130.248 225.519 130.601 224.106 130.513 222.869C130.248 221.014 129.541 218.983 129.276 217.04Z" fill="#E3C679"/>
<path d="M136.077 218.895C135.635 220.131 135.723 221.368 136.43 222.339C136.871 221.279 137.225 220.308 137.49 219.248C137.578 218.718 137.755 218.188 137.843 217.747C137.931 217.217 138.02 216.687 138.02 216.157C137.578 216.598 137.225 217.04 136.871 217.482C136.518 217.923 136.253 218.365 136.077 218.895Z" fill="#E3C679"/>
<path d="M290.284 222.163C289.931 221.809 289.489 221.544 289.136 221.191C288.694 220.838 288.341 220.573 287.899 220.22C287.458 219.866 287.016 219.69 286.486 219.336C285.78 218.983 285.073 218.541 284.278 218.277C285.073 218.277 285.956 218.188 286.751 218.188C287.281 218.188 287.899 218.1 288.429 218.1C288.959 218.1 289.577 218.012 290.107 218.012C290.637 218.012 291.167 217.923 291.785 217.835C292.315 217.747 292.845 217.747 293.375 217.747C297.703 217.305 301.677 217.04 305.652 216.598C301.324 216.422 296.996 216.422 292.58 216.422C291.697 216.422 290.725 216.422 289.842 216.422H288.429C287.988 216.422 287.458 216.422 287.016 216.422C286.574 216.422 286.045 216.422 285.603 216.422C285.161 216.422 284.72 216.333 284.19 216.422C283.307 216.422 282.335 216.422 281.452 216.333C281.01 215.804 280.569 215.274 280.039 214.832C279.509 214.39 278.891 214.037 278.272 213.861C277.654 213.596 276.948 213.331 276.329 213.154C274.74 212.624 273.15 212.271 271.56 211.741C269.794 211.211 268.469 209.886 266.702 209.356C265.289 208.915 263.876 208.826 262.375 209.003C259.46 209.356 256.722 210.681 254.338 212.359C253.984 212.624 253.631 212.801 253.278 213.154C252.924 213.419 252.571 213.772 252.218 214.037C252.218 214.037 251.688 214.832 250.893 216.069C250.805 216.245 250.716 216.422 250.54 216.51C250.451 216.687 250.275 216.863 250.187 217.04C249.922 217.393 249.745 217.835 249.48 218.188C249.215 218.63 248.95 218.983 248.685 219.425C248.42 219.866 248.067 220.308 247.802 220.749L245.771 221.809C248.243 223.399 249.833 225.872 250.628 228.61C250.628 228.698 250.716 228.875 250.716 228.963C251.158 228.698 251.511 228.345 251.953 228.08C252.395 228.08 252.836 228.168 253.278 228.168C253.719 228.257 254.161 228.257 254.514 228.345C254.956 228.433 255.309 228.522 255.662 228.522C255.839 228.522 256.016 228.61 256.192 228.61C256.369 228.698 256.546 228.698 256.634 228.698C259.283 229.493 262.11 229.758 264.848 229.228C265.024 229.228 265.201 229.14 265.378 229.052C265.554 228.963 265.731 228.963 265.908 228.963C266.261 228.875 266.614 228.787 266.879 228.61C267.144 228.522 267.497 228.345 267.762 228.168C267.851 228.08 268.027 227.992 268.116 227.903C268.204 227.815 268.38 227.727 268.469 227.638C269.97 226.579 270.853 224.989 272.443 223.929C273.945 222.957 275.711 222.516 277.477 221.986C278.184 221.721 278.891 221.456 279.597 221.014C279.862 220.838 281.275 219.513 281.54 219.513C282.335 219.69 283.13 219.955 283.837 220.22C284.543 220.485 285.338 220.838 286.045 221.191C286.398 221.368 286.751 221.544 287.104 221.721C287.458 221.898 287.811 222.163 288.076 222.339C288.694 222.781 289.312 223.222 289.931 223.664C292.845 226.137 294.788 229.228 295.848 232.231C295.141 229.228 293.817 225.872 291.167 223.046C290.99 222.869 290.637 222.516 290.284 222.163ZM267.056 218.718C266.791 219.336 266.437 219.955 265.996 220.573C265.466 221.103 264.936 221.633 264.229 221.986C263.523 222.428 262.816 222.781 262.021 222.957C261.58 223.046 261.227 223.134 260.785 223.222C260.343 223.311 259.99 223.311 259.548 223.311C258.754 223.311 257.959 223.222 257.252 222.957C255.839 222.604 254.691 221.721 254.161 220.485C253.984 220.131 253.896 219.778 253.896 219.336C254.249 219.778 254.779 220.131 255.309 220.396C255.574 220.573 255.839 220.661 256.192 220.749C256.369 220.838 256.457 220.838 256.634 220.838C256.811 220.838 256.987 220.926 257.075 220.926C257.694 221.103 258.4 221.103 259.107 221.103C259.46 221.103 259.813 221.014 260.167 220.926C260.52 220.838 260.873 220.838 261.315 220.661C262.021 220.485 262.728 220.22 263.346 219.778C263.964 219.425 264.583 219.071 265.024 218.63C265.996 217.747 266.702 216.598 266.879 215.539C267.056 215.892 267.144 216.245 267.232 216.598C267.409 217.393 267.321 218.1 267.056 218.718ZM277.389 219.601C276.859 220.043 276.064 220.308 275.269 220.308C274.828 220.308 274.475 220.22 274.121 220.131C273.768 220.043 273.415 219.866 273.15 219.69C272.62 219.336 272.178 218.718 272.178 218.1C272.178 217.482 272.443 216.863 273.061 216.422C273.326 216.157 273.68 215.98 274.121 215.892C274.475 215.804 274.916 215.715 275.358 215.715C276.241 215.715 277.036 215.98 277.654 216.422C278.184 216.863 278.537 217.482 278.449 218.188C278.272 218.63 277.919 219.248 277.389 219.601Z" fill="#E3C679"/>
<path d="M109.67 217.217C109.847 217.747 109.935 218.188 109.935 218.541C110.288 218.541 110.641 218.63 111.171 218.895C110.906 218.365 110.818 217.923 110.818 217.658C110.465 217.658 110.112 217.482 109.67 217.217Z" fill="#E3C679"/>
<path d="M239.323 226.137C238.352 226.844 237.38 227.638 236.497 228.345C237.822 228.787 239.147 229.316 240.471 229.758C242.15 230.376 243.828 231.083 245.506 231.789C245.859 231.966 246.301 232.143 246.831 232.319C247.36 231.789 247.89 231.348 248.509 230.906C249.039 230.465 249.657 229.935 250.187 229.493C247.36 227.903 244.623 226.137 242.415 223.929C241.266 224.724 240.295 225.43 239.323 226.137Z" fill="#E3C679"/>
<path d="M109.669 208.826C109.227 209.798 108.874 210.681 108.256 211.476C108.962 211.829 109.669 212.536 110.552 213.33C110.464 212.094 110.905 211.299 111.347 210.769C110.641 210.504 110.022 209.886 109.669 208.826Z" fill="#E3C679"/>
<path d="M209.383 183.655C209.03 184.273 208.853 184.891 208.677 185.51C208.323 186.746 208.235 188.071 208.147 189.396C208.059 190.721 207.97 191.957 207.705 193.282C207.44 194.518 207.087 195.755 206.469 196.991L208.765 197.08C209.472 197.168 210.178 197.256 210.708 197.345C210.885 197.345 210.885 197.433 210.973 197.433C211.061 197.433 211.061 197.521 211.15 197.521C211.238 197.61 211.415 197.61 211.503 197.698C211.768 197.786 211.945 197.963 212.121 198.139C212.386 198.404 212.563 198.669 212.651 198.934C212.739 199.111 212.739 199.199 212.828 199.376C212.828 199.464 212.828 199.553 212.828 199.641C212.828 199.729 212.828 199.729 212.828 199.729C212.828 199.818 212.828 199.906 212.828 199.994C212.916 200.259 212.916 200.612 212.916 200.966C212.916 201.319 212.916 201.672 212.916 202.114C212.916 202.555 212.828 202.909 212.828 203.35C212.739 203.792 212.739 204.145 212.651 204.587C212.033 207.855 210.443 211.034 208.059 213.949C209.56 213.154 211.061 212.447 212.563 211.917C213.888 211.387 215.301 211.034 216.714 210.504C218.127 210.063 219.54 209.533 220.953 208.915C222.366 208.296 223.78 207.501 225.016 206.53C225.723 206 226.252 205.47 226.871 204.763C227.489 204.057 228.019 203.35 228.549 202.467C228.725 202.202 228.814 201.937 228.99 201.672C228.99 200.524 228.902 199.288 228.725 198.051C228.637 197.433 228.549 196.815 228.372 196.02C228.284 195.667 228.196 195.313 228.107 194.96C228.019 194.607 227.842 194.253 227.754 193.9C226.782 191.074 225.104 188.513 222.808 186.481C221.042 184.98 218.922 183.832 216.714 183.125C216.184 182.948 215.566 182.772 215.036 182.683C214.506 182.595 213.888 182.418 213.446 182.33C212.475 182.154 211.591 182.065 210.708 182.065C210.09 182.507 209.648 183.125 209.383 183.655ZM217.42 192.31C218.48 192.929 219.628 193.723 220.777 194.342C221.042 194.518 221.395 194.607 221.66 194.783C221.925 194.872 222.278 195.048 222.543 195.048C223.161 195.225 223.868 195.225 224.574 194.96C223.956 195.313 223.161 196.196 222.543 197.698C221.925 199.111 221.307 201.054 220.777 203.969C220.777 203.615 220.688 203.262 220.688 202.909C220.6 202.555 220.6 202.291 220.512 201.937C220.335 201.319 220.158 200.877 219.893 200.436C219.452 199.553 218.834 199.023 218.304 198.758C217.774 198.404 217.155 198.404 216.714 198.404C216.272 198.404 215.831 198.493 215.477 198.581C216.184 198.316 216.714 197.963 217.155 197.521C217.597 197.08 217.862 196.55 217.95 196.02C218.039 195.49 218.039 194.872 217.862 194.253C217.685 193.635 217.42 193.105 217.067 192.664C216.537 192.045 215.831 191.515 215.301 191.25C215.919 191.604 216.626 191.869 217.42 192.31ZM215.831 204.41C216.096 204.234 216.272 204.057 216.449 203.792C216.802 203.262 216.891 202.644 216.891 202.202C216.891 202.644 216.979 203.262 217.244 203.88C217.509 204.41 217.95 204.94 218.745 205.117C218.48 205.117 218.039 205.205 217.597 205.47C217.42 205.647 217.155 205.823 216.979 206.177C216.891 206.353 216.802 206.53 216.626 206.707C216.537 206.883 216.449 207.148 216.361 207.413C216.449 206.883 216.361 206.442 216.272 206.088C216.184 205.735 216.007 205.47 215.831 205.293C215.477 204.94 215.036 204.763 214.771 204.675C215.212 204.675 215.566 204.587 215.831 204.41Z" fill="#E3C679"/>
<path d="M249.745 228.345V228.257C249.215 226.932 248.509 225.695 247.626 224.635C246.919 223.752 245.947 222.957 244.976 222.427L243.298 223.487C244.269 224.459 245.329 225.342 246.389 226.137C247.449 226.843 248.509 227.55 249.745 228.345Z" fill="#E3C679"/>
<path d="M112.937 195.843L112.672 196.108C112.849 196.02 112.937 195.931 113.113 195.843H112.937Z" fill="#E3C679"/>
<path d="M114.704 194.253V194.43C114.792 194.342 114.881 194.165 114.969 194.077C114.881 194.077 114.792 194.165 114.704 194.253Z" fill="#E3C679"/>
<path d="M114.704 216.422C115.057 215.715 115.41 215.097 115.763 214.39C115.145 213.86 114.615 213.242 114.174 212.536C113.732 211.917 113.467 211.211 113.29 210.504C113.202 210.151 113.114 209.798 113.114 209.356C113.114 209.003 113.114 208.65 113.202 208.208C113.29 207.413 113.555 206.53 113.909 205.647C113.025 205.293 112.231 204.94 111.436 204.41C110.817 204.057 110.288 203.615 109.758 202.997C109.228 202.467 108.874 201.761 108.521 200.966C107.461 202.644 106.666 204.499 106.136 206.618C106.048 207.148 105.96 207.678 105.872 208.296C105.783 208.826 105.783 209.444 105.783 210.063C105.783 211.211 105.96 212.359 106.225 213.507C106.49 214.655 107.02 215.715 107.55 216.687C108.08 217.658 108.698 218.63 109.493 219.425C110.906 221.103 112.672 222.516 114.615 223.576C113.644 221.721 113.555 220.043 113.909 218.541C114.085 217.835 114.35 217.128 114.704 216.422ZM110.994 219.071C110.641 218.895 110.464 218.895 110.199 218.806C109.758 218.718 109.493 218.895 109.316 218.983C109.669 218.541 109.669 217.923 109.493 217.393C109.404 217.128 109.316 216.863 109.139 216.598C109.051 216.333 108.874 216.068 108.786 215.892C108.874 216.068 109.051 216.333 109.228 216.51C109.404 216.687 109.669 216.863 109.846 217.04C110.376 217.305 110.817 217.393 111.347 217.04C111.259 217.217 111.082 217.482 111.082 217.923C111.082 218.188 111.171 218.453 111.347 218.718C111.524 218.983 111.701 219.336 112.054 219.69C111.701 219.425 111.347 219.248 110.994 219.071ZM112.407 210.769C112.142 210.946 111.789 211.211 111.524 211.564C111.436 211.741 111.259 212.006 111.259 212.271C111.171 212.536 111.171 212.801 111.171 213.154C111.171 213.86 111.347 214.655 111.877 215.539C111.171 214.832 110.552 214.214 110.023 213.684C109.493 213.154 109.051 212.801 108.609 212.536C108.168 212.271 107.815 212.094 107.373 212.006C106.931 211.917 106.666 211.917 106.49 211.917C107.196 211.652 107.638 211.211 108.08 210.769C108.433 210.239 108.786 209.709 109.051 209.091C109.581 207.943 110.023 206.707 110.288 205.823C110.199 206.265 110.111 206.795 110.111 207.413C110.111 207.943 110.199 208.561 110.464 209.091C110.729 209.621 111.082 210.063 111.524 210.239C112.054 210.504 112.584 210.593 113.29 210.504C113.025 210.504 112.672 210.593 112.407 210.769Z" fill="#E3C679"/>
<g opacity="0.5">
<path opacity="0.5" d="M255.963 19.3975L246.295 37.663L247.466 38.2827L257.134 20.0173L255.963 19.3975Z" fill="#E3C679"/>
<path opacity="0.5" d="M213.622 119.8L264.406 48.6134L263.346 47.9069L213.269 119.358C213.357 119.535 213.445 119.623 213.622 119.8Z" fill="#E3C679"/>
<path opacity="0.5" d="M245.169 39.9044L241.533 46.7734L242.704 47.3932L246.34 40.5241L245.169 39.9044Z" fill="#E3C679"/>
<path opacity="0.5" d="M202.847 99.9274L224.839 42.166L223.602 41.7244L202.405 99.0442C202.494 99.3091 202.67 99.5741 202.847 99.9274Z" fill="#E3C679"/>
<path opacity="0.5" d="M327.82 198.493L242.062 185.333C242.15 185.51 242.238 185.775 242.327 185.951L327.644 199.729L327.82 198.493Z" fill="#E3C679"/>
<path opacity="0.5" d="M208.588 110.967L241.443 49.6732L240.295 49.0549L208.146 110.261C208.323 110.526 208.411 110.791 208.588 110.967Z" fill="#E3C679"/>
<path opacity="0.5" d="M317.845 123.192L310.526 125.809L310.972 127.057L318.291 124.44L317.845 123.192Z" fill="#E3C679"/>
<path opacity="0.5" d="M311.977 83.0502L305.502 87.349L306.235 88.4527L312.71 84.1539L311.977 83.0502Z" fill="#E3C679"/>
<path opacity="0.5" d="M306.866 59.5033L291.239 73.0298L292.106 74.0315L307.733 60.505L306.866 59.5033Z" fill="#E3C679"/>
<path opacity="0.5" d="M213.676 14.2813L211.802 21.8242L213.087 22.1438L214.962 14.6009L213.676 14.2813Z" fill="#E3C679"/>
<path opacity="0.5" d="M289.289 74.7565L283.412 79.8434L284.279 80.8451L290.156 75.7582L289.289 74.7565Z" fill="#E3C679"/>
<path opacity="0.5" d="M275.507 60.8213L270.33 66.6185L271.318 67.501L276.495 61.7037L275.507 60.8213Z" fill="#E3C679"/>
<path opacity="0.5" d="M269.262 39.4309L264.784 45.7831L265.867 46.5463L270.345 40.1941L269.262 39.4309Z" fill="#E3C679"/>
<path opacity="0.5" d="M220.511 135.344L282.246 82.5283L281.363 81.5568L220.334 134.726C220.422 134.902 220.511 135.167 220.511 135.344Z" fill="#E3C679"/>
<path opacity="0.5" d="M227.249 31.9458L224.524 39.2245L225.765 39.689L228.49 32.4103L227.249 31.9458Z" fill="#E3C679"/>
<path opacity="0.5" d="M138.294 26.7471L137.008 27.0653L138.875 34.6098L140.161 34.2915L138.294 26.7471Z" fill="#E3C679"/>
<path opacity="0.5" d="M156.022 10.4964L154.706 10.6478L155.594 18.3687L156.91 18.2173L156.022 10.4964Z" fill="#E3C679"/>
<path opacity="0.5" d="M132.687 4.1474L131.4 4.46509L136.356 24.5285L137.642 24.2109L132.687 4.1474Z" fill="#E3C679"/>
<path opacity="0.5" d="M147.117 67.5139C147.471 67.4256 147.736 67.4256 148.089 67.4256L140.67 36.8668L139.434 37.2201L147.117 67.5139Z" fill="#E3C679"/>
<path opacity="0.5" d="M122.652 44.109C123.182 44.1973 123.624 44.1973 124.066 44.2856L123.271 42.2543L122.034 42.6959L122.652 44.109Z" fill="#E3C679"/>
<path opacity="0.5" d="M119.597 32.5534L118.362 33.0328L121.175 40.2781L122.41 39.7986L119.597 32.5534Z" fill="#E3C679"/>
<path opacity="0.5" d="M195.606 91.0954L212.475 24.6786L211.238 24.3253L194.987 90.6538C195.164 90.7421 195.341 90.9188 195.606 91.0954Z" fill="#E3C679"/>
<path opacity="0.5" d="M191.333 23.4433L190.43 31.1626L191.745 31.3165L192.649 23.5972L191.333 23.4433Z" fill="#E3C679"/>
<path opacity="0.5" d="M184.388 87.3859C184.565 87.3859 184.741 87.3859 184.918 87.3859L191.454 33.8639L190.129 33.6873L184.123 87.3859C184.211 87.3859 184.3 87.3859 184.388 87.3859Z" fill="#E3C679"/>
<path opacity="0.5" d="M161.866 71.0467C162.219 71.3116 162.484 71.5766 162.838 71.8416L157.185 20.7925L155.86 20.9691L161.866 71.0467Z" fill="#E3C679"/>
<path opacity="0.5" d="M194.056 0.343227L191.654 20.8696L192.97 21.0236L195.372 0.497169L194.056 0.343227Z" fill="#E3C679"/>
<path opacity="0.5" d="M174.938 22.4706H173.613V30.2428H174.938V22.4706Z" fill="#E3C679"/>
<path opacity="0.5" d="M174.585 89.7706C174.585 89.7706 174.585 89.8589 174.585 89.7706L174.938 32.8041H173.613L173.878 88.7108C174.055 89.1524 174.32 89.4173 174.585 89.7706Z" fill="#E3C679"/>
<path opacity="0.5" d="M335.983 139.117L328.392 140.781L328.675 142.076L336.267 140.411L335.983 139.117Z" fill="#E3C679"/>
<path opacity="0.5" d="M25.2394 141.566L24.9531 142.859L32.5419 144.539L32.8282 143.245L25.2394 141.566Z" fill="#E3C679"/>
<path opacity="0.5" d="M22.2231 160.88L22.1045 162.2L29.8456 162.896L29.9642 161.576L22.2231 160.88Z" fill="#E3C679"/>
<path opacity="0.5" d="M35.3929 143.823L35.1279 145.059L99.5134 158.925C99.2484 158.66 98.9834 158.307 98.6302 158.042L35.3929 143.823Z" fill="#E3C679"/>
<path opacity="0.5" d="M30.8394 196.581L23.1582 197.766L23.3601 199.075L31.0413 197.89L30.8394 196.581Z" fill="#E3C679"/>
<path opacity="0.5" d="M33.4492 196.196L33.6259 197.433L98.4529 187.099C98.6295 186.834 98.8945 186.57 99.1594 186.305L33.4492 196.196Z" fill="#E3C679"/>
<path opacity="0.5" d="M37.2471 214.037L37.6004 215.274L91.1224 199.464C91.2107 199.199 91.299 198.846 91.4757 198.581L37.2471 214.037Z" fill="#E3C679"/>
<path opacity="0.5" d="M37.6743 106.756L37.0859 107.943L44.0498 111.395L44.6382 110.208L37.6743 106.756Z" fill="#E3C679"/>
<path opacity="0.5" d="M18.9639 179.681L111.258 176.854C111.435 176.766 111.612 176.678 111.788 176.589C111.965 176.501 112.142 176.413 112.23 176.324L18.9639 178.356V179.681Z" fill="#E3C679"/>
<path opacity="0.5" d="M108.432 48.9666L102.426 37.485L101.278 38.1032L107.549 49.8498C107.814 49.4965 108.167 49.2316 108.432 48.9666Z" fill="#E3C679"/>
<path opacity="0.5" d="M339.698 115.31L320.234 122.257L320.68 123.504L340.144 116.558L339.698 115.31Z" fill="#E3C679"/>
<path opacity="0.5" d="M276.242 274.536L277.125 273.565L252.66 250.072C252.484 250.337 252.219 250.602 252.042 250.867L276.242 274.536Z" fill="#E3C679"/>
<path opacity="0.5" d="M27.8848 123.156L89.179 144.882C89.0907 144.529 88.914 144.264 88.8257 143.911L28.3264 121.919L27.8848 123.156Z" fill="#E3C679"/>
<path opacity="0.5" d="M288.871 259.61L269.353 245.214C268.999 245.302 268.734 245.391 268.381 245.479H268.293C268.204 245.479 268.116 245.479 267.939 245.567L287.988 260.67L288.871 259.61Z" fill="#E3C679"/>
<path opacity="0.5" d="M290.989 261.169L290.198 262.232L296.436 266.869L297.227 265.806L290.989 261.169Z" fill="#E3C679"/>
<path opacity="0.5" d="M315.985 161.487L315.897 160.162L228.548 169.259C228.548 169.435 228.46 169.612 228.46 169.789L315.985 161.487Z" fill="#E3C679"/>
<path opacity="0.5" d="M316.515 179.681V178.356L236.056 176.413C236.232 176.589 236.409 176.766 236.586 177.031L316.515 179.681Z" fill="#E3C679"/>
<path opacity="0.5" d="M309.967 105.225L303.043 108.756L303.645 109.936L310.569 106.405L309.967 105.225Z" fill="#E3C679"/>
<path opacity="0.5" d="M227.666 155.657C227.754 155.834 227.754 156.011 227.843 156.187L308.567 127.925L308.126 126.688L227.666 155.657Z" fill="#E3C679"/>
<path opacity="0.5" d="M300.794 109.996L224.485 149.122C224.574 149.298 224.662 149.387 224.75 149.563L301.324 111.056L300.794 109.996Z" fill="#E3C679"/>
<path opacity="0.5" d="M221.925 143.116C222.013 143.293 222.013 143.381 222.101 143.558L304.063 89.8589L303.356 88.7991L221.925 143.116Z" fill="#E3C679"/>
<path opacity="0.5" d="M244.976 194.96L249.304 196.196C249.657 196.02 249.922 195.843 250.275 195.755L244.888 194.253C244.888 194.43 244.976 194.695 244.976 194.96Z" fill="#E3C679"/>
<path opacity="0.5" d="M326.13 159.161L318.398 159.949L318.533 161.267L326.265 160.478L326.13 159.161Z" fill="#E3C679"/>
<path opacity="0.5" d="M314.838 234.881L315.368 233.644L312.541 232.496C312.541 232.938 312.541 233.379 312.453 233.909L314.838 234.881Z" fill="#E3C679"/>
<path opacity="0.5" d="M89.356 210.946C89.356 210.769 89.356 210.681 89.356 210.504C89.356 210.416 89.356 210.239 89.356 210.151C89.356 210.151 89.356 210.151 89.356 210.063L30.623 234.351L31.153 235.587L89.356 210.946Z" fill="#E3C679"/>
<path opacity="0.5" d="M34.7976 214.746L27.3301 216.902L27.6974 218.174L35.165 216.019L34.7976 214.746Z" fill="#E3C679"/>
<path opacity="0.5" d="M268.557 68.5737L217.597 126.07C217.685 126.247 217.773 126.423 217.862 126.688L269.529 69.4569L268.557 68.5737Z" fill="#E3C679"/>
<path opacity="0.5" d="M229.166 162.811C229.166 162.988 229.166 163.165 229.166 163.253L326.142 142.586L325.877 141.35L229.166 162.811Z" fill="#E3C679"/>
<path opacity="0.5" d="M319.198 178.455L319.163 179.779L326.933 179.984L326.968 178.66L319.198 178.455Z" fill="#E3C679"/>
<path opacity="0.5" d="M32.3887 163.076L108.521 169.435C108.344 169.259 108.167 168.994 107.991 168.817L32.477 161.84L32.3887 163.076Z" fill="#E3C679"/>
<path opacity="0.5" d="M182.799 302.269C182.357 302.357 182.004 302.357 181.65 302.446L182.534 317.283L183.858 317.195L182.799 302.269Z" fill="#E3C679"/>
<path opacity="0.5" d="M184.614 330.149L183.292 330.232L184.589 350.858L185.911 350.774L184.614 330.149Z" fill="#E3C679"/>
<path opacity="0.5" d="M224.575 282.75C224.31 283.015 224.045 283.192 223.691 283.457L233.407 304.654L234.555 304.124L224.575 282.75Z" fill="#E3C679"/>
<path opacity="0.5" d="M198.52 297.941C198.167 298.118 197.813 298.206 197.46 298.383L200.639 315.164L201.876 314.899L198.52 297.941Z" fill="#E3C679"/>
<path opacity="0.5" d="M222.323 325.66L221.06 326.058L223.397 333.471L224.661 333.072L222.323 325.66Z" fill="#E3C679"/>
<path opacity="0.5" d="M202.45 317.382L201.149 317.633L202.625 325.264L203.925 325.013L202.45 317.382Z" fill="#E3C679"/>
<path opacity="0.5" d="M211.502 291.847C211.237 292.024 210.884 292.2 210.619 292.377L220.334 323.642L221.571 323.289L211.502 291.847Z" fill="#E3C679"/>
<path opacity="0.5" d="M183.957 319.799L182.635 319.882L183.121 327.638L184.443 327.555L183.957 319.799Z" fill="#E3C679"/>
<path opacity="0.5" d="M147.694 317.752L146.306 325.399L147.609 325.636L148.997 317.989L147.694 317.752Z" fill="#E3C679"/>
<path opacity="0.5" d="M136.608 291.671L130.514 310.659L131.75 311.013L137.579 292.377C137.226 292.2 136.961 291.935 136.608 291.671Z" fill="#E3C679"/>
<path opacity="0.5" d="M129.721 313.167L127.368 320.575L128.631 320.976L130.983 313.568L129.721 313.167Z" fill="#E3C679"/>
<path opacity="0.5" d="M151.799 300.679C151.534 300.591 151.181 300.414 150.916 300.326L148.178 315.164L149.414 315.429L151.975 300.768C151.975 300.679 151.887 300.679 151.799 300.679Z" fill="#E3C679"/>
<path opacity="0.5" d="M165.4 303.417L163.545 330.178L164.87 330.267L166.459 303.417C166.106 303.417 165.753 303.417 165.4 303.417Z" fill="#E3C679"/>
<path opacity="0.5" d="M163.362 332.789L162.861 340.545L164.183 340.63L164.684 332.874L163.362 332.789Z" fill="#E3C679"/>
<path opacity="0.5" d="M279.093 275.398L278.173 276.352L283.766 281.748L284.686 280.794L279.093 275.398Z" fill="#E3C679"/>
<path opacity="0.5" d="M311.278 253.82L310.614 254.966L317.341 258.86L318.005 257.714L311.278 253.82Z" fill="#E3C679"/>
<path opacity="0.5" d="M235.692 306.49L234.49 307.046L237.755 314.099L238.958 313.543L235.692 306.49Z" fill="#E3C679"/>
<path opacity="0.5" d="M317.782 234.638L317.27 235.859L336.329 243.853L336.841 242.632L317.782 234.638Z" fill="#E3C679"/>
<path opacity="0.5" d="M300.706 248.305C300.353 248.394 300 248.482 299.646 248.57L308.39 253.693L309.008 252.545L301.236 248.129C301.06 248.129 300.883 248.217 300.706 248.305Z" fill="#E3C679"/>
<path opacity="0.5" d="M330.422 198.895L330.218 200.204L337.897 201.4L338.101 200.091L330.422 198.895Z" fill="#E3C679"/>
<path opacity="0.5" d="M329.553 178.702L329.517 180.026L350.175 180.591L350.211 179.267L329.553 178.702Z" fill="#E3C679"/>
<path opacity="0.5" d="M286.538 282.57L285.618 283.524L300.492 297.873L301.412 296.919L286.538 282.57Z" fill="#E3C679"/>
<path opacity="0.5" d="M251.967 297.553L250.846 298.258L254.982 304.838L256.104 304.133L251.967 297.553Z" fill="#E3C679"/>
<path opacity="0.5" d="M234.907 272.682L249.48 296.087L250.54 295.38L235.614 271.799C235.437 272.152 235.172 272.417 234.907 272.682Z" fill="#E3C679"/>
<path opacity="0.5" d="M240.059 315.921L238.856 316.477L247.53 335.237L248.733 334.681L240.059 315.921Z" fill="#E3C679"/>
<path opacity="0.5" d="M273.541 297.995L272.508 298.824L277.369 304.888L278.403 304.059L273.541 297.995Z" fill="#E3C679"/>
<path opacity="0.5" d="M126.607 323.082L120.352 342.78L121.614 343.181L127.87 323.483L126.607 323.082Z" fill="#E3C679"/>
<path opacity="0.5" d="M243.387 262.172L270.854 296.881L271.826 296.087L243.917 261.377C243.74 261.642 243.563 261.907 243.387 262.172Z" fill="#E3C679"/>
<path opacity="0.5" d="M74.7834 65.3942L71.6922 62.0381L70.7207 62.9213L74.3418 66.8957C74.4302 66.3658 74.6068 65.9242 74.7834 65.3942Z" fill="#E3C679"/>
<path opacity="0.5" d="M126.627 278.246C126.539 278.069 126.451 277.893 126.362 277.716C126.274 277.628 126.274 277.451 126.186 277.363L108.08 315.87L109.228 316.4L126.627 278.511V278.246Z" fill="#E3C679"/>
<path opacity="0.5" d="M18.5814 118.43L18.1328 119.676L25.4456 122.308L25.8942 121.061L18.5814 118.43Z" fill="#E3C679"/>
<path opacity="0.5" d="M87.3243 131.546L46.962 111.409L46.3438 112.557L87.236 132.518C87.236 132.253 87.3243 131.899 87.3243 131.546Z" fill="#E3C679"/>
<path opacity="0.5" d="M20.6021 198.178L0.172852 201.307L0.373427 202.616L20.8027 199.487L20.6021 198.178Z" fill="#E3C679"/>
<path opacity="0.5" d="M47.5309 89.8587L46.7959 90.9609L53.2624 95.2729L53.9974 94.1707L47.5309 89.8587Z" fill="#E3C679"/>
<path opacity="0.5" d="M16.2972 178.438L8.52734 178.632L8.56034 179.956L16.3302 179.763L16.2972 178.438Z" fill="#E3C679"/>
<path opacity="0.5" d="M2.53043 136.534L2.24414 137.827L22.4233 142.294L22.7096 141L2.53043 136.534Z" fill="#E3C679"/>
<path opacity="0.5" d="M88.6491 52.2345L86.971 49.8499L85.9111 50.6447L87.3243 52.5878C87.7659 52.4111 88.2075 52.3228 88.6491 52.2345Z" fill="#E3C679"/>
<path opacity="0.5" d="M73.5606 30.792L72.4766 31.5535L84.3559 48.4652L85.44 47.7037L73.5606 30.792Z" fill="#E3C679"/>
<path opacity="0.5" d="M97.6282 28.2582L96.4561 28.8757L100.079 35.7526L101.251 35.1351L97.6282 28.2582Z" fill="#E3C679"/>
<path opacity="0.5" d="M49.6446 65.9637L48.7754 66.9635L54.6411 72.0628L55.5103 71.063L49.6446 65.9637Z" fill="#E3C679"/>
<path opacity="0.5" d="M28.2118 235.374L21.0381 238.365L21.5479 239.588L28.7216 236.597L28.2118 235.374Z" fill="#E3C679"/>
<path opacity="0.5" d="M77.2558 90.9188C77.1675 90.6539 77.0792 90.3006 76.9908 89.9473L57.4721 72.7249L56.5889 73.6964L77.4324 91.6254C77.3441 91.3604 77.3441 91.0955 77.2558 90.9188Z" fill="#E3C679"/>
<path opacity="0.5" d="M79.8178 112.822C79.6411 112.381 79.5528 111.851 79.4645 111.321L56.148 95.688L55.4414 96.7478L79.8178 112.822Z" fill="#E3C679"/>
<path opacity="0.5" d="M28.1207 76.9722L27.3857 78.0745L44.5806 89.5405L45.3156 88.4382L28.1207 76.9722Z" fill="#E3C679"/>
<path opacity="0.5" d="M97.9506 298.459L93.8896 305.086L95.0192 305.778L99.0801 299.152L97.9506 298.459Z" fill="#E3C679"/>
<path opacity="0.5" d="M116.117 246.716L84.498 285.753L85.4696 286.548L116.47 247.599C116.293 247.334 116.205 246.981 116.117 246.716Z" fill="#E3C679"/>
<path opacity="0.5" d="M82.8355 287.738L77.9639 293.794L78.9962 294.625L83.8678 288.568L82.8355 287.738Z" fill="#E3C679"/>
<path opacity="0.5" d="M76.3241 295.767L63.3701 311.871L64.4024 312.701L77.3564 296.598L76.3241 295.767Z" fill="#E3C679"/>
<path opacity="0.5" d="M107.09 318.211L103.812 325.259L105.014 325.817L108.291 318.77L107.09 318.211Z" fill="#E3C679"/>
<path opacity="0.5" d="M39.3659 252.223L21.458 262.54L22.1193 263.687L40.0272 253.371L39.3659 252.223Z" fill="#E3C679"/>
<path opacity="0.5" d="M123.094 257.756L99.3359 296.263L100.396 296.97L122.917 259.699C123.006 259.169 123.006 258.462 123.094 257.756Z" fill="#E3C679"/>
<path opacity="0.5" d="M58.498 262.539L52.3145 267.248L53.1172 268.302L59.3007 263.593L58.498 262.539Z" fill="#E3C679"/>
<path opacity="0.5" d="M91.829 222.074L50.4951 245.744L51.1134 246.892L92.0939 222.957C92.0939 222.604 92.0056 222.339 91.829 222.074Z" fill="#E3C679"/>
<path opacity="0.5" d="M48.3069 246.981L41.5723 250.861L42.2336 252.009L48.9682 248.129L48.3069 246.981Z" fill="#E3C679"/>
<path opacity="0.5" d="M98.7178 232.143L60.5635 260.935L61.3584 261.995L99.336 232.761C99.0711 232.496 98.8944 232.319 98.7178 232.143Z" fill="#E3C679"/>
<path opacity="0.5" d="M108.256 238.855C108.08 238.767 107.815 238.678 107.638 238.59L61.7998 282.397L62.683 283.368L108.433 239.032C108.345 238.943 108.256 238.855 108.256 238.855Z" fill="#E3C679"/>
<path opacity="0.5" d="M59.878 284.088L54.2773 289.477L55.1958 290.431L60.7965 285.043L59.878 284.088Z" fill="#E3C679"/>
</g>
</svg>
