<svg width="305" height="402" viewBox="0 0 305 402" fill="none" xmlns="http://www.w3.org/2000/svg">
<path d="M118.149 97.5767L109.125 66.4246L119.444 97.1844C119.562 97.5375 119.366 97.9298 119.013 98.0475C118.659 98.1652 118.306 97.9691 118.149 97.5767Z" fill="#E0C277"/>
<path d="M113.088 99.303L106.261 78.0771L114.344 98.8322C114.461 99.1853 114.305 99.5776 113.951 99.6953C113.638 99.8523 113.245 99.6953 113.088 99.303C113.128 99.3422 113.128 99.3422 113.088 99.303Z" fill="#E0C277"/>
<path d="M108.145 101.304L92.9219 65.0906L109.4 100.755C109.557 101.108 109.4 101.5 109.086 101.657C108.733 101.814 108.302 101.657 108.145 101.304C108.145 101.343 108.145 101.304 108.145 101.304Z" fill="#E0C277"/>
<path d="M102.338 103.972L88.7236 74.546L103.554 103.383C103.711 103.697 103.593 104.129 103.28 104.286C102.927 104.443 102.534 104.325 102.338 103.972Z" fill="#E0C277"/>
<path d="M97.5906 106.444L87.6643 86.5126L98.8069 105.816C99.0031 106.13 98.8854 106.561 98.5715 106.758C98.2184 106.914 97.826 106.797 97.5906 106.444C97.6299 106.483 97.6299 106.483 97.5906 106.444Z" fill="#E0C277"/>
<path d="M93.0001 109.19L72.4805 75.6838L94.1379 108.445C94.3341 108.758 94.2556 109.19 93.9417 109.386C93.6278 109.582 93.2355 109.504 93.0001 109.19Z" fill="#E0C277"/>
<path d="M87.6643 112.682L69.7734 85.6494L88.8021 111.936C89.0376 112.25 88.9591 112.643 88.6452 112.878C88.3313 113.074 87.8998 112.996 87.6643 112.682C87.6643 112.721 87.6643 112.682 87.6643 112.682Z" fill="#E0C277"/>
<path d="M83.3485 115.86L70.5188 97.6552L84.447 115.075C84.6824 115.35 84.6432 115.781 84.3293 116.017C84.0547 116.213 83.6231 116.174 83.3485 115.86C83.3877 115.86 83.3877 115.86 83.3485 115.86Z" fill="#E0C277"/>
<path d="M79.229 119.234L53.8835 89.2197L80.2491 118.371C80.4845 118.646 80.4845 119.077 80.2099 119.313C79.9352 119.548 79.5036 119.548 79.229 119.234Z" fill="#E0C277"/>
<path d="M74.4817 123.511L52.7065 99.46L75.4625 122.569C75.7372 122.844 75.7372 123.275 75.4625 123.511C75.1879 123.785 74.7563 123.785 74.4817 123.511Z" fill="#E0C277"/>
<path d="M70.715 127.277L55.2959 111.191L71.6959 126.296C71.9705 126.532 71.9705 126.963 71.7351 127.238C71.4213 127.552 70.9897 127.591 70.715 127.277C70.715 127.316 70.715 127.316 70.715 127.277Z" fill="#E0C277"/>
<path d="M67.1055 131.279L37.5227 105.424L67.9686 130.259C68.2433 130.494 68.2825 130.926 68.0471 131.201C67.8509 131.475 67.4194 131.514 67.1055 131.279C67.1447 131.279 67.1447 131.279 67.1055 131.279Z" fill="#E0C277"/>
<path d="M63.0643 136.223L37.915 115.742L63.8883 135.163C64.2021 135.399 64.2414 135.791 64.0059 136.105C63.8098 136.38 63.3782 136.458 63.0643 136.223C63.1036 136.223 63.0643 136.223 63.0643 136.223Z" fill="#E0C277"/>
<path d="M59.9255 140.499L42.2307 126.924L60.7101 139.401C61.024 139.597 61.1025 140.028 60.9063 140.342C60.6709 140.656 60.2393 140.735 59.9255 140.499C59.9255 140.538 59.9255 140.538 59.9255 140.499Z" fill="#E0C277"/>
<path d="M56.9829 144.972L23.8298 123.864L57.6892 143.795C58.003 143.991 58.1207 144.383 57.9246 144.736C57.7284 145.09 57.2968 145.168 56.9829 144.972Z" fill="#E0C277"/>
<path d="M53.7264 150.465L25.7915 134.026L54.3934 149.288C54.7073 149.445 54.8642 149.876 54.6681 150.19C54.4719 150.543 54.0795 150.661 53.7264 150.465Z" fill="#E0C277"/>
<path d="M51.2155 155.212L31.6768 144.462L51.804 153.996C52.1571 154.153 52.2748 154.545 52.1179 154.898C52.0002 155.251 51.6079 155.369 51.2155 155.212C51.2548 155.212 51.2548 155.212 51.2155 155.212Z" fill="#E0C277"/>
<path d="M49.0183 160.077L13.0403 144.187L49.5283 158.782C49.8814 158.939 50.0384 159.332 49.9207 159.646C49.7637 160.038 49.3714 160.195 49.0183 160.077Z" fill="#E0C277"/>
<path d="M46.625 166.002L16.4929 153.957L47.0958 164.746C47.4489 164.864 47.6451 165.256 47.5274 165.609C47.3704 165.923 46.9781 166.119 46.625 166.002Z" fill="#E0C277"/>
<path d="M44.8595 171.024L23.9475 163.373L45.2911 169.768C45.6442 169.886 45.8403 170.239 45.7619 170.592C45.6442 170.945 45.2518 171.181 44.8595 171.024C44.8987 171.063 44.8987 171.063 44.8595 171.024Z" fill="#E0C277"/>
<path d="M43.408 176.163L5.46826 165.923L43.7219 174.869C44.075 174.947 44.3104 175.3 44.2319 175.692C44.1534 176.046 43.8003 176.281 43.408 176.163C43.408 176.203 43.408 176.203 43.408 176.163Z" fill="#E0C277"/>
<path d="M41.917 182.402L10.3333 175.026L42.1916 181.068C42.5447 181.146 42.7801 181.499 42.7409 181.852C42.6624 182.245 42.3093 182.48 41.917 182.402C41.9562 182.402 41.917 182.402 41.917 182.402Z" fill="#E0C277"/>
<path d="M40.9754 187.659L19.1218 183.225L41.1716 186.325C41.5247 186.364 41.7993 186.717 41.7601 187.07C41.7209 187.424 41.3678 187.698 41.0147 187.659H40.9754Z" fill="#E0C277"/>
<path d="M40.3082 192.956L1.23071 188.522L40.3867 191.582C40.7398 191.622 41.0537 191.936 41.0145 192.328C41.0145 192.72 40.7006 192.995 40.3082 192.956Z" fill="#E0C277"/>
<path d="M39.7591 199.312L7.42993 196.801L39.8376 197.978C40.2299 197.978 40.5046 198.292 40.5046 198.684C40.5046 199.037 40.1907 199.351 39.7591 199.312C39.7984 199.312 39.7984 199.312 39.7591 199.312Z" fill="#E0C277"/>
<path d="M39.6414 204.687L17.3562 203.588L39.6414 203.314C40.0337 203.314 40.3084 203.627 40.3084 203.981C40.3084 204.373 39.9945 204.648 39.6414 204.648C39.6414 204.687 39.6414 204.687 39.6414 204.687Z" fill="#E0C277"/>
<path d="M39.759 210.023L0.485352 211.553L39.6806 208.689C40.0337 208.649 40.3868 208.924 40.3868 209.316C40.426 209.67 40.1514 209.983 39.759 210.023Z" fill="#E0C277"/>
<path d="M40.1905 216.379L7.86133 218.772L40.0728 215.045C40.4259 215.005 40.779 215.28 40.8183 215.633C40.8575 215.986 40.5829 216.339 40.1905 216.379C40.2298 216.379 40.1905 216.379 40.1905 216.379Z" fill="#E0C277"/>
<path d="M40.8577 221.675L18.6902 223.951L40.6615 220.341C41.0146 220.263 41.3677 220.538 41.4462 220.891C41.5246 221.244 41.25 221.597 40.8969 221.675H40.8577Z" fill="#E0C277"/>
<path d="M41.7991 226.972L3.19238 234.387L41.4852 225.638C41.8383 225.559 42.2307 225.795 42.3091 226.148C42.3876 226.501 42.1522 226.854 41.7991 226.972C41.7991 226.933 41.7991 226.933 41.7991 226.972Z" fill="#E0C277"/>
<path d="M43.1725 233.171L11.5496 240.429L42.8194 231.876C43.1725 231.758 43.5649 231.994 43.6433 232.347C43.8003 232.7 43.5649 233.092 43.1725 233.171C43.2118 233.171 43.2118 233.171 43.1725 233.171Z" fill="#E0C277"/>
<path d="M44.6241 238.311L23.0452 243.921L44.2318 237.016C44.5849 236.898 44.9772 237.094 45.0949 237.448C45.2126 237.801 45.0165 238.193 44.6633 238.311C44.6633 238.311 44.6633 238.311 44.6241 238.311Z" fill="#E0C277"/>
<path d="M46.3503 243.411L9.31299 256.555L45.8795 242.116C46.2326 241.999 46.625 242.156 46.7427 242.509C46.8996 242.862 46.7034 243.254 46.3503 243.411C46.3503 243.372 46.3503 243.372 46.3503 243.411Z" fill="#E0C277"/>
<path d="M48.6653 249.336L18.5332 261.263L48.1552 248.08C48.5083 247.923 48.9007 248.08 49.0576 248.433C49.2146 248.786 49.0576 249.179 48.6653 249.336C48.7045 249.336 48.7045 249.336 48.6653 249.336Z" fill="#E0C277"/>
<path d="M50.9015 254.201L30.4211 262.989L50.313 252.984C50.6269 252.827 51.0585 252.945 51.2154 253.298C51.4116 253.612 51.2546 254.004 50.9015 254.201Z" fill="#E0C277"/>
<path d="M53.3343 258.948L18.7295 277.545L52.6673 257.771C52.9812 257.575 53.4127 257.692 53.6089 258.006C53.8051 258.359 53.6874 258.752 53.3343 258.948C53.3735 258.948 53.3735 258.948 53.3343 258.948Z" fill="#E0C277"/>
<path d="M56.5515 264.48L28.5381 280.802L55.8453 263.303C56.1591 263.107 56.5907 263.185 56.7869 263.499C56.9831 263.852 56.8654 264.284 56.5515 264.48Z" fill="#E0C277"/>
<path d="M59.4547 268.953L40.5437 280.723L58.7093 267.815C59.0231 267.58 59.4547 267.658 59.6509 267.972C59.8863 268.286 59.8078 268.717 59.4547 268.953C59.4939 268.953 59.4939 268.953 59.4547 268.953Z" fill="#E0C277"/>
<path d="M62.5935 273.269L31.1667 296.888L61.7696 272.209C62.0443 271.974 62.4758 272.013 62.7113 272.327C62.9467 272.602 62.9074 273.033 62.5935 273.269C62.6328 273.269 62.6328 273.269 62.5935 273.269Z" fill="#E0C277"/>
<path d="M66.5954 278.251L41.3677 298.614L65.7323 277.192C66.0069 276.957 66.4385 276.957 66.6739 277.271C66.9485 277.584 66.9093 278.016 66.5954 278.251C66.6347 278.251 66.5954 278.251 66.5954 278.251Z" fill="#E0C277"/>
<path d="M70.1657 282.253L53.2556 296.77L69.2633 281.272C69.5379 280.998 69.9695 281.037 70.2049 281.272C70.4795 281.547 70.4795 281.979 70.1657 282.253C70.2049 282.253 70.1657 282.253 70.1657 282.253Z" fill="#E0C277"/>
<path d="M73.9323 286.059L46.429 314.112L72.9514 285.117C73.1869 284.843 73.6184 284.804 73.8931 285.078C74.1677 285.353 74.2069 285.745 73.9323 286.059Z" fill="#E0C277"/>
<path d="M78.6405 290.375L56.7869 314.308L77.6596 289.472C77.895 289.198 78.3266 289.159 78.6012 289.394C78.8366 289.629 78.8759 290.061 78.6405 290.375Z" fill="#E0C277"/>
<path d="M82.7601 293.788L68.2041 310.659L81.7008 292.925C81.9362 292.611 82.3677 292.572 82.6424 292.807C82.9563 293.043 82.9955 293.435 82.7601 293.788C82.7601 293.749 82.7601 293.788 82.7601 293.788Z" fill="#E0C277"/>
<path d="M87.0366 296.966L64.0845 328.864L85.9381 296.182C86.1342 295.868 86.5658 295.789 86.8797 295.985C87.1936 296.221 87.272 296.652 87.0366 296.966Z" fill="#E0C277"/>
<path d="M92.3333 300.537L74.3247 327.53L91.1955 299.83C91.3917 299.516 91.8233 299.399 92.1372 299.595C92.451 299.791 92.5687 300.183 92.3333 300.537Z" fill="#E0C277"/>
<path d="M96.9238 303.283L85.1143 322.155L95.786 302.577C95.9822 302.263 96.3745 302.145 96.6884 302.302C97.0023 302.498 97.12 302.93 96.9238 303.283C96.9238 303.244 96.9238 303.283 96.9238 303.283Z" fill="#E0C277"/>
<path d="M101.671 305.794L83.78 340.791L100.455 305.205C100.612 304.852 101.004 304.735 101.357 304.892C101.671 305.009 101.828 305.441 101.671 305.794C101.671 305.755 101.671 305.794 101.671 305.794Z" fill="#E0C277"/>
<path d="M107.439 308.501L93.7065 337.888L106.222 307.952C106.379 307.599 106.772 307.442 107.125 307.599C107.439 307.756 107.596 308.148 107.439 308.501Z" fill="#E0C277"/>
<path d="M112.382 310.541L103.554 330.982L111.127 310.031C111.244 309.678 111.637 309.482 111.99 309.639C112.343 309.757 112.5 310.149 112.382 310.541C112.382 310.502 112.382 310.502 112.382 310.541Z" fill="#E0C277"/>
<path d="M117.443 312.307L105.045 349.58L116.149 311.875C116.266 311.522 116.619 311.326 116.972 311.405C117.326 311.522 117.522 311.915 117.443 312.307C117.443 312.268 117.443 312.268 117.443 312.307Z" fill="#E0C277"/>
<path d="M190.772 311.169L200.973 341.968L189.517 311.64C189.399 311.287 189.556 310.894 189.909 310.777C190.223 310.62 190.615 310.816 190.772 311.169Z" fill="#E0C277"/>
<path d="M195.755 309.247L203.367 330.198L194.5 309.757C194.343 309.403 194.5 309.011 194.853 308.854C195.206 308.697 195.598 308.854 195.755 309.247C195.755 309.207 195.755 309.247 195.755 309.247Z" fill="#E0C277"/>
<path d="M200.62 307.049L217.217 342.674L199.404 307.638C199.247 307.324 199.365 306.893 199.718 306.736C200.032 306.579 200.463 306.696 200.62 307.049Z" fill="#E0C277"/>
<path d="M206.349 304.185L221.062 333.101L205.132 304.852C204.936 304.538 205.054 304.107 205.407 303.95C205.76 303.793 206.152 303.832 206.349 304.185C206.309 304.146 206.309 304.185 206.349 304.185Z" fill="#E0C277"/>
<path d="M210.978 301.517L221.65 321.056L209.801 302.184C209.605 301.87 209.684 301.439 209.997 301.243C210.351 301.086 210.743 301.164 210.978 301.517C210.939 301.517 210.978 301.517 210.978 301.517Z" fill="#E0C277"/>
<path d="M215.451 298.614L237.226 331.336L214.352 299.399C214.117 299.085 214.195 298.692 214.509 298.457C214.823 298.222 215.215 298.3 215.451 298.614Z" fill="#E0C277"/>
<path d="M220.669 294.926L239.58 321.292L219.571 295.75C219.335 295.475 219.374 295.044 219.688 294.808C220.002 294.573 220.434 294.612 220.669 294.926Z" fill="#E0C277"/>
<path d="M224.867 291.591L238.364 309.325L223.808 292.454C223.572 292.18 223.612 291.748 223.886 291.513C224.161 291.277 224.593 291.277 224.867 291.591C224.828 291.591 224.828 291.591 224.867 291.591Z" fill="#E0C277"/>
<path d="M228.869 288.06L255.313 317.093L227.888 288.962C227.614 288.688 227.614 288.256 227.888 288.021C228.163 287.785 228.595 287.785 228.869 288.06C228.83 288.06 228.83 288.06 228.869 288.06Z" fill="#E0C277"/>
<path d="M233.42 283.626L256.098 306.814L232.479 284.568C232.204 284.293 232.204 283.901 232.44 283.626C232.714 283.352 233.146 283.313 233.42 283.626C233.42 283.587 233.42 283.587 233.42 283.626Z" fill="#E0C277"/>
<path d="M237.069 279.703L253.116 295.161L236.167 280.684C235.892 280.448 235.853 280.017 236.088 279.742C236.324 279.468 236.755 279.428 237.069 279.703C237.069 279.664 237.069 279.664 237.069 279.703Z" fill="#E0C277"/>
<path d="M240.483 275.583L271.007 300.301L239.619 276.643C239.305 276.407 239.266 275.976 239.502 275.701C239.776 275.387 240.169 275.348 240.483 275.583Z" fill="#E0C277"/>
<path d="M244.367 270.483L270.261 289.982L243.582 271.582C243.268 271.385 243.19 270.954 243.425 270.64C243.621 270.326 244.013 270.248 244.367 270.483C244.327 270.483 244.367 270.483 244.367 270.483Z" fill="#E0C277"/>
<path d="M247.348 266.089L265.514 278.958L246.564 267.187C246.25 266.991 246.132 266.559 246.328 266.246C246.603 265.932 246.995 265.853 247.348 266.089C247.348 266.049 247.348 266.049 247.348 266.089Z" fill="#E0C277"/>
<path d="M250.134 261.498L284.072 281.351L249.467 262.675C249.153 262.479 249.036 262.087 249.193 261.773C249.349 261.459 249.781 261.302 250.134 261.498C250.095 261.498 250.134 261.498 250.134 261.498Z" fill="#E0C277"/>
<path d="M253.155 255.888L281.718 271.268L252.567 257.104C252.214 256.947 252.096 256.555 252.253 256.202C252.41 255.848 252.802 255.692 253.155 255.888Z" fill="#E0C277"/>
<path d="M255.47 251.062L275.401 261.067L254.921 252.317C254.568 252.16 254.411 251.768 254.568 251.415C254.685 251.062 255.078 250.905 255.47 251.062C255.431 251.062 255.47 251.062 255.47 251.062Z" fill="#E0C277"/>
<path d="M257.51 246.118L294.038 260.596L257.04 247.374C256.686 247.256 256.49 246.864 256.647 246.511C256.765 246.158 257.157 246.001 257.51 246.118Z" fill="#E0C277"/>
<path d="M259.668 240.116L290.232 251.023L259.276 241.41C258.923 241.293 258.727 240.939 258.844 240.547C258.923 240.194 259.315 239.998 259.668 240.116Z" fill="#E0C277"/>
<path d="M261.238 234.976L282.424 241.842L260.845 236.271C260.492 236.192 260.257 235.8 260.374 235.447C260.453 235.093 260.845 234.858 261.198 234.976H261.238Z" fill="#E0C277"/>
<path d="M262.493 229.797L300.786 238.625L262.218 231.131C261.865 231.052 261.63 230.699 261.669 230.346C261.787 229.954 262.14 229.718 262.493 229.797Z" fill="#E0C277"/>
<path d="M263.748 223.519L295.607 229.679L263.552 224.853C263.199 224.814 262.925 224.461 263.003 224.069C263.003 223.715 263.356 223.48 263.748 223.519C263.709 223.519 263.748 223.519 263.748 223.519Z" fill="#E0C277"/>
<path d="M264.494 218.262L286.504 221.871L264.337 219.596C263.984 219.557 263.709 219.243 263.748 218.85C263.788 218.497 264.101 218.223 264.494 218.262C264.494 218.262 264.494 218.223 264.494 218.262Z" fill="#E0C277"/>
<path d="M265.004 212.926L304.199 215.869L264.926 214.26C264.533 214.26 264.259 213.946 264.259 213.554C264.259 213.161 264.572 212.887 265.004 212.926C264.965 212.926 264.965 212.926 265.004 212.926Z" fill="#E0C277"/>
<path d="M265.279 206.531L297.686 207.825L265.24 207.865C264.847 207.865 264.573 207.551 264.573 207.198C264.573 206.845 264.847 206.531 265.279 206.531C265.24 206.531 265.24 206.531 265.279 206.531Z" fill="#E0C277"/>
<path d="M265.2 201.195L287.485 201.43L265.239 202.529C264.847 202.529 264.533 202.254 264.533 201.901C264.533 201.509 264.808 201.195 265.161 201.195C265.2 201.195 265.2 201.195 265.2 201.195Z" fill="#E0C277"/>
<path d="M264.886 195.859L304.082 192.877L265.043 197.232C264.69 197.271 264.337 196.997 264.298 196.644C264.219 196.251 264.494 195.898 264.886 195.859Z" fill="#E0C277"/>
<path d="M264.18 189.503L296.431 185.893L264.376 190.837C264.023 190.876 263.67 190.641 263.592 190.288C263.552 189.935 263.788 189.581 264.18 189.503Z" fill="#E0C277"/>
<path d="M263.356 184.246L285.406 181.107L263.552 185.58C263.199 185.658 262.846 185.423 262.768 185.069C262.689 184.716 262.924 184.363 263.278 184.285C263.317 184.246 263.317 184.246 263.356 184.246Z" fill="#E0C277"/>
<path d="M262.218 178.988L300.511 170.121L262.571 180.322C262.218 180.401 261.826 180.204 261.748 179.851C261.63 179.498 261.826 179.106 262.218 178.988C262.179 179.027 262.218 179.027 262.218 178.988Z" fill="#E0C277"/>
<path d="M260.571 172.828L291.88 164.393L260.924 174.123C260.571 174.241 260.178 174.045 260.061 173.692C259.982 173.338 260.178 172.946 260.571 172.828Z" fill="#E0C277"/>
<path d="M258.923 167.728L280.266 161.333L259.354 169.023C259.001 169.14 258.609 168.983 258.491 168.63C258.373 168.277 258.53 167.885 258.923 167.728C258.883 167.767 258.923 167.767 258.923 167.728Z" fill="#E0C277"/>
<path d="M257.039 162.745L293.527 148.189L257.549 164.001C257.196 164.158 256.804 164.001 256.647 163.648C256.49 163.294 256.647 162.902 257.039 162.745C257 162.745 257 162.745 257.039 162.745Z" fill="#E0C277"/>
<path d="M254.489 156.899L284.19 143.834L255.078 158.115C254.725 158.272 254.332 158.155 254.175 157.802C253.979 157.488 254.097 157.056 254.489 156.899C254.45 156.899 254.45 156.899 254.489 156.899Z" fill="#E0C277"/>
<path d="M252.096 152.113L272.223 142.539L252.724 153.29C252.41 153.486 251.978 153.368 251.821 153.015C251.586 152.74 251.704 152.309 252.096 152.113C252.057 152.113 252.057 152.113 252.096 152.113Z" fill="#E0C277"/>
<path d="M249.467 147.444L283.366 127.552L250.173 148.582C249.86 148.778 249.428 148.699 249.232 148.385C249.036 148.111 249.114 147.679 249.467 147.444C249.428 147.483 249.428 147.483 249.467 147.444Z" fill="#E0C277"/>
<path d="M246.054 142.069L273.44 124.688L246.799 143.206C246.485 143.403 246.054 143.324 245.858 143.049C245.662 142.775 245.701 142.304 246.054 142.069C246.015 142.069 246.054 142.069 246.054 142.069Z" fill="#E0C277"/>
<path d="M242.954 137.674L261.394 125.198L243.739 138.773C243.425 139.008 243.033 138.93 242.797 138.655C242.562 138.381 242.64 137.949 242.954 137.674C242.954 137.714 242.954 137.714 242.954 137.674Z" fill="#E0C277"/>
<path d="M239.659 133.476L270.144 108.719L240.522 134.536C240.247 134.771 239.816 134.732 239.58 134.457C239.306 134.182 239.345 133.751 239.659 133.476C239.659 133.515 239.659 133.515 239.659 133.476Z" fill="#E0C277"/>
<path d="M235.46 128.65L259.904 107.346L236.363 129.67C236.088 129.945 235.657 129.906 235.421 129.631C235.186 129.357 235.186 128.925 235.46 128.65C235.46 128.69 235.46 128.69 235.46 128.65Z" fill="#E0C277"/>
<path d="M231.772 124.805L248.133 109.661L232.714 125.747C232.439 126.022 232.047 126.022 231.772 125.786C231.498 125.551 231.459 125.119 231.772 124.805C231.733 124.845 231.772 124.805 231.772 124.805Z" fill="#E0C277"/>
<path d="M227.849 121.157L254.254 92.0839L228.869 122.059C228.634 122.334 228.202 122.373 227.927 122.137C227.653 121.902 227.613 121.47 227.849 121.157Z" fill="#E0C277"/>
<path d="M222.984 117.037L243.935 92.28L224.043 117.9C223.808 118.214 223.376 118.253 223.102 118.018C222.827 117.782 222.748 117.351 222.984 117.037Z" fill="#E0C277"/>
<path d="M218.747 113.781L232.636 96.3605L219.806 114.604C219.61 114.918 219.178 114.997 218.864 114.761C218.59 114.526 218.511 114.094 218.747 113.781Z" fill="#E0C277"/>
<path d="M214.352 110.759L236.088 78.038L215.49 111.466C215.294 111.78 214.862 111.897 214.548 111.701C214.235 111.505 214.156 111.073 214.352 110.759Z" fill="#E0C277"/>
<path d="M208.899 107.385L225.887 79.7643L210.076 108.092C209.88 108.405 209.487 108.523 209.173 108.366C208.82 108.131 208.703 107.738 208.899 107.385Z" fill="#E0C277"/>
<path d="M204.23 104.796L215.333 85.4924L205.407 105.463C205.25 105.816 204.818 105.934 204.504 105.777C204.191 105.58 204.034 105.188 204.23 104.796C204.23 104.835 204.23 104.835 204.23 104.796Z" fill="#E0C277"/>
<path d="M199.404 102.481L215.961 66.8561L200.659 103.03C200.502 103.383 200.11 103.54 199.757 103.383C199.404 103.266 199.247 102.873 199.404 102.481C199.404 102.52 199.404 102.481 199.404 102.481Z" fill="#E0C277"/>
<path d="M193.558 99.97L206.192 70.0734L194.814 100.441C194.696 100.794 194.304 100.951 193.951 100.833C193.558 100.755 193.401 100.362 193.558 99.97C193.519 100.009 193.519 100.009 193.558 99.97Z" fill="#E0C277"/>
<path d="M188.536 98.1652L196.618 77.4102L189.831 98.636C189.713 98.9891 189.321 99.1853 188.968 99.0676C188.575 98.9106 188.379 98.5575 188.536 98.1652C188.497 98.1652 188.497 98.1652 188.536 98.1652Z" fill="#E0C277"/>
<path d="M183.396 96.5958L194.382 58.8523L184.691 96.949C184.613 97.3021 184.22 97.5375 183.867 97.4198C183.514 97.3021 183.318 96.949 183.396 96.5958Z" fill="#E0C277"/>
<path d="M256.294 204.334C256.294 176.556 245.465 150.465 225.848 130.808C211.017 115.978 192.42 106.13 171.901 102.206C175.706 97.7336 178.021 91.9269 178.021 85.5709C178.021 71.6819 166.957 60.3432 153.186 59.8724C153.186 52.9671 153.186 46.0618 153.186 39.1566C155.03 38.7642 156.442 37.1164 156.442 35.1154C156.442 33.1537 155.069 31.5059 153.186 31.0743C153.186 25.5814 153.186 20.0886 153.186 14.635C156.56 14.2035 159.189 11.3393 159.189 7.84748C159.189 4.04173 156.128 0.981445 152.323 0.981445C148.517 0.981445 145.457 4.04173 145.457 7.84748C145.457 11.3393 148.085 14.2035 151.459 14.635C151.459 20.1279 151.459 25.6207 151.459 31.0743C149.615 31.4666 148.203 33.1145 148.203 35.1154C148.203 37.0771 149.576 38.725 151.459 39.1566C151.459 46.0618 151.459 52.9671 151.459 59.8724C137.688 60.3432 126.624 71.6819 126.624 85.5709C126.624 91.8877 128.939 97.6944 132.745 102.206C112.264 106.13 93.6279 115.978 78.7973 130.808C59.1408 150.425 48.3513 176.556 48.3513 204.334C48.3513 232.112 59.18 258.203 78.7973 277.859C92.7255 291.787 110.185 301.439 129.292 305.755C127.566 309.207 126.585 313.092 126.585 317.211C126.585 331.1 137.649 342.439 151.42 342.91C151.42 349.815 151.42 356.72 151.42 363.626C149.576 364.018 148.164 365.666 148.164 367.667C148.164 369.628 149.537 371.276 151.42 371.708C151.42 377.201 151.42 382.693 151.42 388.147C148.046 388.579 145.417 391.443 145.417 394.935C145.417 398.74 148.478 401.801 152.283 401.801C156.089 401.801 159.149 398.74 159.149 394.935C159.149 391.443 156.521 388.579 153.147 388.147C153.147 382.654 153.147 377.161 153.147 371.708C154.991 371.315 156.403 369.668 156.403 367.667C156.403 365.666 155.03 364.057 153.147 363.626C153.147 356.72 153.147 349.815 153.147 342.91C166.918 342.439 177.982 331.1 177.982 317.211C177.982 313.092 177.001 309.207 175.275 305.755C194.382 301.439 211.841 291.826 225.77 277.859C245.504 258.203 256.294 232.072 256.294 204.334ZM128.193 85.5709C128.193 72.3882 138.826 61.6379 152.009 61.4417C152.205 61.5202 152.48 61.5202 152.676 61.4417C165.819 61.6379 176.491 72.3882 176.491 85.5709C176.491 98.8714 165.662 109.7 152.362 109.7C139.061 109.7 128.193 98.8714 128.193 85.5709ZM176.452 317.172C176.452 330.355 165.819 341.105 152.636 341.301C152.44 341.223 152.166 341.223 151.97 341.301C138.826 341.105 128.154 330.355 128.154 317.172C128.154 303.871 138.983 293.043 152.283 293.043C165.584 293.043 176.452 303.871 176.452 317.172ZM174.49 304.146C170.017 296.574 161.778 291.473 152.323 291.473C142.906 291.473 134.628 296.574 130.155 304.146C111.166 299.948 93.8241 290.453 80.0135 276.604C60.7102 257.3 50.0776 231.602 50.0776 204.294C50.0776 176.987 60.7102 151.289 80.0135 131.985C94.8441 117.155 113.559 107.385 134.079 103.658C138.748 108.327 145.182 111.23 152.283 111.23C159.385 111.23 165.859 108.327 170.488 103.658C191.047 107.346 209.723 117.155 224.553 131.985C243.857 151.289 254.489 176.987 254.489 204.294C254.489 231.602 243.857 257.3 224.553 276.604C210.821 290.453 193.48 299.948 174.49 304.146Z" fill="#E0C277"/>
<path d="M131.057 85.414C131.057 73.9968 140.317 64.7374 151.734 64.7374C153.46 64.7374 155.147 64.9336 156.756 65.3652C147.771 67.6015 141.101 75.7231 141.101 85.414C141.101 95.1049 147.771 103.226 156.756 105.463C155.147 105.855 153.46 106.091 151.734 106.091C140.317 106.091 131.057 96.8312 131.057 85.414Z" fill="#E0C277"/>
<path d="M131.057 317.133C131.057 328.55 140.317 337.809 151.734 337.809C153.46 337.809 155.147 337.613 156.756 337.181C147.771 334.945 141.101 326.824 141.101 317.133C141.101 307.442 147.771 299.32 156.756 297.084C155.147 296.691 153.46 296.456 151.734 296.456C140.317 296.456 131.057 305.715 131.057 317.133Z" fill="#E0C277"/>
<path d="M225.338 157.841C217.883 147.483 208.193 139.322 197.05 133.829L195.441 133.045C189.164 130.141 182.455 128.062 175.432 126.924C169.193 125.904 162.877 125.669 156.638 126.179L152.009 126.571L156.285 128.415C171.548 135.006 183.671 146.188 191.439 159.881C191.479 160.038 191.518 160.195 191.675 160.313C199.679 174.633 202.974 191.582 200.189 208.728C194.696 242.47 167.075 268.011 133.019 270.875L128.39 271.268L132.666 273.112C138.394 275.583 144.476 277.349 150.714 278.369C154.912 279.036 159.071 279.389 163.23 279.389C179.159 279.389 194.657 274.446 207.839 264.951C224.475 252.984 235.421 235.25 238.756 215.045C242.091 194.76 237.304 174.476 225.338 157.841ZM223.455 159.214C229.301 167.336 233.381 176.399 235.578 185.854L226.711 193.78C226.044 193.387 225.299 193.152 224.475 193.152C224.161 193.152 223.886 193.191 223.612 193.23C220.473 186.482 217.766 179.538 215.412 172.475C216.51 171.691 217.216 170.396 217.216 168.944C217.216 167.728 216.706 166.59 215.882 165.805C217.53 162.431 219.178 159.096 220.865 155.722C221.728 156.899 222.631 158.037 223.455 159.214ZM217.177 221.989C216.471 221.44 215.569 221.126 214.588 221.126C213.96 221.126 213.371 221.244 212.822 221.479C209.644 216.222 206.623 210.886 204.269 205.236C209.958 203.863 215.608 202.45 220.983 200.136C221.768 201.195 223.062 201.901 224.514 201.901C225.534 201.901 226.437 201.548 227.182 200.96C230.046 203.392 233.067 205.628 236.284 207.59C230.046 212.612 223.69 217.399 217.177 221.989ZM217.177 225.481C217.177 226.933 216 228.11 214.549 228.11C213.097 228.11 211.92 226.933 211.92 225.481C211.92 224.029 213.097 222.852 214.549 222.852C216 222.892 217.177 224.069 217.177 225.481ZM202.621 184.834C202.66 184.795 202.739 184.716 202.778 184.677C205.603 180.793 208.467 176.948 211.292 173.064C211.763 173.26 212.312 173.338 212.861 173.338C213.215 173.338 213.528 173.299 213.842 173.221C216.196 180.283 218.943 187.188 222.042 193.937C220.905 194.721 220.159 196.055 220.159 197.546C220.159 197.899 220.198 198.252 220.277 198.566C214.823 200.92 209.016 202.333 203.249 203.706C203.798 197.311 203.563 190.994 202.621 184.834ZM210.193 168.983C210.193 167.532 211.371 166.355 212.822 166.355C214.274 166.355 215.451 167.532 215.451 168.983C215.451 170.435 214.274 171.612 212.822 171.612C211.371 171.612 210.193 170.435 210.193 168.983ZM224.475 194.917C225.927 194.917 227.104 196.094 227.104 197.546C227.104 198.998 225.927 200.175 224.475 200.175C223.023 200.175 221.846 198.998 221.846 197.546C221.846 196.094 223.023 194.917 224.475 194.917ZM219.61 154.31C217.883 157.841 216.118 161.372 214.392 164.903C213.921 164.707 213.371 164.628 212.822 164.628C211.449 164.628 210.233 165.256 209.409 166.276C204.779 164.236 200.11 162.196 195.481 160.116C195.481 160.077 195.481 160.077 195.481 160.038V148.228C197.325 147.915 198.776 146.424 199.051 144.58C202.857 144.815 206.702 145.09 210.507 145.364C213.803 148.071 216.824 151.053 219.61 154.31ZM175.079 129.278C187.32 131.279 198.58 136.144 208.153 143.481C205.093 143.285 202.033 143.049 198.972 142.853C198.462 140.97 196.775 139.597 194.735 139.597C193.676 139.597 192.734 139.95 191.989 140.578C185.79 136.929 179.512 133.359 173.745 129.082C174.176 129.121 174.647 129.2 175.079 129.278ZM193.754 159.175C186.457 146.188 175.393 135.32 161.504 128.297C164.446 128.219 167.428 128.376 170.371 128.65C176.766 133.712 183.867 137.792 190.89 141.912C190.576 142.5 190.38 143.206 190.38 143.913C190.38 145.953 191.793 147.679 193.715 148.15V159.175H193.754ZM192.146 143.952C192.146 142.5 193.323 141.323 194.774 141.323C196.226 141.323 197.403 142.5 197.403 143.952C197.403 145.404 196.226 146.581 194.774 146.581C193.323 146.541 192.146 145.364 192.146 143.952ZM195.206 161.882C199.679 163.844 204.151 165.845 208.624 167.806C208.506 168.199 208.467 168.591 208.467 168.983C208.467 170.2 208.977 171.338 209.801 172.122C207.251 175.575 204.74 179.027 202.19 182.48C200.856 175.3 198.502 168.356 195.206 161.882ZM202.504 209.081C202.66 208.218 202.778 207.316 202.896 206.452C205.328 212.024 208.271 217.32 211.41 222.499C210.664 223.284 210.233 224.343 210.233 225.481C210.233 226.737 210.782 227.874 211.645 228.698C211.606 228.777 211.567 228.816 211.567 228.894C211.449 229.13 211.371 229.326 211.253 229.561C211.017 230.071 210.743 230.621 210.507 231.131C209.997 232.19 209.527 233.21 209.016 234.27C208.153 236.153 207.29 238.036 206.427 239.919C206.074 239.802 205.682 239.762 205.289 239.762C203.367 239.762 201.758 241.018 201.17 242.744C196.815 243.097 192.42 243.176 188.026 243.058C195.324 233.328 200.463 221.754 202.504 209.081ZM207.879 244.157C207.879 245.608 206.702 246.785 205.25 246.785C203.798 246.785 202.621 245.608 202.621 244.157C202.621 242.705 203.798 241.528 205.25 241.528C206.702 241.528 207.879 242.705 207.879 244.157ZM185.986 245.569C185.123 251.023 184.26 256.476 183.396 261.891C183.318 261.891 183.2 261.891 183.122 261.891C181.474 261.891 180.022 262.793 179.316 264.166C175.942 263.068 172.568 261.891 169.233 260.674C175.51 256.516 181.16 251.415 185.986 245.569ZM185.75 266.285C185.75 267.737 184.573 268.914 183.122 268.914C181.67 268.914 180.493 267.737 180.493 266.285C180.493 264.833 181.67 263.656 183.122 263.656C184.573 263.656 185.75 264.833 185.75 266.285ZM167.428 261.851C167.506 261.93 167.585 261.969 167.703 262.008C171.351 263.342 175.079 264.637 178.767 265.853C178.767 266.01 178.727 266.128 178.727 266.285C178.727 266.403 178.727 266.52 178.727 266.638C167.86 268.09 156.952 269.541 146.084 270.954C153.735 268.992 160.915 265.893 167.428 261.851ZM193.676 270.444C180.454 276.447 165.741 278.408 151.106 276.015C147.497 275.427 143.926 274.563 140.474 273.465C153.421 271.738 166.329 270.051 179.277 268.325C180.022 269.698 181.474 270.64 183.122 270.64C184.77 270.64 186.182 269.738 186.927 268.404C188.144 268.757 189.36 269.149 190.576 269.502C191.282 269.698 192.028 269.934 192.734 270.13C193.048 270.208 193.401 270.326 193.715 270.405C193.715 270.405 193.715 270.404 193.676 270.444ZM193.99 268.639C193.676 268.56 193.362 268.443 193.048 268.364C192.342 268.168 191.596 267.972 190.89 267.737C189.752 267.423 188.615 267.07 187.477 266.716C187.477 266.56 187.516 266.403 187.516 266.246C187.516 264.559 186.535 263.068 185.123 262.361C186.025 256.516 186.967 250.63 187.908 244.784C192.263 244.902 196.618 244.824 200.934 244.51C201.052 245.922 201.837 247.099 202.935 247.845C199.953 254.75 197.089 261.734 194.382 268.757C194.225 268.717 194.107 268.678 193.99 268.639ZM206.505 263.028C203.131 265.461 199.6 267.58 195.991 269.384C198.698 262.361 201.523 255.378 204.544 248.472C204.779 248.512 205.015 248.551 205.289 248.551C205.446 248.551 205.603 248.551 205.76 248.512C206.505 252.867 207.486 257.222 208.624 261.498C207.879 262.008 207.212 262.518 206.505 263.028ZM210.076 260.282C209.016 256.202 208.114 252.082 207.408 247.923C208.742 247.178 209.644 245.765 209.644 244.117C209.644 242.744 208.977 241.489 207.957 240.704C208.86 238.742 209.723 236.781 210.664 234.819C211.174 233.72 211.684 232.661 212.194 231.562C212.43 231.052 212.704 230.503 212.94 229.993C212.979 229.875 213.058 229.758 213.136 229.601C213.607 229.758 214.078 229.836 214.588 229.836C215.019 229.836 215.412 229.758 215.804 229.64C218.825 234.544 221.846 239.527 224.475 244.667C220.473 250.513 215.647 255.77 210.076 260.282ZM236.481 214.613C234.793 224.932 231.066 234.544 225.534 243.058C223.023 238.193 220.198 233.524 217.334 228.855C218.315 228.071 218.943 226.854 218.943 225.481C218.943 224.657 218.707 223.912 218.354 223.284C224.789 218.772 231.066 214.025 237.187 209.081C236.991 210.925 236.794 212.769 236.481 214.613ZM237.383 206.256C234.205 204.294 231.145 202.097 228.32 199.665C228.673 199.037 228.869 198.331 228.869 197.546C228.869 196.565 228.555 195.702 228.006 194.957C230.556 192.328 233.185 189.778 235.892 187.345C237.187 193.505 237.697 199.861 237.383 206.256Z" fill="#E0C277"/>
<path d="M141.69 206.649C141.69 206.649 141.69 193.976 149.576 193.583C148.125 193.583 142.867 192.681 141.69 180.479C140.513 192.681 135.256 193.583 133.804 193.583C141.69 193.976 141.69 206.649 141.69 206.649Z" fill="#E0C277"/>
<path d="M152.519 211.239C152.519 211.239 152.519 204.687 156.599 204.491C155.854 204.491 153.147 204.02 152.519 197.703C151.891 204.02 149.184 204.491 148.438 204.491C152.519 204.687 152.519 211.239 152.519 211.239Z" fill="#E0C277"/>
<path d="M115.834 153.564C115.834 153.564 115.834 147.208 119.797 147.012C119.091 147.012 116.423 146.581 115.834 140.46C115.246 146.581 112.617 147.012 111.872 147.012C115.834 147.208 115.834 153.564 115.834 153.564Z" fill="#E0C277"/>
<path d="M85.1926 212.808C85.1926 212.808 85.1926 205.315 89.8615 205.079C88.9983 205.079 85.8988 204.569 85.1926 197.35C84.4864 204.569 81.3868 205.079 80.5237 205.079C85.1533 205.315 85.1926 212.808 85.1926 212.808Z" fill="#E0C277"/>
<path d="M125.957 241.842C125.957 241.842 125.957 238.154 128.272 238.036C127.84 238.036 126.31 237.761 125.957 234.23C125.604 237.801 124.074 238.036 123.642 238.036C125.957 238.154 125.957 241.842 125.957 241.842Z" fill="#E0C277"/>
<path d="M169.115 244.196C169.115 244.196 169.115 240.508 171.43 240.39C170.998 240.39 169.468 240.115 169.115 236.584C168.762 240.155 167.232 240.39 166.8 240.39C169.115 240.508 169.115 244.196 169.115 244.196Z" fill="#E0C277"/>
<path d="M167.153 165.727C167.153 165.727 167.153 162.039 169.468 161.921C169.036 161.921 167.506 161.647 167.153 158.115C166.8 161.686 165.27 161.921 164.838 161.921C167.153 162.039 167.153 165.727 167.153 165.727Z" fill="#E0C277"/>
<path d="M178.923 199.861C178.923 199.861 178.923 196.173 181.238 196.055C180.807 196.055 179.277 195.78 178.923 192.249C178.57 195.82 177.04 196.055 176.609 196.055C178.923 196.173 178.923 199.861 178.923 199.861Z" fill="#E0C277"/>
<path d="M75.7367 159.842C75.7367 159.842 75.7367 156.154 78.0515 156.036C77.62 156.036 76.0898 155.761 75.7367 152.23C75.3836 155.801 73.8535 156.036 73.4219 156.036C75.7367 156.154 75.7367 159.842 75.7367 159.842Z" fill="#E0C277"/>
<path d="M93.7846 259.497C93.7846 259.497 93.7846 255.809 96.0994 255.692C95.6678 255.692 94.1377 255.417 93.7846 251.886C93.4315 255.456 91.9013 255.692 91.4697 255.692C93.7846 255.809 93.7846 259.497 93.7846 259.497Z" fill="#E0C277"/>
</svg>
